<?xml version="1.0" encoding="utf-8" standalone="no"?>
<!DOCTYPE svg PUBLIC "-//W3C//DTD SVG 1.1//EN"
  "http://www.w3.org/Graphics/SVG/1.1/DTD/svg11.dtd">
<svg xmlns:xlink="http://www.w3.org/1999/xlink" width="432pt" height="648pt" viewBox="0 0 432 648" xmlns="http://www.w3.org/2000/svg" version="1.1">
 <metadata>
  <rdf:RDF xmlns:dc="http://purl.org/dc/elements/1.1/" xmlns:cc="http://creativecommons.org/ns#" xmlns:rdf="http://www.w3.org/1999/02/22-rdf-syntax-ns#">
   <cc:Work>
    <dc:type rdf:resource="http://purl.org/dc/dcmitype/StillImage"/>
    <dc:date>2024-01-03T17:34:40.795960</dc:date>
    <dc:format>image/svg+xml</dc:format>
    <dc:creator>
     <cc:Agent>
      <dc:title>Matplotlib v3.8.0, https://matplotlib.org/</dc:title>
     </cc:Agent>
    </dc:creator>
   </cc:Work>
  </rdf:RDF>
 </metadata>
 <defs>
  <style type="text/css">*{stroke-linejoin: round; stroke-linecap: butt}</style>
 </defs>
 <g id="figure_1">
  <g id="patch_1">
   <path d="M 0 648 
L 432 648 
L 432 0 
L 0 0 
z
" style="fill: #ffffff"/>
  </g>
  <g id="axes_1">
   <g id="patch_2">
    <path d="M 54 304.56 
L 388.8 304.56 
L 388.8 77.76 
L 54 77.76 
z
" style="fill: #ffffff"/>
   </g>
   <g id="PathCollection_1">
    <defs>
     <path id="mddc3769e95" d="M 0 3 
C 0.795609 3 1.55874 2.683901 2.12132 2.12132 
C 2.683901 1.55874 3 0.795609 3 0 
C 3 -0.795609 2.683901 -1.55874 2.12132 -2.12132 
C 1.55874 -2.683901 0.795609 -3 0 -3 
C -0.795609 -3 -1.55874 -2.683901 -2.12132 -2.12132 
C -2.683901 -1.55874 -3 -0.795609 -3 0 
C -3 0.795609 -2.683901 1.55874 -2.12132 2.12132 
C -1.55874 2.683901 -0.795609 3 0 3 
z
" style="stroke: #ff0000"/>
    </defs>
    <g clip-path="url(#peef45b7571)">
     <use xlink:href="#mddc3769e95" x="54" y="171.237836" style="fill: #ff0000; stroke: #ff0000"/>
     <use xlink:href="#mddc3769e95" x="63.818182" y="165.297879" style="fill: #ff0000; stroke: #ff0000"/>
     <use xlink:href="#mddc3769e95" x="73.636364" y="159.164143" style="fill: #ff0000; stroke: #ff0000"/>
     <use xlink:href="#mddc3769e95" x="83.454545" y="152.68914" style="fill: #ff0000; stroke: #ff0000"/>
     <use xlink:href="#mddc3769e95" x="93.272727" y="145.483452" style="fill: #ff0000; stroke: #ff0000"/>
     <use xlink:href="#mddc3769e95" x="103.090909" y="138.016689" style="fill: #ff0000; stroke: #ff0000"/>
     <use xlink:href="#mddc3769e95" x="112.909091" y="129.763604" style="fill: #ff0000; stroke: #ff0000"/>
     <use xlink:href="#mddc3769e95" x="122.727273" y="125.303135" style="fill: #ff0000; stroke: #ff0000"/>
     <use xlink:href="#mddc3769e95" x="132.545455" y="143.021067" style="fill: #ff0000; stroke: #ff0000"/>
     <use xlink:href="#mddc3769e95" x="142.363636" y="157.508951" style="fill: #ff0000; stroke: #ff0000"/>
     <use xlink:href="#mddc3769e95" x="152.181818" y="167.066969" style="fill: #ff0000; stroke: #ff0000"/>
     <use xlink:href="#mddc3769e95" x="162" y="168.883335" style="fill: #ff0000; stroke: #ff0000"/>
     <use xlink:href="#mddc3769e95" x="171.818182" y="176.048057" style="fill: #ff0000; stroke: #ff0000"/>
     <use xlink:href="#mddc3769e95" x="181.636364" y="176.518231" style="fill: #ff0000; stroke: #ff0000"/>
     <use xlink:href="#mddc3769e95" x="191.454545" y="173.524282" style="fill: #ff0000; stroke: #ff0000"/>
     <use xlink:href="#mddc3769e95" x="201.272727" y="167.830888" style="fill: #ff0000; stroke: #ff0000"/>
     <use xlink:href="#mddc3769e95" x="211.090909" y="166.787506" style="fill: #ff0000; stroke: #ff0000"/>
     <use xlink:href="#mddc3769e95" x="220.909091" y="157.431524" style="fill: #ff0000; stroke: #ff0000"/>
     <use xlink:href="#mddc3769e95" x="230.727273" y="149.737411" style="fill: #ff0000; stroke: #ff0000"/>
     <use xlink:href="#mddc3769e95" x="240.545455" y="142.852948" style="fill: #ff0000; stroke: #ff0000"/>
     <use xlink:href="#mddc3769e95" x="250.363636" y="135.436982" style="fill: #ff0000; stroke: #ff0000"/>
     <use xlink:href="#mddc3769e95" x="260.181818" y="133.778083" style="fill: #ff0000; stroke: #ff0000"/>
     <use xlink:href="#mddc3769e95" x="270" y="138.768565" style="fill: #ff0000; stroke: #ff0000"/>
     <use xlink:href="#mddc3769e95" x="279.818182" y="133.477842" style="fill: #ff0000; stroke: #ff0000"/>
     <use xlink:href="#mddc3769e95" x="289.636364" y="141.087273" style="fill: #ff0000; stroke: #ff0000"/>
     <use xlink:href="#mddc3769e95" x="299.454545" y="164.705999" style="fill: #ff0000; stroke: #ff0000"/>
     <use xlink:href="#mddc3769e95" x="309.272727" y="160.724939" style="fill: #ff0000; stroke: #ff0000"/>
     <use xlink:href="#mddc3769e95" x="319.090909" y="153.667161" style="fill: #ff0000; stroke: #ff0000"/>
     <use xlink:href="#mddc3769e95" x="328.909091" y="148.846567" style="fill: #ff0000; stroke: #ff0000"/>
     <use xlink:href="#mddc3769e95" x="338.727273" y="144.557706" style="fill: #ff0000; stroke: #ff0000"/>
     <use xlink:href="#mddc3769e95" x="348.545455" y="139.886733" style="fill: #ff0000; stroke: #ff0000"/>
     <use xlink:href="#mddc3769e95" x="358.363636" y="135.221668" style="fill: #ff0000; stroke: #ff0000"/>
     <use xlink:href="#mddc3769e95" x="368.181818" y="130.384746" style="fill: #ff0000; stroke: #ff0000"/>
     <use xlink:href="#mddc3769e95" x="378" y="124.831698" style="fill: #ff0000; stroke: #ff0000"/>
    </g>
   </g>
   <g id="PathCollection_2">
    <defs>
     <path id="m2bd95aac86" d="M 0 3 
C 0.795609 3 1.55874 2.683901 2.12132 2.12132 
C 2.683901 1.55874 3 0.795609 3 0 
C 3 -0.795609 2.683901 -1.55874 2.12132 -2.12132 
C 1.55874 -2.683901 0.795609 -3 0 -3 
C -0.795609 -3 -1.55874 -2.683901 -2.12132 -2.12132 
C -2.683901 -1.55874 -3 -0.795609 -3 0 
C -3 0.795609 -2.683901 1.55874 -2.12132 2.12132 
C -1.55874 2.683901 -0.795609 3 0 3 
z
" style="stroke: #0000ff"/>
    </defs>
    <g clip-path="url(#peef45b7571)">
     <use xlink:href="#m2bd95aac86" x="54" y="196.412514" style="fill: #0000ff; stroke: #0000ff"/>
     <use xlink:href="#m2bd95aac86" x="63.818182" y="195.164498" style="fill: #0000ff; stroke: #0000ff"/>
     <use xlink:href="#m2bd95aac86" x="73.636364" y="195.786289" style="fill: #0000ff; stroke: #0000ff"/>
     <use xlink:href="#m2bd95aac86" x="83.454545" y="196.341163" style="fill: #0000ff; stroke: #0000ff"/>
     <use xlink:href="#m2bd95aac86" x="93.272727" y="196.084838" style="fill: #0000ff; stroke: #0000ff"/>
     <use xlink:href="#m2bd95aac86" x="103.090909" y="191.331892" style="fill: #0000ff; stroke: #0000ff"/>
     <use xlink:href="#m2bd95aac86" x="112.909091" y="154.539287" style="fill: #0000ff; stroke: #0000ff"/>
     <use xlink:href="#m2bd95aac86" x="122.727273" y="122.407184" style="fill: #0000ff; stroke: #0000ff"/>
     <use xlink:href="#m2bd95aac86" x="132.545455" y="122.527059" style="fill: #0000ff; stroke: #0000ff"/>
     <use xlink:href="#m2bd95aac86" x="142.363636" y="135.469091" style="fill: #0000ff; stroke: #0000ff"/>
     <use xlink:href="#m2bd95aac86" x="152.181818" y="145.879481" style="fill: #0000ff; stroke: #0000ff"/>
     <use xlink:href="#m2bd95aac86" x="162" y="148.280727" style="fill: #0000ff; stroke: #0000ff"/>
     <use xlink:href="#m2bd95aac86" x="171.818182" y="167.687273" style="fill: #0000ff; stroke: #0000ff"/>
     <use xlink:href="#m2bd95aac86" x="181.636364" y="176.350909" style="fill: #0000ff; stroke: #0000ff"/>
     <use xlink:href="#m2bd95aac86" x="191.454545" y="181.026234" style="fill: #0000ff; stroke: #0000ff"/>
     <use xlink:href="#m2bd95aac86" x="201.272727" y="178.396364" style="fill: #0000ff; stroke: #0000ff"/>
     <use xlink:href="#m2bd95aac86" x="211.090909" y="170.255455" style="fill: #0000ff; stroke: #0000ff"/>
     <use xlink:href="#m2bd95aac86" x="220.909091" y="182.421818" style="fill: #0000ff; stroke: #0000ff"/>
     <use xlink:href="#m2bd95aac86" x="230.727273" y="179.476364" style="fill: #0000ff; stroke: #0000ff"/>
     <use xlink:href="#m2bd95aac86" x="240.545455" y="179.476364" style="fill: #0000ff; stroke: #0000ff"/>
     <use xlink:href="#m2bd95aac86" x="250.363636" y="151.641818" style="fill: #0000ff; stroke: #0000ff"/>
     <use xlink:href="#m2bd95aac86" x="260.181818" y="137.896364" style="fill: #0000ff; stroke: #0000ff"/>
     <use xlink:href="#m2bd95aac86" x="270" y="132.741818" style="fill: #0000ff; stroke: #0000ff"/>
     <use xlink:href="#m2bd95aac86" x="279.818182" y="132.741818" style="fill: #0000ff; stroke: #0000ff"/>
     <use xlink:href="#m2bd95aac86" x="289.636364" y="98.378182" style="fill: #0000ff; stroke: #0000ff"/>
     <use xlink:href="#m2bd95aac86" x="299.454545" y="98.378182" style="fill: #0000ff; stroke: #0000ff"/>
     <use xlink:href="#m2bd95aac86" x="309.272727" y="98.378182" style="fill: #0000ff; stroke: #0000ff"/>
     <use xlink:href="#m2bd95aac86" x="319.090909" y="98.378182" style="fill: #0000ff; stroke: #0000ff"/>
     <use xlink:href="#m2bd95aac86" x="328.909091" y="98.378182" style="fill: #0000ff; stroke: #0000ff"/>
     <use xlink:href="#m2bd95aac86" x="338.727273" y="98.378182" style="fill: #0000ff; stroke: #0000ff"/>
     <use xlink:href="#m2bd95aac86" x="348.545455" y="98.378182" style="fill: #0000ff; stroke: #0000ff"/>
     <use xlink:href="#m2bd95aac86" x="358.363636" y="98.378182" style="fill: #0000ff; stroke: #0000ff"/>
     <use xlink:href="#m2bd95aac86" x="368.181818" y="98.378182" style="fill: #0000ff; stroke: #0000ff"/>
     <use xlink:href="#m2bd95aac86" x="378" y="98.378182" style="fill: #0000ff; stroke: #0000ff"/>
    </g>
   </g>
   <g id="PolyCollection_1">
    <defs>
     <path id="mb4456b5ce5" d="M 54 -499.581903 
L 54 -453.942425 
L 63.818182 -459.05809 
L 73.636364 -464.307017 
L 83.454545 -469.750198 
L 93.272727 -475.730258 
L 103.090909 -482.030294 
L 112.909091 -488.880225 
L 122.727273 -491.139083 
L 132.545455 -468.452022 
L 142.363636 -452.998402 
L 152.181818 -445.91596 
L 162 -447.945162 
L 171.818182 -448.68928 
L 181.636364 -451.840877 
L 191.454545 -453.736984 
L 201.272727 -459.02041 
L 211.090909 -460.075335 
L 220.909091 -469.520762 
L 230.727273 -476.710074 
L 240.545455 -482.170536 
L 250.363636 -488.07711 
L 260.181818 -488.495362 
L 270 -480.131682 
L 279.818182 -485.204891 
L 289.636364 -465.25771 
L 299.454545 -483.294001 
L 309.272727 -487.275061 
L 319.090909 -494.332839 
L 328.909091 -499.153433 
L 338.727273 -503.442294 
L 348.545455 -508.113267 
L 358.363636 -512.778332 
L 368.181818 -517.615254 
L 378 -523.168302 
L 378 -523.168302 
L 378 -523.168302 
L 368.181818 -517.615254 
L 358.363636 -512.778332 
L 348.545455 -508.113267 
L 338.727273 -503.442294 
L 328.909091 -499.153433 
L 319.090909 -494.332839 
L 309.272727 -487.275061 
L 299.454545 -483.294001 
L 289.636364 -548.567745 
L 279.818182 -543.839425 
L 270 -538.331187 
L 260.181818 -539.948473 
L 250.363636 -537.048926 
L 240.545455 -528.123568 
L 230.727273 -519.815104 
L 220.909091 -511.616189 
L 211.090909 -502.349653 
L 201.272727 -501.317814 
L 191.454545 -495.214452 
L 181.636364 -491.122661 
L 171.818182 -495.214605 
L 162 -510.288168 
L 152.181818 -515.950101 
L 142.363636 -527.983696 
L 132.545455 -541.505844 
L 122.727273 -554.254647 
L 112.909091 -547.592568 
L 103.090909 -537.936328 
L 93.272727 -529.302838 
L 83.454545 -520.871522 
L 73.636364 -513.364698 
L 63.818182 -506.346153 
L 54 -499.581903 
z
" style="stroke: #ff0000; stroke-opacity: 0.2"/>
    </defs>
    <g clip-path="url(#peef45b7571)">
     <use xlink:href="#mb4456b5ce5" x="0" y="648" style="fill: #ff0000; fill-opacity: 0.2; stroke: #ff0000; stroke-opacity: 0.2"/>
    </g>
   </g>
   <g id="PolyCollection_2">
    <defs>
     <path id="mbcaecbe23a" d="M 54 -494.661323 
L 54 -408.513648 
L 63.818182 -408.978094 
L 73.636364 -408.316632 
L 83.454545 -408.524014 
L 93.272727 -408.793494 
L 103.090909 -412.973374 
L 112.909091 -444.478301 
L 122.727273 -480.699675 
L 132.545455 -475.649738 
L 142.363636 -453.436946 
L 152.181818 -438.097478 
L 162 -433.641116 
L 171.818182 -411.464708 
L 181.636364 -403.447229 
L 191.454545 -398.525257 
L 201.272727 -402.353639 
L 211.090909 -420.571612 
L 220.909091 -412.318228 
L 230.727273 -411.246327 
L 240.545455 -411.246327 
L 250.363636 -444.844555 
L 260.181818 -460.035722 
L 270 -466.660661 
L 279.818182 -466.660661 
L 289.636364 -549.621818 
L 299.454545 -549.621818 
L 309.272727 -549.621818 
L 319.090909 -549.621818 
L 328.909091 -549.621818 
L 338.727273 -549.621818 
L 348.545455 -549.621818 
L 358.363636 -549.621818 
L 368.181818 -549.621818 
L 378 -549.621818 
L 378 -549.621818 
L 378 -549.621818 
L 368.181818 -549.621818 
L 358.363636 -549.621818 
L 348.545455 -549.621818 
L 338.727273 -549.621818 
L 328.909091 -549.621818 
L 319.090909 -549.621818 
L 309.272727 -549.621818 
L 299.454545 -549.621818 
L 289.636364 -549.621818 
L 279.818182 -563.855702 
L 270 -563.855702 
L 260.181818 -560.171551 
L 250.363636 -547.871808 
L 240.545455 -525.800945 
L 230.727273 -525.800945 
L 220.909091 -518.838136 
L 211.090909 -534.917479 
L 201.272727 -536.853634 
L 191.454545 -535.422276 
L 181.636364 -539.850953 
L 171.818182 -549.160747 
L 162 -565.79743 
L 152.181818 -566.143561 
L 142.363636 -571.624873 
L 132.545455 -575.296144 
L 122.727273 -570.485956 
L 112.909091 -542.443126 
L 103.090909 -500.362842 
L 93.272727 -495.036829 
L 83.454545 -494.793661 
L 73.636364 -496.110791 
L 63.818182 -496.692911 
L 54 -494.661323 
z
" style="stroke: #0000ff; stroke-opacity: 0.2"/>
    </defs>
    <g clip-path="url(#peef45b7571)">
     <use xlink:href="#mbcaecbe23a" x="0" y="648" style="fill: #0000ff; fill-opacity: 0.2; stroke: #0000ff; stroke-opacity: 0.2"/>
    </g>
   </g>
   <g id="matplotlib.axis_1">
    <g id="xtick_1">
     <g id="line2d_1">
      <path d="M 54 304.56 
L 54 77.76 
" clip-path="url(#peef45b7571)" style="fill: none; stroke: #b0b0b0; stroke-width: 0.8; stroke-linecap: square"/>
     </g>
     <g id="line2d_2">
      <defs>
       <path id="m97cabd13c1" d="M 0 0 
L 0 3.5 
" style="stroke: #000000; stroke-width: 0.8"/>
      </defs>
      <g>
       <use xlink:href="#m97cabd13c1" x="54" y="304.56" style="stroke: #000000; stroke-width: 0.8"/>
      </g>
     </g>
     <g id="text_1">
      <!-- 0 -->
      <g transform="translate(50.81875 319.158437) scale(0.1 -0.1)">
       <defs>
        <path id="DejaVuSans-30" d="M 2034 4250 
Q 1547 4250 1301 3770 
Q 1056 3291 1056 2328 
Q 1056 1369 1301 889 
Q 1547 409 2034 409 
Q 2525 409 2770 889 
Q 3016 1369 3016 2328 
Q 3016 3291 2770 3770 
Q 2525 4250 2034 4250 
z
M 2034 4750 
Q 2819 4750 3233 4129 
Q 3647 3509 3647 2328 
Q 3647 1150 3233 529 
Q 2819 -91 2034 -91 
Q 1250 -91 836 529 
Q 422 1150 422 2328 
Q 422 3509 836 4129 
Q 1250 4750 2034 4750 
z
" transform="scale(0.015625)"/>
       </defs>
       <use xlink:href="#DejaVuSans-30"/>
      </g>
     </g>
    </g>
    <g id="xtick_2">
     <g id="line2d_3">
      <path d="M 103.090909 304.56 
L 103.090909 77.76 
" clip-path="url(#peef45b7571)" style="fill: none; stroke: #b0b0b0; stroke-width: 0.8; stroke-linecap: square"/>
     </g>
     <g id="line2d_4">
      <g>
       <use xlink:href="#m97cabd13c1" x="103.090909" y="304.56" style="stroke: #000000; stroke-width: 0.8"/>
      </g>
     </g>
     <g id="text_2">
      <!-- 5 -->
      <g transform="translate(99.909659 319.158437) scale(0.1 -0.1)">
       <defs>
        <path id="DejaVuSans-35" d="M 691 4666 
L 3169 4666 
L 3169 4134 
L 1269 4134 
L 1269 2991 
Q 1406 3038 1543 3061 
Q 1681 3084 1819 3084 
Q 2600 3084 3056 2656 
Q 3513 2228 3513 1497 
Q 3513 744 3044 326 
Q 2575 -91 1722 -91 
Q 1428 -91 1123 -41 
Q 819 9 494 109 
L 494 744 
Q 775 591 1075 516 
Q 1375 441 1709 441 
Q 2250 441 2565 725 
Q 2881 1009 2881 1497 
Q 2881 1984 2565 2268 
Q 2250 2553 1709 2553 
Q 1456 2553 1204 2497 
Q 953 2441 691 2322 
L 691 4666 
z
" transform="scale(0.015625)"/>
       </defs>
       <use xlink:href="#DejaVuSans-35"/>
      </g>
     </g>
    </g>
    <g id="xtick_3">
     <g id="line2d_5">
      <path d="M 152.181818 304.56 
L 152.181818 77.76 
" clip-path="url(#peef45b7571)" style="fill: none; stroke: #b0b0b0; stroke-width: 0.8; stroke-linecap: square"/>
     </g>
     <g id="line2d_6">
      <g>
       <use xlink:href="#m97cabd13c1" x="152.181818" y="304.56" style="stroke: #000000; stroke-width: 0.8"/>
      </g>
     </g>
     <g id="text_3">
      <!-- 10 -->
      <g transform="translate(145.819318 319.158437) scale(0.1 -0.1)">
       <defs>
        <path id="DejaVuSans-31" d="M 794 531 
L 1825 531 
L 1825 4091 
L 703 3866 
L 703 4441 
L 1819 4666 
L 2450 4666 
L 2450 531 
L 3481 531 
L 3481 0 
L 794 0 
L 794 531 
z
" transform="scale(0.015625)"/>
       </defs>
       <use xlink:href="#DejaVuSans-31"/>
       <use xlink:href="#DejaVuSans-30" x="63.623047"/>
      </g>
     </g>
    </g>
    <g id="xtick_4">
     <g id="line2d_7">
      <path d="M 201.272727 304.56 
L 201.272727 77.76 
" clip-path="url(#peef45b7571)" style="fill: none; stroke: #b0b0b0; stroke-width: 0.8; stroke-linecap: square"/>
     </g>
     <g id="line2d_8">
      <g>
       <use xlink:href="#m97cabd13c1" x="201.272727" y="304.56" style="stroke: #000000; stroke-width: 0.8"/>
      </g>
     </g>
     <g id="text_4">
      <!-- 15 -->
      <g transform="translate(194.910227 319.158437) scale(0.1 -0.1)">
       <use xlink:href="#DejaVuSans-31"/>
       <use xlink:href="#DejaVuSans-35" x="63.623047"/>
      </g>
     </g>
    </g>
    <g id="xtick_5">
     <g id="line2d_9">
      <path d="M 250.363636 304.56 
L 250.363636 77.76 
" clip-path="url(#peef45b7571)" style="fill: none; stroke: #b0b0b0; stroke-width: 0.8; stroke-linecap: square"/>
     </g>
     <g id="line2d_10">
      <g>
       <use xlink:href="#m97cabd13c1" x="250.363636" y="304.56" style="stroke: #000000; stroke-width: 0.8"/>
      </g>
     </g>
     <g id="text_5">
      <!-- 20 -->
      <g transform="translate(244.001136 319.158437) scale(0.1 -0.1)">
       <defs>
        <path id="DejaVuSans-32" d="M 1228 531 
L 3431 531 
L 3431 0 
L 469 0 
L 469 531 
Q 828 903 1448 1529 
Q 2069 2156 2228 2338 
Q 2531 2678 2651 2914 
Q 2772 3150 2772 3378 
Q 2772 3750 2511 3984 
Q 2250 4219 1831 4219 
Q 1534 4219 1204 4116 
Q 875 4013 500 3803 
L 500 4441 
Q 881 4594 1212 4672 
Q 1544 4750 1819 4750 
Q 2544 4750 2975 4387 
Q 3406 4025 3406 3419 
Q 3406 3131 3298 2873 
Q 3191 2616 2906 2266 
Q 2828 2175 2409 1742 
Q 1991 1309 1228 531 
z
" transform="scale(0.015625)"/>
       </defs>
       <use xlink:href="#DejaVuSans-32"/>
       <use xlink:href="#DejaVuSans-30" x="63.623047"/>
      </g>
     </g>
    </g>
    <g id="xtick_6">
     <g id="line2d_11">
      <path d="M 299.454545 304.56 
L 299.454545 77.76 
" clip-path="url(#peef45b7571)" style="fill: none; stroke: #b0b0b0; stroke-width: 0.8; stroke-linecap: square"/>
     </g>
     <g id="line2d_12">
      <g>
       <use xlink:href="#m97cabd13c1" x="299.454545" y="304.56" style="stroke: #000000; stroke-width: 0.8"/>
      </g>
     </g>
     <g id="text_6">
      <!-- 25 -->
      <g transform="translate(293.092045 319.158437) scale(0.1 -0.1)">
       <use xlink:href="#DejaVuSans-32"/>
       <use xlink:href="#DejaVuSans-35" x="63.623047"/>
      </g>
     </g>
    </g>
    <g id="xtick_7">
     <g id="line2d_13">
      <path d="M 348.545455 304.56 
L 348.545455 77.76 
" clip-path="url(#peef45b7571)" style="fill: none; stroke: #b0b0b0; stroke-width: 0.8; stroke-linecap: square"/>
     </g>
     <g id="line2d_14">
      <g>
       <use xlink:href="#m97cabd13c1" x="348.545455" y="304.56" style="stroke: #000000; stroke-width: 0.8"/>
      </g>
     </g>
     <g id="text_7">
      <!-- 30 -->
      <g transform="translate(342.182955 319.158437) scale(0.1 -0.1)">
       <defs>
        <path id="DejaVuSans-33" d="M 2597 2516 
Q 3050 2419 3304 2112 
Q 3559 1806 3559 1356 
Q 3559 666 3084 287 
Q 2609 -91 1734 -91 
Q 1441 -91 1130 -33 
Q 819 25 488 141 
L 488 750 
Q 750 597 1062 519 
Q 1375 441 1716 441 
Q 2309 441 2620 675 
Q 2931 909 2931 1356 
Q 2931 1769 2642 2001 
Q 2353 2234 1838 2234 
L 1294 2234 
L 1294 2753 
L 1863 2753 
Q 2328 2753 2575 2939 
Q 2822 3125 2822 3475 
Q 2822 3834 2567 4026 
Q 2313 4219 1838 4219 
Q 1578 4219 1281 4162 
Q 984 4106 628 3988 
L 628 4550 
Q 988 4650 1302 4700 
Q 1616 4750 1894 4750 
Q 2613 4750 3031 4423 
Q 3450 4097 3450 3541 
Q 3450 3153 3228 2886 
Q 3006 2619 2597 2516 
z
" transform="scale(0.015625)"/>
       </defs>
       <use xlink:href="#DejaVuSans-33"/>
       <use xlink:href="#DejaVuSans-30" x="63.623047"/>
      </g>
     </g>
    </g>
    <g id="text_8">
     <!-- Number of Box -->
     <g transform="translate(165.335156 336.635781) scale(0.15 -0.15)">
      <defs>
       <path id="DejaVuSans-4e" d="M 628 4666 
L 1478 4666 
L 3547 763 
L 3547 4666 
L 4159 4666 
L 4159 0 
L 3309 0 
L 1241 3903 
L 1241 0 
L 628 0 
L 628 4666 
z
" transform="scale(0.015625)"/>
       <path id="DejaVuSans-75" d="M 544 1381 
L 544 3500 
L 1119 3500 
L 1119 1403 
Q 1119 906 1312 657 
Q 1506 409 1894 409 
Q 2359 409 2629 706 
Q 2900 1003 2900 1516 
L 2900 3500 
L 3475 3500 
L 3475 0 
L 2900 0 
L 2900 538 
Q 2691 219 2414 64 
Q 2138 -91 1772 -91 
Q 1169 -91 856 284 
Q 544 659 544 1381 
z
M 1991 3584 
L 1991 3584 
z
" transform="scale(0.015625)"/>
       <path id="DejaVuSans-6d" d="M 3328 2828 
Q 3544 3216 3844 3400 
Q 4144 3584 4550 3584 
Q 5097 3584 5394 3201 
Q 5691 2819 5691 2113 
L 5691 0 
L 5113 0 
L 5113 2094 
Q 5113 2597 4934 2840 
Q 4756 3084 4391 3084 
Q 3944 3084 3684 2787 
Q 3425 2491 3425 1978 
L 3425 0 
L 2847 0 
L 2847 2094 
Q 2847 2600 2669 2842 
Q 2491 3084 2119 3084 
Q 1678 3084 1418 2786 
Q 1159 2488 1159 1978 
L 1159 0 
L 581 0 
L 581 3500 
L 1159 3500 
L 1159 2956 
Q 1356 3278 1631 3431 
Q 1906 3584 2284 3584 
Q 2666 3584 2933 3390 
Q 3200 3197 3328 2828 
z
" transform="scale(0.015625)"/>
       <path id="DejaVuSans-62" d="M 3116 1747 
Q 3116 2381 2855 2742 
Q 2594 3103 2138 3103 
Q 1681 3103 1420 2742 
Q 1159 2381 1159 1747 
Q 1159 1113 1420 752 
Q 1681 391 2138 391 
Q 2594 391 2855 752 
Q 3116 1113 3116 1747 
z
M 1159 2969 
Q 1341 3281 1617 3432 
Q 1894 3584 2278 3584 
Q 2916 3584 3314 3078 
Q 3713 2572 3713 1747 
Q 3713 922 3314 415 
Q 2916 -91 2278 -91 
Q 1894 -91 1617 61 
Q 1341 213 1159 525 
L 1159 0 
L 581 0 
L 581 4863 
L 1159 4863 
L 1159 2969 
z
" transform="scale(0.015625)"/>
       <path id="DejaVuSans-65" d="M 3597 1894 
L 3597 1613 
L 953 1613 
Q 991 1019 1311 708 
Q 1631 397 2203 397 
Q 2534 397 2845 478 
Q 3156 559 3463 722 
L 3463 178 
Q 3153 47 2828 -22 
Q 2503 -91 2169 -91 
Q 1331 -91 842 396 
Q 353 884 353 1716 
Q 353 2575 817 3079 
Q 1281 3584 2069 3584 
Q 2775 3584 3186 3129 
Q 3597 2675 3597 1894 
z
M 3022 2063 
Q 3016 2534 2758 2815 
Q 2500 3097 2075 3097 
Q 1594 3097 1305 2825 
Q 1016 2553 972 2059 
L 3022 2063 
z
" transform="scale(0.015625)"/>
       <path id="DejaVuSans-72" d="M 2631 2963 
Q 2534 3019 2420 3045 
Q 2306 3072 2169 3072 
Q 1681 3072 1420 2755 
Q 1159 2438 1159 1844 
L 1159 0 
L 581 0 
L 581 3500 
L 1159 3500 
L 1159 2956 
Q 1341 3275 1631 3429 
Q 1922 3584 2338 3584 
Q 2397 3584 2469 3576 
Q 2541 3569 2628 3553 
L 2631 2963 
z
" transform="scale(0.015625)"/>
       <path id="DejaVuSans-20" transform="scale(0.015625)"/>
       <path id="DejaVuSans-6f" d="M 1959 3097 
Q 1497 3097 1228 2736 
Q 959 2375 959 1747 
Q 959 1119 1226 758 
Q 1494 397 1959 397 
Q 2419 397 2687 759 
Q 2956 1122 2956 1747 
Q 2956 2369 2687 2733 
Q 2419 3097 1959 3097 
z
M 1959 3584 
Q 2709 3584 3137 3096 
Q 3566 2609 3566 1747 
Q 3566 888 3137 398 
Q 2709 -91 1959 -91 
Q 1206 -91 779 398 
Q 353 888 353 1747 
Q 353 2609 779 3096 
Q 1206 3584 1959 3584 
z
" transform="scale(0.015625)"/>
       <path id="DejaVuSans-66" d="M 2375 4863 
L 2375 4384 
L 1825 4384 
Q 1516 4384 1395 4259 
Q 1275 4134 1275 3809 
L 1275 3500 
L 2222 3500 
L 2222 3053 
L 1275 3053 
L 1275 0 
L 697 0 
L 697 3053 
L 147 3053 
L 147 3500 
L 697 3500 
L 697 3744 
Q 697 4328 969 4595 
Q 1241 4863 1831 4863 
L 2375 4863 
z
" transform="scale(0.015625)"/>
       <path id="DejaVuSans-42" d="M 1259 2228 
L 1259 519 
L 2272 519 
Q 2781 519 3026 730 
Q 3272 941 3272 1375 
Q 3272 1813 3026 2020 
Q 2781 2228 2272 2228 
L 1259 2228 
z
M 1259 4147 
L 1259 2741 
L 2194 2741 
Q 2656 2741 2882 2914 
Q 3109 3088 3109 3444 
Q 3109 3797 2882 3972 
Q 2656 4147 2194 4147 
L 1259 4147 
z
M 628 4666 
L 2241 4666 
Q 2963 4666 3353 4366 
Q 3744 4066 3744 3513 
Q 3744 3084 3544 2831 
Q 3344 2578 2956 2516 
Q 3422 2416 3680 2098 
Q 3938 1781 3938 1306 
Q 3938 681 3513 340 
Q 3088 0 2303 0 
L 628 0 
L 628 4666 
z
" transform="scale(0.015625)"/>
       <path id="DejaVuSans-78" d="M 3513 3500 
L 2247 1797 
L 3578 0 
L 2900 0 
L 1881 1375 
L 863 0 
L 184 0 
L 1544 1831 
L 300 3500 
L 978 3500 
L 1906 2253 
L 2834 3500 
L 3513 3500 
z
" transform="scale(0.015625)"/>
      </defs>
      <use xlink:href="#DejaVuSans-4e"/>
      <use xlink:href="#DejaVuSans-75" x="74.804688"/>
      <use xlink:href="#DejaVuSans-6d" x="138.183594"/>
      <use xlink:href="#DejaVuSans-62" x="235.595703"/>
      <use xlink:href="#DejaVuSans-65" x="299.072266"/>
      <use xlink:href="#DejaVuSans-72" x="360.595703"/>
      <use xlink:href="#DejaVuSans-20" x="401.708984"/>
      <use xlink:href="#DejaVuSans-6f" x="433.496094"/>
      <use xlink:href="#DejaVuSans-66" x="494.677734"/>
      <use xlink:href="#DejaVuSans-20" x="529.882812"/>
      <use xlink:href="#DejaVuSans-42" x="561.669922"/>
      <use xlink:href="#DejaVuSans-6f" x="630.273438"/>
      <use xlink:href="#DejaVuSans-78" x="688.330078"/>
     </g>
    </g>
   </g>
   <g id="matplotlib.axis_2">
    <g id="ytick_1">
     <g id="line2d_15">
      <path d="M 54 304.56 
L 388.8 304.56 
" clip-path="url(#peef45b7571)" style="fill: none; stroke: #b0b0b0; stroke-width: 0.8; stroke-linecap: square"/>
     </g>
     <g id="line2d_16">
      <defs>
       <path id="me5789ad8ef" d="M 0 0 
L -3.5 0 
" style="stroke: #000000; stroke-width: 0.8"/>
      </defs>
      <g>
       <use xlink:href="#me5789ad8ef" x="54" y="304.56" style="stroke: #000000; stroke-width: 0.8"/>
      </g>
     </g>
     <g id="text_9">
      <!-- 0.0 -->
      <g transform="translate(31.096875 308.359219) scale(0.1 -0.1)">
       <defs>
        <path id="DejaVuSans-2e" d="M 684 794 
L 1344 794 
L 1344 0 
L 684 0 
L 684 794 
z
" transform="scale(0.015625)"/>
       </defs>
       <use xlink:href="#DejaVuSans-30"/>
       <use xlink:href="#DejaVuSans-2e" x="63.623047"/>
       <use xlink:href="#DejaVuSans-30" x="95.410156"/>
      </g>
     </g>
    </g>
    <g id="ytick_2">
     <g id="line2d_17">
      <path d="M 54 263.323636 
L 388.8 263.323636 
" clip-path="url(#peef45b7571)" style="fill: none; stroke: #b0b0b0; stroke-width: 0.8; stroke-linecap: square"/>
     </g>
     <g id="line2d_18">
      <g>
       <use xlink:href="#me5789ad8ef" x="54" y="263.323636" style="stroke: #000000; stroke-width: 0.8"/>
      </g>
     </g>
     <g id="text_10">
      <!-- 0.2 -->
      <g transform="translate(31.096875 267.122855) scale(0.1 -0.1)">
       <use xlink:href="#DejaVuSans-30"/>
       <use xlink:href="#DejaVuSans-2e" x="63.623047"/>
       <use xlink:href="#DejaVuSans-32" x="95.410156"/>
      </g>
     </g>
    </g>
    <g id="ytick_3">
     <g id="line2d_19">
      <path d="M 54 222.087273 
L 388.8 222.087273 
" clip-path="url(#peef45b7571)" style="fill: none; stroke: #b0b0b0; stroke-width: 0.8; stroke-linecap: square"/>
     </g>
     <g id="line2d_20">
      <g>
       <use xlink:href="#me5789ad8ef" x="54" y="222.087273" style="stroke: #000000; stroke-width: 0.8"/>
      </g>
     </g>
     <g id="text_11">
      <!-- 0.4 -->
      <g transform="translate(31.096875 225.886491) scale(0.1 -0.1)">
       <defs>
        <path id="DejaVuSans-34" d="M 2419 4116 
L 825 1625 
L 2419 1625 
L 2419 4116 
z
M 2253 4666 
L 3047 4666 
L 3047 1625 
L 3713 1625 
L 3713 1100 
L 3047 1100 
L 3047 0 
L 2419 0 
L 2419 1100 
L 313 1100 
L 313 1709 
L 2253 4666 
z
" transform="scale(0.015625)"/>
       </defs>
       <use xlink:href="#DejaVuSans-30"/>
       <use xlink:href="#DejaVuSans-2e" x="63.623047"/>
       <use xlink:href="#DejaVuSans-34" x="95.410156"/>
      </g>
     </g>
    </g>
    <g id="ytick_4">
     <g id="line2d_21">
      <path d="M 54 180.850909 
L 388.8 180.850909 
" clip-path="url(#peef45b7571)" style="fill: none; stroke: #b0b0b0; stroke-width: 0.8; stroke-linecap: square"/>
     </g>
     <g id="line2d_22">
      <g>
       <use xlink:href="#me5789ad8ef" x="54" y="180.850909" style="stroke: #000000; stroke-width: 0.8"/>
      </g>
     </g>
     <g id="text_12">
      <!-- 0.6 -->
      <g transform="translate(31.096875 184.650128) scale(0.1 -0.1)">
       <defs>
        <path id="DejaVuSans-36" d="M 2113 2584 
Q 1688 2584 1439 2293 
Q 1191 2003 1191 1497 
Q 1191 994 1439 701 
Q 1688 409 2113 409 
Q 2538 409 2786 701 
Q 3034 994 3034 1497 
Q 3034 2003 2786 2293 
Q 2538 2584 2113 2584 
z
M 3366 4563 
L 3366 3988 
Q 3128 4100 2886 4159 
Q 2644 4219 2406 4219 
Q 1781 4219 1451 3797 
Q 1122 3375 1075 2522 
Q 1259 2794 1537 2939 
Q 1816 3084 2150 3084 
Q 2853 3084 3261 2657 
Q 3669 2231 3669 1497 
Q 3669 778 3244 343 
Q 2819 -91 2113 -91 
Q 1303 -91 875 529 
Q 447 1150 447 2328 
Q 447 3434 972 4092 
Q 1497 4750 2381 4750 
Q 2619 4750 2861 4703 
Q 3103 4656 3366 4563 
z
" transform="scale(0.015625)"/>
       </defs>
       <use xlink:href="#DejaVuSans-30"/>
       <use xlink:href="#DejaVuSans-2e" x="63.623047"/>
       <use xlink:href="#DejaVuSans-36" x="95.410156"/>
      </g>
     </g>
    </g>
    <g id="ytick_5">
     <g id="line2d_23">
      <path d="M 54 139.614545 
L 388.8 139.614545 
" clip-path="url(#peef45b7571)" style="fill: none; stroke: #b0b0b0; stroke-width: 0.8; stroke-linecap: square"/>
     </g>
     <g id="line2d_24">
      <g>
       <use xlink:href="#me5789ad8ef" x="54" y="139.614545" style="stroke: #000000; stroke-width: 0.8"/>
      </g>
     </g>
     <g id="text_13">
      <!-- 0.8 -->
      <g transform="translate(31.096875 143.413764) scale(0.1 -0.1)">
       <defs>
        <path id="DejaVuSans-38" d="M 2034 2216 
Q 1584 2216 1326 1975 
Q 1069 1734 1069 1313 
Q 1069 891 1326 650 
Q 1584 409 2034 409 
Q 2484 409 2743 651 
Q 3003 894 3003 1313 
Q 3003 1734 2745 1975 
Q 2488 2216 2034 2216 
z
M 1403 2484 
Q 997 2584 770 2862 
Q 544 3141 544 3541 
Q 544 4100 942 4425 
Q 1341 4750 2034 4750 
Q 2731 4750 3128 4425 
Q 3525 4100 3525 3541 
Q 3525 3141 3298 2862 
Q 3072 2584 2669 2484 
Q 3125 2378 3379 2068 
Q 3634 1759 3634 1313 
Q 3634 634 3220 271 
Q 2806 -91 2034 -91 
Q 1263 -91 848 271 
Q 434 634 434 1313 
Q 434 1759 690 2068 
Q 947 2378 1403 2484 
z
M 1172 3481 
Q 1172 3119 1398 2916 
Q 1625 2713 2034 2713 
Q 2441 2713 2670 2916 
Q 2900 3119 2900 3481 
Q 2900 3844 2670 4047 
Q 2441 4250 2034 4250 
Q 1625 4250 1398 4047 
Q 1172 3844 1172 3481 
z
" transform="scale(0.015625)"/>
       </defs>
       <use xlink:href="#DejaVuSans-30"/>
       <use xlink:href="#DejaVuSans-2e" x="63.623047"/>
       <use xlink:href="#DejaVuSans-38" x="95.410156"/>
      </g>
     </g>
    </g>
    <g id="ytick_6">
     <g id="line2d_25">
      <path d="M 54 98.378182 
L 388.8 98.378182 
" clip-path="url(#peef45b7571)" style="fill: none; stroke: #b0b0b0; stroke-width: 0.8; stroke-linecap: square"/>
     </g>
     <g id="line2d_26">
      <g>
       <use xlink:href="#me5789ad8ef" x="54" y="98.378182" style="stroke: #000000; stroke-width: 0.8"/>
      </g>
     </g>
     <g id="text_14">
      <!-- 1.0 -->
      <g transform="translate(31.096875 102.177401) scale(0.1 -0.1)">
       <use xlink:href="#DejaVuSans-31"/>
       <use xlink:href="#DejaVuSans-2e" x="63.623047"/>
       <use xlink:href="#DejaVuSans-30" x="95.410156"/>
      </g>
     </g>
    </g>
    <g id="text_15">
     <!-- Precision -->
     <g transform="translate(23.977344 224.620547) rotate(-90) scale(0.15 -0.15)">
      <defs>
       <path id="DejaVuSans-50" d="M 1259 4147 
L 1259 2394 
L 2053 2394 
Q 2494 2394 2734 2622 
Q 2975 2850 2975 3272 
Q 2975 3691 2734 3919 
Q 2494 4147 2053 4147 
L 1259 4147 
z
M 628 4666 
L 2053 4666 
Q 2838 4666 3239 4311 
Q 3641 3956 3641 3272 
Q 3641 2581 3239 2228 
Q 2838 1875 2053 1875 
L 1259 1875 
L 1259 0 
L 628 0 
L 628 4666 
z
" transform="scale(0.015625)"/>
       <path id="DejaVuSans-63" d="M 3122 3366 
L 3122 2828 
Q 2878 2963 2633 3030 
Q 2388 3097 2138 3097 
Q 1578 3097 1268 2742 
Q 959 2388 959 1747 
Q 959 1106 1268 751 
Q 1578 397 2138 397 
Q 2388 397 2633 464 
Q 2878 531 3122 666 
L 3122 134 
Q 2881 22 2623 -34 
Q 2366 -91 2075 -91 
Q 1284 -91 818 406 
Q 353 903 353 1747 
Q 353 2603 823 3093 
Q 1294 3584 2113 3584 
Q 2378 3584 2631 3529 
Q 2884 3475 3122 3366 
z
" transform="scale(0.015625)"/>
       <path id="DejaVuSans-69" d="M 603 3500 
L 1178 3500 
L 1178 0 
L 603 0 
L 603 3500 
z
M 603 4863 
L 1178 4863 
L 1178 4134 
L 603 4134 
L 603 4863 
z
" transform="scale(0.015625)"/>
       <path id="DejaVuSans-73" d="M 2834 3397 
L 2834 2853 
Q 2591 2978 2328 3040 
Q 2066 3103 1784 3103 
Q 1356 3103 1142 2972 
Q 928 2841 928 2578 
Q 928 2378 1081 2264 
Q 1234 2150 1697 2047 
L 1894 2003 
Q 2506 1872 2764 1633 
Q 3022 1394 3022 966 
Q 3022 478 2636 193 
Q 2250 -91 1575 -91 
Q 1294 -91 989 -36 
Q 684 19 347 128 
L 347 722 
Q 666 556 975 473 
Q 1284 391 1588 391 
Q 1994 391 2212 530 
Q 2431 669 2431 922 
Q 2431 1156 2273 1281 
Q 2116 1406 1581 1522 
L 1381 1569 
Q 847 1681 609 1914 
Q 372 2147 372 2553 
Q 372 3047 722 3315 
Q 1072 3584 1716 3584 
Q 2034 3584 2315 3537 
Q 2597 3491 2834 3397 
z
" transform="scale(0.015625)"/>
       <path id="DejaVuSans-6e" d="M 3513 2113 
L 3513 0 
L 2938 0 
L 2938 2094 
Q 2938 2591 2744 2837 
Q 2550 3084 2163 3084 
Q 1697 3084 1428 2787 
Q 1159 2491 1159 1978 
L 1159 0 
L 581 0 
L 581 3500 
L 1159 3500 
L 1159 2956 
Q 1366 3272 1645 3428 
Q 1925 3584 2291 3584 
Q 2894 3584 3203 3211 
Q 3513 2838 3513 2113 
z
" transform="scale(0.015625)"/>
      </defs>
      <use xlink:href="#DejaVuSans-50"/>
      <use xlink:href="#DejaVuSans-72" x="58.552734"/>
      <use xlink:href="#DejaVuSans-65" x="97.416016"/>
      <use xlink:href="#DejaVuSans-63" x="158.939453"/>
      <use xlink:href="#DejaVuSans-69" x="213.919922"/>
      <use xlink:href="#DejaVuSans-73" x="241.703125"/>
      <use xlink:href="#DejaVuSans-69" x="293.802734"/>
      <use xlink:href="#DejaVuSans-6f" x="321.585938"/>
      <use xlink:href="#DejaVuSans-6e" x="382.767578"/>
     </g>
    </g>
   </g>
   <g id="patch_3">
    <path d="M 54 304.56 
L 54 77.76 
" style="fill: none; stroke: #000000; stroke-width: 0.8; stroke-linejoin: miter; stroke-linecap: square"/>
   </g>
   <g id="patch_4">
    <path d="M 388.8 304.56 
L 388.8 77.76 
" style="fill: none; stroke: #000000; stroke-width: 0.8; stroke-linejoin: miter; stroke-linecap: square"/>
   </g>
   <g id="patch_5">
    <path d="M 54 304.56 
L 388.8 304.56 
" style="fill: none; stroke: #000000; stroke-width: 0.8; stroke-linejoin: miter; stroke-linecap: square"/>
   </g>
   <g id="patch_6">
    <path d="M 54 77.76 
L 388.8 77.76 
" style="fill: none; stroke: #000000; stroke-width: 0.8; stroke-linejoin: miter; stroke-linecap: square"/>
   </g>
   <g id="legend_1">
    <g id="patch_7">
     <path d="M 64.5 297.06 
L 148.48125 297.06 
Q 151.48125 297.06 151.48125 294.06 
L 151.48125 251.525625 
Q 151.48125 248.525625 148.48125 248.525625 
L 64.5 248.525625 
Q 61.5 248.525625 61.5 251.525625 
L 61.5 294.06 
Q 61.5 297.06 64.5 297.06 
z
" style="fill: #ffffff; opacity: 0.8; stroke: #cccccc; stroke-linejoin: miter"/>
    </g>
    <g id="PathCollection_3">
     <g>
      <use xlink:href="#mddc3769e95" x="82.5" y="261.985781" style="fill: #ff0000; stroke: #ff0000"/>
     </g>
    </g>
    <g id="text_16">
     <!-- Train -->
     <g transform="translate(109.5 265.923281) scale(0.15 -0.15)">
      <defs>
       <path id="DejaVuSans-54" d="M -19 4666 
L 3928 4666 
L 3928 4134 
L 2272 4134 
L 2272 0 
L 1638 0 
L 1638 4134 
L -19 4134 
L -19 4666 
z
" transform="scale(0.015625)"/>
       <path id="DejaVuSans-61" d="M 2194 1759 
Q 1497 1759 1228 1600 
Q 959 1441 959 1056 
Q 959 750 1161 570 
Q 1363 391 1709 391 
Q 2188 391 2477 730 
Q 2766 1069 2766 1631 
L 2766 1759 
L 2194 1759 
z
M 3341 1997 
L 3341 0 
L 2766 0 
L 2766 531 
Q 2569 213 2275 61 
Q 1981 -91 1556 -91 
Q 1019 -91 701 211 
Q 384 513 384 1019 
Q 384 1609 779 1909 
Q 1175 2209 1959 2209 
L 2766 2209 
L 2766 2266 
Q 2766 2663 2505 2880 
Q 2244 3097 1772 3097 
Q 1472 3097 1187 3025 
Q 903 2953 641 2809 
L 641 3341 
Q 956 3463 1253 3523 
Q 1550 3584 1831 3584 
Q 2591 3584 2966 3190 
Q 3341 2797 3341 1997 
z
" transform="scale(0.015625)"/>
      </defs>
      <use xlink:href="#DejaVuSans-54"/>
      <use xlink:href="#DejaVuSans-72" x="46.333984"/>
      <use xlink:href="#DejaVuSans-61" x="87.447266"/>
      <use xlink:href="#DejaVuSans-69" x="148.726562"/>
      <use xlink:href="#DejaVuSans-6e" x="176.509766"/>
     </g>
    </g>
    <g id="PathCollection_4">
     <g>
      <use xlink:href="#m2bd95aac86" x="82.5" y="284.002969" style="fill: #0000ff; stroke: #0000ff"/>
     </g>
    </g>
    <g id="text_17">
     <!-- Test -->
     <g transform="translate(109.5 287.940469) scale(0.15 -0.15)">
      <defs>
       <path id="DejaVuSans-74" d="M 1172 4494 
L 1172 3500 
L 2356 3500 
L 2356 3053 
L 1172 3053 
L 1172 1153 
Q 1172 725 1289 603 
Q 1406 481 1766 481 
L 2356 481 
L 2356 0 
L 1766 0 
Q 1100 0 847 248 
Q 594 497 594 1153 
L 594 3053 
L 172 3053 
L 172 3500 
L 594 3500 
L 594 4494 
L 1172 4494 
z
" transform="scale(0.015625)"/>
      </defs>
      <use xlink:href="#DejaVuSans-54"/>
      <use xlink:href="#DejaVuSans-65" x="44.083984"/>
      <use xlink:href="#DejaVuSans-73" x="105.607422"/>
      <use xlink:href="#DejaVuSans-74" x="157.707031"/>
     </g>
    </g>
   </g>
  </g>
  <g id="axes_2">
   <g id="patch_8">
    <path d="M 54 576.72 
L 388.8 576.72 
L 388.8 349.92 
L 54 349.92 
z
" style="fill: #ffffff"/>
   </g>
   <g id="PathCollection_5">
    <g clip-path="url(#p8659526e7d)">
     <use xlink:href="#mddc3769e95" x="54" y="376.196654" style="fill: #ff0000; stroke: #ff0000"/>
     <use xlink:href="#mddc3769e95" x="63.818182" y="371.681323" style="fill: #ff0000; stroke: #ff0000"/>
     <use xlink:href="#mddc3769e95" x="73.636364" y="371.574799" style="fill: #ff0000; stroke: #ff0000"/>
     <use xlink:href="#mddc3769e95" x="83.454545" y="371.476861" style="fill: #ff0000; stroke: #ff0000"/>
     <use xlink:href="#mddc3769e95" x="93.272727" y="371.382702" style="fill: #ff0000; stroke: #ff0000"/>
     <use xlink:href="#mddc3769e95" x="103.090909" y="371.422552" style="fill: #ff0000; stroke: #ff0000"/>
     <use xlink:href="#mddc3769e95" x="112.909091" y="371.975829" style="fill: #ff0000; stroke: #ff0000"/>
     <use xlink:href="#mddc3769e95" x="122.727273" y="373.247305" style="fill: #ff0000; stroke: #ff0000"/>
     <use xlink:href="#mddc3769e95" x="132.545455" y="374.581846" style="fill: #ff0000; stroke: #ff0000"/>
     <use xlink:href="#mddc3769e95" x="142.363636" y="374.340583" style="fill: #ff0000; stroke: #ff0000"/>
     <use xlink:href="#mddc3769e95" x="152.181818" y="372.983142" style="fill: #ff0000; stroke: #ff0000"/>
     <use xlink:href="#mddc3769e95" x="162" y="372.887909" style="fill: #ff0000; stroke: #ff0000"/>
     <use xlink:href="#mddc3769e95" x="171.818182" y="373.286707" style="fill: #ff0000; stroke: #ff0000"/>
     <use xlink:href="#mddc3769e95" x="181.636364" y="372.833899" style="fill: #ff0000; stroke: #ff0000"/>
     <use xlink:href="#mddc3769e95" x="191.454545" y="373.29099" style="fill: #ff0000; stroke: #ff0000"/>
     <use xlink:href="#mddc3769e95" x="201.272727" y="372.845951" style="fill: #ff0000; stroke: #ff0000"/>
     <use xlink:href="#mddc3769e95" x="211.090909" y="372.566474" style="fill: #ff0000; stroke: #ff0000"/>
     <use xlink:href="#mddc3769e95" x="220.909091" y="371.172939" style="fill: #ff0000; stroke: #ff0000"/>
     <use xlink:href="#mddc3769e95" x="230.727273" y="371.059587" style="fill: #ff0000; stroke: #ff0000"/>
     <use xlink:href="#mddc3769e95" x="240.545455" y="371.367493" style="fill: #ff0000; stroke: #ff0000"/>
     <use xlink:href="#mddc3769e95" x="250.363636" y="372.042939" style="fill: #ff0000; stroke: #ff0000"/>
     <use xlink:href="#mddc3769e95" x="260.181818" y="372.896039" style="fill: #ff0000; stroke: #ff0000"/>
     <use xlink:href="#mddc3769e95" x="270" y="374.945529" style="fill: #ff0000; stroke: #ff0000"/>
     <use xlink:href="#mddc3769e95" x="279.818182" y="374.617914" style="fill: #ff0000; stroke: #ff0000"/>
     <use xlink:href="#mddc3769e95" x="289.636364" y="372.439727" style="fill: #ff0000; stroke: #ff0000"/>
     <use xlink:href="#mddc3769e95" x="299.454545" y="371.293427" style="fill: #ff0000; stroke: #ff0000"/>
     <use xlink:href="#mddc3769e95" x="309.272727" y="377.360374" style="fill: #ff0000; stroke: #ff0000"/>
     <use xlink:href="#mddc3769e95" x="319.090909" y="371.322143" style="fill: #ff0000; stroke: #ff0000"/>
     <use xlink:href="#mddc3769e95" x="328.909091" y="377.620763" style="fill: #ff0000; stroke: #ff0000"/>
     <use xlink:href="#mddc3769e95" x="338.727273" y="376.242817" style="fill: #ff0000; stroke: #ff0000"/>
     <use xlink:href="#mddc3769e95" x="348.545455" y="373.890732" style="fill: #ff0000; stroke: #ff0000"/>
     <use xlink:href="#mddc3769e95" x="358.363636" y="373.094155" style="fill: #ff0000; stroke: #ff0000"/>
     <use xlink:href="#mddc3769e95" x="368.181818" y="374.851609" style="fill: #ff0000; stroke: #ff0000"/>
     <use xlink:href="#mddc3769e95" x="378" y="373.181538" style="fill: #ff0000; stroke: #ff0000"/>
    </g>
   </g>
   <g id="PathCollection_6">
    <g clip-path="url(#p8659526e7d)">
     <use xlink:href="#m2bd95aac86" x="54" y="373.837091" style="fill: #0000ff; stroke: #0000ff"/>
     <use xlink:href="#m2bd95aac86" x="63.818182" y="373.863695" style="fill: #0000ff; stroke: #0000ff"/>
     <use xlink:href="#m2bd95aac86" x="73.636364" y="373.932121" style="fill: #0000ff; stroke: #0000ff"/>
     <use xlink:href="#m2bd95aac86" x="83.454545" y="373.974545" style="fill: #0000ff; stroke: #0000ff"/>
     <use xlink:href="#m2bd95aac86" x="93.272727" y="373.988924" style="fill: #0000ff; stroke: #0000ff"/>
     <use xlink:href="#m2bd95aac86" x="103.090909" y="374.003422" style="fill: #0000ff; stroke: #0000ff"/>
     <use xlink:href="#m2bd95aac86" x="112.909091" y="374.018044" style="fill: #0000ff; stroke: #0000ff"/>
     <use xlink:href="#m2bd95aac86" x="122.727273" y="374.561242" style="fill: #0000ff; stroke: #0000ff"/>
     <use xlink:href="#m2bd95aac86" x="132.545455" y="375.389519" style="fill: #0000ff; stroke: #0000ff"/>
     <use xlink:href="#m2bd95aac86" x="142.363636" y="375.447273" style="fill: #0000ff; stroke: #0000ff"/>
     <use xlink:href="#m2bd95aac86" x="152.181818" y="377.901818" style="fill: #0000ff; stroke: #0000ff"/>
     <use xlink:href="#m2bd95aac86" x="162" y="378.785455" style="fill: #0000ff; stroke: #0000ff"/>
     <use xlink:href="#m2bd95aac86" x="171.818182" y="381.992727" style="fill: #0000ff; stroke: #0000ff"/>
     <use xlink:href="#m2bd95aac86" x="181.636364" y="383.424545" style="fill: #0000ff; stroke: #0000ff"/>
     <use xlink:href="#m2bd95aac86" x="191.454545" y="385.265455" style="fill: #0000ff; stroke: #0000ff"/>
     <use xlink:href="#m2bd95aac86" x="201.272727" y="385.265455" style="fill: #0000ff; stroke: #0000ff"/>
     <use xlink:href="#m2bd95aac86" x="211.090909" y="370.538182" style="fill: #0000ff; stroke: #0000ff"/>
     <use xlink:href="#m2bd95aac86" x="220.909091" y="370.538182" style="fill: #0000ff; stroke: #0000ff"/>
     <use xlink:href="#m2bd95aac86" x="230.727273" y="370.538182" style="fill: #0000ff; stroke: #0000ff"/>
     <use xlink:href="#m2bd95aac86" x="240.545455" y="370.538182" style="fill: #0000ff; stroke: #0000ff"/>
     <use xlink:href="#m2bd95aac86" x="250.363636" y="370.538182" style="fill: #0000ff; stroke: #0000ff"/>
     <use xlink:href="#m2bd95aac86" x="260.181818" y="370.538182" style="fill: #0000ff; stroke: #0000ff"/>
     <use xlink:href="#m2bd95aac86" x="270" y="370.538182" style="fill: #0000ff; stroke: #0000ff"/>
     <use xlink:href="#m2bd95aac86" x="279.818182" y="370.538182" style="fill: #0000ff; stroke: #0000ff"/>
     <use xlink:href="#m2bd95aac86" x="289.636364" y="370.538182" style="fill: #0000ff; stroke: #0000ff"/>
     <use xlink:href="#m2bd95aac86" x="299.454545" y="370.538182" style="fill: #0000ff; stroke: #0000ff"/>
     <use xlink:href="#m2bd95aac86" x="309.272727" y="370.538182" style="fill: #0000ff; stroke: #0000ff"/>
     <use xlink:href="#m2bd95aac86" x="319.090909" y="370.538182" style="fill: #0000ff; stroke: #0000ff"/>
     <use xlink:href="#m2bd95aac86" x="328.909091" y="370.538182" style="fill: #0000ff; stroke: #0000ff"/>
     <use xlink:href="#m2bd95aac86" x="338.727273" y="370.538182" style="fill: #0000ff; stroke: #0000ff"/>
     <use xlink:href="#m2bd95aac86" x="348.545455" y="370.538182" style="fill: #0000ff; stroke: #0000ff"/>
     <use xlink:href="#m2bd95aac86" x="358.363636" y="370.538182" style="fill: #0000ff; stroke: #0000ff"/>
     <use xlink:href="#m2bd95aac86" x="368.181818" y="370.538182" style="fill: #0000ff; stroke: #0000ff"/>
     <use xlink:href="#m2bd95aac86" x="378" y="370.538182" style="fill: #0000ff; stroke: #0000ff"/>
    </g>
   </g>
   <g id="PolyCollection_3">
    <defs>
     <path id="mfb23800701" d="M 54 -274.080619 
L 54 -269.526072 
L 63.818182 -274.712899 
L 73.636364 -274.934958 
L 83.454545 -275.169023 
L 93.272727 -275.46413 
L 103.090909 -275.37628 
L 112.909091 -274.602541 
L 122.727273 -272.962058 
L 132.545455 -271.467231 
L 142.363636 -271.552369 
L 152.181818 -272.892993 
L 162 -273.171661 
L 171.818182 -272.582834 
L 181.636364 -273.441529 
L 191.454545 -272.624878 
L 201.272727 -272.521934 
L 211.090909 -273.137974 
L 220.909091 -275.926041 
L 230.727273 -275.663944 
L 240.545455 -275.431864 
L 250.363636 -273.65163 
L 260.181818 -272.631975 
L 270 -270.500858 
L 279.818182 -271.696431 
L 289.636364 -275.08006 
L 299.454545 -276.706573 
L 309.272727 -270.639626 
L 319.090909 -276.677857 
L 328.909091 -270.379237 
L 338.727273 -271.757183 
L 348.545455 -274.109268 
L 358.363636 -274.905845 
L 368.181818 -273.148391 
L 378 -274.818462 
L 378 -274.818462 
L 378 -274.818462 
L 368.181818 -273.148391 
L 358.363636 -274.905845 
L 348.545455 -274.109268 
L 338.727273 -271.757183 
L 328.909091 -270.379237 
L 319.090909 -276.677857 
L 309.272727 -270.639626 
L 299.454545 -276.706573 
L 289.636364 -276.040486 
L 279.818182 -275.067742 
L 270 -275.608084 
L 260.181818 -277.575948 
L 250.363636 -278.262491 
L 240.545455 -277.83315 
L 230.727273 -278.216881 
L 220.909091 -277.728081 
L 211.090909 -277.729079 
L 201.272727 -277.786164 
L 191.454545 -276.793142 
L 181.636364 -276.890673 
L 171.818182 -276.843752 
L 162 -277.052521 
L 152.181818 -277.140724 
L 142.363636 -275.766464 
L 132.545455 -275.369077 
L 122.727273 -276.543332 
L 112.909091 -277.445801 
L 103.090909 -277.778615 
L 93.272727 -277.770467 
L 83.454545 -277.877255 
L 73.636364 -277.915444 
L 63.818182 -277.924454 
L 54 -274.080619 
z
" style="stroke: #ff0000; stroke-opacity: 0.2"/>
    </defs>
    <g clip-path="url(#p8659526e7d)">
     <use xlink:href="#mfb23800701" x="0" y="648" style="fill: #ff0000; fill-opacity: 0.2; stroke: #ff0000; stroke-opacity: 0.2"/>
    </g>
   </g>
   <g id="PolyCollection_4">
    <defs>
     <path id="ma9bd197b05" d="M 54 -300.08549 
L 54 -248.240328 
L 63.818182 -248.110693 
L 73.636364 -247.779216 
L 83.454545 -247.575082 
L 93.272727 -247.506134 
L 103.090909 -247.436726 
L 112.909091 -247.366854 
L 122.727273 -244.850587 
L 132.545455 -241.172453 
L 142.363636 -240.738182 
L 152.181818 -231.133481 
L 162 -227.978182 
L 171.818182 -217.409752 
L 181.636364 -213.03 
L 191.454545 -207.630137 
L 201.272727 -207.630137 
L 211.090909 -277.461818 
L 220.909091 -277.461818 
L 230.727273 -277.461818 
L 240.545455 -277.461818 
L 250.363636 -277.461818 
L 260.181818 -277.461818 
L 270 -277.461818 
L 279.818182 -277.461818 
L 289.636364 -277.461818 
L 299.454545 -277.461818 
L 309.272727 -277.461818 
L 319.090909 -277.461818 
L 328.909091 -277.461818 
L 338.727273 -277.461818 
L 348.545455 -277.461818 
L 358.363636 -277.461818 
L 368.181818 -277.461818 
L 378 -277.461818 
L 378 -277.461818 
L 378 -277.461818 
L 368.181818 -277.461818 
L 358.363636 -277.461818 
L 348.545455 -277.461818 
L 338.727273 -277.461818 
L 328.909091 -277.461818 
L 319.090909 -277.461818 
L 309.272727 -277.461818 
L 299.454545 -277.461818 
L 289.636364 -277.461818 
L 279.818182 -277.461818 
L 270 -277.461818 
L 260.181818 -277.461818 
L 250.363636 -277.461818 
L 240.545455 -277.461818 
L 230.727273 -277.461818 
L 220.909091 -277.461818 
L 211.090909 -277.461818 
L 201.272727 -317.838954 
L 191.454545 -317.838954 
L 181.636364 -316.120909 
L 171.818182 -314.604793 
L 162 -310.450909 
L 152.181818 -309.062883 
L 142.363636 -304.367273 
L 132.545455 -304.04851 
L 122.727273 -302.02693 
L 112.909091 -300.597059 
L 103.090909 -300.556429 
L 93.272727 -300.516019 
L 83.454545 -300.475827 
L 73.636364 -300.356541 
L 63.818182 -300.161917 
L 54 -300.08549 
z
" style="stroke: #0000ff; stroke-opacity: 0.2"/>
    </defs>
    <g clip-path="url(#p8659526e7d)">
     <use xlink:href="#ma9bd197b05" x="0" y="648" style="fill: #0000ff; fill-opacity: 0.2; stroke: #0000ff; stroke-opacity: 0.2"/>
    </g>
   </g>
   <g id="matplotlib.axis_3">
    <g id="xtick_8">
     <g id="line2d_27">
      <path d="M 54 576.72 
L 54 349.92 
" clip-path="url(#p8659526e7d)" style="fill: none; stroke: #b0b0b0; stroke-width: 0.8; stroke-linecap: square"/>
     </g>
     <g id="line2d_28">
      <g>
       <use xlink:href="#m97cabd13c1" x="54" y="576.72" style="stroke: #000000; stroke-width: 0.8"/>
      </g>
     </g>
     <g id="text_18">
      <!-- 0 -->
      <g transform="translate(50.81875 591.318438) scale(0.1 -0.1)">
       <use xlink:href="#DejaVuSans-30"/>
      </g>
     </g>
    </g>
    <g id="xtick_9">
     <g id="line2d_29">
      <path d="M 103.090909 576.72 
L 103.090909 349.92 
" clip-path="url(#p8659526e7d)" style="fill: none; stroke: #b0b0b0; stroke-width: 0.8; stroke-linecap: square"/>
     </g>
     <g id="line2d_30">
      <g>
       <use xlink:href="#m97cabd13c1" x="103.090909" y="576.72" style="stroke: #000000; stroke-width: 0.8"/>
      </g>
     </g>
     <g id="text_19">
      <!-- 5 -->
      <g transform="translate(99.909659 591.318438) scale(0.1 -0.1)">
       <use xlink:href="#DejaVuSans-35"/>
      </g>
     </g>
    </g>
    <g id="xtick_10">
     <g id="line2d_31">
      <path d="M 152.181818 576.72 
L 152.181818 349.92 
" clip-path="url(#p8659526e7d)" style="fill: none; stroke: #b0b0b0; stroke-width: 0.8; stroke-linecap: square"/>
     </g>
     <g id="line2d_32">
      <g>
       <use xlink:href="#m97cabd13c1" x="152.181818" y="576.72" style="stroke: #000000; stroke-width: 0.8"/>
      </g>
     </g>
     <g id="text_20">
      <!-- 10 -->
      <g transform="translate(145.819318 591.318438) scale(0.1 -0.1)">
       <use xlink:href="#DejaVuSans-31"/>
       <use xlink:href="#DejaVuSans-30" x="63.623047"/>
      </g>
     </g>
    </g>
    <g id="xtick_11">
     <g id="line2d_33">
      <path d="M 201.272727 576.72 
L 201.272727 349.92 
" clip-path="url(#p8659526e7d)" style="fill: none; stroke: #b0b0b0; stroke-width: 0.8; stroke-linecap: square"/>
     </g>
     <g id="line2d_34">
      <g>
       <use xlink:href="#m97cabd13c1" x="201.272727" y="576.72" style="stroke: #000000; stroke-width: 0.8"/>
      </g>
     </g>
     <g id="text_21">
      <!-- 15 -->
      <g transform="translate(194.910227 591.318438) scale(0.1 -0.1)">
       <use xlink:href="#DejaVuSans-31"/>
       <use xlink:href="#DejaVuSans-35" x="63.623047"/>
      </g>
     </g>
    </g>
    <g id="xtick_12">
     <g id="line2d_35">
      <path d="M 250.363636 576.72 
L 250.363636 349.92 
" clip-path="url(#p8659526e7d)" style="fill: none; stroke: #b0b0b0; stroke-width: 0.8; stroke-linecap: square"/>
     </g>
     <g id="line2d_36">
      <g>
       <use xlink:href="#m97cabd13c1" x="250.363636" y="576.72" style="stroke: #000000; stroke-width: 0.8"/>
      </g>
     </g>
     <g id="text_22">
      <!-- 20 -->
      <g transform="translate(244.001136 591.318438) scale(0.1 -0.1)">
       <use xlink:href="#DejaVuSans-32"/>
       <use xlink:href="#DejaVuSans-30" x="63.623047"/>
      </g>
     </g>
    </g>
    <g id="xtick_13">
     <g id="line2d_37">
      <path d="M 299.454545 576.72 
L 299.454545 349.92 
" clip-path="url(#p8659526e7d)" style="fill: none; stroke: #b0b0b0; stroke-width: 0.8; stroke-linecap: square"/>
     </g>
     <g id="line2d_38">
      <g>
       <use xlink:href="#m97cabd13c1" x="299.454545" y="576.72" style="stroke: #000000; stroke-width: 0.8"/>
      </g>
     </g>
     <g id="text_23">
      <!-- 25 -->
      <g transform="translate(293.092045 591.318438) scale(0.1 -0.1)">
       <use xlink:href="#DejaVuSans-32"/>
       <use xlink:href="#DejaVuSans-35" x="63.623047"/>
      </g>
     </g>
    </g>
    <g id="xtick_14">
     <g id="line2d_39">
      <path d="M 348.545455 576.72 
L 348.545455 349.92 
" clip-path="url(#p8659526e7d)" style="fill: none; stroke: #b0b0b0; stroke-width: 0.8; stroke-linecap: square"/>
     </g>
     <g id="line2d_40">
      <g>
       <use xlink:href="#m97cabd13c1" x="348.545455" y="576.72" style="stroke: #000000; stroke-width: 0.8"/>
      </g>
     </g>
     <g id="text_24">
      <!-- 30 -->
      <g transform="translate(342.182955 591.318438) scale(0.1 -0.1)">
       <use xlink:href="#DejaVuSans-33"/>
       <use xlink:href="#DejaVuSans-30" x="63.623047"/>
      </g>
     </g>
    </g>
    <g id="text_25">
     <!-- Number of Box -->
     <g transform="translate(165.335156 608.795781) scale(0.15 -0.15)">
      <use xlink:href="#DejaVuSans-4e"/>
      <use xlink:href="#DejaVuSans-75" x="74.804688"/>
      <use xlink:href="#DejaVuSans-6d" x="138.183594"/>
      <use xlink:href="#DejaVuSans-62" x="235.595703"/>
      <use xlink:href="#DejaVuSans-65" x="299.072266"/>
      <use xlink:href="#DejaVuSans-72" x="360.595703"/>
      <use xlink:href="#DejaVuSans-20" x="401.708984"/>
      <use xlink:href="#DejaVuSans-6f" x="433.496094"/>
      <use xlink:href="#DejaVuSans-66" x="494.677734"/>
      <use xlink:href="#DejaVuSans-20" x="529.882812"/>
      <use xlink:href="#DejaVuSans-42" x="561.669922"/>
      <use xlink:href="#DejaVuSans-6f" x="630.273438"/>
      <use xlink:href="#DejaVuSans-78" x="688.330078"/>
     </g>
    </g>
   </g>
   <g id="matplotlib.axis_4">
    <g id="ytick_7">
     <g id="line2d_41">
      <path d="M 54 576.72 
L 388.8 576.72 
" clip-path="url(#p8659526e7d)" style="fill: none; stroke: #b0b0b0; stroke-width: 0.8; stroke-linecap: square"/>
     </g>
     <g id="line2d_42">
      <g>
       <use xlink:href="#me5789ad8ef" x="54" y="576.72" style="stroke: #000000; stroke-width: 0.8"/>
      </g>
     </g>
     <g id="text_26">
      <!-- 0.0 -->
      <g transform="translate(31.096875 580.519219) scale(0.1 -0.1)">
       <use xlink:href="#DejaVuSans-30"/>
       <use xlink:href="#DejaVuSans-2e" x="63.623047"/>
       <use xlink:href="#DejaVuSans-30" x="95.410156"/>
      </g>
     </g>
    </g>
    <g id="ytick_8">
     <g id="line2d_43">
      <path d="M 54 535.483636 
L 388.8 535.483636 
" clip-path="url(#p8659526e7d)" style="fill: none; stroke: #b0b0b0; stroke-width: 0.8; stroke-linecap: square"/>
     </g>
     <g id="line2d_44">
      <g>
       <use xlink:href="#me5789ad8ef" x="54" y="535.483636" style="stroke: #000000; stroke-width: 0.8"/>
      </g>
     </g>
     <g id="text_27">
      <!-- 0.2 -->
      <g transform="translate(31.096875 539.282855) scale(0.1 -0.1)">
       <use xlink:href="#DejaVuSans-30"/>
       <use xlink:href="#DejaVuSans-2e" x="63.623047"/>
       <use xlink:href="#DejaVuSans-32" x="95.410156"/>
      </g>
     </g>
    </g>
    <g id="ytick_9">
     <g id="line2d_45">
      <path d="M 54 494.247273 
L 388.8 494.247273 
" clip-path="url(#p8659526e7d)" style="fill: none; stroke: #b0b0b0; stroke-width: 0.8; stroke-linecap: square"/>
     </g>
     <g id="line2d_46">
      <g>
       <use xlink:href="#me5789ad8ef" x="54" y="494.247273" style="stroke: #000000; stroke-width: 0.8"/>
      </g>
     </g>
     <g id="text_28">
      <!-- 0.4 -->
      <g transform="translate(31.096875 498.046491) scale(0.1 -0.1)">
       <use xlink:href="#DejaVuSans-30"/>
       <use xlink:href="#DejaVuSans-2e" x="63.623047"/>
       <use xlink:href="#DejaVuSans-34" x="95.410156"/>
      </g>
     </g>
    </g>
    <g id="ytick_10">
     <g id="line2d_47">
      <path d="M 54 453.010909 
L 388.8 453.010909 
" clip-path="url(#p8659526e7d)" style="fill: none; stroke: #b0b0b0; stroke-width: 0.8; stroke-linecap: square"/>
     </g>
     <g id="line2d_48">
      <g>
       <use xlink:href="#me5789ad8ef" x="54" y="453.010909" style="stroke: #000000; stroke-width: 0.8"/>
      </g>
     </g>
     <g id="text_29">
      <!-- 0.6 -->
      <g transform="translate(31.096875 456.810128) scale(0.1 -0.1)">
       <use xlink:href="#DejaVuSans-30"/>
       <use xlink:href="#DejaVuSans-2e" x="63.623047"/>
       <use xlink:href="#DejaVuSans-36" x="95.410156"/>
      </g>
     </g>
    </g>
    <g id="ytick_11">
     <g id="line2d_49">
      <path d="M 54 411.774545 
L 388.8 411.774545 
" clip-path="url(#p8659526e7d)" style="fill: none; stroke: #b0b0b0; stroke-width: 0.8; stroke-linecap: square"/>
     </g>
     <g id="line2d_50">
      <g>
       <use xlink:href="#me5789ad8ef" x="54" y="411.774545" style="stroke: #000000; stroke-width: 0.8"/>
      </g>
     </g>
     <g id="text_30">
      <!-- 0.8 -->
      <g transform="translate(31.096875 415.573764) scale(0.1 -0.1)">
       <use xlink:href="#DejaVuSans-30"/>
       <use xlink:href="#DejaVuSans-2e" x="63.623047"/>
       <use xlink:href="#DejaVuSans-38" x="95.410156"/>
      </g>
     </g>
    </g>
    <g id="ytick_12">
     <g id="line2d_51">
      <path d="M 54 370.538182 
L 388.8 370.538182 
" clip-path="url(#p8659526e7d)" style="fill: none; stroke: #b0b0b0; stroke-width: 0.8; stroke-linecap: square"/>
     </g>
     <g id="line2d_52">
      <g>
       <use xlink:href="#me5789ad8ef" x="54" y="370.538182" style="stroke: #000000; stroke-width: 0.8"/>
      </g>
     </g>
     <g id="text_31">
      <!-- 1.0 -->
      <g transform="translate(31.096875 374.337401) scale(0.1 -0.1)">
       <use xlink:href="#DejaVuSans-31"/>
       <use xlink:href="#DejaVuSans-2e" x="63.623047"/>
       <use xlink:href="#DejaVuSans-30" x="95.410156"/>
      </g>
     </g>
    </g>
    <g id="text_32">
     <!-- Recall -->
     <g transform="translate(23.977344 485.695781) rotate(-90) scale(0.15 -0.15)">
      <defs>
       <path id="DejaVuSans-52" d="M 2841 2188 
Q 3044 2119 3236 1894 
Q 3428 1669 3622 1275 
L 4263 0 
L 3584 0 
L 2988 1197 
Q 2756 1666 2539 1819 
Q 2322 1972 1947 1972 
L 1259 1972 
L 1259 0 
L 628 0 
L 628 4666 
L 2053 4666 
Q 2853 4666 3247 4331 
Q 3641 3997 3641 3322 
Q 3641 2881 3436 2590 
Q 3231 2300 2841 2188 
z
M 1259 4147 
L 1259 2491 
L 2053 2491 
Q 2509 2491 2742 2702 
Q 2975 2913 2975 3322 
Q 2975 3731 2742 3939 
Q 2509 4147 2053 4147 
L 1259 4147 
z
" transform="scale(0.015625)"/>
       <path id="DejaVuSans-6c" d="M 603 4863 
L 1178 4863 
L 1178 0 
L 603 0 
L 603 4863 
z
" transform="scale(0.015625)"/>
      </defs>
      <use xlink:href="#DejaVuSans-52"/>
      <use xlink:href="#DejaVuSans-65" x="64.982422"/>
      <use xlink:href="#DejaVuSans-63" x="126.505859"/>
      <use xlink:href="#DejaVuSans-61" x="181.486328"/>
      <use xlink:href="#DejaVuSans-6c" x="242.765625"/>
      <use xlink:href="#DejaVuSans-6c" x="270.548828"/>
     </g>
    </g>
   </g>
   <g id="patch_9">
    <path d="M 54 576.72 
L 54 349.92 
" style="fill: none; stroke: #000000; stroke-width: 0.8; stroke-linejoin: miter; stroke-linecap: square"/>
   </g>
   <g id="patch_10">
    <path d="M 388.8 576.72 
L 388.8 349.92 
" style="fill: none; stroke: #000000; stroke-width: 0.8; stroke-linejoin: miter; stroke-linecap: square"/>
   </g>
   <g id="patch_11">
    <path d="M 54 576.72 
L 388.8 576.72 
" style="fill: none; stroke: #000000; stroke-width: 0.8; stroke-linejoin: miter; stroke-linecap: square"/>
   </g>
   <g id="patch_12">
    <path d="M 54 349.92 
L 388.8 349.92 
" style="fill: none; stroke: #000000; stroke-width: 0.8; stroke-linejoin: miter; stroke-linecap: square"/>
   </g>
   <g id="legend_2">
    <g id="patch_13">
     <path d="M 64.5 569.22 
L 148.48125 569.22 
Q 151.48125 569.22 151.48125 566.22 
L 151.48125 523.685625 
Q 151.48125 520.685625 148.48125 520.685625 
L 64.5 520.685625 
Q 61.5 520.685625 61.5 523.685625 
L 61.5 566.22 
Q 61.5 569.22 64.5 569.22 
z
" style="fill: #ffffff; opacity: 0.8; stroke: #cccccc; stroke-linejoin: miter"/>
    </g>
    <g id="PathCollection_7">
     <g>
      <use xlink:href="#mddc3769e95" x="82.5" y="534.145781" style="fill: #ff0000; stroke: #ff0000"/>
     </g>
    </g>
    <g id="text_33">
     <!-- Train -->
     <g transform="translate(109.5 538.083281) scale(0.15 -0.15)">
      <use xlink:href="#DejaVuSans-54"/>
      <use xlink:href="#DejaVuSans-72" x="46.333984"/>
      <use xlink:href="#DejaVuSans-61" x="87.447266"/>
      <use xlink:href="#DejaVuSans-69" x="148.726562"/>
      <use xlink:href="#DejaVuSans-6e" x="176.509766"/>
     </g>
    </g>
    <g id="PathCollection_8">
     <g>
      <use xlink:href="#m2bd95aac86" x="82.5" y="556.162969" style="fill: #0000ff; stroke: #0000ff"/>
     </g>
    </g>
    <g id="text_34">
     <!-- Test -->
     <g transform="translate(109.5 560.100469) scale(0.15 -0.15)">
      <use xlink:href="#DejaVuSans-54"/>
      <use xlink:href="#DejaVuSans-65" x="44.083984"/>
      <use xlink:href="#DejaVuSans-73" x="105.607422"/>
      <use xlink:href="#DejaVuSans-74" x="157.707031"/>
     </g>
    </g>
   </g>
  </g>
 </g>
 <defs>
  <clipPath id="peef45b7571">
   <rect x="54" y="77.76" width="334.8" height="226.8"/>
  </clipPath>
  <clipPath id="p8659526e7d">
   <rect x="54" y="349.92" width="334.8" height="226.8"/>
  </clipPath>
 </defs>
</svg>
