<?xml version="1.0" encoding="utf-8" standalone="no"?>
<!DOCTYPE svg PUBLIC "-//W3C//DTD SVG 1.1//EN"
  "http://www.w3.org/Graphics/SVG/1.1/DTD/svg11.dtd">
<svg xmlns:xlink="http://www.w3.org/1999/xlink" width="432pt" height="648pt" viewBox="0 0 432 648" xmlns="http://www.w3.org/2000/svg" version="1.1">
 <metadata>
  <rdf:RDF xmlns:dc="http://purl.org/dc/elements/1.1/" xmlns:cc="http://creativecommons.org/ns#" xmlns:rdf="http://www.w3.org/1999/02/22-rdf-syntax-ns#">
   <cc:Work>
    <dc:type rdf:resource="http://purl.org/dc/dcmitype/StillImage"/>
    <dc:date>2024-01-01T19:27:30.098451</dc:date>
    <dc:format>image/svg+xml</dc:format>
    <dc:creator>
     <cc:Agent>
      <dc:title>Matplotlib v3.8.0, https://matplotlib.org/</dc:title>
     </cc:Agent>
    </dc:creator>
   </cc:Work>
  </rdf:RDF>
 </metadata>
 <defs>
  <style type="text/css">*{stroke-linejoin: round; stroke-linecap: butt}</style>
 </defs>
 <g id="figure_1">
  <g id="patch_1">
   <path d="M 0 648 
L 432 648 
L 432 0 
L 0 0 
z
" style="fill: #ffffff"/>
  </g>
  <g id="axes_1">
   <g id="patch_2">
    <path d="M 54 304.56 
L 388.8 304.56 
L 388.8 77.76 
L 54 77.76 
z
" style="fill: #ffffff"/>
   </g>
   <g id="PathCollection_1">
    <defs>
     <path id="med448d6a75" d="M 0 3 
C 0.795609 3 1.55874 2.683901 2.12132 2.12132 
C 2.683901 1.55874 3 0.795609 3 0 
C 3 -0.795609 2.683901 -1.55874 2.12132 -2.12132 
C 1.55874 -2.683901 0.795609 -3 0 -3 
C -0.795609 -3 -1.55874 -2.683901 -2.12132 -2.12132 
C -2.683901 -1.55874 -3 -0.795609 -3 0 
C -3 0.795609 -2.683901 1.55874 -2.12132 2.12132 
C -1.55874 2.683901 -0.795609 3 0 3 
z
" style="stroke: #ff0000"/>
    </defs>
    <g clip-path="url(#p61882ea8a0)">
     <use xlink:href="#med448d6a75" x="54" y="239.610864" style="fill: #ff0000; stroke: #ff0000"/>
     <use xlink:href="#med448d6a75" x="61.952494" y="236.878715" style="fill: #ff0000; stroke: #ff0000"/>
     <use xlink:href="#med448d6a75" x="69.904988" y="234.442081" style="fill: #ff0000; stroke: #ff0000"/>
     <use xlink:href="#med448d6a75" x="77.857482" y="231.863832" style="fill: #ff0000; stroke: #ff0000"/>
     <use xlink:href="#med448d6a75" x="85.809976" y="229.412031" style="fill: #ff0000; stroke: #ff0000"/>
     <use xlink:href="#med448d6a75" x="93.76247" y="227.045782" style="fill: #ff0000; stroke: #ff0000"/>
     <use xlink:href="#med448d6a75" x="101.714964" y="225.077174" style="fill: #ff0000; stroke: #ff0000"/>
     <use xlink:href="#med448d6a75" x="109.667458" y="223.164635" style="fill: #ff0000; stroke: #ff0000"/>
     <use xlink:href="#med448d6a75" x="117.619952" y="221.142438" style="fill: #ff0000; stroke: #ff0000"/>
     <use xlink:href="#med448d6a75" x="125.572447" y="219.215805" style="fill: #ff0000; stroke: #ff0000"/>
     <use xlink:href="#med448d6a75" x="133.524941" y="217.291579" style="fill: #ff0000; stroke: #ff0000"/>
     <use xlink:href="#med448d6a75" x="141.477435" y="215.365191" style="fill: #ff0000; stroke: #ff0000"/>
     <use xlink:href="#med448d6a75" x="149.429929" y="213.771859" style="fill: #ff0000; stroke: #ff0000"/>
     <use xlink:href="#med448d6a75" x="157.382423" y="212.023116" style="fill: #ff0000; stroke: #ff0000"/>
     <use xlink:href="#med448d6a75" x="165.334917" y="209.848522" style="fill: #ff0000; stroke: #ff0000"/>
     <use xlink:href="#med448d6a75" x="173.287411" y="207.724706" style="fill: #ff0000; stroke: #ff0000"/>
     <use xlink:href="#med448d6a75" x="181.239905" y="206.017589" style="fill: #ff0000; stroke: #ff0000"/>
     <use xlink:href="#med448d6a75" x="189.192399" y="204.079517" style="fill: #ff0000; stroke: #ff0000"/>
     <use xlink:href="#med448d6a75" x="197.144893" y="202.023954" style="fill: #ff0000; stroke: #ff0000"/>
     <use xlink:href="#med448d6a75" x="205.097387" y="199.626492" style="fill: #ff0000; stroke: #ff0000"/>
     <use xlink:href="#med448d6a75" x="213.049881" y="197.594477" style="fill: #ff0000; stroke: #ff0000"/>
     <use xlink:href="#med448d6a75" x="221.002375" y="195.30829" style="fill: #ff0000; stroke: #ff0000"/>
     <use xlink:href="#med448d6a75" x="228.954869" y="193.491863" style="fill: #ff0000; stroke: #ff0000"/>
     <use xlink:href="#med448d6a75" x="236.907363" y="190.91259" style="fill: #ff0000; stroke: #ff0000"/>
     <use xlink:href="#med448d6a75" x="244.859857" y="188.18012" style="fill: #ff0000; stroke: #ff0000"/>
     <use xlink:href="#med448d6a75" x="252.812352" y="186.18451" style="fill: #ff0000; stroke: #ff0000"/>
     <use xlink:href="#med448d6a75" x="260.764846" y="183.332923" style="fill: #ff0000; stroke: #ff0000"/>
     <use xlink:href="#med448d6a75" x="268.71734" y="180.906539" style="fill: #ff0000; stroke: #ff0000"/>
     <use xlink:href="#med448d6a75" x="276.669834" y="178.194693" style="fill: #ff0000; stroke: #ff0000"/>
     <use xlink:href="#med448d6a75" x="284.622328" y="174.791314" style="fill: #ff0000; stroke: #ff0000"/>
     <use xlink:href="#med448d6a75" x="292.574822" y="172.343227" style="fill: #ff0000; stroke: #ff0000"/>
     <use xlink:href="#med448d6a75" x="300.527316" y="169.134093" style="fill: #ff0000; stroke: #ff0000"/>
     <use xlink:href="#med448d6a75" x="308.47981" y="165.915221" style="fill: #ff0000; stroke: #ff0000"/>
     <use xlink:href="#med448d6a75" x="316.432304" y="162.871618" style="fill: #ff0000; stroke: #ff0000"/>
     <use xlink:href="#med448d6a75" x="324.384798" y="160.434815" style="fill: #ff0000; stroke: #ff0000"/>
     <use xlink:href="#med448d6a75" x="332.337292" y="157.223036" style="fill: #ff0000; stroke: #ff0000"/>
     <use xlink:href="#med448d6a75" x="340.289786" y="154.106114" style="fill: #ff0000; stroke: #ff0000"/>
     <use xlink:href="#med448d6a75" x="348.24228" y="150.717781" style="fill: #ff0000; stroke: #ff0000"/>
     <use xlink:href="#med448d6a75" x="356.194774" y="149.228501" style="fill: #ff0000; stroke: #ff0000"/>
     <use xlink:href="#med448d6a75" x="364.147268" y="146.565574" style="fill: #ff0000; stroke: #ff0000"/>
     <use xlink:href="#med448d6a75" x="372.099762" y="143.249161" style="fill: #ff0000; stroke: #ff0000"/>
     <use xlink:href="#med448d6a75" x="380.052257" y="143.675702" style="fill: #ff0000; stroke: #ff0000"/>
    </g>
   </g>
   <g id="PathCollection_2">
    <defs>
     <path id="m4ef581c2c1" d="M 0 3 
C 0.795609 3 1.55874 2.683901 2.12132 2.12132 
C 2.683901 1.55874 3 0.795609 3 0 
C 3 -0.795609 2.683901 -1.55874 2.12132 -2.12132 
C 1.55874 -2.683901 0.795609 -3 0 -3 
C -0.795609 -3 -1.55874 -2.683901 -2.12132 -2.12132 
C -2.683901 -1.55874 -3 -0.795609 -3 0 
C -3 0.795609 -2.683901 1.55874 -2.12132 2.12132 
C -1.55874 2.683901 -0.795609 3 0 3 
z
" style="stroke: #0000ff"/>
    </defs>
    <g clip-path="url(#p61882ea8a0)">
     <use xlink:href="#m4ef581c2c1" x="54" y="241.212797" style="fill: #0000ff; stroke: #0000ff"/>
     <use xlink:href="#m4ef581c2c1" x="61.952494" y="240.288529" style="fill: #0000ff; stroke: #0000ff"/>
     <use xlink:href="#m4ef581c2c1" x="69.904988" y="239.232114" style="fill: #0000ff; stroke: #0000ff"/>
     <use xlink:href="#m4ef581c2c1" x="77.857482" y="237.862242" style="fill: #0000ff; stroke: #0000ff"/>
     <use xlink:href="#m4ef581c2c1" x="85.809976" y="237.041819" style="fill: #0000ff; stroke: #0000ff"/>
     <use xlink:href="#m4ef581c2c1" x="93.76247" y="235.996621" style="fill: #0000ff; stroke: #0000ff"/>
     <use xlink:href="#m4ef581c2c1" x="101.714964" y="234.827448" style="fill: #0000ff; stroke: #0000ff"/>
     <use xlink:href="#m4ef581c2c1" x="109.667458" y="234.500045" style="fill: #0000ff; stroke: #0000ff"/>
     <use xlink:href="#m4ef581c2c1" x="117.619952" y="233.408181" style="fill: #0000ff; stroke: #0000ff"/>
     <use xlink:href="#m4ef581c2c1" x="125.572447" y="232.238764" style="fill: #0000ff; stroke: #0000ff"/>
     <use xlink:href="#m4ef581c2c1" x="133.524941" y="230.8045" style="fill: #0000ff; stroke: #0000ff"/>
     <use xlink:href="#m4ef581c2c1" x="141.477435" y="229.68054" style="fill: #0000ff; stroke: #0000ff"/>
     <use xlink:href="#m4ef581c2c1" x="149.429929" y="229.616937" style="fill: #0000ff; stroke: #0000ff"/>
     <use xlink:href="#m4ef581c2c1" x="157.382423" y="228.947705" style="fill: #0000ff; stroke: #0000ff"/>
     <use xlink:href="#m4ef581c2c1" x="165.334917" y="228.292245" style="fill: #0000ff; stroke: #0000ff"/>
     <use xlink:href="#m4ef581c2c1" x="173.287411" y="228.102876" style="fill: #0000ff; stroke: #0000ff"/>
     <use xlink:href="#m4ef581c2c1" x="181.239905" y="227.317603" style="fill: #0000ff; stroke: #0000ff"/>
     <use xlink:href="#m4ef581c2c1" x="189.192399" y="227.359196" style="fill: #0000ff; stroke: #0000ff"/>
     <use xlink:href="#m4ef581c2c1" x="197.144893" y="226.629646" style="fill: #0000ff; stroke: #0000ff"/>
     <use xlink:href="#m4ef581c2c1" x="205.097387" y="226.27805" style="fill: #0000ff; stroke: #0000ff"/>
     <use xlink:href="#m4ef581c2c1" x="213.049881" y="225.375882" style="fill: #0000ff; stroke: #0000ff"/>
     <use xlink:href="#m4ef581c2c1" x="221.002375" y="225.052956" style="fill: #0000ff; stroke: #0000ff"/>
     <use xlink:href="#m4ef581c2c1" x="228.954869" y="224.418608" style="fill: #0000ff; stroke: #0000ff"/>
     <use xlink:href="#m4ef581c2c1" x="236.907363" y="223.205141" style="fill: #0000ff; stroke: #0000ff"/>
     <use xlink:href="#m4ef581c2c1" x="244.859857" y="223.200891" style="fill: #0000ff; stroke: #0000ff"/>
     <use xlink:href="#m4ef581c2c1" x="252.812352" y="222.352765" style="fill: #0000ff; stroke: #0000ff"/>
     <use xlink:href="#m4ef581c2c1" x="260.764846" y="222.417493" style="fill: #0000ff; stroke: #0000ff"/>
     <use xlink:href="#m4ef581c2c1" x="268.71734" y="221.402919" style="fill: #0000ff; stroke: #0000ff"/>
     <use xlink:href="#m4ef581c2c1" x="276.669834" y="220.879701" style="fill: #0000ff; stroke: #0000ff"/>
     <use xlink:href="#m4ef581c2c1" x="284.622328" y="220.086996" style="fill: #0000ff; stroke: #0000ff"/>
     <use xlink:href="#m4ef581c2c1" x="292.574822" y="220.478766" style="fill: #0000ff; stroke: #0000ff"/>
     <use xlink:href="#m4ef581c2c1" x="300.527316" y="219.894228" style="fill: #0000ff; stroke: #0000ff"/>
     <use xlink:href="#m4ef581c2c1" x="308.47981" y="221.246966" style="fill: #0000ff; stroke: #0000ff"/>
     <use xlink:href="#m4ef581c2c1" x="316.432304" y="220.817207" style="fill: #0000ff; stroke: #0000ff"/>
     <use xlink:href="#m4ef581c2c1" x="324.384798" y="218.797077" style="fill: #0000ff; stroke: #0000ff"/>
     <use xlink:href="#m4ef581c2c1" x="332.337292" y="217.631724" style="fill: #0000ff; stroke: #0000ff"/>
     <use xlink:href="#m4ef581c2c1" x="340.289786" y="220.224514" style="fill: #0000ff; stroke: #0000ff"/>
     <use xlink:href="#m4ef581c2c1" x="348.24228" y="217.279636" style="fill: #0000ff; stroke: #0000ff"/>
     <use xlink:href="#m4ef581c2c1" x="356.194774" y="205.009091" style="fill: #0000ff; stroke: #0000ff"/>
     <use xlink:href="#m4ef581c2c1" x="364.147268" y="219.867955" style="fill: #0000ff; stroke: #0000ff"/>
     <use xlink:href="#m4ef581c2c1" x="372.099762" y="225.196364" style="fill: #0000ff; stroke: #0000ff"/>
     <use xlink:href="#m4ef581c2c1" x="380.052257" y="293.105455" style="fill: #0000ff; stroke: #0000ff"/>
    </g>
   </g>
   <g id="PolyCollection_1">
    <defs>
     <path id="mb31b161435" d="M 54 -412.186354 
L 54 -404.591918 
L 61.952494 -406.862323 
L 69.904988 -408.861247 
L 77.857482 -410.86541 
L 85.809976 -412.932134 
L 93.76247 -414.667575 
L 101.714964 -416.247935 
L 109.667458 -417.89667 
L 117.619952 -419.537146 
L 125.572447 -420.868021 
L 133.524941 -422.398719 
L 141.477435 -424.030217 
L 149.429929 -425.361309 
L 157.382423 -426.775809 
L 165.334917 -428.65514 
L 173.287411 -430.648227 
L 181.239905 -431.977323 
L 189.192399 -433.65175 
L 197.144893 -435.478818 
L 205.097387 -437.56123 
L 213.049881 -439.199185 
L 221.002375 -441.322352 
L 228.954869 -442.945101 
L 236.907363 -444.803111 
L 244.859857 -446.775909 
L 252.812352 -448.757808 
L 260.764846 -451.352637 
L 268.71734 -453.674976 
L 276.669834 -456.603802 
L 284.622328 -459.690137 
L 292.574822 -462.567077 
L 300.527316 -465.272452 
L 308.47981 -469.442371 
L 316.432304 -473.236777 
L 324.384798 -476.111968 
L 332.337292 -480.129287 
L 340.289786 -481.824193 
L 348.24228 -487.253355 
L 356.194774 -488.725656 
L 364.147268 -489.750156 
L 372.099762 -494.216308 
L 380.052257 -488.86145 
L 380.052257 -519.787145 
L 380.052257 -519.787145 
L 372.099762 -515.28537 
L 364.147268 -513.118696 
L 356.194774 -508.817341 
L 348.24228 -507.311083 
L 340.289786 -505.96358 
L 332.337292 -501.424642 
L 324.384798 -499.018403 
L 316.432304 -497.019987 
L 308.47981 -494.727187 
L 300.527316 -492.459362 
L 292.574822 -488.746469 
L 284.622328 -486.727235 
L 276.669834 -483.006812 
L 268.71734 -480.511946 
L 260.764846 -477.981517 
L 252.812352 -474.873173 
L 244.859857 -472.863852 
L 236.907363 -469.371709 
L 228.954869 -466.071173 
L 221.002375 -464.061068 
L 213.049881 -461.611861 
L 205.097387 -459.185786 
L 197.144893 -456.473274 
L 189.192399 -454.189215 
L 181.239905 -451.987498 
L 173.287411 -449.90236 
L 165.334917 -447.647815 
L 157.382423 -445.177959 
L 149.429929 -443.094972 
L 141.477435 -441.239402 
L 133.524941 -439.018124 
L 125.572447 -436.700369 
L 117.619952 -434.177978 
L 109.667458 -431.774059 
L 101.714964 -429.597717 
L 93.76247 -427.24086 
L 85.809976 -424.243804 
L 77.857482 -421.406926 
L 69.904988 -418.25459 
L 61.952494 -415.380247 
L 54 -412.186354 
z
" style="stroke: #ff0000; stroke-opacity: 0.2"/>
    </defs>
    <g clip-path="url(#p61882ea8a0)">
     <use xlink:href="#mb31b161435" x="0" y="648" style="fill: #ff0000; fill-opacity: 0.2; stroke: #ff0000; stroke-opacity: 0.2"/>
    </g>
   </g>
   <g id="PolyCollection_2">
    <defs>
     <path id="mf34519e64e" d="M 54 -421.208417 
L 54 -392.36599 
L 61.952494 -393.127972 
L 69.904988 -393.765574 
L 77.857482 -394.517579 
L 85.809976 -395.066454 
L 93.76247 -395.490257 
L 101.714964 -396.332836 
L 109.667458 -396.305393 
L 117.619952 -396.362012 
L 125.572447 -397.142321 
L 133.524941 -397.159674 
L 141.477435 -397.662983 
L 149.429929 -397.27577 
L 157.382423 -397.640802 
L 165.334917 -398.165654 
L 173.287411 -397.863559 
L 181.239905 -397.697888 
L 189.192399 -396.883561 
L 197.144893 -396.833863 
L 205.097387 -396.599028 
L 213.049881 -396.469784 
L 221.002375 -395.048179 
L 228.954869 -395.250141 
L 236.907363 -395.760845 
L 244.859857 -393.432764 
L 252.812352 -392.485116 
L 260.764846 -391.257224 
L 268.71734 -392.526273 
L 276.669834 -392.243591 
L 284.622328 -391.374821 
L 292.574822 -388.593477 
L 300.527316 -389.756814 
L 308.47981 -385.540697 
L 316.432304 -384.511922 
L 324.384798 -385.409472 
L 332.337292 -383.515994 
L 340.289786 -376.451018 
L 348.24228 -377.54414 
L 356.194774 -390.211228 
L 364.147268 -362.312419 
L 372.099762 -330.338231 
L 380.052257 -338.695372 
L 380.052257 -371.093719 
L 380.052257 -371.093719 
L 372.099762 -515.269042 
L 364.147268 -493.951672 
L 356.194774 -495.77059 
L 348.24228 -483.896587 
L 340.289786 -479.099953 
L 332.337292 -477.220559 
L 324.384798 -472.996374 
L 316.432304 -469.853664 
L 308.47981 -467.965371 
L 300.527316 -466.454731 
L 292.574822 -466.448992 
L 284.622328 -464.451188 
L 276.669834 -461.997008 
L 268.71734 -460.667888 
L 260.764846 -459.907791 
L 252.812352 -458.809353 
L 244.859857 -456.165455 
L 236.907363 -453.828873 
L 228.954869 -451.912643 
L 221.002375 -450.845908 
L 213.049881 -448.778452 
L 205.097387 -446.844871 
L 197.144893 -445.906845 
L 189.192399 -444.398047 
L 181.239905 -443.666905 
L 173.287411 -441.930688 
L 165.334917 -441.249857 
L 157.382423 -440.463789 
L 149.429929 -439.490356 
L 141.477435 -438.975937 
L 133.524941 -437.231326 
L 125.572447 -434.380151 
L 117.619952 -432.821627 
L 109.667458 -430.694518 
L 101.714964 -430.012268 
L 93.76247 -428.516501 
L 85.809976 -426.849909 
L 77.857482 -425.757937 
L 69.904988 -423.770198 
L 61.952494 -422.29497 
L 54 -421.208417 
z
" style="stroke: #0000ff; stroke-opacity: 0.2"/>
    </defs>
    <g clip-path="url(#p61882ea8a0)">
     <use xlink:href="#mf34519e64e" x="0" y="648" style="fill: #0000ff; fill-opacity: 0.2; stroke: #0000ff; stroke-opacity: 0.2"/>
    </g>
   </g>
   <g id="matplotlib.axis_1">
    <g id="xtick_1">
     <g id="line2d_1">
      <path d="M 54 304.56 
L 54 77.76 
" clip-path="url(#p61882ea8a0)" style="fill: none; stroke: #b0b0b0; stroke-width: 0.8; stroke-linecap: square"/>
     </g>
     <g id="line2d_2">
      <defs>
       <path id="maba6daab7e" d="M 0 0 
L 0 3.5 
" style="stroke: #000000; stroke-width: 0.8"/>
      </defs>
      <g>
       <use xlink:href="#maba6daab7e" x="54" y="304.56" style="stroke: #000000; stroke-width: 0.8"/>
      </g>
     </g>
     <g id="text_1">
      <!-- 0 -->
      <g transform="translate(50.81875 319.158437) scale(0.1 -0.1)">
       <defs>
        <path id="DejaVuSans-30" d="M 2034 4250 
Q 1547 4250 1301 3770 
Q 1056 3291 1056 2328 
Q 1056 1369 1301 889 
Q 1547 409 2034 409 
Q 2525 409 2770 889 
Q 3016 1369 3016 2328 
Q 3016 3291 2770 3770 
Q 2525 4250 2034 4250 
z
M 2034 4750 
Q 2819 4750 3233 4129 
Q 3647 3509 3647 2328 
Q 3647 1150 3233 529 
Q 2819 -91 2034 -91 
Q 1250 -91 836 529 
Q 422 1150 422 2328 
Q 422 3509 836 4129 
Q 1250 4750 2034 4750 
z
" transform="scale(0.015625)"/>
       </defs>
       <use xlink:href="#DejaVuSans-30"/>
      </g>
     </g>
    </g>
    <g id="xtick_2">
     <g id="line2d_3">
      <path d="M 93.76247 304.56 
L 93.76247 77.76 
" clip-path="url(#p61882ea8a0)" style="fill: none; stroke: #b0b0b0; stroke-width: 0.8; stroke-linecap: square"/>
     </g>
     <g id="line2d_4">
      <g>
       <use xlink:href="#maba6daab7e" x="93.76247" y="304.56" style="stroke: #000000; stroke-width: 0.8"/>
      </g>
     </g>
     <g id="text_2">
      <!-- 5 -->
      <g transform="translate(90.58122 319.158437) scale(0.1 -0.1)">
       <defs>
        <path id="DejaVuSans-35" d="M 691 4666 
L 3169 4666 
L 3169 4134 
L 1269 4134 
L 1269 2991 
Q 1406 3038 1543 3061 
Q 1681 3084 1819 3084 
Q 2600 3084 3056 2656 
Q 3513 2228 3513 1497 
Q 3513 744 3044 326 
Q 2575 -91 1722 -91 
Q 1428 -91 1123 -41 
Q 819 9 494 109 
L 494 744 
Q 775 591 1075 516 
Q 1375 441 1709 441 
Q 2250 441 2565 725 
Q 2881 1009 2881 1497 
Q 2881 1984 2565 2268 
Q 2250 2553 1709 2553 
Q 1456 2553 1204 2497 
Q 953 2441 691 2322 
L 691 4666 
z
" transform="scale(0.015625)"/>
       </defs>
       <use xlink:href="#DejaVuSans-35"/>
      </g>
     </g>
    </g>
    <g id="xtick_3">
     <g id="line2d_5">
      <path d="M 133.524941 304.56 
L 133.524941 77.76 
" clip-path="url(#p61882ea8a0)" style="fill: none; stroke: #b0b0b0; stroke-width: 0.8; stroke-linecap: square"/>
     </g>
     <g id="line2d_6">
      <g>
       <use xlink:href="#maba6daab7e" x="133.524941" y="304.56" style="stroke: #000000; stroke-width: 0.8"/>
      </g>
     </g>
     <g id="text_3">
      <!-- 10 -->
      <g transform="translate(127.162441 319.158437) scale(0.1 -0.1)">
       <defs>
        <path id="DejaVuSans-31" d="M 794 531 
L 1825 531 
L 1825 4091 
L 703 3866 
L 703 4441 
L 1819 4666 
L 2450 4666 
L 2450 531 
L 3481 531 
L 3481 0 
L 794 0 
L 794 531 
z
" transform="scale(0.015625)"/>
       </defs>
       <use xlink:href="#DejaVuSans-31"/>
       <use xlink:href="#DejaVuSans-30" x="63.623047"/>
      </g>
     </g>
    </g>
    <g id="xtick_4">
     <g id="line2d_7">
      <path d="M 173.287411 304.56 
L 173.287411 77.76 
" clip-path="url(#p61882ea8a0)" style="fill: none; stroke: #b0b0b0; stroke-width: 0.8; stroke-linecap: square"/>
     </g>
     <g id="line2d_8">
      <g>
       <use xlink:href="#maba6daab7e" x="173.287411" y="304.56" style="stroke: #000000; stroke-width: 0.8"/>
      </g>
     </g>
     <g id="text_4">
      <!-- 15 -->
      <g transform="translate(166.924911 319.158437) scale(0.1 -0.1)">
       <use xlink:href="#DejaVuSans-31"/>
       <use xlink:href="#DejaVuSans-35" x="63.623047"/>
      </g>
     </g>
    </g>
    <g id="xtick_5">
     <g id="line2d_9">
      <path d="M 213.049881 304.56 
L 213.049881 77.76 
" clip-path="url(#p61882ea8a0)" style="fill: none; stroke: #b0b0b0; stroke-width: 0.8; stroke-linecap: square"/>
     </g>
     <g id="line2d_10">
      <g>
       <use xlink:href="#maba6daab7e" x="213.049881" y="304.56" style="stroke: #000000; stroke-width: 0.8"/>
      </g>
     </g>
     <g id="text_5">
      <!-- 20 -->
      <g transform="translate(206.687381 319.158437) scale(0.1 -0.1)">
       <defs>
        <path id="DejaVuSans-32" d="M 1228 531 
L 3431 531 
L 3431 0 
L 469 0 
L 469 531 
Q 828 903 1448 1529 
Q 2069 2156 2228 2338 
Q 2531 2678 2651 2914 
Q 2772 3150 2772 3378 
Q 2772 3750 2511 3984 
Q 2250 4219 1831 4219 
Q 1534 4219 1204 4116 
Q 875 4013 500 3803 
L 500 4441 
Q 881 4594 1212 4672 
Q 1544 4750 1819 4750 
Q 2544 4750 2975 4387 
Q 3406 4025 3406 3419 
Q 3406 3131 3298 2873 
Q 3191 2616 2906 2266 
Q 2828 2175 2409 1742 
Q 1991 1309 1228 531 
z
" transform="scale(0.015625)"/>
       </defs>
       <use xlink:href="#DejaVuSans-32"/>
       <use xlink:href="#DejaVuSans-30" x="63.623047"/>
      </g>
     </g>
    </g>
    <g id="xtick_6">
     <g id="line2d_11">
      <path d="M 252.812352 304.56 
L 252.812352 77.76 
" clip-path="url(#p61882ea8a0)" style="fill: none; stroke: #b0b0b0; stroke-width: 0.8; stroke-linecap: square"/>
     </g>
     <g id="line2d_12">
      <g>
       <use xlink:href="#maba6daab7e" x="252.812352" y="304.56" style="stroke: #000000; stroke-width: 0.8"/>
      </g>
     </g>
     <g id="text_6">
      <!-- 25 -->
      <g transform="translate(246.449852 319.158437) scale(0.1 -0.1)">
       <use xlink:href="#DejaVuSans-32"/>
       <use xlink:href="#DejaVuSans-35" x="63.623047"/>
      </g>
     </g>
    </g>
    <g id="xtick_7">
     <g id="line2d_13">
      <path d="M 292.574822 304.56 
L 292.574822 77.76 
" clip-path="url(#p61882ea8a0)" style="fill: none; stroke: #b0b0b0; stroke-width: 0.8; stroke-linecap: square"/>
     </g>
     <g id="line2d_14">
      <g>
       <use xlink:href="#maba6daab7e" x="292.574822" y="304.56" style="stroke: #000000; stroke-width: 0.8"/>
      </g>
     </g>
     <g id="text_7">
      <!-- 30 -->
      <g transform="translate(286.212322 319.158437) scale(0.1 -0.1)">
       <defs>
        <path id="DejaVuSans-33" d="M 2597 2516 
Q 3050 2419 3304 2112 
Q 3559 1806 3559 1356 
Q 3559 666 3084 287 
Q 2609 -91 1734 -91 
Q 1441 -91 1130 -33 
Q 819 25 488 141 
L 488 750 
Q 750 597 1062 519 
Q 1375 441 1716 441 
Q 2309 441 2620 675 
Q 2931 909 2931 1356 
Q 2931 1769 2642 2001 
Q 2353 2234 1838 2234 
L 1294 2234 
L 1294 2753 
L 1863 2753 
Q 2328 2753 2575 2939 
Q 2822 3125 2822 3475 
Q 2822 3834 2567 4026 
Q 2313 4219 1838 4219 
Q 1578 4219 1281 4162 
Q 984 4106 628 3988 
L 628 4550 
Q 988 4650 1302 4700 
Q 1616 4750 1894 4750 
Q 2613 4750 3031 4423 
Q 3450 4097 3450 3541 
Q 3450 3153 3228 2886 
Q 3006 2619 2597 2516 
z
" transform="scale(0.015625)"/>
       </defs>
       <use xlink:href="#DejaVuSans-33"/>
       <use xlink:href="#DejaVuSans-30" x="63.623047"/>
      </g>
     </g>
    </g>
    <g id="xtick_8">
     <g id="line2d_15">
      <path d="M 332.337292 304.56 
L 332.337292 77.76 
" clip-path="url(#p61882ea8a0)" style="fill: none; stroke: #b0b0b0; stroke-width: 0.8; stroke-linecap: square"/>
     </g>
     <g id="line2d_16">
      <g>
       <use xlink:href="#maba6daab7e" x="332.337292" y="304.56" style="stroke: #000000; stroke-width: 0.8"/>
      </g>
     </g>
     <g id="text_8">
      <!-- 35 -->
      <g transform="translate(325.974792 319.158437) scale(0.1 -0.1)">
       <use xlink:href="#DejaVuSans-33"/>
       <use xlink:href="#DejaVuSans-35" x="63.623047"/>
      </g>
     </g>
    </g>
    <g id="xtick_9">
     <g id="line2d_17">
      <path d="M 372.099762 304.56 
L 372.099762 77.76 
" clip-path="url(#p61882ea8a0)" style="fill: none; stroke: #b0b0b0; stroke-width: 0.8; stroke-linecap: square"/>
     </g>
     <g id="line2d_18">
      <g>
       <use xlink:href="#maba6daab7e" x="372.099762" y="304.56" style="stroke: #000000; stroke-width: 0.8"/>
      </g>
     </g>
     <g id="text_9">
      <!-- 40 -->
      <g transform="translate(365.737262 319.158437) scale(0.1 -0.1)">
       <defs>
        <path id="DejaVuSans-34" d="M 2419 4116 
L 825 1625 
L 2419 1625 
L 2419 4116 
z
M 2253 4666 
L 3047 4666 
L 3047 1625 
L 3713 1625 
L 3713 1100 
L 3047 1100 
L 3047 0 
L 2419 0 
L 2419 1100 
L 313 1100 
L 313 1709 
L 2253 4666 
z
" transform="scale(0.015625)"/>
       </defs>
       <use xlink:href="#DejaVuSans-34"/>
       <use xlink:href="#DejaVuSans-30" x="63.623047"/>
      </g>
     </g>
    </g>
    <g id="text_10">
     <!-- Number of Box -->
     <g transform="translate(165.335156 336.635781) scale(0.15 -0.15)">
      <defs>
       <path id="DejaVuSans-4e" d="M 628 4666 
L 1478 4666 
L 3547 763 
L 3547 4666 
L 4159 4666 
L 4159 0 
L 3309 0 
L 1241 3903 
L 1241 0 
L 628 0 
L 628 4666 
z
" transform="scale(0.015625)"/>
       <path id="DejaVuSans-75" d="M 544 1381 
L 544 3500 
L 1119 3500 
L 1119 1403 
Q 1119 906 1312 657 
Q 1506 409 1894 409 
Q 2359 409 2629 706 
Q 2900 1003 2900 1516 
L 2900 3500 
L 3475 3500 
L 3475 0 
L 2900 0 
L 2900 538 
Q 2691 219 2414 64 
Q 2138 -91 1772 -91 
Q 1169 -91 856 284 
Q 544 659 544 1381 
z
M 1991 3584 
L 1991 3584 
z
" transform="scale(0.015625)"/>
       <path id="DejaVuSans-6d" d="M 3328 2828 
Q 3544 3216 3844 3400 
Q 4144 3584 4550 3584 
Q 5097 3584 5394 3201 
Q 5691 2819 5691 2113 
L 5691 0 
L 5113 0 
L 5113 2094 
Q 5113 2597 4934 2840 
Q 4756 3084 4391 3084 
Q 3944 3084 3684 2787 
Q 3425 2491 3425 1978 
L 3425 0 
L 2847 0 
L 2847 2094 
Q 2847 2600 2669 2842 
Q 2491 3084 2119 3084 
Q 1678 3084 1418 2786 
Q 1159 2488 1159 1978 
L 1159 0 
L 581 0 
L 581 3500 
L 1159 3500 
L 1159 2956 
Q 1356 3278 1631 3431 
Q 1906 3584 2284 3584 
Q 2666 3584 2933 3390 
Q 3200 3197 3328 2828 
z
" transform="scale(0.015625)"/>
       <path id="DejaVuSans-62" d="M 3116 1747 
Q 3116 2381 2855 2742 
Q 2594 3103 2138 3103 
Q 1681 3103 1420 2742 
Q 1159 2381 1159 1747 
Q 1159 1113 1420 752 
Q 1681 391 2138 391 
Q 2594 391 2855 752 
Q 3116 1113 3116 1747 
z
M 1159 2969 
Q 1341 3281 1617 3432 
Q 1894 3584 2278 3584 
Q 2916 3584 3314 3078 
Q 3713 2572 3713 1747 
Q 3713 922 3314 415 
Q 2916 -91 2278 -91 
Q 1894 -91 1617 61 
Q 1341 213 1159 525 
L 1159 0 
L 581 0 
L 581 4863 
L 1159 4863 
L 1159 2969 
z
" transform="scale(0.015625)"/>
       <path id="DejaVuSans-65" d="M 3597 1894 
L 3597 1613 
L 953 1613 
Q 991 1019 1311 708 
Q 1631 397 2203 397 
Q 2534 397 2845 478 
Q 3156 559 3463 722 
L 3463 178 
Q 3153 47 2828 -22 
Q 2503 -91 2169 -91 
Q 1331 -91 842 396 
Q 353 884 353 1716 
Q 353 2575 817 3079 
Q 1281 3584 2069 3584 
Q 2775 3584 3186 3129 
Q 3597 2675 3597 1894 
z
M 3022 2063 
Q 3016 2534 2758 2815 
Q 2500 3097 2075 3097 
Q 1594 3097 1305 2825 
Q 1016 2553 972 2059 
L 3022 2063 
z
" transform="scale(0.015625)"/>
       <path id="DejaVuSans-72" d="M 2631 2963 
Q 2534 3019 2420 3045 
Q 2306 3072 2169 3072 
Q 1681 3072 1420 2755 
Q 1159 2438 1159 1844 
L 1159 0 
L 581 0 
L 581 3500 
L 1159 3500 
L 1159 2956 
Q 1341 3275 1631 3429 
Q 1922 3584 2338 3584 
Q 2397 3584 2469 3576 
Q 2541 3569 2628 3553 
L 2631 2963 
z
" transform="scale(0.015625)"/>
       <path id="DejaVuSans-20" transform="scale(0.015625)"/>
       <path id="DejaVuSans-6f" d="M 1959 3097 
Q 1497 3097 1228 2736 
Q 959 2375 959 1747 
Q 959 1119 1226 758 
Q 1494 397 1959 397 
Q 2419 397 2687 759 
Q 2956 1122 2956 1747 
Q 2956 2369 2687 2733 
Q 2419 3097 1959 3097 
z
M 1959 3584 
Q 2709 3584 3137 3096 
Q 3566 2609 3566 1747 
Q 3566 888 3137 398 
Q 2709 -91 1959 -91 
Q 1206 -91 779 398 
Q 353 888 353 1747 
Q 353 2609 779 3096 
Q 1206 3584 1959 3584 
z
" transform="scale(0.015625)"/>
       <path id="DejaVuSans-66" d="M 2375 4863 
L 2375 4384 
L 1825 4384 
Q 1516 4384 1395 4259 
Q 1275 4134 1275 3809 
L 1275 3500 
L 2222 3500 
L 2222 3053 
L 1275 3053 
L 1275 0 
L 697 0 
L 697 3053 
L 147 3053 
L 147 3500 
L 697 3500 
L 697 3744 
Q 697 4328 969 4595 
Q 1241 4863 1831 4863 
L 2375 4863 
z
" transform="scale(0.015625)"/>
       <path id="DejaVuSans-42" d="M 1259 2228 
L 1259 519 
L 2272 519 
Q 2781 519 3026 730 
Q 3272 941 3272 1375 
Q 3272 1813 3026 2020 
Q 2781 2228 2272 2228 
L 1259 2228 
z
M 1259 4147 
L 1259 2741 
L 2194 2741 
Q 2656 2741 2882 2914 
Q 3109 3088 3109 3444 
Q 3109 3797 2882 3972 
Q 2656 4147 2194 4147 
L 1259 4147 
z
M 628 4666 
L 2241 4666 
Q 2963 4666 3353 4366 
Q 3744 4066 3744 3513 
Q 3744 3084 3544 2831 
Q 3344 2578 2956 2516 
Q 3422 2416 3680 2098 
Q 3938 1781 3938 1306 
Q 3938 681 3513 340 
Q 3088 0 2303 0 
L 628 0 
L 628 4666 
z
" transform="scale(0.015625)"/>
       <path id="DejaVuSans-78" d="M 3513 3500 
L 2247 1797 
L 3578 0 
L 2900 0 
L 1881 1375 
L 863 0 
L 184 0 
L 1544 1831 
L 300 3500 
L 978 3500 
L 1906 2253 
L 2834 3500 
L 3513 3500 
z
" transform="scale(0.015625)"/>
      </defs>
      <use xlink:href="#DejaVuSans-4e"/>
      <use xlink:href="#DejaVuSans-75" x="74.804688"/>
      <use xlink:href="#DejaVuSans-6d" x="138.183594"/>
      <use xlink:href="#DejaVuSans-62" x="235.595703"/>
      <use xlink:href="#DejaVuSans-65" x="299.072266"/>
      <use xlink:href="#DejaVuSans-72" x="360.595703"/>
      <use xlink:href="#DejaVuSans-20" x="401.708984"/>
      <use xlink:href="#DejaVuSans-6f" x="433.496094"/>
      <use xlink:href="#DejaVuSans-66" x="494.677734"/>
      <use xlink:href="#DejaVuSans-20" x="529.882812"/>
      <use xlink:href="#DejaVuSans-42" x="561.669922"/>
      <use xlink:href="#DejaVuSans-6f" x="630.273438"/>
      <use xlink:href="#DejaVuSans-78" x="688.330078"/>
     </g>
    </g>
   </g>
   <g id="matplotlib.axis_2">
    <g id="ytick_1">
     <g id="line2d_19">
      <path d="M 54 304.56 
L 388.8 304.56 
" clip-path="url(#p61882ea8a0)" style="fill: none; stroke: #b0b0b0; stroke-width: 0.8; stroke-linecap: square"/>
     </g>
     <g id="line2d_20">
      <defs>
       <path id="md70ffbedb4" d="M 0 0 
L -3.5 0 
" style="stroke: #000000; stroke-width: 0.8"/>
      </defs>
      <g>
       <use xlink:href="#md70ffbedb4" x="54" y="304.56" style="stroke: #000000; stroke-width: 0.8"/>
      </g>
     </g>
     <g id="text_11">
      <!-- 0.0 -->
      <g transform="translate(31.096875 308.359219) scale(0.1 -0.1)">
       <defs>
        <path id="DejaVuSans-2e" d="M 684 794 
L 1344 794 
L 1344 0 
L 684 0 
L 684 794 
z
" transform="scale(0.015625)"/>
       </defs>
       <use xlink:href="#DejaVuSans-30"/>
       <use xlink:href="#DejaVuSans-2e" x="63.623047"/>
       <use xlink:href="#DejaVuSans-30" x="95.410156"/>
      </g>
     </g>
    </g>
    <g id="ytick_2">
     <g id="line2d_21">
      <path d="M 54 263.323636 
L 388.8 263.323636 
" clip-path="url(#p61882ea8a0)" style="fill: none; stroke: #b0b0b0; stroke-width: 0.8; stroke-linecap: square"/>
     </g>
     <g id="line2d_22">
      <g>
       <use xlink:href="#md70ffbedb4" x="54" y="263.323636" style="stroke: #000000; stroke-width: 0.8"/>
      </g>
     </g>
     <g id="text_12">
      <!-- 0.2 -->
      <g transform="translate(31.096875 267.122855) scale(0.1 -0.1)">
       <use xlink:href="#DejaVuSans-30"/>
       <use xlink:href="#DejaVuSans-2e" x="63.623047"/>
       <use xlink:href="#DejaVuSans-32" x="95.410156"/>
      </g>
     </g>
    </g>
    <g id="ytick_3">
     <g id="line2d_23">
      <path d="M 54 222.087273 
L 388.8 222.087273 
" clip-path="url(#p61882ea8a0)" style="fill: none; stroke: #b0b0b0; stroke-width: 0.8; stroke-linecap: square"/>
     </g>
     <g id="line2d_24">
      <g>
       <use xlink:href="#md70ffbedb4" x="54" y="222.087273" style="stroke: #000000; stroke-width: 0.8"/>
      </g>
     </g>
     <g id="text_13">
      <!-- 0.4 -->
      <g transform="translate(31.096875 225.886491) scale(0.1 -0.1)">
       <use xlink:href="#DejaVuSans-30"/>
       <use xlink:href="#DejaVuSans-2e" x="63.623047"/>
       <use xlink:href="#DejaVuSans-34" x="95.410156"/>
      </g>
     </g>
    </g>
    <g id="ytick_4">
     <g id="line2d_25">
      <path d="M 54 180.850909 
L 388.8 180.850909 
" clip-path="url(#p61882ea8a0)" style="fill: none; stroke: #b0b0b0; stroke-width: 0.8; stroke-linecap: square"/>
     </g>
     <g id="line2d_26">
      <g>
       <use xlink:href="#md70ffbedb4" x="54" y="180.850909" style="stroke: #000000; stroke-width: 0.8"/>
      </g>
     </g>
     <g id="text_14">
      <!-- 0.6 -->
      <g transform="translate(31.096875 184.650128) scale(0.1 -0.1)">
       <defs>
        <path id="DejaVuSans-36" d="M 2113 2584 
Q 1688 2584 1439 2293 
Q 1191 2003 1191 1497 
Q 1191 994 1439 701 
Q 1688 409 2113 409 
Q 2538 409 2786 701 
Q 3034 994 3034 1497 
Q 3034 2003 2786 2293 
Q 2538 2584 2113 2584 
z
M 3366 4563 
L 3366 3988 
Q 3128 4100 2886 4159 
Q 2644 4219 2406 4219 
Q 1781 4219 1451 3797 
Q 1122 3375 1075 2522 
Q 1259 2794 1537 2939 
Q 1816 3084 2150 3084 
Q 2853 3084 3261 2657 
Q 3669 2231 3669 1497 
Q 3669 778 3244 343 
Q 2819 -91 2113 -91 
Q 1303 -91 875 529 
Q 447 1150 447 2328 
Q 447 3434 972 4092 
Q 1497 4750 2381 4750 
Q 2619 4750 2861 4703 
Q 3103 4656 3366 4563 
z
" transform="scale(0.015625)"/>
       </defs>
       <use xlink:href="#DejaVuSans-30"/>
       <use xlink:href="#DejaVuSans-2e" x="63.623047"/>
       <use xlink:href="#DejaVuSans-36" x="95.410156"/>
      </g>
     </g>
    </g>
    <g id="ytick_5">
     <g id="line2d_27">
      <path d="M 54 139.614545 
L 388.8 139.614545 
" clip-path="url(#p61882ea8a0)" style="fill: none; stroke: #b0b0b0; stroke-width: 0.8; stroke-linecap: square"/>
     </g>
     <g id="line2d_28">
      <g>
       <use xlink:href="#md70ffbedb4" x="54" y="139.614545" style="stroke: #000000; stroke-width: 0.8"/>
      </g>
     </g>
     <g id="text_15">
      <!-- 0.8 -->
      <g transform="translate(31.096875 143.413764) scale(0.1 -0.1)">
       <defs>
        <path id="DejaVuSans-38" d="M 2034 2216 
Q 1584 2216 1326 1975 
Q 1069 1734 1069 1313 
Q 1069 891 1326 650 
Q 1584 409 2034 409 
Q 2484 409 2743 651 
Q 3003 894 3003 1313 
Q 3003 1734 2745 1975 
Q 2488 2216 2034 2216 
z
M 1403 2484 
Q 997 2584 770 2862 
Q 544 3141 544 3541 
Q 544 4100 942 4425 
Q 1341 4750 2034 4750 
Q 2731 4750 3128 4425 
Q 3525 4100 3525 3541 
Q 3525 3141 3298 2862 
Q 3072 2584 2669 2484 
Q 3125 2378 3379 2068 
Q 3634 1759 3634 1313 
Q 3634 634 3220 271 
Q 2806 -91 2034 -91 
Q 1263 -91 848 271 
Q 434 634 434 1313 
Q 434 1759 690 2068 
Q 947 2378 1403 2484 
z
M 1172 3481 
Q 1172 3119 1398 2916 
Q 1625 2713 2034 2713 
Q 2441 2713 2670 2916 
Q 2900 3119 2900 3481 
Q 2900 3844 2670 4047 
Q 2441 4250 2034 4250 
Q 1625 4250 1398 4047 
Q 1172 3844 1172 3481 
z
" transform="scale(0.015625)"/>
       </defs>
       <use xlink:href="#DejaVuSans-30"/>
       <use xlink:href="#DejaVuSans-2e" x="63.623047"/>
       <use xlink:href="#DejaVuSans-38" x="95.410156"/>
      </g>
     </g>
    </g>
    <g id="ytick_6">
     <g id="line2d_29">
      <path d="M 54 98.378182 
L 388.8 98.378182 
" clip-path="url(#p61882ea8a0)" style="fill: none; stroke: #b0b0b0; stroke-width: 0.8; stroke-linecap: square"/>
     </g>
     <g id="line2d_30">
      <g>
       <use xlink:href="#md70ffbedb4" x="54" y="98.378182" style="stroke: #000000; stroke-width: 0.8"/>
      </g>
     </g>
     <g id="text_16">
      <!-- 1.0 -->
      <g transform="translate(31.096875 102.177401) scale(0.1 -0.1)">
       <use xlink:href="#DejaVuSans-31"/>
       <use xlink:href="#DejaVuSans-2e" x="63.623047"/>
       <use xlink:href="#DejaVuSans-30" x="95.410156"/>
      </g>
     </g>
    </g>
    <g id="text_17">
     <!-- Precision -->
     <g transform="translate(23.977344 224.620547) rotate(-90) scale(0.15 -0.15)">
      <defs>
       <path id="DejaVuSans-50" d="M 1259 4147 
L 1259 2394 
L 2053 2394 
Q 2494 2394 2734 2622 
Q 2975 2850 2975 3272 
Q 2975 3691 2734 3919 
Q 2494 4147 2053 4147 
L 1259 4147 
z
M 628 4666 
L 2053 4666 
Q 2838 4666 3239 4311 
Q 3641 3956 3641 3272 
Q 3641 2581 3239 2228 
Q 2838 1875 2053 1875 
L 1259 1875 
L 1259 0 
L 628 0 
L 628 4666 
z
" transform="scale(0.015625)"/>
       <path id="DejaVuSans-63" d="M 3122 3366 
L 3122 2828 
Q 2878 2963 2633 3030 
Q 2388 3097 2138 3097 
Q 1578 3097 1268 2742 
Q 959 2388 959 1747 
Q 959 1106 1268 751 
Q 1578 397 2138 397 
Q 2388 397 2633 464 
Q 2878 531 3122 666 
L 3122 134 
Q 2881 22 2623 -34 
Q 2366 -91 2075 -91 
Q 1284 -91 818 406 
Q 353 903 353 1747 
Q 353 2603 823 3093 
Q 1294 3584 2113 3584 
Q 2378 3584 2631 3529 
Q 2884 3475 3122 3366 
z
" transform="scale(0.015625)"/>
       <path id="DejaVuSans-69" d="M 603 3500 
L 1178 3500 
L 1178 0 
L 603 0 
L 603 3500 
z
M 603 4863 
L 1178 4863 
L 1178 4134 
L 603 4134 
L 603 4863 
z
" transform="scale(0.015625)"/>
       <path id="DejaVuSans-73" d="M 2834 3397 
L 2834 2853 
Q 2591 2978 2328 3040 
Q 2066 3103 1784 3103 
Q 1356 3103 1142 2972 
Q 928 2841 928 2578 
Q 928 2378 1081 2264 
Q 1234 2150 1697 2047 
L 1894 2003 
Q 2506 1872 2764 1633 
Q 3022 1394 3022 966 
Q 3022 478 2636 193 
Q 2250 -91 1575 -91 
Q 1294 -91 989 -36 
Q 684 19 347 128 
L 347 722 
Q 666 556 975 473 
Q 1284 391 1588 391 
Q 1994 391 2212 530 
Q 2431 669 2431 922 
Q 2431 1156 2273 1281 
Q 2116 1406 1581 1522 
L 1381 1569 
Q 847 1681 609 1914 
Q 372 2147 372 2553 
Q 372 3047 722 3315 
Q 1072 3584 1716 3584 
Q 2034 3584 2315 3537 
Q 2597 3491 2834 3397 
z
" transform="scale(0.015625)"/>
       <path id="DejaVuSans-6e" d="M 3513 2113 
L 3513 0 
L 2938 0 
L 2938 2094 
Q 2938 2591 2744 2837 
Q 2550 3084 2163 3084 
Q 1697 3084 1428 2787 
Q 1159 2491 1159 1978 
L 1159 0 
L 581 0 
L 581 3500 
L 1159 3500 
L 1159 2956 
Q 1366 3272 1645 3428 
Q 1925 3584 2291 3584 
Q 2894 3584 3203 3211 
Q 3513 2838 3513 2113 
z
" transform="scale(0.015625)"/>
      </defs>
      <use xlink:href="#DejaVuSans-50"/>
      <use xlink:href="#DejaVuSans-72" x="58.552734"/>
      <use xlink:href="#DejaVuSans-65" x="97.416016"/>
      <use xlink:href="#DejaVuSans-63" x="158.939453"/>
      <use xlink:href="#DejaVuSans-69" x="213.919922"/>
      <use xlink:href="#DejaVuSans-73" x="241.703125"/>
      <use xlink:href="#DejaVuSans-69" x="293.802734"/>
      <use xlink:href="#DejaVuSans-6f" x="321.585938"/>
      <use xlink:href="#DejaVuSans-6e" x="382.767578"/>
     </g>
    </g>
   </g>
   <g id="patch_3">
    <path d="M 54 304.56 
L 54 77.76 
" style="fill: none; stroke: #000000; stroke-width: 0.8; stroke-linejoin: miter; stroke-linecap: square"/>
   </g>
   <g id="patch_4">
    <path d="M 388.8 304.56 
L 388.8 77.76 
" style="fill: none; stroke: #000000; stroke-width: 0.8; stroke-linejoin: miter; stroke-linecap: square"/>
   </g>
   <g id="patch_5">
    <path d="M 54 304.56 
L 388.8 304.56 
" style="fill: none; stroke: #000000; stroke-width: 0.8; stroke-linejoin: miter; stroke-linecap: square"/>
   </g>
   <g id="patch_6">
    <path d="M 54 77.76 
L 388.8 77.76 
" style="fill: none; stroke: #000000; stroke-width: 0.8; stroke-linejoin: miter; stroke-linecap: square"/>
   </g>
   <g id="legend_1">
    <g id="patch_7">
     <path d="M 294.31875 133.794375 
L 378.3 133.794375 
Q 381.3 133.794375 381.3 130.794375 
L 381.3 88.26 
Q 381.3 85.26 378.3 85.26 
L 294.31875 85.26 
Q 291.31875 85.26 291.31875 88.26 
L 291.31875 130.794375 
Q 291.31875 133.794375 294.31875 133.794375 
z
" style="fill: #ffffff; opacity: 0.8; stroke: #cccccc; stroke-linejoin: miter"/>
    </g>
    <g id="PathCollection_3">
     <g>
      <use xlink:href="#med448d6a75" x="312.31875" y="98.720156" style="fill: #ff0000; stroke: #ff0000"/>
     </g>
    </g>
    <g id="text_18">
     <!-- Train -->
     <g transform="translate(339.31875 102.657656) scale(0.15 -0.15)">
      <defs>
       <path id="DejaVuSans-54" d="M -19 4666 
L 3928 4666 
L 3928 4134 
L 2272 4134 
L 2272 0 
L 1638 0 
L 1638 4134 
L -19 4134 
L -19 4666 
z
" transform="scale(0.015625)"/>
       <path id="DejaVuSans-61" d="M 2194 1759 
Q 1497 1759 1228 1600 
Q 959 1441 959 1056 
Q 959 750 1161 570 
Q 1363 391 1709 391 
Q 2188 391 2477 730 
Q 2766 1069 2766 1631 
L 2766 1759 
L 2194 1759 
z
M 3341 1997 
L 3341 0 
L 2766 0 
L 2766 531 
Q 2569 213 2275 61 
Q 1981 -91 1556 -91 
Q 1019 -91 701 211 
Q 384 513 384 1019 
Q 384 1609 779 1909 
Q 1175 2209 1959 2209 
L 2766 2209 
L 2766 2266 
Q 2766 2663 2505 2880 
Q 2244 3097 1772 3097 
Q 1472 3097 1187 3025 
Q 903 2953 641 2809 
L 641 3341 
Q 956 3463 1253 3523 
Q 1550 3584 1831 3584 
Q 2591 3584 2966 3190 
Q 3341 2797 3341 1997 
z
" transform="scale(0.015625)"/>
      </defs>
      <use xlink:href="#DejaVuSans-54"/>
      <use xlink:href="#DejaVuSans-72" x="46.333984"/>
      <use xlink:href="#DejaVuSans-61" x="87.447266"/>
      <use xlink:href="#DejaVuSans-69" x="148.726562"/>
      <use xlink:href="#DejaVuSans-6e" x="176.509766"/>
     </g>
    </g>
    <g id="PathCollection_4">
     <g>
      <use xlink:href="#m4ef581c2c1" x="312.31875" y="120.737344" style="fill: #0000ff; stroke: #0000ff"/>
     </g>
    </g>
    <g id="text_19">
     <!-- Test -->
     <g transform="translate(339.31875 124.674844) scale(0.15 -0.15)">
      <defs>
       <path id="DejaVuSans-74" d="M 1172 4494 
L 1172 3500 
L 2356 3500 
L 2356 3053 
L 1172 3053 
L 1172 1153 
Q 1172 725 1289 603 
Q 1406 481 1766 481 
L 2356 481 
L 2356 0 
L 1766 0 
Q 1100 0 847 248 
Q 594 497 594 1153 
L 594 3053 
L 172 3053 
L 172 3500 
L 594 3500 
L 594 4494 
L 1172 4494 
z
" transform="scale(0.015625)"/>
      </defs>
      <use xlink:href="#DejaVuSans-54"/>
      <use xlink:href="#DejaVuSans-65" x="44.083984"/>
      <use xlink:href="#DejaVuSans-73" x="105.607422"/>
      <use xlink:href="#DejaVuSans-74" x="157.707031"/>
     </g>
    </g>
   </g>
  </g>
  <g id="axes_2">
   <g id="patch_8">
    <path d="M 54 576.72 
L 388.8 576.72 
L 388.8 349.92 
L 54 349.92 
z
" style="fill: #ffffff"/>
   </g>
   <g id="PathCollection_5">
    <g clip-path="url(#pe2ec60494b)">
     <use xlink:href="#med448d6a75" x="54" y="375.982882" style="fill: #ff0000; stroke: #ff0000"/>
     <use xlink:href="#med448d6a75" x="61.952494" y="376.380996" style="fill: #ff0000; stroke: #ff0000"/>
     <use xlink:href="#med448d6a75" x="69.904988" y="376.872065" style="fill: #ff0000; stroke: #ff0000"/>
     <use xlink:href="#med448d6a75" x="77.857482" y="376.643417" style="fill: #ff0000; stroke: #ff0000"/>
     <use xlink:href="#med448d6a75" x="85.809976" y="376.723411" style="fill: #ff0000; stroke: #ff0000"/>
     <use xlink:href="#med448d6a75" x="93.76247" y="377.421354" style="fill: #ff0000; stroke: #ff0000"/>
     <use xlink:href="#med448d6a75" x="101.714964" y="378.703622" style="fill: #ff0000; stroke: #ff0000"/>
     <use xlink:href="#med448d6a75" x="109.667458" y="378.526508" style="fill: #ff0000; stroke: #ff0000"/>
     <use xlink:href="#med448d6a75" x="117.619952" y="378.295144" style="fill: #ff0000; stroke: #ff0000"/>
     <use xlink:href="#med448d6a75" x="125.572447" y="378.568771" style="fill: #ff0000; stroke: #ff0000"/>
     <use xlink:href="#med448d6a75" x="133.524941" y="378.209795" style="fill: #ff0000; stroke: #ff0000"/>
     <use xlink:href="#med448d6a75" x="141.477435" y="378.818736" style="fill: #ff0000; stroke: #ff0000"/>
     <use xlink:href="#med448d6a75" x="149.429929" y="379.7642" style="fill: #ff0000; stroke: #ff0000"/>
     <use xlink:href="#med448d6a75" x="157.382423" y="378.778902" style="fill: #ff0000; stroke: #ff0000"/>
     <use xlink:href="#med448d6a75" x="165.334917" y="378.668561" style="fill: #ff0000; stroke: #ff0000"/>
     <use xlink:href="#med448d6a75" x="173.287411" y="378.709026" style="fill: #ff0000; stroke: #ff0000"/>
     <use xlink:href="#med448d6a75" x="181.239905" y="379.587271" style="fill: #ff0000; stroke: #ff0000"/>
     <use xlink:href="#med448d6a75" x="189.192399" y="378.844979" style="fill: #ff0000; stroke: #ff0000"/>
     <use xlink:href="#med448d6a75" x="197.144893" y="378.45907" style="fill: #ff0000; stroke: #ff0000"/>
     <use xlink:href="#med448d6a75" x="205.097387" y="378.595549" style="fill: #ff0000; stroke: #ff0000"/>
     <use xlink:href="#med448d6a75" x="213.049881" y="379.16873" style="fill: #ff0000; stroke: #ff0000"/>
     <use xlink:href="#med448d6a75" x="221.002375" y="378.337069" style="fill: #ff0000; stroke: #ff0000"/>
     <use xlink:href="#med448d6a75" x="228.954869" y="379.272142" style="fill: #ff0000; stroke: #ff0000"/>
     <use xlink:href="#med448d6a75" x="236.907363" y="378.003134" style="fill: #ff0000; stroke: #ff0000"/>
     <use xlink:href="#med448d6a75" x="244.859857" y="378.426933" style="fill: #ff0000; stroke: #ff0000"/>
     <use xlink:href="#med448d6a75" x="252.812352" y="379.607902" style="fill: #ff0000; stroke: #ff0000"/>
     <use xlink:href="#med448d6a75" x="260.764846" y="378.418826" style="fill: #ff0000; stroke: #ff0000"/>
     <use xlink:href="#med448d6a75" x="268.71734" y="379.23209" style="fill: #ff0000; stroke: #ff0000"/>
     <use xlink:href="#med448d6a75" x="276.669834" y="378.174667" style="fill: #ff0000; stroke: #ff0000"/>
     <use xlink:href="#med448d6a75" x="284.622328" y="378.187912" style="fill: #ff0000; stroke: #ff0000"/>
     <use xlink:href="#med448d6a75" x="292.574822" y="378.603382" style="fill: #ff0000; stroke: #ff0000"/>
     <use xlink:href="#med448d6a75" x="300.527316" y="378.844057" style="fill: #ff0000; stroke: #ff0000"/>
     <use xlink:href="#med448d6a75" x="308.47981" y="378.64245" style="fill: #ff0000; stroke: #ff0000"/>
     <use xlink:href="#med448d6a75" x="316.432304" y="380.020712" style="fill: #ff0000; stroke: #ff0000"/>
     <use xlink:href="#med448d6a75" x="324.384798" y="380.62617" style="fill: #ff0000; stroke: #ff0000"/>
     <use xlink:href="#med448d6a75" x="332.337292" y="381.290566" style="fill: #ff0000; stroke: #ff0000"/>
     <use xlink:href="#med448d6a75" x="340.289786" y="380.797719" style="fill: #ff0000; stroke: #ff0000"/>
     <use xlink:href="#med448d6a75" x="348.24228" y="380.525127" style="fill: #ff0000; stroke: #ff0000"/>
     <use xlink:href="#med448d6a75" x="356.194774" y="381.572384" style="fill: #ff0000; stroke: #ff0000"/>
     <use xlink:href="#med448d6a75" x="364.147268" y="384.941472" style="fill: #ff0000; stroke: #ff0000"/>
     <use xlink:href="#med448d6a75" x="372.099762" y="382.763706" style="fill: #ff0000; stroke: #ff0000"/>
     <use xlink:href="#med448d6a75" x="380.052257" y="408.025785" style="fill: #ff0000; stroke: #ff0000"/>
    </g>
   </g>
   <g id="PathCollection_6">
    <g clip-path="url(#pe2ec60494b)">
     <use xlink:href="#m4ef581c2c1" x="54" y="370.538182" style="fill: #0000ff; stroke: #0000ff"/>
     <use xlink:href="#m4ef581c2c1" x="61.952494" y="370.538182" style="fill: #0000ff; stroke: #0000ff"/>
     <use xlink:href="#m4ef581c2c1" x="69.904988" y="370.538182" style="fill: #0000ff; stroke: #0000ff"/>
     <use xlink:href="#m4ef581c2c1" x="77.857482" y="370.538182" style="fill: #0000ff; stroke: #0000ff"/>
     <use xlink:href="#m4ef581c2c1" x="85.809976" y="370.538182" style="fill: #0000ff; stroke: #0000ff"/>
     <use xlink:href="#m4ef581c2c1" x="93.76247" y="370.538182" style="fill: #0000ff; stroke: #0000ff"/>
     <use xlink:href="#m4ef581c2c1" x="101.714964" y="370.538182" style="fill: #0000ff; stroke: #0000ff"/>
     <use xlink:href="#m4ef581c2c1" x="109.667458" y="370.538182" style="fill: #0000ff; stroke: #0000ff"/>
     <use xlink:href="#m4ef581c2c1" x="117.619952" y="370.538182" style="fill: #0000ff; stroke: #0000ff"/>
     <use xlink:href="#m4ef581c2c1" x="125.572447" y="370.538182" style="fill: #0000ff; stroke: #0000ff"/>
     <use xlink:href="#m4ef581c2c1" x="133.524941" y="370.538182" style="fill: #0000ff; stroke: #0000ff"/>
     <use xlink:href="#m4ef581c2c1" x="141.477435" y="370.538182" style="fill: #0000ff; stroke: #0000ff"/>
     <use xlink:href="#m4ef581c2c1" x="149.429929" y="370.538182" style="fill: #0000ff; stroke: #0000ff"/>
     <use xlink:href="#m4ef581c2c1" x="157.382423" y="370.538182" style="fill: #0000ff; stroke: #0000ff"/>
     <use xlink:href="#m4ef581c2c1" x="165.334917" y="370.538182" style="fill: #0000ff; stroke: #0000ff"/>
     <use xlink:href="#m4ef581c2c1" x="173.287411" y="371.362909" style="fill: #0000ff; stroke: #0000ff"/>
     <use xlink:href="#m4ef581c2c1" x="181.239905" y="371.362909" style="fill: #0000ff; stroke: #0000ff"/>
     <use xlink:href="#m4ef581c2c1" x="189.192399" y="371.362909" style="fill: #0000ff; stroke: #0000ff"/>
     <use xlink:href="#m4ef581c2c1" x="197.144893" y="371.362909" style="fill: #0000ff; stroke: #0000ff"/>
     <use xlink:href="#m4ef581c2c1" x="205.097387" y="371.362909" style="fill: #0000ff; stroke: #0000ff"/>
     <use xlink:href="#m4ef581c2c1" x="213.049881" y="371.362909" style="fill: #0000ff; stroke: #0000ff"/>
     <use xlink:href="#m4ef581c2c1" x="221.002375" y="371.366221" style="fill: #0000ff; stroke: #0000ff"/>
     <use xlink:href="#m4ef581c2c1" x="228.954869" y="371.366221" style="fill: #0000ff; stroke: #0000ff"/>
     <use xlink:href="#m4ef581c2c1" x="236.907363" y="371.366221" style="fill: #0000ff; stroke: #0000ff"/>
     <use xlink:href="#m4ef581c2c1" x="244.859857" y="373.083636" style="fill: #0000ff; stroke: #0000ff"/>
     <use xlink:href="#m4ef581c2c1" x="252.812352" y="372.30042" style="fill: #0000ff; stroke: #0000ff"/>
     <use xlink:href="#m4ef581c2c1" x="260.764846" y="373.388622" style="fill: #0000ff; stroke: #0000ff"/>
     <use xlink:href="#m4ef581c2c1" x="268.71734" y="373.64645" style="fill: #0000ff; stroke: #0000ff"/>
     <use xlink:href="#m4ef581c2c1" x="276.669834" y="374.032789" style="fill: #0000ff; stroke: #0000ff"/>
     <use xlink:href="#m4ef581c2c1" x="284.622328" y="374.332939" style="fill: #0000ff; stroke: #0000ff"/>
     <use xlink:href="#m4ef581c2c1" x="292.574822" y="375.08631" style="fill: #0000ff; stroke: #0000ff"/>
     <use xlink:href="#m4ef581c2c1" x="300.527316" y="374.22" style="fill: #0000ff; stroke: #0000ff"/>
     <use xlink:href="#m4ef581c2c1" x="308.47981" y="376.914939" style="fill: #0000ff; stroke: #0000ff"/>
     <use xlink:href="#m4ef581c2c1" x="316.432304" y="378.57124" style="fill: #0000ff; stroke: #0000ff"/>
     <use xlink:href="#m4ef581c2c1" x="324.384798" y="383.03405" style="fill: #0000ff; stroke: #0000ff"/>
     <use xlink:href="#m4ef581c2c1" x="332.337292" y="385.265455" style="fill: #0000ff; stroke: #0000ff"/>
     <use xlink:href="#m4ef581c2c1" x="340.289786" y="389.867727" style="fill: #0000ff; stroke: #0000ff"/>
     <use xlink:href="#m4ef581c2c1" x="348.24228" y="387.032727" style="fill: #0000ff; stroke: #0000ff"/>
     <use xlink:href="#m4ef581c2c1" x="356.194774" y="384.283636" style="fill: #0000ff; stroke: #0000ff"/>
     <use xlink:href="#m4ef581c2c1" x="364.147268" y="396.310909" style="fill: #0000ff; stroke: #0000ff"/>
     <use xlink:href="#m4ef581c2c1" x="372.099762" y="422.083636" style="fill: #0000ff; stroke: #0000ff"/>
     <use xlink:href="#m4ef581c2c1" x="380.052257" y="473.629091" style="fill: #0000ff; stroke: #0000ff"/>
    </g>
   </g>
   <g id="PolyCollection_3">
    <defs>
     <path id="meef1b0ce1f" d="M 54 -276.947412 
L 54 -267.086823 
L 61.952494 -266.498341 
L 69.904988 -265.62533 
L 77.857482 -265.991671 
L 85.809976 -265.471646 
L 93.76247 -264.63875 
L 101.714964 -262.978446 
L 109.667458 -263.263599 
L 117.619952 -263.730826 
L 125.572447 -263.198312 
L 133.524941 -263.702867 
L 141.477435 -262.920498 
L 149.429929 -261.649051 
L 157.382423 -263.051014 
L 165.334917 -262.884385 
L 173.287411 -262.451511 
L 181.239905 -261.294073 
L 189.192399 -262.052995 
L 197.144893 -262.421335 
L 205.097387 -261.720854 
L 213.049881 -261.916292 
L 221.002375 -262.177716 
L 228.954869 -260.202909 
L 236.907363 -262.049382 
L 244.859857 -261.079858 
L 252.812352 -259.24517 
L 260.764846 -260.31376 
L 268.71734 -260.122545 
L 276.669834 -261.600744 
L 284.622328 -261.345864 
L 292.574822 -260.228015 
L 300.527316 -259.674206 
L 308.47981 -260.288006 
L 316.432304 -258.428332 
L 324.384798 -257.05512 
L 332.337292 -255.447789 
L 340.289786 -255.951542 
L 348.24228 -258.000932 
L 356.194774 -258.076872 
L 364.147268 -252.723324 
L 372.099762 -257.062165 
L 380.052257 -213.466476 
L 380.052257 -266.481953 
L 380.052257 -266.481953 
L 372.099762 -273.410423 
L 364.147268 -273.393733 
L 356.194774 -274.77836 
L 348.24228 -276.948815 
L 340.289786 -278.453021 
L 332.337292 -277.97108 
L 324.384798 -277.692539 
L 316.432304 -277.530244 
L 308.47981 -278.427094 
L 300.527316 -278.63768 
L 292.574822 -278.565221 
L 284.622328 -278.278313 
L 276.669834 -278.049922 
L 268.71734 -277.413275 
L 260.764846 -278.848589 
L 252.812352 -277.539026 
L 244.859857 -278.066277 
L 236.907363 -277.94435 
L 228.954869 -277.252807 
L 221.002375 -277.148147 
L 213.049881 -275.746247 
L 205.097387 -277.088049 
L 197.144893 -276.660525 
L 189.192399 -276.257046 
L 181.239905 -275.531385 
L 173.287411 -276.130438 
L 165.334917 -275.778492 
L 157.382423 -275.391181 
L 149.429929 -274.822549 
L 141.477435 -275.44203 
L 133.524941 -275.877542 
L 125.572447 -275.664145 
L 117.619952 -275.678887 
L 109.667458 -275.683385 
L 101.714964 -275.614311 
L 93.76247 -276.518541 
L 85.809976 -277.081531 
L 77.857482 -276.721495 
L 69.904988 -276.630541 
L 61.952494 -276.739667 
L 54 -276.947412 
z
" style="stroke: #ff0000; stroke-opacity: 0.2"/>
    </defs>
    <g clip-path="url(#pe2ec60494b)">
     <use xlink:href="#meef1b0ce1f" x="0" y="648" style="fill: #ff0000; fill-opacity: 0.2; stroke: #ff0000; stroke-opacity: 0.2"/>
    </g>
   </g>
   <g id="PolyCollection_4">
    <defs>
     <path id="mffc2124685" d="M 54 -277.461818 
L 54 -277.461818 
L 61.952494 -277.461818 
L 69.904988 -277.461818 
L 77.857482 -277.461818 
L 85.809976 -277.461818 
L 93.76247 -277.461818 
L 101.714964 -277.461818 
L 109.667458 -277.461818 
L 117.619952 -277.461818 
L 125.572447 -277.461818 
L 133.524941 -277.461818 
L 141.477435 -277.461818 
L 149.429929 -277.461818 
L 157.382423 -277.461818 
L 165.334917 -277.461818 
L 173.287411 -263.597008 
L 181.239905 -263.597008 
L 189.192399 -263.597008 
L 197.144893 -263.597008 
L 205.097387 -263.597008 
L 213.049881 -263.597008 
L 221.002375 -263.567537 
L 228.954869 -263.567537 
L 236.907363 -263.567537 
L 244.859857 -252.102135 
L 252.812352 -256.679013 
L 260.764846 -250.481166 
L 268.71734 -249.166349 
L 276.669834 -247.277575 
L 284.622328 -245.868669 
L 292.574822 -242.518807 
L 300.527316 -246.352185 
L 308.47981 -235.204978 
L 316.432304 -229.270518 
L 324.384798 -215.392681 
L 332.337292 -208.990949 
L 340.289786 -197.072645 
L 348.24228 -203.878112 
L 356.194774 -210.480447 
L 364.147268 -178.79281 
L 372.099762 -122.825455 
L 380.052257 -28.578347 
L 380.052257 -320.163471 
L 380.052257 -320.163471 
L 372.099762 -329.007273 
L 364.147268 -324.585372 
L 356.194774 -316.95228 
L 348.24228 -318.056433 
L 340.289786 -319.191901 
L 332.337292 -316.478142 
L 324.384798 -314.53922 
L 316.432304 -309.587002 
L 308.47981 -306.965144 
L 300.527316 -301.207815 
L 292.574822 -303.308573 
L 284.622328 -301.465453 
L 276.669834 -300.656847 
L 268.71734 -299.54075 
L 260.764846 -298.74159 
L 252.812352 -294.720148 
L 244.859857 -297.730592 
L 236.907363 -289.700021 
L 228.954869 -289.700021 
L 221.002375 -289.700021 
L 213.049881 -289.677174 
L 205.097387 -289.677174 
L 197.144893 -289.677174 
L 189.192399 -289.677174 
L 181.239905 -289.677174 
L 173.287411 -289.677174 
L 165.334917 -277.461818 
L 157.382423 -277.461818 
L 149.429929 -277.461818 
L 141.477435 -277.461818 
L 133.524941 -277.461818 
L 125.572447 -277.461818 
L 117.619952 -277.461818 
L 109.667458 -277.461818 
L 101.714964 -277.461818 
L 93.76247 -277.461818 
L 85.809976 -277.461818 
L 77.857482 -277.461818 
L 69.904988 -277.461818 
L 61.952494 -277.461818 
L 54 -277.461818 
z
" style="stroke: #0000ff; stroke-opacity: 0.2"/>
    </defs>
    <g clip-path="url(#pe2ec60494b)">
     <use xlink:href="#mffc2124685" x="0" y="648" style="fill: #0000ff; fill-opacity: 0.2; stroke: #0000ff; stroke-opacity: 0.2"/>
    </g>
   </g>
   <g id="matplotlib.axis_3">
    <g id="xtick_10">
     <g id="line2d_31">
      <path d="M 54 576.72 
L 54 349.92 
" clip-path="url(#pe2ec60494b)" style="fill: none; stroke: #b0b0b0; stroke-width: 0.8; stroke-linecap: square"/>
     </g>
     <g id="line2d_32">
      <g>
       <use xlink:href="#maba6daab7e" x="54" y="576.72" style="stroke: #000000; stroke-width: 0.8"/>
      </g>
     </g>
     <g id="text_20">
      <!-- 0 -->
      <g transform="translate(50.81875 591.318438) scale(0.1 -0.1)">
       <use xlink:href="#DejaVuSans-30"/>
      </g>
     </g>
    </g>
    <g id="xtick_11">
     <g id="line2d_33">
      <path d="M 93.76247 576.72 
L 93.76247 349.92 
" clip-path="url(#pe2ec60494b)" style="fill: none; stroke: #b0b0b0; stroke-width: 0.8; stroke-linecap: square"/>
     </g>
     <g id="line2d_34">
      <g>
       <use xlink:href="#maba6daab7e" x="93.76247" y="576.72" style="stroke: #000000; stroke-width: 0.8"/>
      </g>
     </g>
     <g id="text_21">
      <!-- 5 -->
      <g transform="translate(90.58122 591.318438) scale(0.1 -0.1)">
       <use xlink:href="#DejaVuSans-35"/>
      </g>
     </g>
    </g>
    <g id="xtick_12">
     <g id="line2d_35">
      <path d="M 133.524941 576.72 
L 133.524941 349.92 
" clip-path="url(#pe2ec60494b)" style="fill: none; stroke: #b0b0b0; stroke-width: 0.8; stroke-linecap: square"/>
     </g>
     <g id="line2d_36">
      <g>
       <use xlink:href="#maba6daab7e" x="133.524941" y="576.72" style="stroke: #000000; stroke-width: 0.8"/>
      </g>
     </g>
     <g id="text_22">
      <!-- 10 -->
      <g transform="translate(127.162441 591.318438) scale(0.1 -0.1)">
       <use xlink:href="#DejaVuSans-31"/>
       <use xlink:href="#DejaVuSans-30" x="63.623047"/>
      </g>
     </g>
    </g>
    <g id="xtick_13">
     <g id="line2d_37">
      <path d="M 173.287411 576.72 
L 173.287411 349.92 
" clip-path="url(#pe2ec60494b)" style="fill: none; stroke: #b0b0b0; stroke-width: 0.8; stroke-linecap: square"/>
     </g>
     <g id="line2d_38">
      <g>
       <use xlink:href="#maba6daab7e" x="173.287411" y="576.72" style="stroke: #000000; stroke-width: 0.8"/>
      </g>
     </g>
     <g id="text_23">
      <!-- 15 -->
      <g transform="translate(166.924911 591.318438) scale(0.1 -0.1)">
       <use xlink:href="#DejaVuSans-31"/>
       <use xlink:href="#DejaVuSans-35" x="63.623047"/>
      </g>
     </g>
    </g>
    <g id="xtick_14">
     <g id="line2d_39">
      <path d="M 213.049881 576.72 
L 213.049881 349.92 
" clip-path="url(#pe2ec60494b)" style="fill: none; stroke: #b0b0b0; stroke-width: 0.8; stroke-linecap: square"/>
     </g>
     <g id="line2d_40">
      <g>
       <use xlink:href="#maba6daab7e" x="213.049881" y="576.72" style="stroke: #000000; stroke-width: 0.8"/>
      </g>
     </g>
     <g id="text_24">
      <!-- 20 -->
      <g transform="translate(206.687381 591.318438) scale(0.1 -0.1)">
       <use xlink:href="#DejaVuSans-32"/>
       <use xlink:href="#DejaVuSans-30" x="63.623047"/>
      </g>
     </g>
    </g>
    <g id="xtick_15">
     <g id="line2d_41">
      <path d="M 252.812352 576.72 
L 252.812352 349.92 
" clip-path="url(#pe2ec60494b)" style="fill: none; stroke: #b0b0b0; stroke-width: 0.8; stroke-linecap: square"/>
     </g>
     <g id="line2d_42">
      <g>
       <use xlink:href="#maba6daab7e" x="252.812352" y="576.72" style="stroke: #000000; stroke-width: 0.8"/>
      </g>
     </g>
     <g id="text_25">
      <!-- 25 -->
      <g transform="translate(246.449852 591.318438) scale(0.1 -0.1)">
       <use xlink:href="#DejaVuSans-32"/>
       <use xlink:href="#DejaVuSans-35" x="63.623047"/>
      </g>
     </g>
    </g>
    <g id="xtick_16">
     <g id="line2d_43">
      <path d="M 292.574822 576.72 
L 292.574822 349.92 
" clip-path="url(#pe2ec60494b)" style="fill: none; stroke: #b0b0b0; stroke-width: 0.8; stroke-linecap: square"/>
     </g>
     <g id="line2d_44">
      <g>
       <use xlink:href="#maba6daab7e" x="292.574822" y="576.72" style="stroke: #000000; stroke-width: 0.8"/>
      </g>
     </g>
     <g id="text_26">
      <!-- 30 -->
      <g transform="translate(286.212322 591.318438) scale(0.1 -0.1)">
       <use xlink:href="#DejaVuSans-33"/>
       <use xlink:href="#DejaVuSans-30" x="63.623047"/>
      </g>
     </g>
    </g>
    <g id="xtick_17">
     <g id="line2d_45">
      <path d="M 332.337292 576.72 
L 332.337292 349.92 
" clip-path="url(#pe2ec60494b)" style="fill: none; stroke: #b0b0b0; stroke-width: 0.8; stroke-linecap: square"/>
     </g>
     <g id="line2d_46">
      <g>
       <use xlink:href="#maba6daab7e" x="332.337292" y="576.72" style="stroke: #000000; stroke-width: 0.8"/>
      </g>
     </g>
     <g id="text_27">
      <!-- 35 -->
      <g transform="translate(325.974792 591.318438) scale(0.1 -0.1)">
       <use xlink:href="#DejaVuSans-33"/>
       <use xlink:href="#DejaVuSans-35" x="63.623047"/>
      </g>
     </g>
    </g>
    <g id="xtick_18">
     <g id="line2d_47">
      <path d="M 372.099762 576.72 
L 372.099762 349.92 
" clip-path="url(#pe2ec60494b)" style="fill: none; stroke: #b0b0b0; stroke-width: 0.8; stroke-linecap: square"/>
     </g>
     <g id="line2d_48">
      <g>
       <use xlink:href="#maba6daab7e" x="372.099762" y="576.72" style="stroke: #000000; stroke-width: 0.8"/>
      </g>
     </g>
     <g id="text_28">
      <!-- 40 -->
      <g transform="translate(365.737262 591.318438) scale(0.1 -0.1)">
       <use xlink:href="#DejaVuSans-34"/>
       <use xlink:href="#DejaVuSans-30" x="63.623047"/>
      </g>
     </g>
    </g>
    <g id="text_29">
     <!-- Number of Box -->
     <g transform="translate(165.335156 608.795781) scale(0.15 -0.15)">
      <use xlink:href="#DejaVuSans-4e"/>
      <use xlink:href="#DejaVuSans-75" x="74.804688"/>
      <use xlink:href="#DejaVuSans-6d" x="138.183594"/>
      <use xlink:href="#DejaVuSans-62" x="235.595703"/>
      <use xlink:href="#DejaVuSans-65" x="299.072266"/>
      <use xlink:href="#DejaVuSans-72" x="360.595703"/>
      <use xlink:href="#DejaVuSans-20" x="401.708984"/>
      <use xlink:href="#DejaVuSans-6f" x="433.496094"/>
      <use xlink:href="#DejaVuSans-66" x="494.677734"/>
      <use xlink:href="#DejaVuSans-20" x="529.882812"/>
      <use xlink:href="#DejaVuSans-42" x="561.669922"/>
      <use xlink:href="#DejaVuSans-6f" x="630.273438"/>
      <use xlink:href="#DejaVuSans-78" x="688.330078"/>
     </g>
    </g>
   </g>
   <g id="matplotlib.axis_4">
    <g id="ytick_7">
     <g id="line2d_49">
      <path d="M 54 576.72 
L 388.8 576.72 
" clip-path="url(#pe2ec60494b)" style="fill: none; stroke: #b0b0b0; stroke-width: 0.8; stroke-linecap: square"/>
     </g>
     <g id="line2d_50">
      <g>
       <use xlink:href="#md70ffbedb4" x="54" y="576.72" style="stroke: #000000; stroke-width: 0.8"/>
      </g>
     </g>
     <g id="text_30">
      <!-- 0.0 -->
      <g transform="translate(31.096875 580.519219) scale(0.1 -0.1)">
       <use xlink:href="#DejaVuSans-30"/>
       <use xlink:href="#DejaVuSans-2e" x="63.623047"/>
       <use xlink:href="#DejaVuSans-30" x="95.410156"/>
      </g>
     </g>
    </g>
    <g id="ytick_8">
     <g id="line2d_51">
      <path d="M 54 535.483636 
L 388.8 535.483636 
" clip-path="url(#pe2ec60494b)" style="fill: none; stroke: #b0b0b0; stroke-width: 0.8; stroke-linecap: square"/>
     </g>
     <g id="line2d_52">
      <g>
       <use xlink:href="#md70ffbedb4" x="54" y="535.483636" style="stroke: #000000; stroke-width: 0.8"/>
      </g>
     </g>
     <g id="text_31">
      <!-- 0.2 -->
      <g transform="translate(31.096875 539.282855) scale(0.1 -0.1)">
       <use xlink:href="#DejaVuSans-30"/>
       <use xlink:href="#DejaVuSans-2e" x="63.623047"/>
       <use xlink:href="#DejaVuSans-32" x="95.410156"/>
      </g>
     </g>
    </g>
    <g id="ytick_9">
     <g id="line2d_53">
      <path d="M 54 494.247273 
L 388.8 494.247273 
" clip-path="url(#pe2ec60494b)" style="fill: none; stroke: #b0b0b0; stroke-width: 0.8; stroke-linecap: square"/>
     </g>
     <g id="line2d_54">
      <g>
       <use xlink:href="#md70ffbedb4" x="54" y="494.247273" style="stroke: #000000; stroke-width: 0.8"/>
      </g>
     </g>
     <g id="text_32">
      <!-- 0.4 -->
      <g transform="translate(31.096875 498.046491) scale(0.1 -0.1)">
       <use xlink:href="#DejaVuSans-30"/>
       <use xlink:href="#DejaVuSans-2e" x="63.623047"/>
       <use xlink:href="#DejaVuSans-34" x="95.410156"/>
      </g>
     </g>
    </g>
    <g id="ytick_10">
     <g id="line2d_55">
      <path d="M 54 453.010909 
L 388.8 453.010909 
" clip-path="url(#pe2ec60494b)" style="fill: none; stroke: #b0b0b0; stroke-width: 0.8; stroke-linecap: square"/>
     </g>
     <g id="line2d_56">
      <g>
       <use xlink:href="#md70ffbedb4" x="54" y="453.010909" style="stroke: #000000; stroke-width: 0.8"/>
      </g>
     </g>
     <g id="text_33">
      <!-- 0.6 -->
      <g transform="translate(31.096875 456.810128) scale(0.1 -0.1)">
       <use xlink:href="#DejaVuSans-30"/>
       <use xlink:href="#DejaVuSans-2e" x="63.623047"/>
       <use xlink:href="#DejaVuSans-36" x="95.410156"/>
      </g>
     </g>
    </g>
    <g id="ytick_11">
     <g id="line2d_57">
      <path d="M 54 411.774545 
L 388.8 411.774545 
" clip-path="url(#pe2ec60494b)" style="fill: none; stroke: #b0b0b0; stroke-width: 0.8; stroke-linecap: square"/>
     </g>
     <g id="line2d_58">
      <g>
       <use xlink:href="#md70ffbedb4" x="54" y="411.774545" style="stroke: #000000; stroke-width: 0.8"/>
      </g>
     </g>
     <g id="text_34">
      <!-- 0.8 -->
      <g transform="translate(31.096875 415.573764) scale(0.1 -0.1)">
       <use xlink:href="#DejaVuSans-30"/>
       <use xlink:href="#DejaVuSans-2e" x="63.623047"/>
       <use xlink:href="#DejaVuSans-38" x="95.410156"/>
      </g>
     </g>
    </g>
    <g id="ytick_12">
     <g id="line2d_59">
      <path d="M 54 370.538182 
L 388.8 370.538182 
" clip-path="url(#pe2ec60494b)" style="fill: none; stroke: #b0b0b0; stroke-width: 0.8; stroke-linecap: square"/>
     </g>
     <g id="line2d_60">
      <g>
       <use xlink:href="#md70ffbedb4" x="54" y="370.538182" style="stroke: #000000; stroke-width: 0.8"/>
      </g>
     </g>
     <g id="text_35">
      <!-- 1.0 -->
      <g transform="translate(31.096875 374.337401) scale(0.1 -0.1)">
       <use xlink:href="#DejaVuSans-31"/>
       <use xlink:href="#DejaVuSans-2e" x="63.623047"/>
       <use xlink:href="#DejaVuSans-30" x="95.410156"/>
      </g>
     </g>
    </g>
    <g id="text_36">
     <!-- Recall -->
     <g transform="translate(23.977344 485.695781) rotate(-90) scale(0.15 -0.15)">
      <defs>
       <path id="DejaVuSans-52" d="M 2841 2188 
Q 3044 2119 3236 1894 
Q 3428 1669 3622 1275 
L 4263 0 
L 3584 0 
L 2988 1197 
Q 2756 1666 2539 1819 
Q 2322 1972 1947 1972 
L 1259 1972 
L 1259 0 
L 628 0 
L 628 4666 
L 2053 4666 
Q 2853 4666 3247 4331 
Q 3641 3997 3641 3322 
Q 3641 2881 3436 2590 
Q 3231 2300 2841 2188 
z
M 1259 4147 
L 1259 2491 
L 2053 2491 
Q 2509 2491 2742 2702 
Q 2975 2913 2975 3322 
Q 2975 3731 2742 3939 
Q 2509 4147 2053 4147 
L 1259 4147 
z
" transform="scale(0.015625)"/>
       <path id="DejaVuSans-6c" d="M 603 4863 
L 1178 4863 
L 1178 0 
L 603 0 
L 603 4863 
z
" transform="scale(0.015625)"/>
      </defs>
      <use xlink:href="#DejaVuSans-52"/>
      <use xlink:href="#DejaVuSans-65" x="64.982422"/>
      <use xlink:href="#DejaVuSans-63" x="126.505859"/>
      <use xlink:href="#DejaVuSans-61" x="181.486328"/>
      <use xlink:href="#DejaVuSans-6c" x="242.765625"/>
      <use xlink:href="#DejaVuSans-6c" x="270.548828"/>
     </g>
    </g>
   </g>
   <g id="patch_9">
    <path d="M 54 576.72 
L 54 349.92 
" style="fill: none; stroke: #000000; stroke-width: 0.8; stroke-linejoin: miter; stroke-linecap: square"/>
   </g>
   <g id="patch_10">
    <path d="M 388.8 576.72 
L 388.8 349.92 
" style="fill: none; stroke: #000000; stroke-width: 0.8; stroke-linejoin: miter; stroke-linecap: square"/>
   </g>
   <g id="patch_11">
    <path d="M 54 576.72 
L 388.8 576.72 
" style="fill: none; stroke: #000000; stroke-width: 0.8; stroke-linejoin: miter; stroke-linecap: square"/>
   </g>
   <g id="patch_12">
    <path d="M 54 349.92 
L 388.8 349.92 
" style="fill: none; stroke: #000000; stroke-width: 0.8; stroke-linejoin: miter; stroke-linecap: square"/>
   </g>
   <g id="legend_2">
    <g id="patch_13">
     <path d="M 64.5 569.22 
L 148.48125 569.22 
Q 151.48125 569.22 151.48125 566.22 
L 151.48125 523.685625 
Q 151.48125 520.685625 148.48125 520.685625 
L 64.5 520.685625 
Q 61.5 520.685625 61.5 523.685625 
L 61.5 566.22 
Q 61.5 569.22 64.5 569.22 
z
" style="fill: #ffffff; opacity: 0.8; stroke: #cccccc; stroke-linejoin: miter"/>
    </g>
    <g id="PathCollection_7">
     <g>
      <use xlink:href="#med448d6a75" x="82.5" y="534.145781" style="fill: #ff0000; stroke: #ff0000"/>
     </g>
    </g>
    <g id="text_37">
     <!-- Train -->
     <g transform="translate(109.5 538.083281) scale(0.15 -0.15)">
      <use xlink:href="#DejaVuSans-54"/>
      <use xlink:href="#DejaVuSans-72" x="46.333984"/>
      <use xlink:href="#DejaVuSans-61" x="87.447266"/>
      <use xlink:href="#DejaVuSans-69" x="148.726562"/>
      <use xlink:href="#DejaVuSans-6e" x="176.509766"/>
     </g>
    </g>
    <g id="PathCollection_8">
     <g>
      <use xlink:href="#m4ef581c2c1" x="82.5" y="556.162969" style="fill: #0000ff; stroke: #0000ff"/>
     </g>
    </g>
    <g id="text_38">
     <!-- Test -->
     <g transform="translate(109.5 560.100469) scale(0.15 -0.15)">
      <use xlink:href="#DejaVuSans-54"/>
      <use xlink:href="#DejaVuSans-65" x="44.083984"/>
      <use xlink:href="#DejaVuSans-73" x="105.607422"/>
      <use xlink:href="#DejaVuSans-74" x="157.707031"/>
     </g>
    </g>
   </g>
  </g>
 </g>
 <defs>
  <clipPath id="p61882ea8a0">
   <rect x="54" y="77.76" width="334.8" height="226.8"/>
  </clipPath>
  <clipPath id="pe2ec60494b">
   <rect x="54" y="349.92" width="334.8" height="226.8"/>
  </clipPath>
 </defs>
</svg>
