<?xml version="1.0" encoding="utf-8" standalone="no"?>
<!DOCTYPE svg PUBLIC "-//W3C//DTD SVG 1.1//EN"
  "http://www.w3.org/Graphics/SVG/1.1/DTD/svg11.dtd">
<svg xmlns:xlink="http://www.w3.org/1999/xlink" width="432pt" height="648pt" viewBox="0 0 432 648" xmlns="http://www.w3.org/2000/svg" version="1.1">
 <metadata>
  <rdf:RDF xmlns:dc="http://purl.org/dc/elements/1.1/" xmlns:cc="http://creativecommons.org/ns#" xmlns:rdf="http://www.w3.org/1999/02/22-rdf-syntax-ns#">
   <cc:Work>
    <dc:type rdf:resource="http://purl.org/dc/dcmitype/StillImage"/>
    <dc:date>2024-01-01T18:49:12.636912</dc:date>
    <dc:format>image/svg+xml</dc:format>
    <dc:creator>
     <cc:Agent>
      <dc:title>Matplotlib v3.8.0, https://matplotlib.org/</dc:title>
     </cc:Agent>
    </dc:creator>
   </cc:Work>
  </rdf:RDF>
 </metadata>
 <defs>
  <style type="text/css">*{stroke-linejoin: round; stroke-linecap: butt}</style>
 </defs>
 <g id="figure_1">
  <g id="patch_1">
   <path d="M 0 648 
L 432 648 
L 432 0 
L 0 0 
z
" style="fill: #ffffff"/>
  </g>
  <g id="axes_1">
   <g id="patch_2">
    <path d="M 54 304.56 
L 388.8 304.56 
L 388.8 77.76 
L 54 77.76 
z
" style="fill: #ffffff"/>
   </g>
   <g id="PathCollection_1">
    <defs>
     <path id="m5b9dc9af09" d="M 0 3 
C 0.795609 3 1.55874 2.683901 2.12132 2.12132 
C 2.683901 1.55874 3 0.795609 3 0 
C 3 -0.795609 2.683901 -1.55874 2.12132 -2.12132 
C 1.55874 -2.683901 0.795609 -3 0 -3 
C -0.795609 -3 -1.55874 -2.683901 -2.12132 -2.12132 
C -2.683901 -1.55874 -3 -0.795609 -3 0 
C -3 0.795609 -2.683901 1.55874 -2.12132 2.12132 
C -1.55874 2.683901 -0.795609 3 0 3 
z
" style="stroke: #ff0000"/>
    </defs>
    <g clip-path="url(#pb6f2e05d5f)">
     <use xlink:href="#m5b9dc9af09" x="54" y="275.427199" style="fill: #ff0000; stroke: #ff0000"/>
     <use xlink:href="#m5b9dc9af09" x="60.305085" y="274.184301" style="fill: #ff0000; stroke: #ff0000"/>
     <use xlink:href="#m5b9dc9af09" x="66.610169" y="272.898049" style="fill: #ff0000; stroke: #ff0000"/>
     <use xlink:href="#m5b9dc9af09" x="72.915254" y="271.591209" style="fill: #ff0000; stroke: #ff0000"/>
     <use xlink:href="#m5b9dc9af09" x="79.220339" y="270.234352" style="fill: #ff0000; stroke: #ff0000"/>
     <use xlink:href="#m5b9dc9af09" x="85.525424" y="268.833146" style="fill: #ff0000; stroke: #ff0000"/>
     <use xlink:href="#m5b9dc9af09" x="91.830508" y="267.390298" style="fill: #ff0000; stroke: #ff0000"/>
     <use xlink:href="#m5b9dc9af09" x="98.135593" y="265.865891" style="fill: #ff0000; stroke: #ff0000"/>
     <use xlink:href="#m5b9dc9af09" x="104.440678" y="264.307799" style="fill: #ff0000; stroke: #ff0000"/>
     <use xlink:href="#m5b9dc9af09" x="110.745763" y="262.694086" style="fill: #ff0000; stroke: #ff0000"/>
     <use xlink:href="#m5b9dc9af09" x="117.050847" y="261.056659" style="fill: #ff0000; stroke: #ff0000"/>
     <use xlink:href="#m5b9dc9af09" x="123.355932" y="259.352422" style="fill: #ff0000; stroke: #ff0000"/>
     <use xlink:href="#m5b9dc9af09" x="129.661017" y="257.565641" style="fill: #ff0000; stroke: #ff0000"/>
     <use xlink:href="#m5b9dc9af09" x="135.966102" y="255.686111" style="fill: #ff0000; stroke: #ff0000"/>
     <use xlink:href="#m5b9dc9af09" x="142.271186" y="253.727455" style="fill: #ff0000; stroke: #ff0000"/>
     <use xlink:href="#m5b9dc9af09" x="148.576271" y="251.712142" style="fill: #ff0000; stroke: #ff0000"/>
     <use xlink:href="#m5b9dc9af09" x="154.881356" y="249.594744" style="fill: #ff0000; stroke: #ff0000"/>
     <use xlink:href="#m5b9dc9af09" x="161.186441" y="247.496406" style="fill: #ff0000; stroke: #ff0000"/>
     <use xlink:href="#m5b9dc9af09" x="167.491525" y="245.186892" style="fill: #ff0000; stroke: #ff0000"/>
     <use xlink:href="#m5b9dc9af09" x="173.79661" y="242.871555" style="fill: #ff0000; stroke: #ff0000"/>
     <use xlink:href="#m5b9dc9af09" x="180.101695" y="240.516572" style="fill: #ff0000; stroke: #ff0000"/>
     <use xlink:href="#m5b9dc9af09" x="186.40678" y="238.094949" style="fill: #ff0000; stroke: #ff0000"/>
     <use xlink:href="#m5b9dc9af09" x="192.711864" y="235.518835" style="fill: #ff0000; stroke: #ff0000"/>
     <use xlink:href="#m5b9dc9af09" x="199.016949" y="232.754722" style="fill: #ff0000; stroke: #ff0000"/>
     <use xlink:href="#m5b9dc9af09" x="205.322034" y="229.932632" style="fill: #ff0000; stroke: #ff0000"/>
     <use xlink:href="#m5b9dc9af09" x="211.627119" y="227.226111" style="fill: #ff0000; stroke: #ff0000"/>
     <use xlink:href="#m5b9dc9af09" x="217.932203" y="224.377154" style="fill: #ff0000; stroke: #ff0000"/>
     <use xlink:href="#m5b9dc9af09" x="224.237288" y="221.157577" style="fill: #ff0000; stroke: #ff0000"/>
     <use xlink:href="#m5b9dc9af09" x="230.542373" y="218.453914" style="fill: #ff0000; stroke: #ff0000"/>
     <use xlink:href="#m5b9dc9af09" x="236.847458" y="215.38152" style="fill: #ff0000; stroke: #ff0000"/>
     <use xlink:href="#m5b9dc9af09" x="243.152542" y="212.406952" style="fill: #ff0000; stroke: #ff0000"/>
     <use xlink:href="#m5b9dc9af09" x="249.457627" y="209.31155" style="fill: #ff0000; stroke: #ff0000"/>
     <use xlink:href="#m5b9dc9af09" x="255.762712" y="206.427276" style="fill: #ff0000; stroke: #ff0000"/>
     <use xlink:href="#m5b9dc9af09" x="262.067797" y="203.136026" style="fill: #ff0000; stroke: #ff0000"/>
     <use xlink:href="#m5b9dc9af09" x="268.372881" y="201.2684" style="fill: #ff0000; stroke: #ff0000"/>
     <use xlink:href="#m5b9dc9af09" x="274.677966" y="198.578052" style="fill: #ff0000; stroke: #ff0000"/>
     <use xlink:href="#m5b9dc9af09" x="280.983051" y="194.998412" style="fill: #ff0000; stroke: #ff0000"/>
     <use xlink:href="#m5b9dc9af09" x="287.288136" y="191.985537" style="fill: #ff0000; stroke: #ff0000"/>
     <use xlink:href="#m5b9dc9af09" x="293.59322" y="188.973215" style="fill: #ff0000; stroke: #ff0000"/>
     <use xlink:href="#m5b9dc9af09" x="299.898305" y="185.736022" style="fill: #ff0000; stroke: #ff0000"/>
     <use xlink:href="#m5b9dc9af09" x="306.20339" y="182.843475" style="fill: #ff0000; stroke: #ff0000"/>
     <use xlink:href="#m5b9dc9af09" x="312.508475" y="181.355231" style="fill: #ff0000; stroke: #ff0000"/>
     <use xlink:href="#m5b9dc9af09" x="318.813559" y="178.625869" style="fill: #ff0000; stroke: #ff0000"/>
     <use xlink:href="#m5b9dc9af09" x="325.118644" y="175.607533" style="fill: #ff0000; stroke: #ff0000"/>
     <use xlink:href="#m5b9dc9af09" x="331.423729" y="173.473727" style="fill: #ff0000; stroke: #ff0000"/>
     <use xlink:href="#m5b9dc9af09" x="337.728814" y="173.541018" style="fill: #ff0000; stroke: #ff0000"/>
     <use xlink:href="#m5b9dc9af09" x="344.033898" y="172.957994" style="fill: #ff0000; stroke: #ff0000"/>
     <use xlink:href="#m5b9dc9af09" x="350.338983" y="171.56881" style="fill: #ff0000; stroke: #ff0000"/>
     <use xlink:href="#m5b9dc9af09" x="356.644068" y="168.230671" style="fill: #ff0000; stroke: #ff0000"/>
     <use xlink:href="#m5b9dc9af09" x="362.949153" y="166.701446" style="fill: #ff0000; stroke: #ff0000"/>
     <use xlink:href="#m5b9dc9af09" x="369.254237" y="155.079517" style="fill: #ff0000; stroke: #ff0000"/>
     <use xlink:href="#m5b9dc9af09" x="375.559322" y="155.098556" style="fill: #ff0000; stroke: #ff0000"/>
     <use xlink:href="#m5b9dc9af09" x="381.864407" y="151.008511" style="fill: #ff0000; stroke: #ff0000"/>
    </g>
   </g>
   <g id="PathCollection_2">
    <defs>
     <path id="ma1b89b6731" d="M 0 3 
C 0.795609 3 1.55874 2.683901 2.12132 2.12132 
C 2.683901 1.55874 3 0.795609 3 0 
C 3 -0.795609 2.683901 -1.55874 2.12132 -2.12132 
C 1.55874 -2.683901 0.795609 -3 0 -3 
C -0.795609 -3 -1.55874 -2.683901 -2.12132 -2.12132 
C -2.683901 -1.55874 -3 -0.795609 -3 0 
C -3 0.795609 -2.683901 1.55874 -2.12132 2.12132 
C -1.55874 2.683901 -0.795609 3 0 3 
z
" style="stroke: #0000ff"/>
    </defs>
    <g clip-path="url(#pb6f2e05d5f)">
     <use xlink:href="#ma1b89b6731" x="54" y="241.339786" style="fill: #0000ff; stroke: #0000ff"/>
     <use xlink:href="#ma1b89b6731" x="60.305085" y="239.99004" style="fill: #0000ff; stroke: #0000ff"/>
     <use xlink:href="#ma1b89b6731" x="66.610169" y="238.871101" style="fill: #0000ff; stroke: #0000ff"/>
     <use xlink:href="#ma1b89b6731" x="72.915254" y="237.229278" style="fill: #0000ff; stroke: #0000ff"/>
     <use xlink:href="#ma1b89b6731" x="79.220339" y="235.496733" style="fill: #0000ff; stroke: #0000ff"/>
     <use xlink:href="#ma1b89b6731" x="85.525424" y="234.305436" style="fill: #0000ff; stroke: #0000ff"/>
     <use xlink:href="#ma1b89b6731" x="91.830508" y="232.883096" style="fill: #0000ff; stroke: #0000ff"/>
     <use xlink:href="#ma1b89b6731" x="98.135593" y="231.08558" style="fill: #0000ff; stroke: #0000ff"/>
     <use xlink:href="#ma1b89b6731" x="104.440678" y="229.623145" style="fill: #0000ff; stroke: #0000ff"/>
     <use xlink:href="#ma1b89b6731" x="110.745763" y="227.871366" style="fill: #0000ff; stroke: #0000ff"/>
     <use xlink:href="#ma1b89b6731" x="117.050847" y="226.368219" style="fill: #0000ff; stroke: #0000ff"/>
     <use xlink:href="#ma1b89b6731" x="123.355932" y="224.658344" style="fill: #0000ff; stroke: #0000ff"/>
     <use xlink:href="#ma1b89b6731" x="129.661017" y="223.157137" style="fill: #0000ff; stroke: #0000ff"/>
     <use xlink:href="#ma1b89b6731" x="135.966102" y="221.662578" style="fill: #0000ff; stroke: #0000ff"/>
     <use xlink:href="#ma1b89b6731" x="142.271186" y="220.041096" style="fill: #0000ff; stroke: #0000ff"/>
     <use xlink:href="#ma1b89b6731" x="148.576271" y="218.583652" style="fill: #0000ff; stroke: #0000ff"/>
     <use xlink:href="#ma1b89b6731" x="154.881356" y="217.642413" style="fill: #0000ff; stroke: #0000ff"/>
     <use xlink:href="#ma1b89b6731" x="161.186441" y="215.556892" style="fill: #0000ff; stroke: #0000ff"/>
     <use xlink:href="#ma1b89b6731" x="167.491525" y="214.209832" style="fill: #0000ff; stroke: #0000ff"/>
     <use xlink:href="#ma1b89b6731" x="173.79661" y="212.028801" style="fill: #0000ff; stroke: #0000ff"/>
     <use xlink:href="#ma1b89b6731" x="180.101695" y="209.808886" style="fill: #0000ff; stroke: #0000ff"/>
     <use xlink:href="#ma1b89b6731" x="186.40678" y="207.399612" style="fill: #0000ff; stroke: #0000ff"/>
     <use xlink:href="#ma1b89b6731" x="192.711864" y="204.970615" style="fill: #0000ff; stroke: #0000ff"/>
     <use xlink:href="#ma1b89b6731" x="199.016949" y="203.310595" style="fill: #0000ff; stroke: #0000ff"/>
     <use xlink:href="#ma1b89b6731" x="205.322034" y="200.808211" style="fill: #0000ff; stroke: #0000ff"/>
     <use xlink:href="#ma1b89b6731" x="211.627119" y="198.589653" style="fill: #0000ff; stroke: #0000ff"/>
     <use xlink:href="#ma1b89b6731" x="217.932203" y="195.93757" style="fill: #0000ff; stroke: #0000ff"/>
     <use xlink:href="#ma1b89b6731" x="224.237288" y="191.750095" style="fill: #0000ff; stroke: #0000ff"/>
     <use xlink:href="#ma1b89b6731" x="230.542373" y="190.538812" style="fill: #0000ff; stroke: #0000ff"/>
     <use xlink:href="#ma1b89b6731" x="236.847458" y="187.199429" style="fill: #0000ff; stroke: #0000ff"/>
     <use xlink:href="#ma1b89b6731" x="243.152542" y="184.232614" style="fill: #0000ff; stroke: #0000ff"/>
     <use xlink:href="#ma1b89b6731" x="249.457627" y="181.495393" style="fill: #0000ff; stroke: #0000ff"/>
     <use xlink:href="#ma1b89b6731" x="255.762712" y="180.366758" style="fill: #0000ff; stroke: #0000ff"/>
     <use xlink:href="#ma1b89b6731" x="262.067797" y="177.404834" style="fill: #0000ff; stroke: #0000ff"/>
     <use xlink:href="#ma1b89b6731" x="268.372881" y="173.138742" style="fill: #0000ff; stroke: #0000ff"/>
     <use xlink:href="#ma1b89b6731" x="274.677966" y="173.680126" style="fill: #0000ff; stroke: #0000ff"/>
     <use xlink:href="#ma1b89b6731" x="280.983051" y="171.336021" style="fill: #0000ff; stroke: #0000ff"/>
     <use xlink:href="#ma1b89b6731" x="287.288136" y="167.827864" style="fill: #0000ff; stroke: #0000ff"/>
     <use xlink:href="#ma1b89b6731" x="293.59322" y="168.225771" style="fill: #0000ff; stroke: #0000ff"/>
     <use xlink:href="#ma1b89b6731" x="299.898305" y="164.379062" style="fill: #0000ff; stroke: #0000ff"/>
     <use xlink:href="#ma1b89b6731" x="306.20339" y="160.894432" style="fill: #0000ff; stroke: #0000ff"/>
     <use xlink:href="#ma1b89b6731" x="312.508475" y="158.652149" style="fill: #0000ff; stroke: #0000ff"/>
     <use xlink:href="#ma1b89b6731" x="318.813559" y="160.295294" style="fill: #0000ff; stroke: #0000ff"/>
     <use xlink:href="#ma1b89b6731" x="325.118644" y="149.815348" style="fill: #0000ff; stroke: #0000ff"/>
     <use xlink:href="#ma1b89b6731" x="331.423729" y="153.830455" style="fill: #0000ff; stroke: #0000ff"/>
     <use xlink:href="#ma1b89b6731" x="337.728814" y="168.305455" style="fill: #0000ff; stroke: #0000ff"/>
     <use xlink:href="#ma1b89b6731" x="344.033898" y="154.065682" style="fill: #0000ff; stroke: #0000ff"/>
     <use xlink:href="#ma1b89b6731" x="350.338983" y="158.514545" style="fill: #0000ff; stroke: #0000ff"/>
     <use xlink:href="#ma1b89b6731" x="356.644068" y="164.957727" style="fill: #0000ff; stroke: #0000ff"/>
     <use xlink:href="#ma1b89b6731" x="362.949153" y="175.696364" style="fill: #0000ff; stroke: #0000ff"/>
     <use xlink:href="#ma1b89b6731" x="369.254237" y="98.378182" style="fill: #0000ff; stroke: #0000ff"/>
     <use xlink:href="#ma1b89b6731" x="375.559322" y="98.378182" style="fill: #0000ff; stroke: #0000ff"/>
     <use xlink:href="#ma1b89b6731" x="381.864407" y="98.378182" style="fill: #0000ff; stroke: #0000ff"/>
    </g>
   </g>
   <g id="PolyCollection_1">
    <defs>
     <path id="macb1e6db51" d="M 54 -377.329593 
L 54 -367.816009 
L 60.305085 -368.874757 
L 66.610169 -369.946411 
L 72.915254 -371.030027 
L 79.220339 -372.176278 
L 85.525424 -373.332042 
L 91.830508 -374.51934 
L 98.135593 -375.764481 
L 104.440678 -377.058087 
L 110.745763 -378.374946 
L 117.050847 -379.695561 
L 123.355932 -381.109202 
L 129.661017 -382.526782 
L 135.966102 -384.047105 
L 142.271186 -385.60674 
L 148.576271 -387.25304 
L 154.881356 -388.95472 
L 161.186441 -390.590371 
L 167.491525 -392.50465 
L 173.79661 -394.458598 
L 180.101695 -396.440002 
L 186.40678 -398.493057 
L 192.711864 -400.548557 
L 199.016949 -402.924682 
L 205.322034 -405.255114 
L 211.627119 -407.523576 
L 217.932203 -410.046246 
L 224.237288 -412.548517 
L 230.542373 -415.218498 
L 236.847458 -417.931634 
L 243.152542 -420.573104 
L 249.457627 -423.667792 
L 255.762712 -426.404494 
L 262.067797 -429.380146 
L 268.372881 -432.155284 
L 274.677966 -435.222303 
L 280.983051 -438.283383 
L 287.288136 -440.98957 
L 293.59322 -443.851291 
L 299.898305 -446.535161 
L 306.20339 -448.759347 
L 312.508475 -449.841769 
L 318.813559 -451.101025 
L 325.118644 -453.246592 
L 331.423729 -454.517068 
L 337.728814 -455.209868 
L 344.033898 -457.317899 
L 350.338983 -456.997089 
L 356.644068 -461.590598 
L 362.949153 -464.958534 
L 369.254237 -481.046379 
L 375.559322 -486.908391 
L 381.864407 -491.169228 
L 381.864407 -502.81375 
L 381.864407 -502.81375 
L 375.559322 -498.894498 
L 369.254237 -504.794588 
L 362.949153 -497.638575 
L 356.644068 -497.948059 
L 350.338983 -495.865292 
L 344.033898 -492.766112 
L 337.728814 -493.708097 
L 331.423729 -494.535477 
L 325.118644 -491.538343 
L 318.813559 -487.647236 
L 312.508475 -483.447769 
L 306.20339 -481.553703 
L 299.898305 -477.992794 
L 293.59322 -474.202279 
L 287.288136 -471.039356 
L 280.983051 -467.719792 
L 274.677966 -463.621594 
L 268.372881 -461.307917 
L 262.067797 -460.347802 
L 255.762712 -456.740955 
L 249.457627 -453.709108 
L 243.152542 -450.612992 
L 236.847458 -447.305325 
L 230.542373 -443.873673 
L 224.237288 -441.136329 
L 217.932203 -437.199445 
L 211.627119 -434.024202 
L 205.322034 -430.879621 
L 199.016949 -427.565874 
L 192.711864 -424.413773 
L 186.40678 -421.317045 
L 180.101695 -418.526855 
L 173.79661 -415.798291 
L 167.491525 -413.121566 
L 161.186441 -410.416817 
L 154.881356 -407.855792 
L 148.576271 -405.322677 
L 142.271186 -402.93835 
L 135.966102 -400.580674 
L 129.661017 -398.341935 
L 123.355932 -396.185954 
L 117.050847 -394.19112 
L 110.745763 -392.236882 
L 104.440678 -390.326314 
L 98.135593 -388.503736 
L 91.830508 -386.700063 
L 85.525424 -385.001667 
L 79.220339 -383.355018 
L 72.915254 -381.787555 
L 66.610169 -380.25749 
L 60.305085 -378.756642 
L 54 -377.329593 
z
" style="stroke: #ff0000; stroke-opacity: 0.2"/>
    </defs>
    <g clip-path="url(#pb6f2e05d5f)">
     <use xlink:href="#macb1e6db51" x="0" y="648" style="fill: #ff0000; fill-opacity: 0.2; stroke: #ff0000; stroke-opacity: 0.2"/>
    </g>
   </g>
   <g id="PolyCollection_2">
    <defs>
     <path id="mad546cd2cd" d="M 54 -418.926948 
L 54 -394.393481 
L 60.305085 -395.270779 
L 66.610169 -395.999224 
L 72.915254 -397.178262 
L 79.220339 -397.91263 
L 85.525424 -398.427991 
L 91.830508 -399.367586 
L 98.135593 -400.21792 
L 104.440678 -401.050584 
L 110.745763 -402.578778 
L 117.050847 -402.951321 
L 123.355932 -403.75759 
L 129.661017 -404.47856 
L 135.966102 -405.068444 
L 142.271186 -406.35943 
L 148.576271 -407.291474 
L 154.881356 -407.795657 
L 161.186441 -409.221211 
L 167.491525 -409.299646 
L 173.79661 -410.655918 
L 180.101695 -411.718289 
L 186.40678 -413.095485 
L 192.711864 -414.752349 
L 199.016949 -414.837137 
L 205.322034 -416.352862 
L 211.627119 -418.23036 
L 217.932203 -418.647616 
L 224.237288 -423.470479 
L 230.542373 -423.567045 
L 236.847458 -426.932552 
L 243.152542 -429.015939 
L 249.457627 -430.070165 
L 255.762712 -429.816635 
L 262.067797 -431.608755 
L 268.372881 -435.189789 
L 274.677966 -434.030335 
L 280.983051 -436.08399 
L 287.288136 -438.16638 
L 293.59322 -435.382924 
L 299.898305 -437.957155 
L 306.20339 -441.641365 
L 312.508475 -446.399162 
L 318.813559 -438.397272 
L 325.118644 -444.250919 
L 331.423729 -432.310176 
L 337.728814 -414.600052 
L 344.033898 -434.673649 
L 350.338983 -409.396666 
L 356.644068 -392.852339 
L 362.949153 -370.50952 
L 369.254237 -549.621818 
L 375.559322 -549.621818 
L 381.864407 -549.621818 
L 381.864407 -549.621818 
L 381.864407 -549.621818 
L 375.559322 -549.621818 
L 369.254237 -549.621818 
L 362.949153 -574.097753 
L 356.644068 -573.232207 
L 350.338983 -569.574244 
L 344.033898 -553.194988 
L 337.728814 -544.789039 
L 331.423729 -556.028915 
L 325.118644 -552.118386 
L 318.813559 -537.01214 
L 312.508475 -532.296541 
L 306.20339 -532.569771 
L 299.898305 -529.284722 
L 293.59322 -524.165533 
L 287.288136 -522.177891 
L 280.983051 -517.243967 
L 274.677966 -514.609412 
L 268.372881 -514.532727 
L 262.067797 -509.581577 
L 255.762712 -505.449848 
L 249.457627 -502.939049 
L 243.152542 -498.518832 
L 236.847458 -494.668589 
L 230.542373 -491.355331 
L 224.237288 -489.029331 
L 217.932203 -485.477244 
L 211.627119 -480.590334 
L 205.322034 -478.030716 
L 199.016949 -474.541673 
L 192.711864 -471.30642 
L 186.40678 -468.105291 
L 180.101695 -464.66394 
L 173.79661 -461.286481 
L 167.491525 -458.280691 
L 161.186441 -455.665006 
L 154.881356 -452.919516 
L 148.576271 -451.541222 
L 142.271186 -449.558378 
L 135.966102 -447.606399 
L 129.661017 -445.207166 
L 123.355932 -442.925722 
L 117.050847 -440.312242 
L 110.745763 -437.678491 
L 104.440678 -435.703127 
L 98.135593 -433.610919 
L 91.830508 -430.866221 
L 85.525424 -428.961137 
L 79.220339 -427.093904 
L 72.915254 -424.363183 
L 66.610169 -422.258573 
L 60.305085 -420.749142 
L 54 -418.926948 
z
" style="stroke: #0000ff; stroke-opacity: 0.2"/>
    </defs>
    <g clip-path="url(#pb6f2e05d5f)">
     <use xlink:href="#mad546cd2cd" x="0" y="648" style="fill: #0000ff; fill-opacity: 0.2; stroke: #0000ff; stroke-opacity: 0.2"/>
    </g>
   </g>
   <g id="matplotlib.axis_1">
    <g id="xtick_1">
     <g id="line2d_1">
      <path d="M 54 304.56 
L 54 77.76 
" clip-path="url(#pb6f2e05d5f)" style="fill: none; stroke: #b0b0b0; stroke-width: 0.8; stroke-linecap: square"/>
     </g>
     <g id="line2d_2">
      <defs>
       <path id="mbce8c28fb9" d="M 0 0 
L 0 3.5 
" style="stroke: #000000; stroke-width: 0.8"/>
      </defs>
      <g>
       <use xlink:href="#mbce8c28fb9" x="54" y="304.56" style="stroke: #000000; stroke-width: 0.8"/>
      </g>
     </g>
     <g id="text_1">
      <!-- 0 -->
      <g transform="translate(50.81875 319.158437) scale(0.1 -0.1)">
       <defs>
        <path id="DejaVuSans-30" d="M 2034 4250 
Q 1547 4250 1301 3770 
Q 1056 3291 1056 2328 
Q 1056 1369 1301 889 
Q 1547 409 2034 409 
Q 2525 409 2770 889 
Q 3016 1369 3016 2328 
Q 3016 3291 2770 3770 
Q 2525 4250 2034 4250 
z
M 2034 4750 
Q 2819 4750 3233 4129 
Q 3647 3509 3647 2328 
Q 3647 1150 3233 529 
Q 2819 -91 2034 -91 
Q 1250 -91 836 529 
Q 422 1150 422 2328 
Q 422 3509 836 4129 
Q 1250 4750 2034 4750 
z
" transform="scale(0.015625)"/>
       </defs>
       <use xlink:href="#DejaVuSans-30"/>
      </g>
     </g>
    </g>
    <g id="xtick_2">
     <g id="line2d_3">
      <path d="M 117.050847 304.56 
L 117.050847 77.76 
" clip-path="url(#pb6f2e05d5f)" style="fill: none; stroke: #b0b0b0; stroke-width: 0.8; stroke-linecap: square"/>
     </g>
     <g id="line2d_4">
      <g>
       <use xlink:href="#mbce8c28fb9" x="117.050847" y="304.56" style="stroke: #000000; stroke-width: 0.8"/>
      </g>
     </g>
     <g id="text_2">
      <!-- 10 -->
      <g transform="translate(110.688347 319.158437) scale(0.1 -0.1)">
       <defs>
        <path id="DejaVuSans-31" d="M 794 531 
L 1825 531 
L 1825 4091 
L 703 3866 
L 703 4441 
L 1819 4666 
L 2450 4666 
L 2450 531 
L 3481 531 
L 3481 0 
L 794 0 
L 794 531 
z
" transform="scale(0.015625)"/>
       </defs>
       <use xlink:href="#DejaVuSans-31"/>
       <use xlink:href="#DejaVuSans-30" x="63.623047"/>
      </g>
     </g>
    </g>
    <g id="xtick_3">
     <g id="line2d_5">
      <path d="M 180.101695 304.56 
L 180.101695 77.76 
" clip-path="url(#pb6f2e05d5f)" style="fill: none; stroke: #b0b0b0; stroke-width: 0.8; stroke-linecap: square"/>
     </g>
     <g id="line2d_6">
      <g>
       <use xlink:href="#mbce8c28fb9" x="180.101695" y="304.56" style="stroke: #000000; stroke-width: 0.8"/>
      </g>
     </g>
     <g id="text_3">
      <!-- 20 -->
      <g transform="translate(173.739195 319.158437) scale(0.1 -0.1)">
       <defs>
        <path id="DejaVuSans-32" d="M 1228 531 
L 3431 531 
L 3431 0 
L 469 0 
L 469 531 
Q 828 903 1448 1529 
Q 2069 2156 2228 2338 
Q 2531 2678 2651 2914 
Q 2772 3150 2772 3378 
Q 2772 3750 2511 3984 
Q 2250 4219 1831 4219 
Q 1534 4219 1204 4116 
Q 875 4013 500 3803 
L 500 4441 
Q 881 4594 1212 4672 
Q 1544 4750 1819 4750 
Q 2544 4750 2975 4387 
Q 3406 4025 3406 3419 
Q 3406 3131 3298 2873 
Q 3191 2616 2906 2266 
Q 2828 2175 2409 1742 
Q 1991 1309 1228 531 
z
" transform="scale(0.015625)"/>
       </defs>
       <use xlink:href="#DejaVuSans-32"/>
       <use xlink:href="#DejaVuSans-30" x="63.623047"/>
      </g>
     </g>
    </g>
    <g id="xtick_4">
     <g id="line2d_7">
      <path d="M 243.152542 304.56 
L 243.152542 77.76 
" clip-path="url(#pb6f2e05d5f)" style="fill: none; stroke: #b0b0b0; stroke-width: 0.8; stroke-linecap: square"/>
     </g>
     <g id="line2d_8">
      <g>
       <use xlink:href="#mbce8c28fb9" x="243.152542" y="304.56" style="stroke: #000000; stroke-width: 0.8"/>
      </g>
     </g>
     <g id="text_4">
      <!-- 30 -->
      <g transform="translate(236.790042 319.158437) scale(0.1 -0.1)">
       <defs>
        <path id="DejaVuSans-33" d="M 2597 2516 
Q 3050 2419 3304 2112 
Q 3559 1806 3559 1356 
Q 3559 666 3084 287 
Q 2609 -91 1734 -91 
Q 1441 -91 1130 -33 
Q 819 25 488 141 
L 488 750 
Q 750 597 1062 519 
Q 1375 441 1716 441 
Q 2309 441 2620 675 
Q 2931 909 2931 1356 
Q 2931 1769 2642 2001 
Q 2353 2234 1838 2234 
L 1294 2234 
L 1294 2753 
L 1863 2753 
Q 2328 2753 2575 2939 
Q 2822 3125 2822 3475 
Q 2822 3834 2567 4026 
Q 2313 4219 1838 4219 
Q 1578 4219 1281 4162 
Q 984 4106 628 3988 
L 628 4550 
Q 988 4650 1302 4700 
Q 1616 4750 1894 4750 
Q 2613 4750 3031 4423 
Q 3450 4097 3450 3541 
Q 3450 3153 3228 2886 
Q 3006 2619 2597 2516 
z
" transform="scale(0.015625)"/>
       </defs>
       <use xlink:href="#DejaVuSans-33"/>
       <use xlink:href="#DejaVuSans-30" x="63.623047"/>
      </g>
     </g>
    </g>
    <g id="xtick_5">
     <g id="line2d_9">
      <path d="M 306.20339 304.56 
L 306.20339 77.76 
" clip-path="url(#pb6f2e05d5f)" style="fill: none; stroke: #b0b0b0; stroke-width: 0.8; stroke-linecap: square"/>
     </g>
     <g id="line2d_10">
      <g>
       <use xlink:href="#mbce8c28fb9" x="306.20339" y="304.56" style="stroke: #000000; stroke-width: 0.8"/>
      </g>
     </g>
     <g id="text_5">
      <!-- 40 -->
      <g transform="translate(299.84089 319.158437) scale(0.1 -0.1)">
       <defs>
        <path id="DejaVuSans-34" d="M 2419 4116 
L 825 1625 
L 2419 1625 
L 2419 4116 
z
M 2253 4666 
L 3047 4666 
L 3047 1625 
L 3713 1625 
L 3713 1100 
L 3047 1100 
L 3047 0 
L 2419 0 
L 2419 1100 
L 313 1100 
L 313 1709 
L 2253 4666 
z
" transform="scale(0.015625)"/>
       </defs>
       <use xlink:href="#DejaVuSans-34"/>
       <use xlink:href="#DejaVuSans-30" x="63.623047"/>
      </g>
     </g>
    </g>
    <g id="xtick_6">
     <g id="line2d_11">
      <path d="M 369.254237 304.56 
L 369.254237 77.76 
" clip-path="url(#pb6f2e05d5f)" style="fill: none; stroke: #b0b0b0; stroke-width: 0.8; stroke-linecap: square"/>
     </g>
     <g id="line2d_12">
      <g>
       <use xlink:href="#mbce8c28fb9" x="369.254237" y="304.56" style="stroke: #000000; stroke-width: 0.8"/>
      </g>
     </g>
     <g id="text_6">
      <!-- 50 -->
      <g transform="translate(362.891737 319.158437) scale(0.1 -0.1)">
       <defs>
        <path id="DejaVuSans-35" d="M 691 4666 
L 3169 4666 
L 3169 4134 
L 1269 4134 
L 1269 2991 
Q 1406 3038 1543 3061 
Q 1681 3084 1819 3084 
Q 2600 3084 3056 2656 
Q 3513 2228 3513 1497 
Q 3513 744 3044 326 
Q 2575 -91 1722 -91 
Q 1428 -91 1123 -41 
Q 819 9 494 109 
L 494 744 
Q 775 591 1075 516 
Q 1375 441 1709 441 
Q 2250 441 2565 725 
Q 2881 1009 2881 1497 
Q 2881 1984 2565 2268 
Q 2250 2553 1709 2553 
Q 1456 2553 1204 2497 
Q 953 2441 691 2322 
L 691 4666 
z
" transform="scale(0.015625)"/>
       </defs>
       <use xlink:href="#DejaVuSans-35"/>
       <use xlink:href="#DejaVuSans-30" x="63.623047"/>
      </g>
     </g>
    </g>
    <g id="text_7">
     <!-- Number of Box -->
     <g transform="translate(165.335156 336.635781) scale(0.15 -0.15)">
      <defs>
       <path id="DejaVuSans-4e" d="M 628 4666 
L 1478 4666 
L 3547 763 
L 3547 4666 
L 4159 4666 
L 4159 0 
L 3309 0 
L 1241 3903 
L 1241 0 
L 628 0 
L 628 4666 
z
" transform="scale(0.015625)"/>
       <path id="DejaVuSans-75" d="M 544 1381 
L 544 3500 
L 1119 3500 
L 1119 1403 
Q 1119 906 1312 657 
Q 1506 409 1894 409 
Q 2359 409 2629 706 
Q 2900 1003 2900 1516 
L 2900 3500 
L 3475 3500 
L 3475 0 
L 2900 0 
L 2900 538 
Q 2691 219 2414 64 
Q 2138 -91 1772 -91 
Q 1169 -91 856 284 
Q 544 659 544 1381 
z
M 1991 3584 
L 1991 3584 
z
" transform="scale(0.015625)"/>
       <path id="DejaVuSans-6d" d="M 3328 2828 
Q 3544 3216 3844 3400 
Q 4144 3584 4550 3584 
Q 5097 3584 5394 3201 
Q 5691 2819 5691 2113 
L 5691 0 
L 5113 0 
L 5113 2094 
Q 5113 2597 4934 2840 
Q 4756 3084 4391 3084 
Q 3944 3084 3684 2787 
Q 3425 2491 3425 1978 
L 3425 0 
L 2847 0 
L 2847 2094 
Q 2847 2600 2669 2842 
Q 2491 3084 2119 3084 
Q 1678 3084 1418 2786 
Q 1159 2488 1159 1978 
L 1159 0 
L 581 0 
L 581 3500 
L 1159 3500 
L 1159 2956 
Q 1356 3278 1631 3431 
Q 1906 3584 2284 3584 
Q 2666 3584 2933 3390 
Q 3200 3197 3328 2828 
z
" transform="scale(0.015625)"/>
       <path id="DejaVuSans-62" d="M 3116 1747 
Q 3116 2381 2855 2742 
Q 2594 3103 2138 3103 
Q 1681 3103 1420 2742 
Q 1159 2381 1159 1747 
Q 1159 1113 1420 752 
Q 1681 391 2138 391 
Q 2594 391 2855 752 
Q 3116 1113 3116 1747 
z
M 1159 2969 
Q 1341 3281 1617 3432 
Q 1894 3584 2278 3584 
Q 2916 3584 3314 3078 
Q 3713 2572 3713 1747 
Q 3713 922 3314 415 
Q 2916 -91 2278 -91 
Q 1894 -91 1617 61 
Q 1341 213 1159 525 
L 1159 0 
L 581 0 
L 581 4863 
L 1159 4863 
L 1159 2969 
z
" transform="scale(0.015625)"/>
       <path id="DejaVuSans-65" d="M 3597 1894 
L 3597 1613 
L 953 1613 
Q 991 1019 1311 708 
Q 1631 397 2203 397 
Q 2534 397 2845 478 
Q 3156 559 3463 722 
L 3463 178 
Q 3153 47 2828 -22 
Q 2503 -91 2169 -91 
Q 1331 -91 842 396 
Q 353 884 353 1716 
Q 353 2575 817 3079 
Q 1281 3584 2069 3584 
Q 2775 3584 3186 3129 
Q 3597 2675 3597 1894 
z
M 3022 2063 
Q 3016 2534 2758 2815 
Q 2500 3097 2075 3097 
Q 1594 3097 1305 2825 
Q 1016 2553 972 2059 
L 3022 2063 
z
" transform="scale(0.015625)"/>
       <path id="DejaVuSans-72" d="M 2631 2963 
Q 2534 3019 2420 3045 
Q 2306 3072 2169 3072 
Q 1681 3072 1420 2755 
Q 1159 2438 1159 1844 
L 1159 0 
L 581 0 
L 581 3500 
L 1159 3500 
L 1159 2956 
Q 1341 3275 1631 3429 
Q 1922 3584 2338 3584 
Q 2397 3584 2469 3576 
Q 2541 3569 2628 3553 
L 2631 2963 
z
" transform="scale(0.015625)"/>
       <path id="DejaVuSans-20" transform="scale(0.015625)"/>
       <path id="DejaVuSans-6f" d="M 1959 3097 
Q 1497 3097 1228 2736 
Q 959 2375 959 1747 
Q 959 1119 1226 758 
Q 1494 397 1959 397 
Q 2419 397 2687 759 
Q 2956 1122 2956 1747 
Q 2956 2369 2687 2733 
Q 2419 3097 1959 3097 
z
M 1959 3584 
Q 2709 3584 3137 3096 
Q 3566 2609 3566 1747 
Q 3566 888 3137 398 
Q 2709 -91 1959 -91 
Q 1206 -91 779 398 
Q 353 888 353 1747 
Q 353 2609 779 3096 
Q 1206 3584 1959 3584 
z
" transform="scale(0.015625)"/>
       <path id="DejaVuSans-66" d="M 2375 4863 
L 2375 4384 
L 1825 4384 
Q 1516 4384 1395 4259 
Q 1275 4134 1275 3809 
L 1275 3500 
L 2222 3500 
L 2222 3053 
L 1275 3053 
L 1275 0 
L 697 0 
L 697 3053 
L 147 3053 
L 147 3500 
L 697 3500 
L 697 3744 
Q 697 4328 969 4595 
Q 1241 4863 1831 4863 
L 2375 4863 
z
" transform="scale(0.015625)"/>
       <path id="DejaVuSans-42" d="M 1259 2228 
L 1259 519 
L 2272 519 
Q 2781 519 3026 730 
Q 3272 941 3272 1375 
Q 3272 1813 3026 2020 
Q 2781 2228 2272 2228 
L 1259 2228 
z
M 1259 4147 
L 1259 2741 
L 2194 2741 
Q 2656 2741 2882 2914 
Q 3109 3088 3109 3444 
Q 3109 3797 2882 3972 
Q 2656 4147 2194 4147 
L 1259 4147 
z
M 628 4666 
L 2241 4666 
Q 2963 4666 3353 4366 
Q 3744 4066 3744 3513 
Q 3744 3084 3544 2831 
Q 3344 2578 2956 2516 
Q 3422 2416 3680 2098 
Q 3938 1781 3938 1306 
Q 3938 681 3513 340 
Q 3088 0 2303 0 
L 628 0 
L 628 4666 
z
" transform="scale(0.015625)"/>
       <path id="DejaVuSans-78" d="M 3513 3500 
L 2247 1797 
L 3578 0 
L 2900 0 
L 1881 1375 
L 863 0 
L 184 0 
L 1544 1831 
L 300 3500 
L 978 3500 
L 1906 2253 
L 2834 3500 
L 3513 3500 
z
" transform="scale(0.015625)"/>
      </defs>
      <use xlink:href="#DejaVuSans-4e"/>
      <use xlink:href="#DejaVuSans-75" x="74.804688"/>
      <use xlink:href="#DejaVuSans-6d" x="138.183594"/>
      <use xlink:href="#DejaVuSans-62" x="235.595703"/>
      <use xlink:href="#DejaVuSans-65" x="299.072266"/>
      <use xlink:href="#DejaVuSans-72" x="360.595703"/>
      <use xlink:href="#DejaVuSans-20" x="401.708984"/>
      <use xlink:href="#DejaVuSans-6f" x="433.496094"/>
      <use xlink:href="#DejaVuSans-66" x="494.677734"/>
      <use xlink:href="#DejaVuSans-20" x="529.882812"/>
      <use xlink:href="#DejaVuSans-42" x="561.669922"/>
      <use xlink:href="#DejaVuSans-6f" x="630.273438"/>
      <use xlink:href="#DejaVuSans-78" x="688.330078"/>
     </g>
    </g>
   </g>
   <g id="matplotlib.axis_2">
    <g id="ytick_1">
     <g id="line2d_13">
      <path d="M 54 304.56 
L 388.8 304.56 
" clip-path="url(#pb6f2e05d5f)" style="fill: none; stroke: #b0b0b0; stroke-width: 0.8; stroke-linecap: square"/>
     </g>
     <g id="line2d_14">
      <defs>
       <path id="m688dc80f4e" d="M 0 0 
L -3.5 0 
" style="stroke: #000000; stroke-width: 0.8"/>
      </defs>
      <g>
       <use xlink:href="#m688dc80f4e" x="54" y="304.56" style="stroke: #000000; stroke-width: 0.8"/>
      </g>
     </g>
     <g id="text_8">
      <!-- 0.0 -->
      <g transform="translate(31.096875 308.359219) scale(0.1 -0.1)">
       <defs>
        <path id="DejaVuSans-2e" d="M 684 794 
L 1344 794 
L 1344 0 
L 684 0 
L 684 794 
z
" transform="scale(0.015625)"/>
       </defs>
       <use xlink:href="#DejaVuSans-30"/>
       <use xlink:href="#DejaVuSans-2e" x="63.623047"/>
       <use xlink:href="#DejaVuSans-30" x="95.410156"/>
      </g>
     </g>
    </g>
    <g id="ytick_2">
     <g id="line2d_15">
      <path d="M 54 263.323636 
L 388.8 263.323636 
" clip-path="url(#pb6f2e05d5f)" style="fill: none; stroke: #b0b0b0; stroke-width: 0.8; stroke-linecap: square"/>
     </g>
     <g id="line2d_16">
      <g>
       <use xlink:href="#m688dc80f4e" x="54" y="263.323636" style="stroke: #000000; stroke-width: 0.8"/>
      </g>
     </g>
     <g id="text_9">
      <!-- 0.2 -->
      <g transform="translate(31.096875 267.122855) scale(0.1 -0.1)">
       <use xlink:href="#DejaVuSans-30"/>
       <use xlink:href="#DejaVuSans-2e" x="63.623047"/>
       <use xlink:href="#DejaVuSans-32" x="95.410156"/>
      </g>
     </g>
    </g>
    <g id="ytick_3">
     <g id="line2d_17">
      <path d="M 54 222.087273 
L 388.8 222.087273 
" clip-path="url(#pb6f2e05d5f)" style="fill: none; stroke: #b0b0b0; stroke-width: 0.8; stroke-linecap: square"/>
     </g>
     <g id="line2d_18">
      <g>
       <use xlink:href="#m688dc80f4e" x="54" y="222.087273" style="stroke: #000000; stroke-width: 0.8"/>
      </g>
     </g>
     <g id="text_10">
      <!-- 0.4 -->
      <g transform="translate(31.096875 225.886491) scale(0.1 -0.1)">
       <use xlink:href="#DejaVuSans-30"/>
       <use xlink:href="#DejaVuSans-2e" x="63.623047"/>
       <use xlink:href="#DejaVuSans-34" x="95.410156"/>
      </g>
     </g>
    </g>
    <g id="ytick_4">
     <g id="line2d_19">
      <path d="M 54 180.850909 
L 388.8 180.850909 
" clip-path="url(#pb6f2e05d5f)" style="fill: none; stroke: #b0b0b0; stroke-width: 0.8; stroke-linecap: square"/>
     </g>
     <g id="line2d_20">
      <g>
       <use xlink:href="#m688dc80f4e" x="54" y="180.850909" style="stroke: #000000; stroke-width: 0.8"/>
      </g>
     </g>
     <g id="text_11">
      <!-- 0.6 -->
      <g transform="translate(31.096875 184.650128) scale(0.1 -0.1)">
       <defs>
        <path id="DejaVuSans-36" d="M 2113 2584 
Q 1688 2584 1439 2293 
Q 1191 2003 1191 1497 
Q 1191 994 1439 701 
Q 1688 409 2113 409 
Q 2538 409 2786 701 
Q 3034 994 3034 1497 
Q 3034 2003 2786 2293 
Q 2538 2584 2113 2584 
z
M 3366 4563 
L 3366 3988 
Q 3128 4100 2886 4159 
Q 2644 4219 2406 4219 
Q 1781 4219 1451 3797 
Q 1122 3375 1075 2522 
Q 1259 2794 1537 2939 
Q 1816 3084 2150 3084 
Q 2853 3084 3261 2657 
Q 3669 2231 3669 1497 
Q 3669 778 3244 343 
Q 2819 -91 2113 -91 
Q 1303 -91 875 529 
Q 447 1150 447 2328 
Q 447 3434 972 4092 
Q 1497 4750 2381 4750 
Q 2619 4750 2861 4703 
Q 3103 4656 3366 4563 
z
" transform="scale(0.015625)"/>
       </defs>
       <use xlink:href="#DejaVuSans-30"/>
       <use xlink:href="#DejaVuSans-2e" x="63.623047"/>
       <use xlink:href="#DejaVuSans-36" x="95.410156"/>
      </g>
     </g>
    </g>
    <g id="ytick_5">
     <g id="line2d_21">
      <path d="M 54 139.614545 
L 388.8 139.614545 
" clip-path="url(#pb6f2e05d5f)" style="fill: none; stroke: #b0b0b0; stroke-width: 0.8; stroke-linecap: square"/>
     </g>
     <g id="line2d_22">
      <g>
       <use xlink:href="#m688dc80f4e" x="54" y="139.614545" style="stroke: #000000; stroke-width: 0.8"/>
      </g>
     </g>
     <g id="text_12">
      <!-- 0.8 -->
      <g transform="translate(31.096875 143.413764) scale(0.1 -0.1)">
       <defs>
        <path id="DejaVuSans-38" d="M 2034 2216 
Q 1584 2216 1326 1975 
Q 1069 1734 1069 1313 
Q 1069 891 1326 650 
Q 1584 409 2034 409 
Q 2484 409 2743 651 
Q 3003 894 3003 1313 
Q 3003 1734 2745 1975 
Q 2488 2216 2034 2216 
z
M 1403 2484 
Q 997 2584 770 2862 
Q 544 3141 544 3541 
Q 544 4100 942 4425 
Q 1341 4750 2034 4750 
Q 2731 4750 3128 4425 
Q 3525 4100 3525 3541 
Q 3525 3141 3298 2862 
Q 3072 2584 2669 2484 
Q 3125 2378 3379 2068 
Q 3634 1759 3634 1313 
Q 3634 634 3220 271 
Q 2806 -91 2034 -91 
Q 1263 -91 848 271 
Q 434 634 434 1313 
Q 434 1759 690 2068 
Q 947 2378 1403 2484 
z
M 1172 3481 
Q 1172 3119 1398 2916 
Q 1625 2713 2034 2713 
Q 2441 2713 2670 2916 
Q 2900 3119 2900 3481 
Q 2900 3844 2670 4047 
Q 2441 4250 2034 4250 
Q 1625 4250 1398 4047 
Q 1172 3844 1172 3481 
z
" transform="scale(0.015625)"/>
       </defs>
       <use xlink:href="#DejaVuSans-30"/>
       <use xlink:href="#DejaVuSans-2e" x="63.623047"/>
       <use xlink:href="#DejaVuSans-38" x="95.410156"/>
      </g>
     </g>
    </g>
    <g id="ytick_6">
     <g id="line2d_23">
      <path d="M 54 98.378182 
L 388.8 98.378182 
" clip-path="url(#pb6f2e05d5f)" style="fill: none; stroke: #b0b0b0; stroke-width: 0.8; stroke-linecap: square"/>
     </g>
     <g id="line2d_24">
      <g>
       <use xlink:href="#m688dc80f4e" x="54" y="98.378182" style="stroke: #000000; stroke-width: 0.8"/>
      </g>
     </g>
     <g id="text_13">
      <!-- 1.0 -->
      <g transform="translate(31.096875 102.177401) scale(0.1 -0.1)">
       <use xlink:href="#DejaVuSans-31"/>
       <use xlink:href="#DejaVuSans-2e" x="63.623047"/>
       <use xlink:href="#DejaVuSans-30" x="95.410156"/>
      </g>
     </g>
    </g>
    <g id="text_14">
     <!-- Precision -->
     <g transform="translate(23.977344 224.620547) rotate(-90) scale(0.15 -0.15)">
      <defs>
       <path id="DejaVuSans-50" d="M 1259 4147 
L 1259 2394 
L 2053 2394 
Q 2494 2394 2734 2622 
Q 2975 2850 2975 3272 
Q 2975 3691 2734 3919 
Q 2494 4147 2053 4147 
L 1259 4147 
z
M 628 4666 
L 2053 4666 
Q 2838 4666 3239 4311 
Q 3641 3956 3641 3272 
Q 3641 2581 3239 2228 
Q 2838 1875 2053 1875 
L 1259 1875 
L 1259 0 
L 628 0 
L 628 4666 
z
" transform="scale(0.015625)"/>
       <path id="DejaVuSans-63" d="M 3122 3366 
L 3122 2828 
Q 2878 2963 2633 3030 
Q 2388 3097 2138 3097 
Q 1578 3097 1268 2742 
Q 959 2388 959 1747 
Q 959 1106 1268 751 
Q 1578 397 2138 397 
Q 2388 397 2633 464 
Q 2878 531 3122 666 
L 3122 134 
Q 2881 22 2623 -34 
Q 2366 -91 2075 -91 
Q 1284 -91 818 406 
Q 353 903 353 1747 
Q 353 2603 823 3093 
Q 1294 3584 2113 3584 
Q 2378 3584 2631 3529 
Q 2884 3475 3122 3366 
z
" transform="scale(0.015625)"/>
       <path id="DejaVuSans-69" d="M 603 3500 
L 1178 3500 
L 1178 0 
L 603 0 
L 603 3500 
z
M 603 4863 
L 1178 4863 
L 1178 4134 
L 603 4134 
L 603 4863 
z
" transform="scale(0.015625)"/>
       <path id="DejaVuSans-73" d="M 2834 3397 
L 2834 2853 
Q 2591 2978 2328 3040 
Q 2066 3103 1784 3103 
Q 1356 3103 1142 2972 
Q 928 2841 928 2578 
Q 928 2378 1081 2264 
Q 1234 2150 1697 2047 
L 1894 2003 
Q 2506 1872 2764 1633 
Q 3022 1394 3022 966 
Q 3022 478 2636 193 
Q 2250 -91 1575 -91 
Q 1294 -91 989 -36 
Q 684 19 347 128 
L 347 722 
Q 666 556 975 473 
Q 1284 391 1588 391 
Q 1994 391 2212 530 
Q 2431 669 2431 922 
Q 2431 1156 2273 1281 
Q 2116 1406 1581 1522 
L 1381 1569 
Q 847 1681 609 1914 
Q 372 2147 372 2553 
Q 372 3047 722 3315 
Q 1072 3584 1716 3584 
Q 2034 3584 2315 3537 
Q 2597 3491 2834 3397 
z
" transform="scale(0.015625)"/>
       <path id="DejaVuSans-6e" d="M 3513 2113 
L 3513 0 
L 2938 0 
L 2938 2094 
Q 2938 2591 2744 2837 
Q 2550 3084 2163 3084 
Q 1697 3084 1428 2787 
Q 1159 2491 1159 1978 
L 1159 0 
L 581 0 
L 581 3500 
L 1159 3500 
L 1159 2956 
Q 1366 3272 1645 3428 
Q 1925 3584 2291 3584 
Q 2894 3584 3203 3211 
Q 3513 2838 3513 2113 
z
" transform="scale(0.015625)"/>
      </defs>
      <use xlink:href="#DejaVuSans-50"/>
      <use xlink:href="#DejaVuSans-72" x="58.552734"/>
      <use xlink:href="#DejaVuSans-65" x="97.416016"/>
      <use xlink:href="#DejaVuSans-63" x="158.939453"/>
      <use xlink:href="#DejaVuSans-69" x="213.919922"/>
      <use xlink:href="#DejaVuSans-73" x="241.703125"/>
      <use xlink:href="#DejaVuSans-69" x="293.802734"/>
      <use xlink:href="#DejaVuSans-6f" x="321.585938"/>
      <use xlink:href="#DejaVuSans-6e" x="382.767578"/>
     </g>
    </g>
   </g>
   <g id="patch_3">
    <path d="M 54 304.56 
L 54 77.76 
" style="fill: none; stroke: #000000; stroke-width: 0.8; stroke-linejoin: miter; stroke-linecap: square"/>
   </g>
   <g id="patch_4">
    <path d="M 388.8 304.56 
L 388.8 77.76 
" style="fill: none; stroke: #000000; stroke-width: 0.8; stroke-linejoin: miter; stroke-linecap: square"/>
   </g>
   <g id="patch_5">
    <path d="M 54 304.56 
L 388.8 304.56 
" style="fill: none; stroke: #000000; stroke-width: 0.8; stroke-linejoin: miter; stroke-linecap: square"/>
   </g>
   <g id="patch_6">
    <path d="M 54 77.76 
L 388.8 77.76 
" style="fill: none; stroke: #000000; stroke-width: 0.8; stroke-linejoin: miter; stroke-linecap: square"/>
   </g>
   <g id="legend_1">
    <g id="patch_7">
     <path d="M 64.5 133.794375 
L 148.48125 133.794375 
Q 151.48125 133.794375 151.48125 130.794375 
L 151.48125 88.26 
Q 151.48125 85.26 148.48125 85.26 
L 64.5 85.26 
Q 61.5 85.26 61.5 88.26 
L 61.5 130.794375 
Q 61.5 133.794375 64.5 133.794375 
z
" style="fill: #ffffff; opacity: 0.8; stroke: #cccccc; stroke-linejoin: miter"/>
    </g>
    <g id="PathCollection_3">
     <g>
      <use xlink:href="#m5b9dc9af09" x="82.5" y="98.720156" style="fill: #ff0000; stroke: #ff0000"/>
     </g>
    </g>
    <g id="text_15">
     <!-- Train -->
     <g transform="translate(109.5 102.657656) scale(0.15 -0.15)">
      <defs>
       <path id="DejaVuSans-54" d="M -19 4666 
L 3928 4666 
L 3928 4134 
L 2272 4134 
L 2272 0 
L 1638 0 
L 1638 4134 
L -19 4134 
L -19 4666 
z
" transform="scale(0.015625)"/>
       <path id="DejaVuSans-61" d="M 2194 1759 
Q 1497 1759 1228 1600 
Q 959 1441 959 1056 
Q 959 750 1161 570 
Q 1363 391 1709 391 
Q 2188 391 2477 730 
Q 2766 1069 2766 1631 
L 2766 1759 
L 2194 1759 
z
M 3341 1997 
L 3341 0 
L 2766 0 
L 2766 531 
Q 2569 213 2275 61 
Q 1981 -91 1556 -91 
Q 1019 -91 701 211 
Q 384 513 384 1019 
Q 384 1609 779 1909 
Q 1175 2209 1959 2209 
L 2766 2209 
L 2766 2266 
Q 2766 2663 2505 2880 
Q 2244 3097 1772 3097 
Q 1472 3097 1187 3025 
Q 903 2953 641 2809 
L 641 3341 
Q 956 3463 1253 3523 
Q 1550 3584 1831 3584 
Q 2591 3584 2966 3190 
Q 3341 2797 3341 1997 
z
" transform="scale(0.015625)"/>
      </defs>
      <use xlink:href="#DejaVuSans-54"/>
      <use xlink:href="#DejaVuSans-72" x="46.333984"/>
      <use xlink:href="#DejaVuSans-61" x="87.447266"/>
      <use xlink:href="#DejaVuSans-69" x="148.726562"/>
      <use xlink:href="#DejaVuSans-6e" x="176.509766"/>
     </g>
    </g>
    <g id="PathCollection_4">
     <g>
      <use xlink:href="#ma1b89b6731" x="82.5" y="120.737344" style="fill: #0000ff; stroke: #0000ff"/>
     </g>
    </g>
    <g id="text_16">
     <!-- Test -->
     <g transform="translate(109.5 124.674844) scale(0.15 -0.15)">
      <defs>
       <path id="DejaVuSans-74" d="M 1172 4494 
L 1172 3500 
L 2356 3500 
L 2356 3053 
L 1172 3053 
L 1172 1153 
Q 1172 725 1289 603 
Q 1406 481 1766 481 
L 2356 481 
L 2356 0 
L 1766 0 
Q 1100 0 847 248 
Q 594 497 594 1153 
L 594 3053 
L 172 3053 
L 172 3500 
L 594 3500 
L 594 4494 
L 1172 4494 
z
" transform="scale(0.015625)"/>
      </defs>
      <use xlink:href="#DejaVuSans-54"/>
      <use xlink:href="#DejaVuSans-65" x="44.083984"/>
      <use xlink:href="#DejaVuSans-73" x="105.607422"/>
      <use xlink:href="#DejaVuSans-74" x="157.707031"/>
     </g>
    </g>
   </g>
  </g>
  <g id="axes_2">
   <g id="patch_8">
    <path d="M 54 576.72 
L 388.8 576.72 
L 388.8 349.92 
L 54 349.92 
z
" style="fill: #ffffff"/>
   </g>
   <g id="PathCollection_5">
    <g clip-path="url(#pb0d66b4df1)">
     <use xlink:href="#m5b9dc9af09" x="54" y="372.856182" style="fill: #ff0000; stroke: #ff0000"/>
     <use xlink:href="#m5b9dc9af09" x="60.305085" y="372.794044" style="fill: #ff0000; stroke: #ff0000"/>
     <use xlink:href="#m5b9dc9af09" x="66.610169" y="372.747257" style="fill: #ff0000; stroke: #ff0000"/>
     <use xlink:href="#m5b9dc9af09" x="72.915254" y="372.849841" style="fill: #ff0000; stroke: #ff0000"/>
     <use xlink:href="#m5b9dc9af09" x="79.220339" y="373.106633" style="fill: #ff0000; stroke: #ff0000"/>
     <use xlink:href="#m5b9dc9af09" x="85.525424" y="373.020859" style="fill: #ff0000; stroke: #ff0000"/>
     <use xlink:href="#m5b9dc9af09" x="91.830508" y="373.21898" style="fill: #ff0000; stroke: #ff0000"/>
     <use xlink:href="#m5b9dc9af09" x="98.135593" y="373.046967" style="fill: #ff0000; stroke: #ff0000"/>
     <use xlink:href="#m5b9dc9af09" x="104.440678" y="373.162398" style="fill: #ff0000; stroke: #ff0000"/>
     <use xlink:href="#m5b9dc9af09" x="110.745763" y="373.127228" style="fill: #ff0000; stroke: #ff0000"/>
     <use xlink:href="#m5b9dc9af09" x="117.050847" y="373.203168" style="fill: #ff0000; stroke: #ff0000"/>
     <use xlink:href="#m5b9dc9af09" x="123.355932" y="373.152083" style="fill: #ff0000; stroke: #ff0000"/>
     <use xlink:href="#m5b9dc9af09" x="129.661017" y="373.298257" style="fill: #ff0000; stroke: #ff0000"/>
     <use xlink:href="#m5b9dc9af09" x="135.966102" y="373.082689" style="fill: #ff0000; stroke: #ff0000"/>
     <use xlink:href="#m5b9dc9af09" x="142.271186" y="373.221554" style="fill: #ff0000; stroke: #ff0000"/>
     <use xlink:href="#m5b9dc9af09" x="148.576271" y="373.219779" style="fill: #ff0000; stroke: #ff0000"/>
     <use xlink:href="#m5b9dc9af09" x="154.881356" y="373.1883" style="fill: #ff0000; stroke: #ff0000"/>
     <use xlink:href="#m5b9dc9af09" x="161.186441" y="373.460918" style="fill: #ff0000; stroke: #ff0000"/>
     <use xlink:href="#m5b9dc9af09" x="167.491525" y="373.134476" style="fill: #ff0000; stroke: #ff0000"/>
     <use xlink:href="#m5b9dc9af09" x="173.79661" y="373.358539" style="fill: #ff0000; stroke: #ff0000"/>
     <use xlink:href="#m5b9dc9af09" x="180.101695" y="373.412237" style="fill: #ff0000; stroke: #ff0000"/>
     <use xlink:href="#m5b9dc9af09" x="186.40678" y="373.41949" style="fill: #ff0000; stroke: #ff0000"/>
     <use xlink:href="#m5b9dc9af09" x="192.711864" y="373.348618" style="fill: #ff0000; stroke: #ff0000"/>
     <use xlink:href="#m5b9dc9af09" x="199.016949" y="373.48121" style="fill: #ff0000; stroke: #ff0000"/>
     <use xlink:href="#m5b9dc9af09" x="205.322034" y="373.184239" style="fill: #ff0000; stroke: #ff0000"/>
     <use xlink:href="#m5b9dc9af09" x="211.627119" y="373.543093" style="fill: #ff0000; stroke: #ff0000"/>
     <use xlink:href="#m5b9dc9af09" x="217.932203" y="373.09554" style="fill: #ff0000; stroke: #ff0000"/>
     <use xlink:href="#m5b9dc9af09" x="224.237288" y="373.057675" style="fill: #ff0000; stroke: #ff0000"/>
     <use xlink:href="#m5b9dc9af09" x="230.542373" y="373.218405" style="fill: #ff0000; stroke: #ff0000"/>
     <use xlink:href="#m5b9dc9af09" x="236.847458" y="373.411675" style="fill: #ff0000; stroke: #ff0000"/>
     <use xlink:href="#m5b9dc9af09" x="243.152542" y="373.379365" style="fill: #ff0000; stroke: #ff0000"/>
     <use xlink:href="#m5b9dc9af09" x="249.457627" y="373.535845" style="fill: #ff0000; stroke: #ff0000"/>
     <use xlink:href="#m5b9dc9af09" x="255.762712" y="373.91822" style="fill: #ff0000; stroke: #ff0000"/>
     <use xlink:href="#m5b9dc9af09" x="262.067797" y="373.828123" style="fill: #ff0000; stroke: #ff0000"/>
     <use xlink:href="#m5b9dc9af09" x="268.372881" y="373.468972" style="fill: #ff0000; stroke: #ff0000"/>
     <use xlink:href="#m5b9dc9af09" x="274.677966" y="373.983332" style="fill: #ff0000; stroke: #ff0000"/>
     <use xlink:href="#m5b9dc9af09" x="280.983051" y="373.824226" style="fill: #ff0000; stroke: #ff0000"/>
     <use xlink:href="#m5b9dc9af09" x="287.288136" y="373.81298" style="fill: #ff0000; stroke: #ff0000"/>
     <use xlink:href="#m5b9dc9af09" x="293.59322" y="374.163419" style="fill: #ff0000; stroke: #ff0000"/>
     <use xlink:href="#m5b9dc9af09" x="299.898305" y="374.193452" style="fill: #ff0000; stroke: #ff0000"/>
     <use xlink:href="#m5b9dc9af09" x="306.20339" y="374.113602" style="fill: #ff0000; stroke: #ff0000"/>
     <use xlink:href="#m5b9dc9af09" x="312.508475" y="374.484466" style="fill: #ff0000; stroke: #ff0000"/>
     <use xlink:href="#m5b9dc9af09" x="318.813559" y="373.781708" style="fill: #ff0000; stroke: #ff0000"/>
     <use xlink:href="#m5b9dc9af09" x="325.118644" y="373.990992" style="fill: #ff0000; stroke: #ff0000"/>
     <use xlink:href="#m5b9dc9af09" x="331.423729" y="374.102493" style="fill: #ff0000; stroke: #ff0000"/>
     <use xlink:href="#m5b9dc9af09" x="337.728814" y="374.779332" style="fill: #ff0000; stroke: #ff0000"/>
     <use xlink:href="#m5b9dc9af09" x="344.033898" y="374.880554" style="fill: #ff0000; stroke: #ff0000"/>
     <use xlink:href="#m5b9dc9af09" x="350.338983" y="373.314863" style="fill: #ff0000; stroke: #ff0000"/>
     <use xlink:href="#m5b9dc9af09" x="356.644068" y="374.293767" style="fill: #ff0000; stroke: #ff0000"/>
     <use xlink:href="#m5b9dc9af09" x="362.949153" y="375.333748" style="fill: #ff0000; stroke: #ff0000"/>
     <use xlink:href="#m5b9dc9af09" x="369.254237" y="376.071132" style="fill: #ff0000; stroke: #ff0000"/>
     <use xlink:href="#m5b9dc9af09" x="375.559322" y="375.433891" style="fill: #ff0000; stroke: #ff0000"/>
     <use xlink:href="#m5b9dc9af09" x="381.864407" y="378.112461" style="fill: #ff0000; stroke: #ff0000"/>
    </g>
   </g>
   <g id="PathCollection_6">
    <g clip-path="url(#pb0d66b4df1)">
     <use xlink:href="#ma1b89b6731" x="54" y="370.538182" style="fill: #0000ff; stroke: #0000ff"/>
     <use xlink:href="#ma1b89b6731" x="60.305085" y="370.538182" style="fill: #0000ff; stroke: #0000ff"/>
     <use xlink:href="#ma1b89b6731" x="66.610169" y="370.538182" style="fill: #0000ff; stroke: #0000ff"/>
     <use xlink:href="#ma1b89b6731" x="72.915254" y="370.538182" style="fill: #0000ff; stroke: #0000ff"/>
     <use xlink:href="#ma1b89b6731" x="79.220339" y="370.538182" style="fill: #0000ff; stroke: #0000ff"/>
     <use xlink:href="#ma1b89b6731" x="85.525424" y="370.538182" style="fill: #0000ff; stroke: #0000ff"/>
     <use xlink:href="#ma1b89b6731" x="91.830508" y="370.538182" style="fill: #0000ff; stroke: #0000ff"/>
     <use xlink:href="#ma1b89b6731" x="98.135593" y="370.538182" style="fill: #0000ff; stroke: #0000ff"/>
     <use xlink:href="#ma1b89b6731" x="104.440678" y="370.538182" style="fill: #0000ff; stroke: #0000ff"/>
     <use xlink:href="#ma1b89b6731" x="110.745763" y="370.538182" style="fill: #0000ff; stroke: #0000ff"/>
     <use xlink:href="#ma1b89b6731" x="117.050847" y="370.538182" style="fill: #0000ff; stroke: #0000ff"/>
     <use xlink:href="#ma1b89b6731" x="123.355932" y="370.538182" style="fill: #0000ff; stroke: #0000ff"/>
     <use xlink:href="#ma1b89b6731" x="129.661017" y="370.538182" style="fill: #0000ff; stroke: #0000ff"/>
     <use xlink:href="#ma1b89b6731" x="135.966102" y="370.538182" style="fill: #0000ff; stroke: #0000ff"/>
     <use xlink:href="#ma1b89b6731" x="142.271186" y="370.538182" style="fill: #0000ff; stroke: #0000ff"/>
     <use xlink:href="#ma1b89b6731" x="148.576271" y="370.538182" style="fill: #0000ff; stroke: #0000ff"/>
     <use xlink:href="#ma1b89b6731" x="154.881356" y="370.538182" style="fill: #0000ff; stroke: #0000ff"/>
     <use xlink:href="#ma1b89b6731" x="161.186441" y="370.538182" style="fill: #0000ff; stroke: #0000ff"/>
     <use xlink:href="#ma1b89b6731" x="167.491525" y="370.538182" style="fill: #0000ff; stroke: #0000ff"/>
     <use xlink:href="#ma1b89b6731" x="173.79661" y="370.538182" style="fill: #0000ff; stroke: #0000ff"/>
     <use xlink:href="#ma1b89b6731" x="180.101695" y="370.538182" style="fill: #0000ff; stroke: #0000ff"/>
     <use xlink:href="#ma1b89b6731" x="186.40678" y="370.538182" style="fill: #0000ff; stroke: #0000ff"/>
     <use xlink:href="#ma1b89b6731" x="192.711864" y="370.538182" style="fill: #0000ff; stroke: #0000ff"/>
     <use xlink:href="#ma1b89b6731" x="199.016949" y="370.538182" style="fill: #0000ff; stroke: #0000ff"/>
     <use xlink:href="#ma1b89b6731" x="205.322034" y="370.538182" style="fill: #0000ff; stroke: #0000ff"/>
     <use xlink:href="#ma1b89b6731" x="211.627119" y="370.538182" style="fill: #0000ff; stroke: #0000ff"/>
     <use xlink:href="#ma1b89b6731" x="217.932203" y="371.397273" style="fill: #0000ff; stroke: #0000ff"/>
     <use xlink:href="#ma1b89b6731" x="224.237288" y="371.426897" style="fill: #0000ff; stroke: #0000ff"/>
     <use xlink:href="#ma1b89b6731" x="230.542373" y="371.446472" style="fill: #0000ff; stroke: #0000ff"/>
     <use xlink:href="#ma1b89b6731" x="236.847458" y="371.48397" style="fill: #0000ff; stroke: #0000ff"/>
     <use xlink:href="#ma1b89b6731" x="243.152542" y="371.506172" style="fill: #0000ff; stroke: #0000ff"/>
     <use xlink:href="#ma1b89b6731" x="249.457627" y="371.543947" style="fill: #0000ff; stroke: #0000ff"/>
     <use xlink:href="#ma1b89b6731" x="255.762712" y="371.58479" style="fill: #0000ff; stroke: #0000ff"/>
     <use xlink:href="#ma1b89b6731" x="262.067797" y="371.634894" style="fill: #0000ff; stroke: #0000ff"/>
     <use xlink:href="#ma1b89b6731" x="268.372881" y="371.758193" style="fill: #0000ff; stroke: #0000ff"/>
     <use xlink:href="#ma1b89b6731" x="274.677966" y="374.580963" style="fill: #0000ff; stroke: #0000ff"/>
     <use xlink:href="#ma1b89b6731" x="280.983051" y="374.863675" style="fill: #0000ff; stroke: #0000ff"/>
     <use xlink:href="#ma1b89b6731" x="287.288136" y="375.650128" style="fill: #0000ff; stroke: #0000ff"/>
     <use xlink:href="#ma1b89b6731" x="293.59322" y="378.174545" style="fill: #0000ff; stroke: #0000ff"/>
     <use xlink:href="#ma1b89b6731" x="299.898305" y="379.406217" style="fill: #0000ff; stroke: #0000ff"/>
     <use xlink:href="#ma1b89b6731" x="306.20339" y="378.27" style="fill: #0000ff; stroke: #0000ff"/>
     <use xlink:href="#ma1b89b6731" x="312.508475" y="373.662149" style="fill: #0000ff; stroke: #0000ff"/>
     <use xlink:href="#ma1b89b6731" x="318.813559" y="378.623743" style="fill: #0000ff; stroke: #0000ff"/>
     <use xlink:href="#ma1b89b6731" x="325.118644" y="382.666524" style="fill: #0000ff; stroke: #0000ff"/>
     <use xlink:href="#ma1b89b6731" x="331.423729" y="387.72" style="fill: #0000ff; stroke: #0000ff"/>
     <use xlink:href="#ma1b89b6731" x="337.728814" y="393.447273" style="fill: #0000ff; stroke: #0000ff"/>
     <use xlink:href="#ma1b89b6731" x="344.033898" y="383.424545" style="fill: #0000ff; stroke: #0000ff"/>
     <use xlink:href="#ma1b89b6731" x="350.338983" y="404.901818" style="fill: #0000ff; stroke: #0000ff"/>
     <use xlink:href="#ma1b89b6731" x="356.644068" y="422.083636" style="fill: #0000ff; stroke: #0000ff"/>
     <use xlink:href="#ma1b89b6731" x="362.949153" y="439.265455" style="fill: #0000ff; stroke: #0000ff"/>
     <use xlink:href="#ma1b89b6731" x="369.254237" y="370.538182" style="fill: #0000ff; stroke: #0000ff"/>
     <use xlink:href="#ma1b89b6731" x="375.559322" y="370.538182" style="fill: #0000ff; stroke: #0000ff"/>
     <use xlink:href="#ma1b89b6731" x="381.864407" y="370.538182" style="fill: #0000ff; stroke: #0000ff"/>
    </g>
   </g>
   <g id="PolyCollection_3">
    <defs>
     <path id="mbbb46a0ae9" d="M 54 -277.372307 
L 54 -272.915329 
L 60.305085 -273.250206 
L 66.610169 -273.264059 
L 72.915254 -273.163473 
L 79.220339 -272.831261 
L 85.525424 -273.044725 
L 91.830508 -272.842635 
L 98.135593 -272.891787 
L 104.440678 -272.759432 
L 110.745763 -272.845807 
L 117.050847 -272.747329 
L 123.355932 -272.876661 
L 129.661017 -272.535303 
L 135.966102 -272.883979 
L 142.271186 -272.583584 
L 148.576271 -272.561997 
L 154.881356 -272.583518 
L 161.186441 -272.241336 
L 167.491525 -272.523528 
L 173.79661 -272.256831 
L 180.101695 -272.160501 
L 186.40678 -272.399038 
L 192.711864 -272.304732 
L 199.016949 -272.106052 
L 205.322034 -272.34909 
L 211.627119 -271.944762 
L 217.932203 -272.552926 
L 224.237288 -272.266155 
L 230.542373 -272.34313 
L 236.847458 -271.917801 
L 243.152542 -272.042223 
L 249.457627 -271.856043 
L 255.762712 -271.316826 
L 262.067797 -271.386679 
L 268.372881 -271.776008 
L 274.677966 -271.007866 
L 280.983051 -271.39574 
L 287.288136 -271.140991 
L 293.59322 -271.05205 
L 299.898305 -270.949938 
L 306.20339 -270.873575 
L 312.508475 -270.281064 
L 318.813559 -271.059709 
L 325.118644 -270.680215 
L 331.423729 -270.411622 
L 337.728814 -270.610678 
L 344.033898 -268.357618 
L 350.338983 -272.730134 
L 356.644068 -271.691881 
L 362.949153 -269.106316 
L 369.254237 -270.698796 
L 375.559322 -269.198448 
L 381.864407 -266.375523 
L 381.864407 -273.399555 
L 381.864407 -273.399555 
L 375.559322 -275.933771 
L 369.254237 -273.15894 
L 362.949153 -276.226188 
L 356.644068 -275.720585 
L 350.338983 -276.640141 
L 344.033898 -277.881274 
L 337.728814 -275.830657 
L 331.423729 -277.383391 
L 325.118644 -277.337802 
L 318.813559 -277.376875 
L 312.508475 -276.750005 
L 306.20339 -276.899221 
L 299.898305 -276.663159 
L 293.59322 -276.621113 
L 287.288136 -277.23305 
L 280.983051 -276.955808 
L 274.677966 -277.025469 
L 268.372881 -277.286049 
L 262.067797 -276.957075 
L 255.762712 -276.846734 
L 249.457627 -277.072267 
L 243.152542 -277.199047 
L 236.847458 -277.258848 
L 230.542373 -277.220061 
L 224.237288 -277.618495 
L 217.932203 -277.255993 
L 211.627119 -276.969051 
L 205.322034 -277.282431 
L 199.016949 -276.931527 
L 192.711864 -276.998033 
L 186.40678 -276.761981 
L 180.101695 -277.015025 
L 173.79661 -277.026091 
L 167.491525 -277.20752 
L 161.186441 -276.836828 
L 154.881356 -277.039881 
L 148.576271 -276.998445 
L 142.271186 -276.973307 
L 135.966102 -276.950644 
L 129.661017 -276.868183 
L 123.355932 -276.819173 
L 117.050847 -276.846335 
L 110.745763 -276.899736 
L 104.440678 -276.915772 
L 98.135593 -277.014279 
L 91.830508 -276.719405 
L 85.525424 -276.913558 
L 79.220339 -276.955473 
L 72.915254 -277.136844 
L 66.610169 -277.241427 
L 60.305085 -277.161705 
L 54 -277.372307 
z
" style="stroke: #ff0000; stroke-opacity: 0.2"/>
    </defs>
    <g clip-path="url(#pb0d66b4df1)">
     <use xlink:href="#mbbb46a0ae9" x="0" y="648" style="fill: #ff0000; fill-opacity: 0.2; stroke: #ff0000; stroke-opacity: 0.2"/>
    </g>
   </g>
   <g id="PolyCollection_4">
    <defs>
     <path id="m08fc062c57" d="M 54 -277.461818 
L 54 -277.461818 
L 60.305085 -277.461818 
L 66.610169 -277.461818 
L 72.915254 -277.461818 
L 79.220339 -277.461818 
L 85.525424 -277.461818 
L 91.830508 -277.461818 
L 98.135593 -277.461818 
L 104.440678 -277.461818 
L 110.745763 -277.461818 
L 117.050847 -277.461818 
L 123.355932 -277.461818 
L 129.661017 -277.461818 
L 135.966102 -277.461818 
L 142.271186 -277.461818 
L 148.576271 -277.461818 
L 154.881356 -277.461818 
L 161.186441 -277.461818 
L 167.491525 -277.461818 
L 173.79661 -277.461818 
L 180.101695 -277.461818 
L 186.40678 -277.461818 
L 192.711864 -277.461818 
L 199.016949 -277.461818 
L 205.322034 -277.461818 
L 211.627119 -277.461818 
L 217.932203 -263.293748 
L 224.237288 -263.036604 
L 230.542373 -262.86876 
L 236.847458 -262.551635 
L 243.152542 -262.366483 
L 249.457627 -262.05569 
L 255.762712 -261.725364 
L 262.067797 -261.327752 
L 268.372881 -260.381668 
L 274.677966 -244.738379 
L 280.983051 -243.483723 
L 287.288136 -240.156336 
L 293.59322 -230.705957 
L 299.898305 -226.53662 
L 306.20339 -230.311707 
L 312.508475 -248.958624 
L 318.813559 -228.956536 
L 325.118644 -216.090542 
L 331.423729 -202.068718 
L 337.728814 -187.877479 
L 344.033898 -213.03 
L 350.338983 -162.842018 
L 356.644068 -130.472728 
L 362.949153 -102.262712 
L 369.254237 -277.461818 
L 375.559322 -277.461818 
L 381.864407 -277.461818 
L 381.864407 -277.461818 
L 381.864407 -277.461818 
L 375.559322 -277.461818 
L 369.254237 -277.461818 
L 362.949153 -315.206379 
L 356.644068 -321.359999 
L 350.338983 -323.354346 
L 344.033898 -316.120909 
L 337.728814 -321.227975 
L 331.423729 -318.491282 
L 325.118644 -314.57641 
L 318.813559 -309.795978 
L 312.508475 -299.717079 
L 306.20339 -309.148293 
L 299.898305 -310.650946 
L 293.59322 -308.944952 
L 287.288136 -304.543409 
L 280.983051 -302.788928 
L 274.677966 -302.099696 
L 268.372881 -292.101947 
L 262.067797 -291.402461 
L 255.762712 -291.105056 
L 249.457627 -290.856416 
L 243.152542 -290.621174 
L 236.847458 -290.480425 
L 230.542373 -290.238296 
L 224.237288 -290.109603 
L 217.932203 -289.911706 
L 211.627119 -277.461818 
L 205.322034 -277.461818 
L 199.016949 -277.461818 
L 192.711864 -277.461818 
L 186.40678 -277.461818 
L 180.101695 -277.461818 
L 173.79661 -277.461818 
L 167.491525 -277.461818 
L 161.186441 -277.461818 
L 154.881356 -277.461818 
L 148.576271 -277.461818 
L 142.271186 -277.461818 
L 135.966102 -277.461818 
L 129.661017 -277.461818 
L 123.355932 -277.461818 
L 117.050847 -277.461818 
L 110.745763 -277.461818 
L 104.440678 -277.461818 
L 98.135593 -277.461818 
L 91.830508 -277.461818 
L 85.525424 -277.461818 
L 79.220339 -277.461818 
L 72.915254 -277.461818 
L 66.610169 -277.461818 
L 60.305085 -277.461818 
L 54 -277.461818 
z
" style="stroke: #0000ff; stroke-opacity: 0.2"/>
    </defs>
    <g clip-path="url(#pb0d66b4df1)">
     <use xlink:href="#m08fc062c57" x="0" y="648" style="fill: #0000ff; fill-opacity: 0.2; stroke: #0000ff; stroke-opacity: 0.2"/>
    </g>
   </g>
   <g id="matplotlib.axis_3">
    <g id="xtick_7">
     <g id="line2d_25">
      <path d="M 54 576.72 
L 54 349.92 
" clip-path="url(#pb0d66b4df1)" style="fill: none; stroke: #b0b0b0; stroke-width: 0.8; stroke-linecap: square"/>
     </g>
     <g id="line2d_26">
      <g>
       <use xlink:href="#mbce8c28fb9" x="54" y="576.72" style="stroke: #000000; stroke-width: 0.8"/>
      </g>
     </g>
     <g id="text_17">
      <!-- 0 -->
      <g transform="translate(50.81875 591.318438) scale(0.1 -0.1)">
       <use xlink:href="#DejaVuSans-30"/>
      </g>
     </g>
    </g>
    <g id="xtick_8">
     <g id="line2d_27">
      <path d="M 117.050847 576.72 
L 117.050847 349.92 
" clip-path="url(#pb0d66b4df1)" style="fill: none; stroke: #b0b0b0; stroke-width: 0.8; stroke-linecap: square"/>
     </g>
     <g id="line2d_28">
      <g>
       <use xlink:href="#mbce8c28fb9" x="117.050847" y="576.72" style="stroke: #000000; stroke-width: 0.8"/>
      </g>
     </g>
     <g id="text_18">
      <!-- 10 -->
      <g transform="translate(110.688347 591.318438) scale(0.1 -0.1)">
       <use xlink:href="#DejaVuSans-31"/>
       <use xlink:href="#DejaVuSans-30" x="63.623047"/>
      </g>
     </g>
    </g>
    <g id="xtick_9">
     <g id="line2d_29">
      <path d="M 180.101695 576.72 
L 180.101695 349.92 
" clip-path="url(#pb0d66b4df1)" style="fill: none; stroke: #b0b0b0; stroke-width: 0.8; stroke-linecap: square"/>
     </g>
     <g id="line2d_30">
      <g>
       <use xlink:href="#mbce8c28fb9" x="180.101695" y="576.72" style="stroke: #000000; stroke-width: 0.8"/>
      </g>
     </g>
     <g id="text_19">
      <!-- 20 -->
      <g transform="translate(173.739195 591.318438) scale(0.1 -0.1)">
       <use xlink:href="#DejaVuSans-32"/>
       <use xlink:href="#DejaVuSans-30" x="63.623047"/>
      </g>
     </g>
    </g>
    <g id="xtick_10">
     <g id="line2d_31">
      <path d="M 243.152542 576.72 
L 243.152542 349.92 
" clip-path="url(#pb0d66b4df1)" style="fill: none; stroke: #b0b0b0; stroke-width: 0.8; stroke-linecap: square"/>
     </g>
     <g id="line2d_32">
      <g>
       <use xlink:href="#mbce8c28fb9" x="243.152542" y="576.72" style="stroke: #000000; stroke-width: 0.8"/>
      </g>
     </g>
     <g id="text_20">
      <!-- 30 -->
      <g transform="translate(236.790042 591.318438) scale(0.1 -0.1)">
       <use xlink:href="#DejaVuSans-33"/>
       <use xlink:href="#DejaVuSans-30" x="63.623047"/>
      </g>
     </g>
    </g>
    <g id="xtick_11">
     <g id="line2d_33">
      <path d="M 306.20339 576.72 
L 306.20339 349.92 
" clip-path="url(#pb0d66b4df1)" style="fill: none; stroke: #b0b0b0; stroke-width: 0.8; stroke-linecap: square"/>
     </g>
     <g id="line2d_34">
      <g>
       <use xlink:href="#mbce8c28fb9" x="306.20339" y="576.72" style="stroke: #000000; stroke-width: 0.8"/>
      </g>
     </g>
     <g id="text_21">
      <!-- 40 -->
      <g transform="translate(299.84089 591.318438) scale(0.1 -0.1)">
       <use xlink:href="#DejaVuSans-34"/>
       <use xlink:href="#DejaVuSans-30" x="63.623047"/>
      </g>
     </g>
    </g>
    <g id="xtick_12">
     <g id="line2d_35">
      <path d="M 369.254237 576.72 
L 369.254237 349.92 
" clip-path="url(#pb0d66b4df1)" style="fill: none; stroke: #b0b0b0; stroke-width: 0.8; stroke-linecap: square"/>
     </g>
     <g id="line2d_36">
      <g>
       <use xlink:href="#mbce8c28fb9" x="369.254237" y="576.72" style="stroke: #000000; stroke-width: 0.8"/>
      </g>
     </g>
     <g id="text_22">
      <!-- 50 -->
      <g transform="translate(362.891737 591.318438) scale(0.1 -0.1)">
       <use xlink:href="#DejaVuSans-35"/>
       <use xlink:href="#DejaVuSans-30" x="63.623047"/>
      </g>
     </g>
    </g>
    <g id="text_23">
     <!-- Number of Box -->
     <g transform="translate(165.335156 608.795781) scale(0.15 -0.15)">
      <use xlink:href="#DejaVuSans-4e"/>
      <use xlink:href="#DejaVuSans-75" x="74.804688"/>
      <use xlink:href="#DejaVuSans-6d" x="138.183594"/>
      <use xlink:href="#DejaVuSans-62" x="235.595703"/>
      <use xlink:href="#DejaVuSans-65" x="299.072266"/>
      <use xlink:href="#DejaVuSans-72" x="360.595703"/>
      <use xlink:href="#DejaVuSans-20" x="401.708984"/>
      <use xlink:href="#DejaVuSans-6f" x="433.496094"/>
      <use xlink:href="#DejaVuSans-66" x="494.677734"/>
      <use xlink:href="#DejaVuSans-20" x="529.882812"/>
      <use xlink:href="#DejaVuSans-42" x="561.669922"/>
      <use xlink:href="#DejaVuSans-6f" x="630.273438"/>
      <use xlink:href="#DejaVuSans-78" x="688.330078"/>
     </g>
    </g>
   </g>
   <g id="matplotlib.axis_4">
    <g id="ytick_7">
     <g id="line2d_37">
      <path d="M 54 576.72 
L 388.8 576.72 
" clip-path="url(#pb0d66b4df1)" style="fill: none; stroke: #b0b0b0; stroke-width: 0.8; stroke-linecap: square"/>
     </g>
     <g id="line2d_38">
      <g>
       <use xlink:href="#m688dc80f4e" x="54" y="576.72" style="stroke: #000000; stroke-width: 0.8"/>
      </g>
     </g>
     <g id="text_24">
      <!-- 0.0 -->
      <g transform="translate(31.096875 580.519219) scale(0.1 -0.1)">
       <use xlink:href="#DejaVuSans-30"/>
       <use xlink:href="#DejaVuSans-2e" x="63.623047"/>
       <use xlink:href="#DejaVuSans-30" x="95.410156"/>
      </g>
     </g>
    </g>
    <g id="ytick_8">
     <g id="line2d_39">
      <path d="M 54 535.483636 
L 388.8 535.483636 
" clip-path="url(#pb0d66b4df1)" style="fill: none; stroke: #b0b0b0; stroke-width: 0.8; stroke-linecap: square"/>
     </g>
     <g id="line2d_40">
      <g>
       <use xlink:href="#m688dc80f4e" x="54" y="535.483636" style="stroke: #000000; stroke-width: 0.8"/>
      </g>
     </g>
     <g id="text_25">
      <!-- 0.2 -->
      <g transform="translate(31.096875 539.282855) scale(0.1 -0.1)">
       <use xlink:href="#DejaVuSans-30"/>
       <use xlink:href="#DejaVuSans-2e" x="63.623047"/>
       <use xlink:href="#DejaVuSans-32" x="95.410156"/>
      </g>
     </g>
    </g>
    <g id="ytick_9">
     <g id="line2d_41">
      <path d="M 54 494.247273 
L 388.8 494.247273 
" clip-path="url(#pb0d66b4df1)" style="fill: none; stroke: #b0b0b0; stroke-width: 0.8; stroke-linecap: square"/>
     </g>
     <g id="line2d_42">
      <g>
       <use xlink:href="#m688dc80f4e" x="54" y="494.247273" style="stroke: #000000; stroke-width: 0.8"/>
      </g>
     </g>
     <g id="text_26">
      <!-- 0.4 -->
      <g transform="translate(31.096875 498.046491) scale(0.1 -0.1)">
       <use xlink:href="#DejaVuSans-30"/>
       <use xlink:href="#DejaVuSans-2e" x="63.623047"/>
       <use xlink:href="#DejaVuSans-34" x="95.410156"/>
      </g>
     </g>
    </g>
    <g id="ytick_10">
     <g id="line2d_43">
      <path d="M 54 453.010909 
L 388.8 453.010909 
" clip-path="url(#pb0d66b4df1)" style="fill: none; stroke: #b0b0b0; stroke-width: 0.8; stroke-linecap: square"/>
     </g>
     <g id="line2d_44">
      <g>
       <use xlink:href="#m688dc80f4e" x="54" y="453.010909" style="stroke: #000000; stroke-width: 0.8"/>
      </g>
     </g>
     <g id="text_27">
      <!-- 0.6 -->
      <g transform="translate(31.096875 456.810128) scale(0.1 -0.1)">
       <use xlink:href="#DejaVuSans-30"/>
       <use xlink:href="#DejaVuSans-2e" x="63.623047"/>
       <use xlink:href="#DejaVuSans-36" x="95.410156"/>
      </g>
     </g>
    </g>
    <g id="ytick_11">
     <g id="line2d_45">
      <path d="M 54 411.774545 
L 388.8 411.774545 
" clip-path="url(#pb0d66b4df1)" style="fill: none; stroke: #b0b0b0; stroke-width: 0.8; stroke-linecap: square"/>
     </g>
     <g id="line2d_46">
      <g>
       <use xlink:href="#m688dc80f4e" x="54" y="411.774545" style="stroke: #000000; stroke-width: 0.8"/>
      </g>
     </g>
     <g id="text_28">
      <!-- 0.8 -->
      <g transform="translate(31.096875 415.573764) scale(0.1 -0.1)">
       <use xlink:href="#DejaVuSans-30"/>
       <use xlink:href="#DejaVuSans-2e" x="63.623047"/>
       <use xlink:href="#DejaVuSans-38" x="95.410156"/>
      </g>
     </g>
    </g>
    <g id="ytick_12">
     <g id="line2d_47">
      <path d="M 54 370.538182 
L 388.8 370.538182 
" clip-path="url(#pb0d66b4df1)" style="fill: none; stroke: #b0b0b0; stroke-width: 0.8; stroke-linecap: square"/>
     </g>
     <g id="line2d_48">
      <g>
       <use xlink:href="#m688dc80f4e" x="54" y="370.538182" style="stroke: #000000; stroke-width: 0.8"/>
      </g>
     </g>
     <g id="text_29">
      <!-- 1.0 -->
      <g transform="translate(31.096875 374.337401) scale(0.1 -0.1)">
       <use xlink:href="#DejaVuSans-31"/>
       <use xlink:href="#DejaVuSans-2e" x="63.623047"/>
       <use xlink:href="#DejaVuSans-30" x="95.410156"/>
      </g>
     </g>
    </g>
    <g id="text_30">
     <!-- Recall -->
     <g transform="translate(23.977344 485.695781) rotate(-90) scale(0.15 -0.15)">
      <defs>
       <path id="DejaVuSans-52" d="M 2841 2188 
Q 3044 2119 3236 1894 
Q 3428 1669 3622 1275 
L 4263 0 
L 3584 0 
L 2988 1197 
Q 2756 1666 2539 1819 
Q 2322 1972 1947 1972 
L 1259 1972 
L 1259 0 
L 628 0 
L 628 4666 
L 2053 4666 
Q 2853 4666 3247 4331 
Q 3641 3997 3641 3322 
Q 3641 2881 3436 2590 
Q 3231 2300 2841 2188 
z
M 1259 4147 
L 1259 2491 
L 2053 2491 
Q 2509 2491 2742 2702 
Q 2975 2913 2975 3322 
Q 2975 3731 2742 3939 
Q 2509 4147 2053 4147 
L 1259 4147 
z
" transform="scale(0.015625)"/>
       <path id="DejaVuSans-6c" d="M 603 4863 
L 1178 4863 
L 1178 0 
L 603 0 
L 603 4863 
z
" transform="scale(0.015625)"/>
      </defs>
      <use xlink:href="#DejaVuSans-52"/>
      <use xlink:href="#DejaVuSans-65" x="64.982422"/>
      <use xlink:href="#DejaVuSans-63" x="126.505859"/>
      <use xlink:href="#DejaVuSans-61" x="181.486328"/>
      <use xlink:href="#DejaVuSans-6c" x="242.765625"/>
      <use xlink:href="#DejaVuSans-6c" x="270.548828"/>
     </g>
    </g>
   </g>
   <g id="patch_9">
    <path d="M 54 576.72 
L 54 349.92 
" style="fill: none; stroke: #000000; stroke-width: 0.8; stroke-linejoin: miter; stroke-linecap: square"/>
   </g>
   <g id="patch_10">
    <path d="M 388.8 576.72 
L 388.8 349.92 
" style="fill: none; stroke: #000000; stroke-width: 0.8; stroke-linejoin: miter; stroke-linecap: square"/>
   </g>
   <g id="patch_11">
    <path d="M 54 576.72 
L 388.8 576.72 
" style="fill: none; stroke: #000000; stroke-width: 0.8; stroke-linejoin: miter; stroke-linecap: square"/>
   </g>
   <g id="patch_12">
    <path d="M 54 349.92 
L 388.8 349.92 
" style="fill: none; stroke: #000000; stroke-width: 0.8; stroke-linejoin: miter; stroke-linecap: square"/>
   </g>
   <g id="legend_2">
    <g id="patch_13">
     <path d="M 64.5 569.22 
L 148.48125 569.22 
Q 151.48125 569.22 151.48125 566.22 
L 151.48125 523.685625 
Q 151.48125 520.685625 148.48125 520.685625 
L 64.5 520.685625 
Q 61.5 520.685625 61.5 523.685625 
L 61.5 566.22 
Q 61.5 569.22 64.5 569.22 
z
" style="fill: #ffffff; opacity: 0.8; stroke: #cccccc; stroke-linejoin: miter"/>
    </g>
    <g id="PathCollection_7">
     <g>
      <use xlink:href="#m5b9dc9af09" x="82.5" y="534.145781" style="fill: #ff0000; stroke: #ff0000"/>
     </g>
    </g>
    <g id="text_31">
     <!-- Train -->
     <g transform="translate(109.5 538.083281) scale(0.15 -0.15)">
      <use xlink:href="#DejaVuSans-54"/>
      <use xlink:href="#DejaVuSans-72" x="46.333984"/>
      <use xlink:href="#DejaVuSans-61" x="87.447266"/>
      <use xlink:href="#DejaVuSans-69" x="148.726562"/>
      <use xlink:href="#DejaVuSans-6e" x="176.509766"/>
     </g>
    </g>
    <g id="PathCollection_8">
     <g>
      <use xlink:href="#ma1b89b6731" x="82.5" y="556.162969" style="fill: #0000ff; stroke: #0000ff"/>
     </g>
    </g>
    <g id="text_32">
     <!-- Test -->
     <g transform="translate(109.5 560.100469) scale(0.15 -0.15)">
      <use xlink:href="#DejaVuSans-54"/>
      <use xlink:href="#DejaVuSans-65" x="44.083984"/>
      <use xlink:href="#DejaVuSans-73" x="105.607422"/>
      <use xlink:href="#DejaVuSans-74" x="157.707031"/>
     </g>
    </g>
   </g>
  </g>
 </g>
 <defs>
  <clipPath id="pb6f2e05d5f">
   <rect x="54" y="77.76" width="334.8" height="226.8"/>
  </clipPath>
  <clipPath id="pb0d66b4df1">
   <rect x="54" y="349.92" width="334.8" height="226.8"/>
  </clipPath>
 </defs>
</svg>
