<?xml version="1.0" encoding="utf-8" standalone="no"?>
<!DOCTYPE svg PUBLIC "-//W3C//DTD SVG 1.1//EN"
  "http://www.w3.org/Graphics/SVG/1.1/DTD/svg11.dtd">
<svg xmlns:xlink="http://www.w3.org/1999/xlink" width="432pt" height="648pt" viewBox="0 0 432 648" xmlns="http://www.w3.org/2000/svg" version="1.1">
 <metadata>
  <rdf:RDF xmlns:dc="http://purl.org/dc/elements/1.1/" xmlns:cc="http://creativecommons.org/ns#" xmlns:rdf="http://www.w3.org/1999/02/22-rdf-syntax-ns#">
   <cc:Work>
    <dc:type rdf:resource="http://purl.org/dc/dcmitype/StillImage"/>
    <dc:date>2024-01-02T11:01:55.605927</dc:date>
    <dc:format>image/svg+xml</dc:format>
    <dc:creator>
     <cc:Agent>
      <dc:title>Matplotlib v3.8.0, https://matplotlib.org/</dc:title>
     </cc:Agent>
    </dc:creator>
   </cc:Work>
  </rdf:RDF>
 </metadata>
 <defs>
  <style type="text/css">*{stroke-linejoin: round; stroke-linecap: butt}</style>
 </defs>
 <g id="figure_1">
  <g id="patch_1">
   <path d="M 0 648 
L 432 648 
L 432 0 
L 0 0 
z
" style="fill: #ffffff"/>
  </g>
  <g id="axes_1">
   <g id="patch_2">
    <path d="M 54 304.56 
L 388.8 304.56 
L 388.8 77.76 
L 54 77.76 
z
" style="fill: #ffffff"/>
   </g>
   <g id="PathCollection_1">
    <defs>
     <path id="mf4a6b4e23d" d="M 0 3 
C 0.795609 3 1.55874 2.683901 2.12132 2.12132 
C 2.683901 1.55874 3 0.795609 3 0 
C 3 -0.795609 2.683901 -1.55874 2.12132 -2.12132 
C 1.55874 -2.683901 0.795609 -3 0 -3 
C -0.795609 -3 -1.55874 -2.683901 -2.12132 -2.12132 
C -2.683901 -1.55874 -3 -0.795609 -3 0 
C -3 0.795609 -2.683901 1.55874 -2.12132 2.12132 
C -1.55874 2.683901 -0.795609 3 0 3 
z
" style="stroke: #ff0000"/>
    </defs>
    <g clip-path="url(#pb83c126cbe)">
     <use xlink:href="#mf4a6b4e23d" x="54" y="253.158623" style="fill: #ff0000; stroke: #ff0000"/>
     <use xlink:href="#mf4a6b4e23d" x="63.274238" y="250.518743" style="fill: #ff0000; stroke: #ff0000"/>
     <use xlink:href="#mf4a6b4e23d" x="72.548476" y="247.957053" style="fill: #ff0000; stroke: #ff0000"/>
     <use xlink:href="#mf4a6b4e23d" x="81.822715" y="245.623693" style="fill: #ff0000; stroke: #ff0000"/>
     <use xlink:href="#mf4a6b4e23d" x="91.096953" y="243.519593" style="fill: #ff0000; stroke: #ff0000"/>
     <use xlink:href="#mf4a6b4e23d" x="100.371191" y="241.47604" style="fill: #ff0000; stroke: #ff0000"/>
     <use xlink:href="#mf4a6b4e23d" x="109.645429" y="239.422965" style="fill: #ff0000; stroke: #ff0000"/>
     <use xlink:href="#mf4a6b4e23d" x="118.919668" y="237.348888" style="fill: #ff0000; stroke: #ff0000"/>
     <use xlink:href="#mf4a6b4e23d" x="128.193906" y="235.221996" style="fill: #ff0000; stroke: #ff0000"/>
     <use xlink:href="#mf4a6b4e23d" x="137.468144" y="232.926924" style="fill: #ff0000; stroke: #ff0000"/>
     <use xlink:href="#mf4a6b4e23d" x="146.742382" y="230.699718" style="fill: #ff0000; stroke: #ff0000"/>
     <use xlink:href="#mf4a6b4e23d" x="156.01662" y="228.373765" style="fill: #ff0000; stroke: #ff0000"/>
     <use xlink:href="#mf4a6b4e23d" x="165.290859" y="225.932063" style="fill: #ff0000; stroke: #ff0000"/>
     <use xlink:href="#mf4a6b4e23d" x="174.565097" y="223.575587" style="fill: #ff0000; stroke: #ff0000"/>
     <use xlink:href="#mf4a6b4e23d" x="183.839335" y="221.062789" style="fill: #ff0000; stroke: #ff0000"/>
     <use xlink:href="#mf4a6b4e23d" x="193.113573" y="218.474185" style="fill: #ff0000; stroke: #ff0000"/>
     <use xlink:href="#mf4a6b4e23d" x="202.387812" y="215.824181" style="fill: #ff0000; stroke: #ff0000"/>
     <use xlink:href="#mf4a6b4e23d" x="211.66205" y="213.290018" style="fill: #ff0000; stroke: #ff0000"/>
     <use xlink:href="#mf4a6b4e23d" x="220.936288" y="210.501932" style="fill: #ff0000; stroke: #ff0000"/>
     <use xlink:href="#mf4a6b4e23d" x="230.210526" y="207.688487" style="fill: #ff0000; stroke: #ff0000"/>
     <use xlink:href="#mf4a6b4e23d" x="239.484765" y="204.71048" style="fill: #ff0000; stroke: #ff0000"/>
     <use xlink:href="#mf4a6b4e23d" x="248.759003" y="202.078772" style="fill: #ff0000; stroke: #ff0000"/>
     <use xlink:href="#mf4a6b4e23d" x="258.033241" y="198.584388" style="fill: #ff0000; stroke: #ff0000"/>
     <use xlink:href="#mf4a6b4e23d" x="267.307479" y="195.174726" style="fill: #ff0000; stroke: #ff0000"/>
     <use xlink:href="#mf4a6b4e23d" x="276.581717" y="191.559004" style="fill: #ff0000; stroke: #ff0000"/>
     <use xlink:href="#mf4a6b4e23d" x="285.855956" y="188.332685" style="fill: #ff0000; stroke: #ff0000"/>
     <use xlink:href="#mf4a6b4e23d" x="295.130194" y="184.79527" style="fill: #ff0000; stroke: #ff0000"/>
     <use xlink:href="#mf4a6b4e23d" x="304.404432" y="181.184312" style="fill: #ff0000; stroke: #ff0000"/>
     <use xlink:href="#mf4a6b4e23d" x="313.67867" y="177.521431" style="fill: #ff0000; stroke: #ff0000"/>
     <use xlink:href="#mf4a6b4e23d" x="322.952909" y="172.361061" style="fill: #ff0000; stroke: #ff0000"/>
     <use xlink:href="#mf4a6b4e23d" x="332.227147" y="168.409919" style="fill: #ff0000; stroke: #ff0000"/>
     <use xlink:href="#mf4a6b4e23d" x="341.501385" y="164.426898" style="fill: #ff0000; stroke: #ff0000"/>
     <use xlink:href="#mf4a6b4e23d" x="350.775623" y="159.811332" style="fill: #ff0000; stroke: #ff0000"/>
     <use xlink:href="#mf4a6b4e23d" x="360.049861" y="159.817624" style="fill: #ff0000; stroke: #ff0000"/>
     <use xlink:href="#mf4a6b4e23d" x="369.3241" y="157.021994" style="fill: #ff0000; stroke: #ff0000"/>
     <use xlink:href="#mf4a6b4e23d" x="378.598338" y="152.940291" style="fill: #ff0000; stroke: #ff0000"/>
    </g>
   </g>
   <g id="PathCollection_2">
    <defs>
     <path id="mf2580f5f54" d="M 0 3 
C 0.795609 3 1.55874 2.683901 2.12132 2.12132 
C 2.683901 1.55874 3 0.795609 3 0 
C 3 -0.795609 2.683901 -1.55874 2.12132 -2.12132 
C 1.55874 -2.683901 0.795609 -3 0 -3 
C -0.795609 -3 -1.55874 -2.683901 -2.12132 -2.12132 
C -2.683901 -1.55874 -3 -0.795609 -3 0 
C -3 0.795609 -2.683901 1.55874 -2.12132 2.12132 
C -1.55874 2.683901 -0.795609 3 0 3 
z
" style="stroke: #0000ff"/>
    </defs>
    <g clip-path="url(#pb83c126cbe)">
     <use xlink:href="#mf2580f5f54" x="54" y="239.419822" style="fill: #0000ff; stroke: #0000ff"/>
     <use xlink:href="#mf2580f5f54" x="63.274238" y="236.166784" style="fill: #0000ff; stroke: #0000ff"/>
     <use xlink:href="#mf2580f5f54" x="72.548476" y="233.150062" style="fill: #0000ff; stroke: #0000ff"/>
     <use xlink:href="#mf2580f5f54" x="81.822715" y="230.579344" style="fill: #0000ff; stroke: #0000ff"/>
     <use xlink:href="#mf2580f5f54" x="91.096953" y="228.594288" style="fill: #0000ff; stroke: #0000ff"/>
     <use xlink:href="#mf2580f5f54" x="100.371191" y="226.929789" style="fill: #0000ff; stroke: #0000ff"/>
     <use xlink:href="#mf2580f5f54" x="109.645429" y="225.141052" style="fill: #0000ff; stroke: #0000ff"/>
     <use xlink:href="#mf2580f5f54" x="118.919668" y="223.523025" style="fill: #0000ff; stroke: #0000ff"/>
     <use xlink:href="#mf2580f5f54" x="128.193906" y="221.739116" style="fill: #0000ff; stroke: #0000ff"/>
     <use xlink:href="#mf2580f5f54" x="137.468144" y="219.93637" style="fill: #0000ff; stroke: #0000ff"/>
     <use xlink:href="#mf2580f5f54" x="146.742382" y="218.595211" style="fill: #0000ff; stroke: #0000ff"/>
     <use xlink:href="#mf2580f5f54" x="156.01662" y="216.807792" style="fill: #0000ff; stroke: #0000ff"/>
     <use xlink:href="#mf2580f5f54" x="165.290859" y="215.30503" style="fill: #0000ff; stroke: #0000ff"/>
     <use xlink:href="#mf2580f5f54" x="174.565097" y="213.012855" style="fill: #0000ff; stroke: #0000ff"/>
     <use xlink:href="#mf2580f5f54" x="183.839335" y="211.151145" style="fill: #0000ff; stroke: #0000ff"/>
     <use xlink:href="#mf2580f5f54" x="193.113573" y="208.459174" style="fill: #0000ff; stroke: #0000ff"/>
     <use xlink:href="#mf2580f5f54" x="202.387812" y="206.032579" style="fill: #0000ff; stroke: #0000ff"/>
     <use xlink:href="#mf2580f5f54" x="211.66205" y="203.859272" style="fill: #0000ff; stroke: #0000ff"/>
     <use xlink:href="#mf2580f5f54" x="220.936288" y="201.573056" style="fill: #0000ff; stroke: #0000ff"/>
     <use xlink:href="#mf2580f5f54" x="230.210526" y="200.079824" style="fill: #0000ff; stroke: #0000ff"/>
     <use xlink:href="#mf2580f5f54" x="239.484765" y="197.847913" style="fill: #0000ff; stroke: #0000ff"/>
     <use xlink:href="#mf2580f5f54" x="248.759003" y="194.68308" style="fill: #0000ff; stroke: #0000ff"/>
     <use xlink:href="#mf2580f5f54" x="258.033241" y="191.609251" style="fill: #0000ff; stroke: #0000ff"/>
     <use xlink:href="#mf2580f5f54" x="267.307479" y="189.311402" style="fill: #0000ff; stroke: #0000ff"/>
     <use xlink:href="#mf2580f5f54" x="276.581717" y="185.866487" style="fill: #0000ff; stroke: #0000ff"/>
     <use xlink:href="#mf2580f5f54" x="285.855956" y="183.554095" style="fill: #0000ff; stroke: #0000ff"/>
     <use xlink:href="#mf2580f5f54" x="295.130194" y="180.691538" style="fill: #0000ff; stroke: #0000ff"/>
     <use xlink:href="#mf2580f5f54" x="304.404432" y="178.039591" style="fill: #0000ff; stroke: #0000ff"/>
     <use xlink:href="#mf2580f5f54" x="313.67867" y="177.290858" style="fill: #0000ff; stroke: #0000ff"/>
     <use xlink:href="#mf2580f5f54" x="322.952909" y="176.337067" style="fill: #0000ff; stroke: #0000ff"/>
     <use xlink:href="#mf2580f5f54" x="332.227147" y="173.106478" style="fill: #0000ff; stroke: #0000ff"/>
     <use xlink:href="#mf2580f5f54" x="341.501385" y="170.680775" style="fill: #0000ff; stroke: #0000ff"/>
     <use xlink:href="#mf2580f5f54" x="350.775623" y="167.973888" style="fill: #0000ff; stroke: #0000ff"/>
     <use xlink:href="#mf2580f5f54" x="360.049861" y="154.256602" style="fill: #0000ff; stroke: #0000ff"/>
     <use xlink:href="#mf2580f5f54" x="369.3241" y="145.483708" style="fill: #0000ff; stroke: #0000ff"/>
     <use xlink:href="#mf2580f5f54" x="378.598338" y="147.861818" style="fill: #0000ff; stroke: #0000ff"/>
    </g>
   </g>
   <g id="PolyCollection_1">
    <defs>
     <path id="m21f81efd8a" d="M 54 -396.895599 
L 54 -392.787155 
L 63.274238 -395.326916 
L 72.548476 -397.732969 
L 81.822715 -399.967342 
L 91.096953 -401.923199 
L 100.371191 -403.815964 
L 109.645429 -405.745756 
L 118.919668 -407.705417 
L 128.193906 -409.706969 
L 137.468144 -411.912897 
L 146.742382 -414.118588 
L 156.01662 -416.242152 
L 165.290859 -418.494527 
L 174.565097 -420.792565 
L 183.839335 -423.01965 
L 193.113573 -425.318144 
L 202.387812 -427.768632 
L 211.66205 -430.029078 
L 220.936288 -432.754987 
L 230.210526 -435.240716 
L 239.484765 -438.202047 
L 248.759003 -440.929918 
L 258.033241 -444.28709 
L 267.307479 -447.537318 
L 276.581717 -450.738465 
L 285.855956 -454.126085 
L 295.130194 -457.864989 
L 304.404432 -461.073262 
L 313.67867 -464.097275 
L 322.952909 -469.027676 
L 332.227147 -472.616165 
L 341.501385 -474.895115 
L 350.775623 -478.170847 
L 360.049861 -482.821485 
L 369.3241 -487.206513 
L 378.598338 -495.059709 
L 378.598338 -495.059709 
L 378.598338 -495.059709 
L 369.3241 -494.749499 
L 360.049861 -493.543267 
L 350.775623 -498.206488 
L 341.501385 -492.251089 
L 332.227147 -486.563997 
L 322.952909 -482.250201 
L 313.67867 -476.859862 
L 304.404432 -472.558113 
L 295.130194 -468.544471 
L 285.855956 -465.208544 
L 276.581717 -462.143526 
L 267.307479 -458.11323 
L 258.033241 -454.544134 
L 248.759003 -450.912539 
L 239.484765 -448.376993 
L 230.210526 -445.38231 
L 220.936288 -442.24115 
L 211.66205 -439.390886 
L 202.387812 -436.583007 
L 193.113573 -433.733487 
L 183.839335 -430.854773 
L 174.565097 -428.056261 
L 165.290859 -425.641347 
L 156.01662 -423.010318 
L 146.742382 -420.481976 
L 137.468144 -418.233255 
L 128.193906 -415.849039 
L 118.919668 -413.596808 
L 109.645429 -411.408314 
L 100.371191 -409.231956 
L 91.096953 -407.037615 
L 81.822715 -404.785272 
L 72.548476 -402.352925 
L 63.274238 -399.635598 
L 54 -396.895599 
z
" style="stroke: #ff0000; stroke-opacity: 0.2"/>
    </defs>
    <g clip-path="url(#pb83c126cbe)">
     <use xlink:href="#m21f81efd8a" x="0" y="648" style="fill: #ff0000; fill-opacity: 0.2; stroke: #ff0000; stroke-opacity: 0.2"/>
    </g>
   </g>
   <g id="PolyCollection_2">
    <defs>
     <path id="m4ecec51246" d="M 54 -413.47306 
L 54 -403.687296 
L 63.274238 -406.680777 
L 72.548476 -409.497486 
L 81.822715 -411.823655 
L 91.096953 -413.472929 
L 100.371191 -414.882608 
L 109.645429 -416.39339 
L 118.919668 -417.813995 
L 128.193906 -419.31302 
L 137.468144 -420.754736 
L 146.742382 -421.928159 
L 156.01662 -423.503251 
L 165.290859 -424.667855 
L 174.565097 -426.491287 
L 183.839335 -427.853534 
L 193.113573 -430.451116 
L 202.387812 -432.737371 
L 211.66205 -434.659326 
L 220.936288 -436.810092 
L 230.210526 -438.153325 
L 239.484765 -440.155094 
L 248.759003 -443.416194 
L 258.033241 -446.299766 
L 267.307479 -448.614268 
L 276.581717 -452.283495 
L 285.855956 -455.795212 
L 295.130194 -457.351016 
L 304.404432 -460.28378 
L 313.67867 -461.840479 
L 322.952909 -463.194714 
L 332.227147 -465.567646 
L 341.501385 -464.872828 
L 350.775623 -466.48922 
L 360.049861 -478.760229 
L 369.3241 -486.609474 
L 378.598338 -500.138182 
L 378.598338 -500.138182 
L 378.598338 -500.138182 
L 369.3241 -518.42311 
L 360.049861 -508.726567 
L 350.775623 -493.563004 
L 341.501385 -489.765621 
L 332.227147 -484.219399 
L 322.952909 -480.131152 
L 313.67867 -479.577804 
L 304.404432 -479.637038 
L 295.130194 -477.265909 
L 285.855956 -473.096599 
L 276.581717 -471.983531 
L 267.307479 -468.762929 
L 258.033241 -466.481733 
L 248.759003 -463.217645 
L 239.484765 -460.14908 
L 230.210526 -457.687027 
L 220.936288 -456.043796 
L 211.66205 -453.622129 
L 202.387812 -451.197472 
L 193.113573 -448.630535 
L 183.839335 -445.844176 
L 174.565097 -443.483003 
L 165.290859 -440.722085 
L 156.01662 -438.881165 
L 146.742382 -436.881418 
L 137.468144 -435.372524 
L 128.193906 -433.208747 
L 118.919668 -431.139955 
L 109.645429 -429.324507 
L 100.371191 -427.257813 
L 91.096953 -425.338496 
L 81.822715 -423.017656 
L 72.548476 -420.20239 
L 63.274238 -416.985655 
L 54 -413.47306 
z
" style="stroke: #0000ff; stroke-opacity: 0.2"/>
    </defs>
    <g clip-path="url(#pb83c126cbe)">
     <use xlink:href="#m4ecec51246" x="0" y="648" style="fill: #0000ff; fill-opacity: 0.2; stroke: #0000ff; stroke-opacity: 0.2"/>
    </g>
   </g>
   <g id="matplotlib.axis_1">
    <g id="xtick_1">
     <g id="line2d_1">
      <path d="M 54 304.56 
L 54 77.76 
" clip-path="url(#pb83c126cbe)" style="fill: none; stroke: #b0b0b0; stroke-width: 0.8; stroke-linecap: square"/>
     </g>
     <g id="line2d_2">
      <defs>
       <path id="m8a97cb7ad2" d="M 0 0 
L 0 3.5 
" style="stroke: #000000; stroke-width: 0.8"/>
      </defs>
      <g>
       <use xlink:href="#m8a97cb7ad2" x="54" y="304.56" style="stroke: #000000; stroke-width: 0.8"/>
      </g>
     </g>
     <g id="text_1">
      <!-- 0 -->
      <g transform="translate(50.81875 319.158437) scale(0.1 -0.1)">
       <defs>
        <path id="DejaVuSans-30" d="M 2034 4250 
Q 1547 4250 1301 3770 
Q 1056 3291 1056 2328 
Q 1056 1369 1301 889 
Q 1547 409 2034 409 
Q 2525 409 2770 889 
Q 3016 1369 3016 2328 
Q 3016 3291 2770 3770 
Q 2525 4250 2034 4250 
z
M 2034 4750 
Q 2819 4750 3233 4129 
Q 3647 3509 3647 2328 
Q 3647 1150 3233 529 
Q 2819 -91 2034 -91 
Q 1250 -91 836 529 
Q 422 1150 422 2328 
Q 422 3509 836 4129 
Q 1250 4750 2034 4750 
z
" transform="scale(0.015625)"/>
       </defs>
       <use xlink:href="#DejaVuSans-30"/>
      </g>
     </g>
    </g>
    <g id="xtick_2">
     <g id="line2d_3">
      <path d="M 100.371191 304.56 
L 100.371191 77.76 
" clip-path="url(#pb83c126cbe)" style="fill: none; stroke: #b0b0b0; stroke-width: 0.8; stroke-linecap: square"/>
     </g>
     <g id="line2d_4">
      <g>
       <use xlink:href="#m8a97cb7ad2" x="100.371191" y="304.56" style="stroke: #000000; stroke-width: 0.8"/>
      </g>
     </g>
     <g id="text_2">
      <!-- 5 -->
      <g transform="translate(97.189941 319.158437) scale(0.1 -0.1)">
       <defs>
        <path id="DejaVuSans-35" d="M 691 4666 
L 3169 4666 
L 3169 4134 
L 1269 4134 
L 1269 2991 
Q 1406 3038 1543 3061 
Q 1681 3084 1819 3084 
Q 2600 3084 3056 2656 
Q 3513 2228 3513 1497 
Q 3513 744 3044 326 
Q 2575 -91 1722 -91 
Q 1428 -91 1123 -41 
Q 819 9 494 109 
L 494 744 
Q 775 591 1075 516 
Q 1375 441 1709 441 
Q 2250 441 2565 725 
Q 2881 1009 2881 1497 
Q 2881 1984 2565 2268 
Q 2250 2553 1709 2553 
Q 1456 2553 1204 2497 
Q 953 2441 691 2322 
L 691 4666 
z
" transform="scale(0.015625)"/>
       </defs>
       <use xlink:href="#DejaVuSans-35"/>
      </g>
     </g>
    </g>
    <g id="xtick_3">
     <g id="line2d_5">
      <path d="M 146.742382 304.56 
L 146.742382 77.76 
" clip-path="url(#pb83c126cbe)" style="fill: none; stroke: #b0b0b0; stroke-width: 0.8; stroke-linecap: square"/>
     </g>
     <g id="line2d_6">
      <g>
       <use xlink:href="#m8a97cb7ad2" x="146.742382" y="304.56" style="stroke: #000000; stroke-width: 0.8"/>
      </g>
     </g>
     <g id="text_3">
      <!-- 10 -->
      <g transform="translate(140.379882 319.158437) scale(0.1 -0.1)">
       <defs>
        <path id="DejaVuSans-31" d="M 794 531 
L 1825 531 
L 1825 4091 
L 703 3866 
L 703 4441 
L 1819 4666 
L 2450 4666 
L 2450 531 
L 3481 531 
L 3481 0 
L 794 0 
L 794 531 
z
" transform="scale(0.015625)"/>
       </defs>
       <use xlink:href="#DejaVuSans-31"/>
       <use xlink:href="#DejaVuSans-30" x="63.623047"/>
      </g>
     </g>
    </g>
    <g id="xtick_4">
     <g id="line2d_7">
      <path d="M 193.113573 304.56 
L 193.113573 77.76 
" clip-path="url(#pb83c126cbe)" style="fill: none; stroke: #b0b0b0; stroke-width: 0.8; stroke-linecap: square"/>
     </g>
     <g id="line2d_8">
      <g>
       <use xlink:href="#m8a97cb7ad2" x="193.113573" y="304.56" style="stroke: #000000; stroke-width: 0.8"/>
      </g>
     </g>
     <g id="text_4">
      <!-- 15 -->
      <g transform="translate(186.751073 319.158437) scale(0.1 -0.1)">
       <use xlink:href="#DejaVuSans-31"/>
       <use xlink:href="#DejaVuSans-35" x="63.623047"/>
      </g>
     </g>
    </g>
    <g id="xtick_5">
     <g id="line2d_9">
      <path d="M 239.484765 304.56 
L 239.484765 77.76 
" clip-path="url(#pb83c126cbe)" style="fill: none; stroke: #b0b0b0; stroke-width: 0.8; stroke-linecap: square"/>
     </g>
     <g id="line2d_10">
      <g>
       <use xlink:href="#m8a97cb7ad2" x="239.484765" y="304.56" style="stroke: #000000; stroke-width: 0.8"/>
      </g>
     </g>
     <g id="text_5">
      <!-- 20 -->
      <g transform="translate(233.122265 319.158437) scale(0.1 -0.1)">
       <defs>
        <path id="DejaVuSans-32" d="M 1228 531 
L 3431 531 
L 3431 0 
L 469 0 
L 469 531 
Q 828 903 1448 1529 
Q 2069 2156 2228 2338 
Q 2531 2678 2651 2914 
Q 2772 3150 2772 3378 
Q 2772 3750 2511 3984 
Q 2250 4219 1831 4219 
Q 1534 4219 1204 4116 
Q 875 4013 500 3803 
L 500 4441 
Q 881 4594 1212 4672 
Q 1544 4750 1819 4750 
Q 2544 4750 2975 4387 
Q 3406 4025 3406 3419 
Q 3406 3131 3298 2873 
Q 3191 2616 2906 2266 
Q 2828 2175 2409 1742 
Q 1991 1309 1228 531 
z
" transform="scale(0.015625)"/>
       </defs>
       <use xlink:href="#DejaVuSans-32"/>
       <use xlink:href="#DejaVuSans-30" x="63.623047"/>
      </g>
     </g>
    </g>
    <g id="xtick_6">
     <g id="line2d_11">
      <path d="M 285.855956 304.56 
L 285.855956 77.76 
" clip-path="url(#pb83c126cbe)" style="fill: none; stroke: #b0b0b0; stroke-width: 0.8; stroke-linecap: square"/>
     </g>
     <g id="line2d_12">
      <g>
       <use xlink:href="#m8a97cb7ad2" x="285.855956" y="304.56" style="stroke: #000000; stroke-width: 0.8"/>
      </g>
     </g>
     <g id="text_6">
      <!-- 25 -->
      <g transform="translate(279.493456 319.158437) scale(0.1 -0.1)">
       <use xlink:href="#DejaVuSans-32"/>
       <use xlink:href="#DejaVuSans-35" x="63.623047"/>
      </g>
     </g>
    </g>
    <g id="xtick_7">
     <g id="line2d_13">
      <path d="M 332.227147 304.56 
L 332.227147 77.76 
" clip-path="url(#pb83c126cbe)" style="fill: none; stroke: #b0b0b0; stroke-width: 0.8; stroke-linecap: square"/>
     </g>
     <g id="line2d_14">
      <g>
       <use xlink:href="#m8a97cb7ad2" x="332.227147" y="304.56" style="stroke: #000000; stroke-width: 0.8"/>
      </g>
     </g>
     <g id="text_7">
      <!-- 30 -->
      <g transform="translate(325.864647 319.158437) scale(0.1 -0.1)">
       <defs>
        <path id="DejaVuSans-33" d="M 2597 2516 
Q 3050 2419 3304 2112 
Q 3559 1806 3559 1356 
Q 3559 666 3084 287 
Q 2609 -91 1734 -91 
Q 1441 -91 1130 -33 
Q 819 25 488 141 
L 488 750 
Q 750 597 1062 519 
Q 1375 441 1716 441 
Q 2309 441 2620 675 
Q 2931 909 2931 1356 
Q 2931 1769 2642 2001 
Q 2353 2234 1838 2234 
L 1294 2234 
L 1294 2753 
L 1863 2753 
Q 2328 2753 2575 2939 
Q 2822 3125 2822 3475 
Q 2822 3834 2567 4026 
Q 2313 4219 1838 4219 
Q 1578 4219 1281 4162 
Q 984 4106 628 3988 
L 628 4550 
Q 988 4650 1302 4700 
Q 1616 4750 1894 4750 
Q 2613 4750 3031 4423 
Q 3450 4097 3450 3541 
Q 3450 3153 3228 2886 
Q 3006 2619 2597 2516 
z
" transform="scale(0.015625)"/>
       </defs>
       <use xlink:href="#DejaVuSans-33"/>
       <use xlink:href="#DejaVuSans-30" x="63.623047"/>
      </g>
     </g>
    </g>
    <g id="xtick_8">
     <g id="line2d_15">
      <path d="M 378.598338 304.56 
L 378.598338 77.76 
" clip-path="url(#pb83c126cbe)" style="fill: none; stroke: #b0b0b0; stroke-width: 0.8; stroke-linecap: square"/>
     </g>
     <g id="line2d_16">
      <g>
       <use xlink:href="#m8a97cb7ad2" x="378.598338" y="304.56" style="stroke: #000000; stroke-width: 0.8"/>
      </g>
     </g>
     <g id="text_8">
      <!-- 35 -->
      <g transform="translate(372.235838 319.158437) scale(0.1 -0.1)">
       <use xlink:href="#DejaVuSans-33"/>
       <use xlink:href="#DejaVuSans-35" x="63.623047"/>
      </g>
     </g>
    </g>
    <g id="text_9">
     <!-- Number of Box -->
     <g transform="translate(165.335156 336.635781) scale(0.15 -0.15)">
      <defs>
       <path id="DejaVuSans-4e" d="M 628 4666 
L 1478 4666 
L 3547 763 
L 3547 4666 
L 4159 4666 
L 4159 0 
L 3309 0 
L 1241 3903 
L 1241 0 
L 628 0 
L 628 4666 
z
" transform="scale(0.015625)"/>
       <path id="DejaVuSans-75" d="M 544 1381 
L 544 3500 
L 1119 3500 
L 1119 1403 
Q 1119 906 1312 657 
Q 1506 409 1894 409 
Q 2359 409 2629 706 
Q 2900 1003 2900 1516 
L 2900 3500 
L 3475 3500 
L 3475 0 
L 2900 0 
L 2900 538 
Q 2691 219 2414 64 
Q 2138 -91 1772 -91 
Q 1169 -91 856 284 
Q 544 659 544 1381 
z
M 1991 3584 
L 1991 3584 
z
" transform="scale(0.015625)"/>
       <path id="DejaVuSans-6d" d="M 3328 2828 
Q 3544 3216 3844 3400 
Q 4144 3584 4550 3584 
Q 5097 3584 5394 3201 
Q 5691 2819 5691 2113 
L 5691 0 
L 5113 0 
L 5113 2094 
Q 5113 2597 4934 2840 
Q 4756 3084 4391 3084 
Q 3944 3084 3684 2787 
Q 3425 2491 3425 1978 
L 3425 0 
L 2847 0 
L 2847 2094 
Q 2847 2600 2669 2842 
Q 2491 3084 2119 3084 
Q 1678 3084 1418 2786 
Q 1159 2488 1159 1978 
L 1159 0 
L 581 0 
L 581 3500 
L 1159 3500 
L 1159 2956 
Q 1356 3278 1631 3431 
Q 1906 3584 2284 3584 
Q 2666 3584 2933 3390 
Q 3200 3197 3328 2828 
z
" transform="scale(0.015625)"/>
       <path id="DejaVuSans-62" d="M 3116 1747 
Q 3116 2381 2855 2742 
Q 2594 3103 2138 3103 
Q 1681 3103 1420 2742 
Q 1159 2381 1159 1747 
Q 1159 1113 1420 752 
Q 1681 391 2138 391 
Q 2594 391 2855 752 
Q 3116 1113 3116 1747 
z
M 1159 2969 
Q 1341 3281 1617 3432 
Q 1894 3584 2278 3584 
Q 2916 3584 3314 3078 
Q 3713 2572 3713 1747 
Q 3713 922 3314 415 
Q 2916 -91 2278 -91 
Q 1894 -91 1617 61 
Q 1341 213 1159 525 
L 1159 0 
L 581 0 
L 581 4863 
L 1159 4863 
L 1159 2969 
z
" transform="scale(0.015625)"/>
       <path id="DejaVuSans-65" d="M 3597 1894 
L 3597 1613 
L 953 1613 
Q 991 1019 1311 708 
Q 1631 397 2203 397 
Q 2534 397 2845 478 
Q 3156 559 3463 722 
L 3463 178 
Q 3153 47 2828 -22 
Q 2503 -91 2169 -91 
Q 1331 -91 842 396 
Q 353 884 353 1716 
Q 353 2575 817 3079 
Q 1281 3584 2069 3584 
Q 2775 3584 3186 3129 
Q 3597 2675 3597 1894 
z
M 3022 2063 
Q 3016 2534 2758 2815 
Q 2500 3097 2075 3097 
Q 1594 3097 1305 2825 
Q 1016 2553 972 2059 
L 3022 2063 
z
" transform="scale(0.015625)"/>
       <path id="DejaVuSans-72" d="M 2631 2963 
Q 2534 3019 2420 3045 
Q 2306 3072 2169 3072 
Q 1681 3072 1420 2755 
Q 1159 2438 1159 1844 
L 1159 0 
L 581 0 
L 581 3500 
L 1159 3500 
L 1159 2956 
Q 1341 3275 1631 3429 
Q 1922 3584 2338 3584 
Q 2397 3584 2469 3576 
Q 2541 3569 2628 3553 
L 2631 2963 
z
" transform="scale(0.015625)"/>
       <path id="DejaVuSans-20" transform="scale(0.015625)"/>
       <path id="DejaVuSans-6f" d="M 1959 3097 
Q 1497 3097 1228 2736 
Q 959 2375 959 1747 
Q 959 1119 1226 758 
Q 1494 397 1959 397 
Q 2419 397 2687 759 
Q 2956 1122 2956 1747 
Q 2956 2369 2687 2733 
Q 2419 3097 1959 3097 
z
M 1959 3584 
Q 2709 3584 3137 3096 
Q 3566 2609 3566 1747 
Q 3566 888 3137 398 
Q 2709 -91 1959 -91 
Q 1206 -91 779 398 
Q 353 888 353 1747 
Q 353 2609 779 3096 
Q 1206 3584 1959 3584 
z
" transform="scale(0.015625)"/>
       <path id="DejaVuSans-66" d="M 2375 4863 
L 2375 4384 
L 1825 4384 
Q 1516 4384 1395 4259 
Q 1275 4134 1275 3809 
L 1275 3500 
L 2222 3500 
L 2222 3053 
L 1275 3053 
L 1275 0 
L 697 0 
L 697 3053 
L 147 3053 
L 147 3500 
L 697 3500 
L 697 3744 
Q 697 4328 969 4595 
Q 1241 4863 1831 4863 
L 2375 4863 
z
" transform="scale(0.015625)"/>
       <path id="DejaVuSans-42" d="M 1259 2228 
L 1259 519 
L 2272 519 
Q 2781 519 3026 730 
Q 3272 941 3272 1375 
Q 3272 1813 3026 2020 
Q 2781 2228 2272 2228 
L 1259 2228 
z
M 1259 4147 
L 1259 2741 
L 2194 2741 
Q 2656 2741 2882 2914 
Q 3109 3088 3109 3444 
Q 3109 3797 2882 3972 
Q 2656 4147 2194 4147 
L 1259 4147 
z
M 628 4666 
L 2241 4666 
Q 2963 4666 3353 4366 
Q 3744 4066 3744 3513 
Q 3744 3084 3544 2831 
Q 3344 2578 2956 2516 
Q 3422 2416 3680 2098 
Q 3938 1781 3938 1306 
Q 3938 681 3513 340 
Q 3088 0 2303 0 
L 628 0 
L 628 4666 
z
" transform="scale(0.015625)"/>
       <path id="DejaVuSans-78" d="M 3513 3500 
L 2247 1797 
L 3578 0 
L 2900 0 
L 1881 1375 
L 863 0 
L 184 0 
L 1544 1831 
L 300 3500 
L 978 3500 
L 1906 2253 
L 2834 3500 
L 3513 3500 
z
" transform="scale(0.015625)"/>
      </defs>
      <use xlink:href="#DejaVuSans-4e"/>
      <use xlink:href="#DejaVuSans-75" x="74.804688"/>
      <use xlink:href="#DejaVuSans-6d" x="138.183594"/>
      <use xlink:href="#DejaVuSans-62" x="235.595703"/>
      <use xlink:href="#DejaVuSans-65" x="299.072266"/>
      <use xlink:href="#DejaVuSans-72" x="360.595703"/>
      <use xlink:href="#DejaVuSans-20" x="401.708984"/>
      <use xlink:href="#DejaVuSans-6f" x="433.496094"/>
      <use xlink:href="#DejaVuSans-66" x="494.677734"/>
      <use xlink:href="#DejaVuSans-20" x="529.882812"/>
      <use xlink:href="#DejaVuSans-42" x="561.669922"/>
      <use xlink:href="#DejaVuSans-6f" x="630.273438"/>
      <use xlink:href="#DejaVuSans-78" x="688.330078"/>
     </g>
    </g>
   </g>
   <g id="matplotlib.axis_2">
    <g id="ytick_1">
     <g id="line2d_17">
      <path d="M 54 304.56 
L 388.8 304.56 
" clip-path="url(#pb83c126cbe)" style="fill: none; stroke: #b0b0b0; stroke-width: 0.8; stroke-linecap: square"/>
     </g>
     <g id="line2d_18">
      <defs>
       <path id="mc7ca484157" d="M 0 0 
L -3.5 0 
" style="stroke: #000000; stroke-width: 0.8"/>
      </defs>
      <g>
       <use xlink:href="#mc7ca484157" x="54" y="304.56" style="stroke: #000000; stroke-width: 0.8"/>
      </g>
     </g>
     <g id="text_10">
      <!-- 0.0 -->
      <g transform="translate(31.096875 308.359219) scale(0.1 -0.1)">
       <defs>
        <path id="DejaVuSans-2e" d="M 684 794 
L 1344 794 
L 1344 0 
L 684 0 
L 684 794 
z
" transform="scale(0.015625)"/>
       </defs>
       <use xlink:href="#DejaVuSans-30"/>
       <use xlink:href="#DejaVuSans-2e" x="63.623047"/>
       <use xlink:href="#DejaVuSans-30" x="95.410156"/>
      </g>
     </g>
    </g>
    <g id="ytick_2">
     <g id="line2d_19">
      <path d="M 54 263.323636 
L 388.8 263.323636 
" clip-path="url(#pb83c126cbe)" style="fill: none; stroke: #b0b0b0; stroke-width: 0.8; stroke-linecap: square"/>
     </g>
     <g id="line2d_20">
      <g>
       <use xlink:href="#mc7ca484157" x="54" y="263.323636" style="stroke: #000000; stroke-width: 0.8"/>
      </g>
     </g>
     <g id="text_11">
      <!-- 0.2 -->
      <g transform="translate(31.096875 267.122855) scale(0.1 -0.1)">
       <use xlink:href="#DejaVuSans-30"/>
       <use xlink:href="#DejaVuSans-2e" x="63.623047"/>
       <use xlink:href="#DejaVuSans-32" x="95.410156"/>
      </g>
     </g>
    </g>
    <g id="ytick_3">
     <g id="line2d_21">
      <path d="M 54 222.087273 
L 388.8 222.087273 
" clip-path="url(#pb83c126cbe)" style="fill: none; stroke: #b0b0b0; stroke-width: 0.8; stroke-linecap: square"/>
     </g>
     <g id="line2d_22">
      <g>
       <use xlink:href="#mc7ca484157" x="54" y="222.087273" style="stroke: #000000; stroke-width: 0.8"/>
      </g>
     </g>
     <g id="text_12">
      <!-- 0.4 -->
      <g transform="translate(31.096875 225.886491) scale(0.1 -0.1)">
       <defs>
        <path id="DejaVuSans-34" d="M 2419 4116 
L 825 1625 
L 2419 1625 
L 2419 4116 
z
M 2253 4666 
L 3047 4666 
L 3047 1625 
L 3713 1625 
L 3713 1100 
L 3047 1100 
L 3047 0 
L 2419 0 
L 2419 1100 
L 313 1100 
L 313 1709 
L 2253 4666 
z
" transform="scale(0.015625)"/>
       </defs>
       <use xlink:href="#DejaVuSans-30"/>
       <use xlink:href="#DejaVuSans-2e" x="63.623047"/>
       <use xlink:href="#DejaVuSans-34" x="95.410156"/>
      </g>
     </g>
    </g>
    <g id="ytick_4">
     <g id="line2d_23">
      <path d="M 54 180.850909 
L 388.8 180.850909 
" clip-path="url(#pb83c126cbe)" style="fill: none; stroke: #b0b0b0; stroke-width: 0.8; stroke-linecap: square"/>
     </g>
     <g id="line2d_24">
      <g>
       <use xlink:href="#mc7ca484157" x="54" y="180.850909" style="stroke: #000000; stroke-width: 0.8"/>
      </g>
     </g>
     <g id="text_13">
      <!-- 0.6 -->
      <g transform="translate(31.096875 184.650128) scale(0.1 -0.1)">
       <defs>
        <path id="DejaVuSans-36" d="M 2113 2584 
Q 1688 2584 1439 2293 
Q 1191 2003 1191 1497 
Q 1191 994 1439 701 
Q 1688 409 2113 409 
Q 2538 409 2786 701 
Q 3034 994 3034 1497 
Q 3034 2003 2786 2293 
Q 2538 2584 2113 2584 
z
M 3366 4563 
L 3366 3988 
Q 3128 4100 2886 4159 
Q 2644 4219 2406 4219 
Q 1781 4219 1451 3797 
Q 1122 3375 1075 2522 
Q 1259 2794 1537 2939 
Q 1816 3084 2150 3084 
Q 2853 3084 3261 2657 
Q 3669 2231 3669 1497 
Q 3669 778 3244 343 
Q 2819 -91 2113 -91 
Q 1303 -91 875 529 
Q 447 1150 447 2328 
Q 447 3434 972 4092 
Q 1497 4750 2381 4750 
Q 2619 4750 2861 4703 
Q 3103 4656 3366 4563 
z
" transform="scale(0.015625)"/>
       </defs>
       <use xlink:href="#DejaVuSans-30"/>
       <use xlink:href="#DejaVuSans-2e" x="63.623047"/>
       <use xlink:href="#DejaVuSans-36" x="95.410156"/>
      </g>
     </g>
    </g>
    <g id="ytick_5">
     <g id="line2d_25">
      <path d="M 54 139.614545 
L 388.8 139.614545 
" clip-path="url(#pb83c126cbe)" style="fill: none; stroke: #b0b0b0; stroke-width: 0.8; stroke-linecap: square"/>
     </g>
     <g id="line2d_26">
      <g>
       <use xlink:href="#mc7ca484157" x="54" y="139.614545" style="stroke: #000000; stroke-width: 0.8"/>
      </g>
     </g>
     <g id="text_14">
      <!-- 0.8 -->
      <g transform="translate(31.096875 143.413764) scale(0.1 -0.1)">
       <defs>
        <path id="DejaVuSans-38" d="M 2034 2216 
Q 1584 2216 1326 1975 
Q 1069 1734 1069 1313 
Q 1069 891 1326 650 
Q 1584 409 2034 409 
Q 2484 409 2743 651 
Q 3003 894 3003 1313 
Q 3003 1734 2745 1975 
Q 2488 2216 2034 2216 
z
M 1403 2484 
Q 997 2584 770 2862 
Q 544 3141 544 3541 
Q 544 4100 942 4425 
Q 1341 4750 2034 4750 
Q 2731 4750 3128 4425 
Q 3525 4100 3525 3541 
Q 3525 3141 3298 2862 
Q 3072 2584 2669 2484 
Q 3125 2378 3379 2068 
Q 3634 1759 3634 1313 
Q 3634 634 3220 271 
Q 2806 -91 2034 -91 
Q 1263 -91 848 271 
Q 434 634 434 1313 
Q 434 1759 690 2068 
Q 947 2378 1403 2484 
z
M 1172 3481 
Q 1172 3119 1398 2916 
Q 1625 2713 2034 2713 
Q 2441 2713 2670 2916 
Q 2900 3119 2900 3481 
Q 2900 3844 2670 4047 
Q 2441 4250 2034 4250 
Q 1625 4250 1398 4047 
Q 1172 3844 1172 3481 
z
" transform="scale(0.015625)"/>
       </defs>
       <use xlink:href="#DejaVuSans-30"/>
       <use xlink:href="#DejaVuSans-2e" x="63.623047"/>
       <use xlink:href="#DejaVuSans-38" x="95.410156"/>
      </g>
     </g>
    </g>
    <g id="ytick_6">
     <g id="line2d_27">
      <path d="M 54 98.378182 
L 388.8 98.378182 
" clip-path="url(#pb83c126cbe)" style="fill: none; stroke: #b0b0b0; stroke-width: 0.8; stroke-linecap: square"/>
     </g>
     <g id="line2d_28">
      <g>
       <use xlink:href="#mc7ca484157" x="54" y="98.378182" style="stroke: #000000; stroke-width: 0.8"/>
      </g>
     </g>
     <g id="text_15">
      <!-- 1.0 -->
      <g transform="translate(31.096875 102.177401) scale(0.1 -0.1)">
       <use xlink:href="#DejaVuSans-31"/>
       <use xlink:href="#DejaVuSans-2e" x="63.623047"/>
       <use xlink:href="#DejaVuSans-30" x="95.410156"/>
      </g>
     </g>
    </g>
    <g id="text_16">
     <!-- Precision -->
     <g transform="translate(23.977344 224.620547) rotate(-90) scale(0.15 -0.15)">
      <defs>
       <path id="DejaVuSans-50" d="M 1259 4147 
L 1259 2394 
L 2053 2394 
Q 2494 2394 2734 2622 
Q 2975 2850 2975 3272 
Q 2975 3691 2734 3919 
Q 2494 4147 2053 4147 
L 1259 4147 
z
M 628 4666 
L 2053 4666 
Q 2838 4666 3239 4311 
Q 3641 3956 3641 3272 
Q 3641 2581 3239 2228 
Q 2838 1875 2053 1875 
L 1259 1875 
L 1259 0 
L 628 0 
L 628 4666 
z
" transform="scale(0.015625)"/>
       <path id="DejaVuSans-63" d="M 3122 3366 
L 3122 2828 
Q 2878 2963 2633 3030 
Q 2388 3097 2138 3097 
Q 1578 3097 1268 2742 
Q 959 2388 959 1747 
Q 959 1106 1268 751 
Q 1578 397 2138 397 
Q 2388 397 2633 464 
Q 2878 531 3122 666 
L 3122 134 
Q 2881 22 2623 -34 
Q 2366 -91 2075 -91 
Q 1284 -91 818 406 
Q 353 903 353 1747 
Q 353 2603 823 3093 
Q 1294 3584 2113 3584 
Q 2378 3584 2631 3529 
Q 2884 3475 3122 3366 
z
" transform="scale(0.015625)"/>
       <path id="DejaVuSans-69" d="M 603 3500 
L 1178 3500 
L 1178 0 
L 603 0 
L 603 3500 
z
M 603 4863 
L 1178 4863 
L 1178 4134 
L 603 4134 
L 603 4863 
z
" transform="scale(0.015625)"/>
       <path id="DejaVuSans-73" d="M 2834 3397 
L 2834 2853 
Q 2591 2978 2328 3040 
Q 2066 3103 1784 3103 
Q 1356 3103 1142 2972 
Q 928 2841 928 2578 
Q 928 2378 1081 2264 
Q 1234 2150 1697 2047 
L 1894 2003 
Q 2506 1872 2764 1633 
Q 3022 1394 3022 966 
Q 3022 478 2636 193 
Q 2250 -91 1575 -91 
Q 1294 -91 989 -36 
Q 684 19 347 128 
L 347 722 
Q 666 556 975 473 
Q 1284 391 1588 391 
Q 1994 391 2212 530 
Q 2431 669 2431 922 
Q 2431 1156 2273 1281 
Q 2116 1406 1581 1522 
L 1381 1569 
Q 847 1681 609 1914 
Q 372 2147 372 2553 
Q 372 3047 722 3315 
Q 1072 3584 1716 3584 
Q 2034 3584 2315 3537 
Q 2597 3491 2834 3397 
z
" transform="scale(0.015625)"/>
       <path id="DejaVuSans-6e" d="M 3513 2113 
L 3513 0 
L 2938 0 
L 2938 2094 
Q 2938 2591 2744 2837 
Q 2550 3084 2163 3084 
Q 1697 3084 1428 2787 
Q 1159 2491 1159 1978 
L 1159 0 
L 581 0 
L 581 3500 
L 1159 3500 
L 1159 2956 
Q 1366 3272 1645 3428 
Q 1925 3584 2291 3584 
Q 2894 3584 3203 3211 
Q 3513 2838 3513 2113 
z
" transform="scale(0.015625)"/>
      </defs>
      <use xlink:href="#DejaVuSans-50"/>
      <use xlink:href="#DejaVuSans-72" x="58.552734"/>
      <use xlink:href="#DejaVuSans-65" x="97.416016"/>
      <use xlink:href="#DejaVuSans-63" x="158.939453"/>
      <use xlink:href="#DejaVuSans-69" x="213.919922"/>
      <use xlink:href="#DejaVuSans-73" x="241.703125"/>
      <use xlink:href="#DejaVuSans-69" x="293.802734"/>
      <use xlink:href="#DejaVuSans-6f" x="321.585938"/>
      <use xlink:href="#DejaVuSans-6e" x="382.767578"/>
     </g>
    </g>
   </g>
   <g id="patch_3">
    <path d="M 54 304.56 
L 54 77.76 
" style="fill: none; stroke: #000000; stroke-width: 0.8; stroke-linejoin: miter; stroke-linecap: square"/>
   </g>
   <g id="patch_4">
    <path d="M 388.8 304.56 
L 388.8 77.76 
" style="fill: none; stroke: #000000; stroke-width: 0.8; stroke-linejoin: miter; stroke-linecap: square"/>
   </g>
   <g id="patch_5">
    <path d="M 54 304.56 
L 388.8 304.56 
" style="fill: none; stroke: #000000; stroke-width: 0.8; stroke-linejoin: miter; stroke-linecap: square"/>
   </g>
   <g id="patch_6">
    <path d="M 54 77.76 
L 388.8 77.76 
" style="fill: none; stroke: #000000; stroke-width: 0.8; stroke-linejoin: miter; stroke-linecap: square"/>
   </g>
   <g id="legend_1">
    <g id="patch_7">
     <path d="M 294.31875 133.794375 
L 378.3 133.794375 
Q 381.3 133.794375 381.3 130.794375 
L 381.3 88.26 
Q 381.3 85.26 378.3 85.26 
L 294.31875 85.26 
Q 291.31875 85.26 291.31875 88.26 
L 291.31875 130.794375 
Q 291.31875 133.794375 294.31875 133.794375 
z
" style="fill: #ffffff; opacity: 0.8; stroke: #cccccc; stroke-linejoin: miter"/>
    </g>
    <g id="PathCollection_3">
     <g>
      <use xlink:href="#mf4a6b4e23d" x="312.31875" y="98.720156" style="fill: #ff0000; stroke: #ff0000"/>
     </g>
    </g>
    <g id="text_17">
     <!-- Train -->
     <g transform="translate(339.31875 102.657656) scale(0.15 -0.15)">
      <defs>
       <path id="DejaVuSans-54" d="M -19 4666 
L 3928 4666 
L 3928 4134 
L 2272 4134 
L 2272 0 
L 1638 0 
L 1638 4134 
L -19 4134 
L -19 4666 
z
" transform="scale(0.015625)"/>
       <path id="DejaVuSans-61" d="M 2194 1759 
Q 1497 1759 1228 1600 
Q 959 1441 959 1056 
Q 959 750 1161 570 
Q 1363 391 1709 391 
Q 2188 391 2477 730 
Q 2766 1069 2766 1631 
L 2766 1759 
L 2194 1759 
z
M 3341 1997 
L 3341 0 
L 2766 0 
L 2766 531 
Q 2569 213 2275 61 
Q 1981 -91 1556 -91 
Q 1019 -91 701 211 
Q 384 513 384 1019 
Q 384 1609 779 1909 
Q 1175 2209 1959 2209 
L 2766 2209 
L 2766 2266 
Q 2766 2663 2505 2880 
Q 2244 3097 1772 3097 
Q 1472 3097 1187 3025 
Q 903 2953 641 2809 
L 641 3341 
Q 956 3463 1253 3523 
Q 1550 3584 1831 3584 
Q 2591 3584 2966 3190 
Q 3341 2797 3341 1997 
z
" transform="scale(0.015625)"/>
      </defs>
      <use xlink:href="#DejaVuSans-54"/>
      <use xlink:href="#DejaVuSans-72" x="46.333984"/>
      <use xlink:href="#DejaVuSans-61" x="87.447266"/>
      <use xlink:href="#DejaVuSans-69" x="148.726562"/>
      <use xlink:href="#DejaVuSans-6e" x="176.509766"/>
     </g>
    </g>
    <g id="PathCollection_4">
     <g>
      <use xlink:href="#mf2580f5f54" x="312.31875" y="120.737344" style="fill: #0000ff; stroke: #0000ff"/>
     </g>
    </g>
    <g id="text_18">
     <!-- Test -->
     <g transform="translate(339.31875 124.674844) scale(0.15 -0.15)">
      <defs>
       <path id="DejaVuSans-74" d="M 1172 4494 
L 1172 3500 
L 2356 3500 
L 2356 3053 
L 1172 3053 
L 1172 1153 
Q 1172 725 1289 603 
Q 1406 481 1766 481 
L 2356 481 
L 2356 0 
L 1766 0 
Q 1100 0 847 248 
Q 594 497 594 1153 
L 594 3053 
L 172 3053 
L 172 3500 
L 594 3500 
L 594 4494 
L 1172 4494 
z
" transform="scale(0.015625)"/>
      </defs>
      <use xlink:href="#DejaVuSans-54"/>
      <use xlink:href="#DejaVuSans-65" x="44.083984"/>
      <use xlink:href="#DejaVuSans-73" x="105.607422"/>
      <use xlink:href="#DejaVuSans-74" x="157.707031"/>
     </g>
    </g>
   </g>
  </g>
  <g id="axes_2">
   <g id="patch_8">
    <path d="M 54 576.72 
L 388.8 576.72 
L 388.8 349.92 
L 54 349.92 
z
" style="fill: #ffffff"/>
   </g>
   <g id="PathCollection_5">
    <g clip-path="url(#pb60a38745f)">
     <use xlink:href="#mf4a6b4e23d" x="54" y="370.592475" style="fill: #ff0000; stroke: #ff0000"/>
     <use xlink:href="#mf4a6b4e23d" x="63.274238" y="370.811503" style="fill: #ff0000; stroke: #ff0000"/>
     <use xlink:href="#mf4a6b4e23d" x="72.548476" y="371.458192" style="fill: #ff0000; stroke: #ff0000"/>
     <use xlink:href="#mf4a6b4e23d" x="81.822715" y="372.792196" style="fill: #ff0000; stroke: #ff0000"/>
     <use xlink:href="#mf4a6b4e23d" x="91.096953" y="373.961572" style="fill: #ff0000; stroke: #ff0000"/>
     <use xlink:href="#mf4a6b4e23d" x="100.371191" y="374.538903" style="fill: #ff0000; stroke: #ff0000"/>
     <use xlink:href="#mf4a6b4e23d" x="109.645429" y="374.605828" style="fill: #ff0000; stroke: #ff0000"/>
     <use xlink:href="#mf4a6b4e23d" x="118.919668" y="374.661976" style="fill: #ff0000; stroke: #ff0000"/>
     <use xlink:href="#mf4a6b4e23d" x="128.193906" y="374.525855" style="fill: #ff0000; stroke: #ff0000"/>
     <use xlink:href="#mf4a6b4e23d" x="137.468144" y="374.543549" style="fill: #ff0000; stroke: #ff0000"/>
     <use xlink:href="#mf4a6b4e23d" x="146.742382" y="374.650767" style="fill: #ff0000; stroke: #ff0000"/>
     <use xlink:href="#mf4a6b4e23d" x="156.01662" y="374.495031" style="fill: #ff0000; stroke: #ff0000"/>
     <use xlink:href="#mf4a6b4e23d" x="165.290859" y="374.805815" style="fill: #ff0000; stroke: #ff0000"/>
     <use xlink:href="#mf4a6b4e23d" x="174.565097" y="374.769693" style="fill: #ff0000; stroke: #ff0000"/>
     <use xlink:href="#mf4a6b4e23d" x="183.839335" y="374.683267" style="fill: #ff0000; stroke: #ff0000"/>
     <use xlink:href="#mf4a6b4e23d" x="193.113573" y="374.549569" style="fill: #ff0000; stroke: #ff0000"/>
     <use xlink:href="#mf4a6b4e23d" x="202.387812" y="374.311464" style="fill: #ff0000; stroke: #ff0000"/>
     <use xlink:href="#mf4a6b4e23d" x="211.66205" y="374.368169" style="fill: #ff0000; stroke: #ff0000"/>
     <use xlink:href="#mf4a6b4e23d" x="220.936288" y="374.580041" style="fill: #ff0000; stroke: #ff0000"/>
     <use xlink:href="#mf4a6b4e23d" x="230.210526" y="374.447797" style="fill: #ff0000; stroke: #ff0000"/>
     <use xlink:href="#mf4a6b4e23d" x="239.484765" y="374.50542" style="fill: #ff0000; stroke: #ff0000"/>
     <use xlink:href="#mf4a6b4e23d" x="248.759003" y="374.187553" style="fill: #ff0000; stroke: #ff0000"/>
     <use xlink:href="#mf4a6b4e23d" x="258.033241" y="374.578664" style="fill: #ff0000; stroke: #ff0000"/>
     <use xlink:href="#mf4a6b4e23d" x="267.307479" y="374.308824" style="fill: #ff0000; stroke: #ff0000"/>
     <use xlink:href="#mf4a6b4e23d" x="276.581717" y="374.229752" style="fill: #ff0000; stroke: #ff0000"/>
     <use xlink:href="#mf4a6b4e23d" x="285.855956" y="374.675595" style="fill: #ff0000; stroke: #ff0000"/>
     <use xlink:href="#mf4a6b4e23d" x="295.130194" y="374.572202" style="fill: #ff0000; stroke: #ff0000"/>
     <use xlink:href="#mf4a6b4e23d" x="304.404432" y="374.875663" style="fill: #ff0000; stroke: #ff0000"/>
     <use xlink:href="#mf4a6b4e23d" x="313.67867" y="374.414085" style="fill: #ff0000; stroke: #ff0000"/>
     <use xlink:href="#mf4a6b4e23d" x="322.952909" y="375.545247" style="fill: #ff0000; stroke: #ff0000"/>
     <use xlink:href="#mf4a6b4e23d" x="332.227147" y="374.751485" style="fill: #ff0000; stroke: #ff0000"/>
     <use xlink:href="#mf4a6b4e23d" x="341.501385" y="375.317812" style="fill: #ff0000; stroke: #ff0000"/>
     <use xlink:href="#mf4a6b4e23d" x="350.775623" y="373.482324" style="fill: #ff0000; stroke: #ff0000"/>
     <use xlink:href="#mf4a6b4e23d" x="360.049861" y="374.491993" style="fill: #ff0000; stroke: #ff0000"/>
     <use xlink:href="#mf4a6b4e23d" x="369.3241" y="376.752773" style="fill: #ff0000; stroke: #ff0000"/>
     <use xlink:href="#mf4a6b4e23d" x="378.598338" y="373.352951" style="fill: #ff0000; stroke: #ff0000"/>
    </g>
   </g>
   <g id="PathCollection_6">
    <g clip-path="url(#pb60a38745f)">
     <use xlink:href="#mf2580f5f54" x="54" y="370.538182" style="fill: #0000ff; stroke: #0000ff"/>
     <use xlink:href="#mf2580f5f54" x="63.274238" y="370.538182" style="fill: #0000ff; stroke: #0000ff"/>
     <use xlink:href="#mf2580f5f54" x="72.548476" y="370.538182" style="fill: #0000ff; stroke: #0000ff"/>
     <use xlink:href="#mf2580f5f54" x="81.822715" y="370.538182" style="fill: #0000ff; stroke: #0000ff"/>
     <use xlink:href="#mf2580f5f54" x="91.096953" y="370.538182" style="fill: #0000ff; stroke: #0000ff"/>
     <use xlink:href="#mf2580f5f54" x="100.371191" y="370.538182" style="fill: #0000ff; stroke: #0000ff"/>
     <use xlink:href="#mf2580f5f54" x="109.645429" y="370.538182" style="fill: #0000ff; stroke: #0000ff"/>
     <use xlink:href="#mf2580f5f54" x="118.919668" y="370.538182" style="fill: #0000ff; stroke: #0000ff"/>
     <use xlink:href="#mf2580f5f54" x="128.193906" y="370.538182" style="fill: #0000ff; stroke: #0000ff"/>
     <use xlink:href="#mf2580f5f54" x="137.468144" y="370.538182" style="fill: #0000ff; stroke: #0000ff"/>
     <use xlink:href="#mf2580f5f54" x="146.742382" y="370.538182" style="fill: #0000ff; stroke: #0000ff"/>
     <use xlink:href="#mf2580f5f54" x="156.01662" y="370.538182" style="fill: #0000ff; stroke: #0000ff"/>
     <use xlink:href="#mf2580f5f54" x="165.290859" y="370.538182" style="fill: #0000ff; stroke: #0000ff"/>
     <use xlink:href="#mf2580f5f54" x="174.565097" y="370.538182" style="fill: #0000ff; stroke: #0000ff"/>
     <use xlink:href="#mf2580f5f54" x="183.839335" y="370.538182" style="fill: #0000ff; stroke: #0000ff"/>
     <use xlink:href="#mf2580f5f54" x="193.113573" y="370.538182" style="fill: #0000ff; stroke: #0000ff"/>
     <use xlink:href="#mf2580f5f54" x="202.387812" y="370.538182" style="fill: #0000ff; stroke: #0000ff"/>
     <use xlink:href="#mf2580f5f54" x="211.66205" y="370.538182" style="fill: #0000ff; stroke: #0000ff"/>
     <use xlink:href="#mf2580f5f54" x="220.936288" y="370.538182" style="fill: #0000ff; stroke: #0000ff"/>
     <use xlink:href="#mf2580f5f54" x="230.210526" y="370.538182" style="fill: #0000ff; stroke: #0000ff"/>
     <use xlink:href="#mf2580f5f54" x="239.484765" y="370.538182" style="fill: #0000ff; stroke: #0000ff"/>
     <use xlink:href="#mf2580f5f54" x="248.759003" y="370.538182" style="fill: #0000ff; stroke: #0000ff"/>
     <use xlink:href="#mf2580f5f54" x="258.033241" y="370.538182" style="fill: #0000ff; stroke: #0000ff"/>
     <use xlink:href="#mf2580f5f54" x="267.307479" y="370.538182" style="fill: #0000ff; stroke: #0000ff"/>
     <use xlink:href="#mf2580f5f54" x="276.581717" y="370.538182" style="fill: #0000ff; stroke: #0000ff"/>
     <use xlink:href="#mf2580f5f54" x="285.855956" y="370.538182" style="fill: #0000ff; stroke: #0000ff"/>
     <use xlink:href="#mf2580f5f54" x="295.130194" y="370.538182" style="fill: #0000ff; stroke: #0000ff"/>
     <use xlink:href="#mf2580f5f54" x="304.404432" y="370.538182" style="fill: #0000ff; stroke: #0000ff"/>
     <use xlink:href="#mf2580f5f54" x="313.67867" y="370.538182" style="fill: #0000ff; stroke: #0000ff"/>
     <use xlink:href="#mf2580f5f54" x="322.952909" y="370.538182" style="fill: #0000ff; stroke: #0000ff"/>
     <use xlink:href="#mf2580f5f54" x="332.227147" y="370.538182" style="fill: #0000ff; stroke: #0000ff"/>
     <use xlink:href="#mf2580f5f54" x="341.501385" y="370.538182" style="fill: #0000ff; stroke: #0000ff"/>
     <use xlink:href="#mf2580f5f54" x="350.775623" y="370.538182" style="fill: #0000ff; stroke: #0000ff"/>
     <use xlink:href="#mf2580f5f54" x="360.049861" y="370.538182" style="fill: #0000ff; stroke: #0000ff"/>
     <use xlink:href="#mf2580f5f54" x="369.3241" y="370.538182" style="fill: #0000ff; stroke: #0000ff"/>
     <use xlink:href="#mf2580f5f54" x="378.598338" y="370.538182" style="fill: #0000ff; stroke: #0000ff"/>
    </g>
   </g>
   <g id="PolyCollection_3">
    <defs>
     <path id="m7637988204" d="M 54 -277.561669 
L 54 -277.253381 
L 63.274238 -276.884559 
L 72.548476 -275.928009 
L 81.822715 -274.10857 
L 91.096953 -272.698882 
L 100.371191 -272.105914 
L 109.645429 -272.048657 
L 118.919668 -271.867245 
L 128.193906 -271.933848 
L 137.468144 -271.725368 
L 146.742382 -271.73769 
L 156.01662 -271.902718 
L 165.290859 -271.618083 
L 174.565097 -271.687493 
L 183.839335 -271.852556 
L 193.113573 -271.886321 
L 202.387812 -272.044369 
L 211.66205 -272.163529 
L 220.936288 -272.007537 
L 230.210526 -272.117333 
L 239.484765 -271.902478 
L 248.759003 -272.268338 
L 258.033241 -271.57546 
L 267.307479 -272.133108 
L 276.581717 -272.311397 
L 285.855956 -271.964097 
L 295.130194 -271.596878 
L 304.404432 -271.576078 
L 313.67867 -271.590629 
L 322.952909 -270.67473 
L 332.227147 -271.461166 
L 341.501385 -270.416543 
L 350.775623 -272.603297 
L 360.049861 -269.981511 
L 369.3241 -265.413723 
L 378.598338 -274.647049 
L 378.598338 -274.647049 
L 378.598338 -274.647049 
L 369.3241 -277.080731 
L 360.049861 -277.034504 
L 350.775623 -276.432055 
L 341.501385 -274.947834 
L 332.227147 -275.035863 
L 322.952909 -274.234777 
L 313.67867 -275.5812 
L 304.404432 -274.672596 
L 295.130194 -275.258719 
L 285.855956 -274.684713 
L 276.581717 -275.229099 
L 267.307479 -275.249244 
L 258.033241 -275.267212 
L 248.759003 -275.356557 
L 239.484765 -275.086683 
L 230.210526 -274.987072 
L 220.936288 -274.832381 
L 211.66205 -275.100132 
L 202.387812 -275.332703 
L 193.113573 -275.014542 
L 183.839335 -274.78091 
L 174.565097 -274.773122 
L 165.290859 -274.770288 
L 156.01662 -275.107219 
L 146.742382 -274.960776 
L 137.468144 -275.187534 
L 128.193906 -275.014443 
L 118.919668 -274.808803 
L 109.645429 -274.739688 
L 100.371191 -274.81628 
L 91.096953 -275.377975 
L 81.822715 -276.307039 
L 72.548476 -277.155607 
L 63.274238 -277.492435 
L 54 -277.561669 
z
" style="stroke: #ff0000; stroke-opacity: 0.2"/>
    </defs>
    <g clip-path="url(#pb60a38745f)">
     <use xlink:href="#m7637988204" x="0" y="648" style="fill: #ff0000; fill-opacity: 0.2; stroke: #ff0000; stroke-opacity: 0.2"/>
    </g>
   </g>
   <g id="PolyCollection_4">
    <defs>
     <path id="m475a030cd1" d="M 54 -277.461818 
L 54 -277.461818 
L 63.274238 -277.461818 
L 72.548476 -277.461818 
L 81.822715 -277.461818 
L 91.096953 -277.461818 
L 100.371191 -277.461818 
L 109.645429 -277.461818 
L 118.919668 -277.461818 
L 128.193906 -277.461818 
L 137.468144 -277.461818 
L 146.742382 -277.461818 
L 156.01662 -277.461818 
L 165.290859 -277.461818 
L 174.565097 -277.461818 
L 183.839335 -277.461818 
L 193.113573 -277.461818 
L 202.387812 -277.461818 
L 211.66205 -277.461818 
L 220.936288 -277.461818 
L 230.210526 -277.461818 
L 239.484765 -277.461818 
L 248.759003 -277.461818 
L 258.033241 -277.461818 
L 267.307479 -277.461818 
L 276.581717 -277.461818 
L 285.855956 -277.461818 
L 295.130194 -277.461818 
L 304.404432 -277.461818 
L 313.67867 -277.461818 
L 322.952909 -277.461818 
L 332.227147 -277.461818 
L 341.501385 -277.461818 
L 350.775623 -277.461818 
L 360.049861 -277.461818 
L 369.3241 -277.461818 
L 378.598338 -277.461818 
L 378.598338 -277.461818 
L 378.598338 -277.461818 
L 369.3241 -277.461818 
L 360.049861 -277.461818 
L 350.775623 -277.461818 
L 341.501385 -277.461818 
L 332.227147 -277.461818 
L 322.952909 -277.461818 
L 313.67867 -277.461818 
L 304.404432 -277.461818 
L 295.130194 -277.461818 
L 285.855956 -277.461818 
L 276.581717 -277.461818 
L 267.307479 -277.461818 
L 258.033241 -277.461818 
L 248.759003 -277.461818 
L 239.484765 -277.461818 
L 230.210526 -277.461818 
L 220.936288 -277.461818 
L 211.66205 -277.461818 
L 202.387812 -277.461818 
L 193.113573 -277.461818 
L 183.839335 -277.461818 
L 174.565097 -277.461818 
L 165.290859 -277.461818 
L 156.01662 -277.461818 
L 146.742382 -277.461818 
L 137.468144 -277.461818 
L 128.193906 -277.461818 
L 118.919668 -277.461818 
L 109.645429 -277.461818 
L 100.371191 -277.461818 
L 91.096953 -277.461818 
L 81.822715 -277.461818 
L 72.548476 -277.461818 
L 63.274238 -277.461818 
L 54 -277.461818 
z
" style="stroke: #0000ff; stroke-opacity: 0.2"/>
    </defs>
    <g clip-path="url(#pb60a38745f)">
     <use xlink:href="#m475a030cd1" x="0" y="648" style="fill: #0000ff; fill-opacity: 0.2; stroke: #0000ff; stroke-opacity: 0.2"/>
    </g>
   </g>
   <g id="matplotlib.axis_3">
    <g id="xtick_9">
     <g id="line2d_29">
      <path d="M 54 576.72 
L 54 349.92 
" clip-path="url(#pb60a38745f)" style="fill: none; stroke: #b0b0b0; stroke-width: 0.8; stroke-linecap: square"/>
     </g>
     <g id="line2d_30">
      <g>
       <use xlink:href="#m8a97cb7ad2" x="54" y="576.72" style="stroke: #000000; stroke-width: 0.8"/>
      </g>
     </g>
     <g id="text_19">
      <!-- 0 -->
      <g transform="translate(50.81875 591.318438) scale(0.1 -0.1)">
       <use xlink:href="#DejaVuSans-30"/>
      </g>
     </g>
    </g>
    <g id="xtick_10">
     <g id="line2d_31">
      <path d="M 100.371191 576.72 
L 100.371191 349.92 
" clip-path="url(#pb60a38745f)" style="fill: none; stroke: #b0b0b0; stroke-width: 0.8; stroke-linecap: square"/>
     </g>
     <g id="line2d_32">
      <g>
       <use xlink:href="#m8a97cb7ad2" x="100.371191" y="576.72" style="stroke: #000000; stroke-width: 0.8"/>
      </g>
     </g>
     <g id="text_20">
      <!-- 5 -->
      <g transform="translate(97.189941 591.318438) scale(0.1 -0.1)">
       <use xlink:href="#DejaVuSans-35"/>
      </g>
     </g>
    </g>
    <g id="xtick_11">
     <g id="line2d_33">
      <path d="M 146.742382 576.72 
L 146.742382 349.92 
" clip-path="url(#pb60a38745f)" style="fill: none; stroke: #b0b0b0; stroke-width: 0.8; stroke-linecap: square"/>
     </g>
     <g id="line2d_34">
      <g>
       <use xlink:href="#m8a97cb7ad2" x="146.742382" y="576.72" style="stroke: #000000; stroke-width: 0.8"/>
      </g>
     </g>
     <g id="text_21">
      <!-- 10 -->
      <g transform="translate(140.379882 591.318438) scale(0.1 -0.1)">
       <use xlink:href="#DejaVuSans-31"/>
       <use xlink:href="#DejaVuSans-30" x="63.623047"/>
      </g>
     </g>
    </g>
    <g id="xtick_12">
     <g id="line2d_35">
      <path d="M 193.113573 576.72 
L 193.113573 349.92 
" clip-path="url(#pb60a38745f)" style="fill: none; stroke: #b0b0b0; stroke-width: 0.8; stroke-linecap: square"/>
     </g>
     <g id="line2d_36">
      <g>
       <use xlink:href="#m8a97cb7ad2" x="193.113573" y="576.72" style="stroke: #000000; stroke-width: 0.8"/>
      </g>
     </g>
     <g id="text_22">
      <!-- 15 -->
      <g transform="translate(186.751073 591.318438) scale(0.1 -0.1)">
       <use xlink:href="#DejaVuSans-31"/>
       <use xlink:href="#DejaVuSans-35" x="63.623047"/>
      </g>
     </g>
    </g>
    <g id="xtick_13">
     <g id="line2d_37">
      <path d="M 239.484765 576.72 
L 239.484765 349.92 
" clip-path="url(#pb60a38745f)" style="fill: none; stroke: #b0b0b0; stroke-width: 0.8; stroke-linecap: square"/>
     </g>
     <g id="line2d_38">
      <g>
       <use xlink:href="#m8a97cb7ad2" x="239.484765" y="576.72" style="stroke: #000000; stroke-width: 0.8"/>
      </g>
     </g>
     <g id="text_23">
      <!-- 20 -->
      <g transform="translate(233.122265 591.318438) scale(0.1 -0.1)">
       <use xlink:href="#DejaVuSans-32"/>
       <use xlink:href="#DejaVuSans-30" x="63.623047"/>
      </g>
     </g>
    </g>
    <g id="xtick_14">
     <g id="line2d_39">
      <path d="M 285.855956 576.72 
L 285.855956 349.92 
" clip-path="url(#pb60a38745f)" style="fill: none; stroke: #b0b0b0; stroke-width: 0.8; stroke-linecap: square"/>
     </g>
     <g id="line2d_40">
      <g>
       <use xlink:href="#m8a97cb7ad2" x="285.855956" y="576.72" style="stroke: #000000; stroke-width: 0.8"/>
      </g>
     </g>
     <g id="text_24">
      <!-- 25 -->
      <g transform="translate(279.493456 591.318438) scale(0.1 -0.1)">
       <use xlink:href="#DejaVuSans-32"/>
       <use xlink:href="#DejaVuSans-35" x="63.623047"/>
      </g>
     </g>
    </g>
    <g id="xtick_15">
     <g id="line2d_41">
      <path d="M 332.227147 576.72 
L 332.227147 349.92 
" clip-path="url(#pb60a38745f)" style="fill: none; stroke: #b0b0b0; stroke-width: 0.8; stroke-linecap: square"/>
     </g>
     <g id="line2d_42">
      <g>
       <use xlink:href="#m8a97cb7ad2" x="332.227147" y="576.72" style="stroke: #000000; stroke-width: 0.8"/>
      </g>
     </g>
     <g id="text_25">
      <!-- 30 -->
      <g transform="translate(325.864647 591.318438) scale(0.1 -0.1)">
       <use xlink:href="#DejaVuSans-33"/>
       <use xlink:href="#DejaVuSans-30" x="63.623047"/>
      </g>
     </g>
    </g>
    <g id="xtick_16">
     <g id="line2d_43">
      <path d="M 378.598338 576.72 
L 378.598338 349.92 
" clip-path="url(#pb60a38745f)" style="fill: none; stroke: #b0b0b0; stroke-width: 0.8; stroke-linecap: square"/>
     </g>
     <g id="line2d_44">
      <g>
       <use xlink:href="#m8a97cb7ad2" x="378.598338" y="576.72" style="stroke: #000000; stroke-width: 0.8"/>
      </g>
     </g>
     <g id="text_26">
      <!-- 35 -->
      <g transform="translate(372.235838 591.318438) scale(0.1 -0.1)">
       <use xlink:href="#DejaVuSans-33"/>
       <use xlink:href="#DejaVuSans-35" x="63.623047"/>
      </g>
     </g>
    </g>
    <g id="text_27">
     <!-- Number of Box -->
     <g transform="translate(165.335156 608.795781) scale(0.15 -0.15)">
      <use xlink:href="#DejaVuSans-4e"/>
      <use xlink:href="#DejaVuSans-75" x="74.804688"/>
      <use xlink:href="#DejaVuSans-6d" x="138.183594"/>
      <use xlink:href="#DejaVuSans-62" x="235.595703"/>
      <use xlink:href="#DejaVuSans-65" x="299.072266"/>
      <use xlink:href="#DejaVuSans-72" x="360.595703"/>
      <use xlink:href="#DejaVuSans-20" x="401.708984"/>
      <use xlink:href="#DejaVuSans-6f" x="433.496094"/>
      <use xlink:href="#DejaVuSans-66" x="494.677734"/>
      <use xlink:href="#DejaVuSans-20" x="529.882812"/>
      <use xlink:href="#DejaVuSans-42" x="561.669922"/>
      <use xlink:href="#DejaVuSans-6f" x="630.273438"/>
      <use xlink:href="#DejaVuSans-78" x="688.330078"/>
     </g>
    </g>
   </g>
   <g id="matplotlib.axis_4">
    <g id="ytick_7">
     <g id="line2d_45">
      <path d="M 54 576.72 
L 388.8 576.72 
" clip-path="url(#pb60a38745f)" style="fill: none; stroke: #b0b0b0; stroke-width: 0.8; stroke-linecap: square"/>
     </g>
     <g id="line2d_46">
      <g>
       <use xlink:href="#mc7ca484157" x="54" y="576.72" style="stroke: #000000; stroke-width: 0.8"/>
      </g>
     </g>
     <g id="text_28">
      <!-- 0.0 -->
      <g transform="translate(31.096875 580.519219) scale(0.1 -0.1)">
       <use xlink:href="#DejaVuSans-30"/>
       <use xlink:href="#DejaVuSans-2e" x="63.623047"/>
       <use xlink:href="#DejaVuSans-30" x="95.410156"/>
      </g>
     </g>
    </g>
    <g id="ytick_8">
     <g id="line2d_47">
      <path d="M 54 535.483636 
L 388.8 535.483636 
" clip-path="url(#pb60a38745f)" style="fill: none; stroke: #b0b0b0; stroke-width: 0.8; stroke-linecap: square"/>
     </g>
     <g id="line2d_48">
      <g>
       <use xlink:href="#mc7ca484157" x="54" y="535.483636" style="stroke: #000000; stroke-width: 0.8"/>
      </g>
     </g>
     <g id="text_29">
      <!-- 0.2 -->
      <g transform="translate(31.096875 539.282855) scale(0.1 -0.1)">
       <use xlink:href="#DejaVuSans-30"/>
       <use xlink:href="#DejaVuSans-2e" x="63.623047"/>
       <use xlink:href="#DejaVuSans-32" x="95.410156"/>
      </g>
     </g>
    </g>
    <g id="ytick_9">
     <g id="line2d_49">
      <path d="M 54 494.247273 
L 388.8 494.247273 
" clip-path="url(#pb60a38745f)" style="fill: none; stroke: #b0b0b0; stroke-width: 0.8; stroke-linecap: square"/>
     </g>
     <g id="line2d_50">
      <g>
       <use xlink:href="#mc7ca484157" x="54" y="494.247273" style="stroke: #000000; stroke-width: 0.8"/>
      </g>
     </g>
     <g id="text_30">
      <!-- 0.4 -->
      <g transform="translate(31.096875 498.046491) scale(0.1 -0.1)">
       <use xlink:href="#DejaVuSans-30"/>
       <use xlink:href="#DejaVuSans-2e" x="63.623047"/>
       <use xlink:href="#DejaVuSans-34" x="95.410156"/>
      </g>
     </g>
    </g>
    <g id="ytick_10">
     <g id="line2d_51">
      <path d="M 54 453.010909 
L 388.8 453.010909 
" clip-path="url(#pb60a38745f)" style="fill: none; stroke: #b0b0b0; stroke-width: 0.8; stroke-linecap: square"/>
     </g>
     <g id="line2d_52">
      <g>
       <use xlink:href="#mc7ca484157" x="54" y="453.010909" style="stroke: #000000; stroke-width: 0.8"/>
      </g>
     </g>
     <g id="text_31">
      <!-- 0.6 -->
      <g transform="translate(31.096875 456.810128) scale(0.1 -0.1)">
       <use xlink:href="#DejaVuSans-30"/>
       <use xlink:href="#DejaVuSans-2e" x="63.623047"/>
       <use xlink:href="#DejaVuSans-36" x="95.410156"/>
      </g>
     </g>
    </g>
    <g id="ytick_11">
     <g id="line2d_53">
      <path d="M 54 411.774545 
L 388.8 411.774545 
" clip-path="url(#pb60a38745f)" style="fill: none; stroke: #b0b0b0; stroke-width: 0.8; stroke-linecap: square"/>
     </g>
     <g id="line2d_54">
      <g>
       <use xlink:href="#mc7ca484157" x="54" y="411.774545" style="stroke: #000000; stroke-width: 0.8"/>
      </g>
     </g>
     <g id="text_32">
      <!-- 0.8 -->
      <g transform="translate(31.096875 415.573764) scale(0.1 -0.1)">
       <use xlink:href="#DejaVuSans-30"/>
       <use xlink:href="#DejaVuSans-2e" x="63.623047"/>
       <use xlink:href="#DejaVuSans-38" x="95.410156"/>
      </g>
     </g>
    </g>
    <g id="ytick_12">
     <g id="line2d_55">
      <path d="M 54 370.538182 
L 388.8 370.538182 
" clip-path="url(#pb60a38745f)" style="fill: none; stroke: #b0b0b0; stroke-width: 0.8; stroke-linecap: square"/>
     </g>
     <g id="line2d_56">
      <g>
       <use xlink:href="#mc7ca484157" x="54" y="370.538182" style="stroke: #000000; stroke-width: 0.8"/>
      </g>
     </g>
     <g id="text_33">
      <!-- 1.0 -->
      <g transform="translate(31.096875 374.337401) scale(0.1 -0.1)">
       <use xlink:href="#DejaVuSans-31"/>
       <use xlink:href="#DejaVuSans-2e" x="63.623047"/>
       <use xlink:href="#DejaVuSans-30" x="95.410156"/>
      </g>
     </g>
    </g>
    <g id="text_34">
     <!-- Recall -->
     <g transform="translate(23.977344 485.695781) rotate(-90) scale(0.15 -0.15)">
      <defs>
       <path id="DejaVuSans-52" d="M 2841 2188 
Q 3044 2119 3236 1894 
Q 3428 1669 3622 1275 
L 4263 0 
L 3584 0 
L 2988 1197 
Q 2756 1666 2539 1819 
Q 2322 1972 1947 1972 
L 1259 1972 
L 1259 0 
L 628 0 
L 628 4666 
L 2053 4666 
Q 2853 4666 3247 4331 
Q 3641 3997 3641 3322 
Q 3641 2881 3436 2590 
Q 3231 2300 2841 2188 
z
M 1259 4147 
L 1259 2491 
L 2053 2491 
Q 2509 2491 2742 2702 
Q 2975 2913 2975 3322 
Q 2975 3731 2742 3939 
Q 2509 4147 2053 4147 
L 1259 4147 
z
" transform="scale(0.015625)"/>
       <path id="DejaVuSans-6c" d="M 603 4863 
L 1178 4863 
L 1178 0 
L 603 0 
L 603 4863 
z
" transform="scale(0.015625)"/>
      </defs>
      <use xlink:href="#DejaVuSans-52"/>
      <use xlink:href="#DejaVuSans-65" x="64.982422"/>
      <use xlink:href="#DejaVuSans-63" x="126.505859"/>
      <use xlink:href="#DejaVuSans-61" x="181.486328"/>
      <use xlink:href="#DejaVuSans-6c" x="242.765625"/>
      <use xlink:href="#DejaVuSans-6c" x="270.548828"/>
     </g>
    </g>
   </g>
   <g id="patch_9">
    <path d="M 54 576.72 
L 54 349.92 
" style="fill: none; stroke: #000000; stroke-width: 0.8; stroke-linejoin: miter; stroke-linecap: square"/>
   </g>
   <g id="patch_10">
    <path d="M 388.8 576.72 
L 388.8 349.92 
" style="fill: none; stroke: #000000; stroke-width: 0.8; stroke-linejoin: miter; stroke-linecap: square"/>
   </g>
   <g id="patch_11">
    <path d="M 54 576.72 
L 388.8 576.72 
" style="fill: none; stroke: #000000; stroke-width: 0.8; stroke-linejoin: miter; stroke-linecap: square"/>
   </g>
   <g id="patch_12">
    <path d="M 54 349.92 
L 388.8 349.92 
" style="fill: none; stroke: #000000; stroke-width: 0.8; stroke-linejoin: miter; stroke-linecap: square"/>
   </g>
   <g id="legend_2">
    <g id="patch_13">
     <path d="M 64.5 569.22 
L 148.48125 569.22 
Q 151.48125 569.22 151.48125 566.22 
L 151.48125 523.685625 
Q 151.48125 520.685625 148.48125 520.685625 
L 64.5 520.685625 
Q 61.5 520.685625 61.5 523.685625 
L 61.5 566.22 
Q 61.5 569.22 64.5 569.22 
z
" style="fill: #ffffff; opacity: 0.8; stroke: #cccccc; stroke-linejoin: miter"/>
    </g>
    <g id="PathCollection_7">
     <g>
      <use xlink:href="#mf4a6b4e23d" x="82.5" y="534.145781" style="fill: #ff0000; stroke: #ff0000"/>
     </g>
    </g>
    <g id="text_35">
     <!-- Train -->
     <g transform="translate(109.5 538.083281) scale(0.15 -0.15)">
      <use xlink:href="#DejaVuSans-54"/>
      <use xlink:href="#DejaVuSans-72" x="46.333984"/>
      <use xlink:href="#DejaVuSans-61" x="87.447266"/>
      <use xlink:href="#DejaVuSans-69" x="148.726562"/>
      <use xlink:href="#DejaVuSans-6e" x="176.509766"/>
     </g>
    </g>
    <g id="PathCollection_8">
     <g>
      <use xlink:href="#mf2580f5f54" x="82.5" y="556.162969" style="fill: #0000ff; stroke: #0000ff"/>
     </g>
    </g>
    <g id="text_36">
     <!-- Test -->
     <g transform="translate(109.5 560.100469) scale(0.15 -0.15)">
      <use xlink:href="#DejaVuSans-54"/>
      <use xlink:href="#DejaVuSans-65" x="44.083984"/>
      <use xlink:href="#DejaVuSans-73" x="105.607422"/>
      <use xlink:href="#DejaVuSans-74" x="157.707031"/>
     </g>
    </g>
   </g>
  </g>
 </g>
 <defs>
  <clipPath id="pb83c126cbe">
   <rect x="54" y="77.76" width="334.8" height="226.8"/>
  </clipPath>
  <clipPath id="pb60a38745f">
   <rect x="54" y="349.92" width="334.8" height="226.8"/>
  </clipPath>
 </defs>
</svg>
