<?xml version="1.0" encoding="utf-8" standalone="no"?>
<!DOCTYPE svg PUBLIC "-//W3C//DTD SVG 1.1//EN"
  "http://www.w3.org/Graphics/SVG/1.1/DTD/svg11.dtd">
<svg xmlns:xlink="http://www.w3.org/1999/xlink" width="432pt" height="648pt" viewBox="0 0 432 648" xmlns="http://www.w3.org/2000/svg" version="1.1">
 <metadata>
  <rdf:RDF xmlns:dc="http://purl.org/dc/elements/1.1/" xmlns:cc="http://creativecommons.org/ns#" xmlns:rdf="http://www.w3.org/1999/02/22-rdf-syntax-ns#">
   <cc:Work>
    <dc:type rdf:resource="http://purl.org/dc/dcmitype/StillImage"/>
    <dc:date>2024-01-01T18:50:58.042390</dc:date>
    <dc:format>image/svg+xml</dc:format>
    <dc:creator>
     <cc:Agent>
      <dc:title>Matplotlib v3.8.0, https://matplotlib.org/</dc:title>
     </cc:Agent>
    </dc:creator>
   </cc:Work>
  </rdf:RDF>
 </metadata>
 <defs>
  <style type="text/css">*{stroke-linejoin: round; stroke-linecap: butt}</style>
 </defs>
 <g id="figure_1">
  <g id="patch_1">
   <path d="M 0 648 
L 432 648 
L 432 0 
L 0 0 
z
" style="fill: #ffffff"/>
  </g>
  <g id="axes_1">
   <g id="patch_2">
    <path d="M 54 304.56 
L 388.8 304.56 
L 388.8 77.76 
L 54 77.76 
z
" style="fill: #ffffff"/>
   </g>
   <g id="PathCollection_1">
    <defs>
     <path id="m873ea869ce" d="M 0 3 
C 0.795609 3 1.55874 2.683901 2.12132 2.12132 
C 2.683901 1.55874 3 0.795609 3 0 
C 3 -0.795609 2.683901 -1.55874 2.12132 -2.12132 
C 1.55874 -2.683901 0.795609 -3 0 -3 
C -0.795609 -3 -1.55874 -2.683901 -2.12132 -2.12132 
C -2.683901 -1.55874 -3 -0.795609 -3 0 
C -3 0.795609 -2.683901 1.55874 -2.12132 2.12132 
C -1.55874 2.683901 -0.795609 3 0 3 
z
" style="stroke: #ff0000"/>
    </defs>
    <g clip-path="url(#pae0c957c65)">
     <use xlink:href="#m873ea869ce" x="54" y="271.840429" style="fill: #ff0000; stroke: #ff0000"/>
     <use xlink:href="#m873ea869ce" x="61.591837" y="270.150793" style="fill: #ff0000; stroke: #ff0000"/>
     <use xlink:href="#m873ea869ce" x="69.183673" y="268.426054" style="fill: #ff0000; stroke: #ff0000"/>
     <use xlink:href="#m873ea869ce" x="76.77551" y="266.68064" style="fill: #ff0000; stroke: #ff0000"/>
     <use xlink:href="#m873ea869ce" x="84.367347" y="264.919365" style="fill: #ff0000; stroke: #ff0000"/>
     <use xlink:href="#m873ea869ce" x="91.959184" y="263.118044" style="fill: #ff0000; stroke: #ff0000"/>
     <use xlink:href="#m873ea869ce" x="99.55102" y="261.32696" style="fill: #ff0000; stroke: #ff0000"/>
     <use xlink:href="#m873ea869ce" x="107.142857" y="259.519357" style="fill: #ff0000; stroke: #ff0000"/>
     <use xlink:href="#m873ea869ce" x="114.734694" y="257.632465" style="fill: #ff0000; stroke: #ff0000"/>
     <use xlink:href="#m873ea869ce" x="122.326531" y="255.730018" style="fill: #ff0000; stroke: #ff0000"/>
     <use xlink:href="#m873ea869ce" x="129.918367" y="253.792437" style="fill: #ff0000; stroke: #ff0000"/>
     <use xlink:href="#m873ea869ce" x="137.510204" y="251.720246" style="fill: #ff0000; stroke: #ff0000"/>
     <use xlink:href="#m873ea869ce" x="145.102041" y="249.613461" style="fill: #ff0000; stroke: #ff0000"/>
     <use xlink:href="#m873ea869ce" x="152.693878" y="247.417751" style="fill: #ff0000; stroke: #ff0000"/>
     <use xlink:href="#m873ea869ce" x="160.285714" y="245.037282" style="fill: #ff0000; stroke: #ff0000"/>
     <use xlink:href="#m873ea869ce" x="167.877551" y="242.732511" style="fill: #ff0000; stroke: #ff0000"/>
     <use xlink:href="#m873ea869ce" x="175.469388" y="240.283214" style="fill: #ff0000; stroke: #ff0000"/>
     <use xlink:href="#m873ea869ce" x="183.061224" y="237.748102" style="fill: #ff0000; stroke: #ff0000"/>
     <use xlink:href="#m873ea869ce" x="190.653061" y="235.150711" style="fill: #ff0000; stroke: #ff0000"/>
     <use xlink:href="#m873ea869ce" x="198.244898" y="232.73908" style="fill: #ff0000; stroke: #ff0000"/>
     <use xlink:href="#m873ea869ce" x="205.836735" y="229.98854" style="fill: #ff0000; stroke: #ff0000"/>
     <use xlink:href="#m873ea869ce" x="213.428571" y="226.919385" style="fill: #ff0000; stroke: #ff0000"/>
     <use xlink:href="#m873ea869ce" x="221.020408" y="223.833956" style="fill: #ff0000; stroke: #ff0000"/>
     <use xlink:href="#m873ea869ce" x="228.612245" y="220.57023" style="fill: #ff0000; stroke: #ff0000"/>
     <use xlink:href="#m873ea869ce" x="236.204082" y="217.114499" style="fill: #ff0000; stroke: #ff0000"/>
     <use xlink:href="#m873ea869ce" x="243.795918" y="213.318442" style="fill: #ff0000; stroke: #ff0000"/>
     <use xlink:href="#m873ea869ce" x="251.387755" y="210.177854" style="fill: #ff0000; stroke: #ff0000"/>
     <use xlink:href="#m873ea869ce" x="258.979592" y="206.723245" style="fill: #ff0000; stroke: #ff0000"/>
     <use xlink:href="#m873ea869ce" x="266.571429" y="204.313902" style="fill: #ff0000; stroke: #ff0000"/>
     <use xlink:href="#m873ea869ce" x="274.163265" y="200.941453" style="fill: #ff0000; stroke: #ff0000"/>
     <use xlink:href="#m873ea869ce" x="281.755102" y="197.786257" style="fill: #ff0000; stroke: #ff0000"/>
     <use xlink:href="#m873ea869ce" x="289.346939" y="194.624614" style="fill: #ff0000; stroke: #ff0000"/>
     <use xlink:href="#m873ea869ce" x="296.938776" y="191.586445" style="fill: #ff0000; stroke: #ff0000"/>
     <use xlink:href="#m873ea869ce" x="304.530612" y="190.924761" style="fill: #ff0000; stroke: #ff0000"/>
     <use xlink:href="#m873ea869ce" x="312.122449" y="189.794965" style="fill: #ff0000; stroke: #ff0000"/>
     <use xlink:href="#m873ea869ce" x="319.714286" y="186.512608" style="fill: #ff0000; stroke: #ff0000"/>
     <use xlink:href="#m873ea869ce" x="327.306122" y="183.620231" style="fill: #ff0000; stroke: #ff0000"/>
     <use xlink:href="#m873ea869ce" x="334.897959" y="182.352292" style="fill: #ff0000; stroke: #ff0000"/>
     <use xlink:href="#m873ea869ce" x="342.489796" y="181.098928" style="fill: #ff0000; stroke: #ff0000"/>
     <use xlink:href="#m873ea869ce" x="350.081633" y="182.533879" style="fill: #ff0000; stroke: #ff0000"/>
     <use xlink:href="#m873ea869ce" x="357.673469" y="174.015788" style="fill: #ff0000; stroke: #ff0000"/>
     <use xlink:href="#m873ea869ce" x="365.265306" y="167.557559" style="fill: #ff0000; stroke: #ff0000"/>
     <use xlink:href="#m873ea869ce" x="372.857143" y="167.12986" style="fill: #ff0000; stroke: #ff0000"/>
     <use xlink:href="#m873ea869ce" x="380.44898" y="161.919332" style="fill: #ff0000; stroke: #ff0000"/>
    </g>
   </g>
   <g id="PathCollection_2">
    <defs>
     <path id="m52f9c126eb" d="M 0 3 
C 0.795609 3 1.55874 2.683901 2.12132 2.12132 
C 2.683901 1.55874 3 0.795609 3 0 
C 3 -0.795609 2.683901 -1.55874 2.12132 -2.12132 
C 1.55874 -2.683901 0.795609 -3 0 -3 
C -0.795609 -3 -1.55874 -2.683901 -2.12132 -2.12132 
C -2.683901 -1.55874 -3 -0.795609 -3 0 
C -3 0.795609 -2.683901 1.55874 -2.12132 2.12132 
C -1.55874 2.683901 -0.795609 3 0 3 
z
" style="stroke: #0000ff"/>
    </defs>
    <g clip-path="url(#pae0c957c65)">
     <use xlink:href="#m52f9c126eb" x="54" y="239.23723" style="fill: #0000ff; stroke: #0000ff"/>
     <use xlink:href="#m52f9c126eb" x="61.591837" y="236.124027" style="fill: #0000ff; stroke: #0000ff"/>
     <use xlink:href="#m52f9c126eb" x="69.183673" y="233.509882" style="fill: #0000ff; stroke: #0000ff"/>
     <use xlink:href="#m52f9c126eb" x="76.77551" y="231.325751" style="fill: #0000ff; stroke: #0000ff"/>
     <use xlink:href="#m52f9c126eb" x="84.367347" y="229.207142" style="fill: #0000ff; stroke: #0000ff"/>
     <use xlink:href="#m52f9c126eb" x="91.959184" y="227.368228" style="fill: #0000ff; stroke: #0000ff"/>
     <use xlink:href="#m52f9c126eb" x="99.55102" y="226.356733" style="fill: #0000ff; stroke: #0000ff"/>
     <use xlink:href="#m52f9c126eb" x="107.142857" y="225.53097" style="fill: #0000ff; stroke: #0000ff"/>
     <use xlink:href="#m52f9c126eb" x="114.734694" y="225.081731" style="fill: #0000ff; stroke: #0000ff"/>
     <use xlink:href="#m52f9c126eb" x="122.326531" y="224.091706" style="fill: #0000ff; stroke: #0000ff"/>
     <use xlink:href="#m52f9c126eb" x="129.918367" y="222.51173" style="fill: #0000ff; stroke: #0000ff"/>
     <use xlink:href="#m52f9c126eb" x="137.510204" y="221.259407" style="fill: #0000ff; stroke: #0000ff"/>
     <use xlink:href="#m52f9c126eb" x="145.102041" y="220.175912" style="fill: #0000ff; stroke: #0000ff"/>
     <use xlink:href="#m52f9c126eb" x="152.693878" y="219.289279" style="fill: #0000ff; stroke: #0000ff"/>
     <use xlink:href="#m52f9c126eb" x="160.285714" y="218.605428" style="fill: #0000ff; stroke: #0000ff"/>
     <use xlink:href="#m52f9c126eb" x="167.877551" y="217.074034" style="fill: #0000ff; stroke: #0000ff"/>
     <use xlink:href="#m52f9c126eb" x="175.469388" y="216.272757" style="fill: #0000ff; stroke: #0000ff"/>
     <use xlink:href="#m52f9c126eb" x="183.061224" y="215.119081" style="fill: #0000ff; stroke: #0000ff"/>
     <use xlink:href="#m52f9c126eb" x="190.653061" y="213.344035" style="fill: #0000ff; stroke: #0000ff"/>
     <use xlink:href="#m52f9c126eb" x="198.244898" y="212.391586" style="fill: #0000ff; stroke: #0000ff"/>
     <use xlink:href="#m52f9c126eb" x="205.836735" y="210.979963" style="fill: #0000ff; stroke: #0000ff"/>
     <use xlink:href="#m52f9c126eb" x="213.428571" y="209.566002" style="fill: #0000ff; stroke: #0000ff"/>
     <use xlink:href="#m52f9c126eb" x="221.020408" y="208.569566" style="fill: #0000ff; stroke: #0000ff"/>
     <use xlink:href="#m52f9c126eb" x="228.612245" y="206.603382" style="fill: #0000ff; stroke: #0000ff"/>
     <use xlink:href="#m52f9c126eb" x="236.204082" y="205.18539" style="fill: #0000ff; stroke: #0000ff"/>
     <use xlink:href="#m52f9c126eb" x="243.795918" y="203.080771" style="fill: #0000ff; stroke: #0000ff"/>
     <use xlink:href="#m52f9c126eb" x="251.387755" y="201.326429" style="fill: #0000ff; stroke: #0000ff"/>
     <use xlink:href="#m52f9c126eb" x="258.979592" y="198.017721" style="fill: #0000ff; stroke: #0000ff"/>
     <use xlink:href="#m52f9c126eb" x="266.571429" y="195.951391" style="fill: #0000ff; stroke: #0000ff"/>
     <use xlink:href="#m52f9c126eb" x="274.163265" y="194.770544" style="fill: #0000ff; stroke: #0000ff"/>
     <use xlink:href="#m52f9c126eb" x="281.755102" y="192.159852" style="fill: #0000ff; stroke: #0000ff"/>
     <use xlink:href="#m52f9c126eb" x="289.346939" y="193.142989" style="fill: #0000ff; stroke: #0000ff"/>
     <use xlink:href="#m52f9c126eb" x="296.938776" y="190.768706" style="fill: #0000ff; stroke: #0000ff"/>
     <use xlink:href="#m52f9c126eb" x="304.530612" y="187.394106" style="fill: #0000ff; stroke: #0000ff"/>
     <use xlink:href="#m52f9c126eb" x="312.122449" y="186.204799" style="fill: #0000ff; stroke: #0000ff"/>
     <use xlink:href="#m52f9c126eb" x="319.714286" y="180.052989" style="fill: #0000ff; stroke: #0000ff"/>
     <use xlink:href="#m52f9c126eb" x="327.306122" y="173.401897" style="fill: #0000ff; stroke: #0000ff"/>
     <use xlink:href="#m52f9c126eb" x="334.897959" y="169.384332" style="fill: #0000ff; stroke: #0000ff"/>
     <use xlink:href="#m52f9c126eb" x="342.489796" y="171.038788" style="fill: #0000ff; stroke: #0000ff"/>
     <use xlink:href="#m52f9c126eb" x="350.081633" y="172.725105" style="fill: #0000ff; stroke: #0000ff"/>
     <use xlink:href="#m52f9c126eb" x="357.673469" y="182.629091" style="fill: #0000ff; stroke: #0000ff"/>
     <use xlink:href="#m52f9c126eb" x="365.265306" y="177.831818" style="fill: #0000ff; stroke: #0000ff"/>
     <use xlink:href="#m52f9c126eb" x="372.857143" y="222.970909" style="fill: #0000ff; stroke: #0000ff"/>
     <use xlink:href="#m52f9c126eb" x="380.44898" y="248.964545" style="fill: #0000ff; stroke: #0000ff"/>
    </g>
   </g>
   <g id="PolyCollection_1">
    <defs>
     <path id="m7e96c19d77" d="M 54 -382.352917 
L 54 -369.966226 
L 61.591837 -371.335437 
L 69.183673 -372.732816 
L 76.77551 -374.152633 
L 84.367347 -375.571637 
L 91.959184 -377.015494 
L 99.55102 -378.466341 
L 107.142857 -379.91389 
L 114.734694 -381.394054 
L 122.326531 -382.916593 
L 129.918367 -384.403654 
L 137.510204 -386.097437 
L 145.102041 -387.842229 
L 152.693878 -389.569356 
L 160.285714 -391.494033 
L 167.877551 -393.373508 
L 175.469388 -395.324441 
L 183.061224 -397.318073 
L 190.653061 -399.392213 
L 198.244898 -401.366263 
L 205.836735 -403.550706 
L 213.428571 -406.100434 
L 221.020408 -408.50859 
L 228.612245 -410.983363 
L 236.204082 -413.607134 
L 243.795918 -416.628552 
L 251.387755 -419.159768 
L 258.979592 -421.869834 
L 266.571429 -424.450886 
L 274.163265 -426.647475 
L 281.755102 -429.095358 
L 289.346939 -431.995002 
L 296.938776 -435.55915 
L 304.530612 -436.321328 
L 312.122449 -437.160729 
L 319.714286 -438.932973 
L 327.306122 -440.761834 
L 334.897959 -441.721677 
L 342.489796 -442.48377 
L 350.081633 -443.186841 
L 357.673469 -453.643567 
L 365.265306 -460.568043 
L 372.857143 -468.481903 
L 380.44898 -470.846563 
L 380.44898 -501.314772 
L 380.44898 -501.314772 
L 372.857143 -493.258377 
L 365.265306 -500.316839 
L 357.673469 -494.324856 
L 350.081633 -487.745401 
L 342.489796 -491.318374 
L 334.897959 -489.573738 
L 327.306122 -487.997704 
L 319.714286 -484.041811 
L 312.122449 -479.249342 
L 304.530612 -477.829151 
L 296.938776 -477.267959 
L 289.346939 -474.75577 
L 281.755102 -471.332128 
L 274.163265 -467.46962 
L 266.571429 -462.921311 
L 258.979592 -460.683676 
L 251.387755 -456.484523 
L 243.795918 -452.734564 
L 236.204082 -448.163868 
L 228.612245 -443.876176 
L 221.020408 -439.823497 
L 213.428571 -436.060796 
L 205.836735 -432.472213 
L 198.244898 -429.155578 
L 190.653061 -426.306364 
L 183.061224 -423.185724 
L 175.469388 -420.10913 
L 167.877551 -417.16147 
L 160.285714 -414.431403 
L 152.693878 -411.595142 
L 145.102041 -408.930849 
L 137.510204 -406.462072 
L 129.918367 -404.011473 
L 122.326531 -401.62337 
L 114.734694 -399.341016 
L 107.142857 -397.047396 
L 99.55102 -394.87974 
L 91.959184 -392.748419 
L 84.367347 -390.589634 
L 76.77551 -388.486086 
L 69.183673 -386.415076 
L 61.591837 -384.362978 
L 54 -382.352917 
z
" style="stroke: #ff0000; stroke-opacity: 0.2"/>
    </defs>
    <g clip-path="url(#pae0c957c65)">
     <use xlink:href="#m7e96c19d77" x="0" y="648" style="fill: #ff0000; fill-opacity: 0.2; stroke: #ff0000; stroke-opacity: 0.2"/>
    </g>
   </g>
   <g id="PolyCollection_2">
    <defs>
     <path id="mf6b1286181" d="M 54 -423.662676 
L 54 -393.862864 
L 61.591837 -396.353324 
L 69.183673 -398.751666 
L 76.77551 -400.127538 
L 84.367347 -401.610183 
L 91.959184 -403.06494 
L 99.55102 -403.832753 
L 107.142857 -404.07651 
L 114.734694 -403.812372 
L 122.326531 -404.320473 
L 129.918367 -405.197706 
L 137.510204 -405.296256 
L 145.102041 -406.144935 
L 152.693878 -406.626932 
L 160.285714 -406.289249 
L 167.877551 -407.41579 
L 175.469388 -407.615375 
L 183.061224 -407.449132 
L 190.653061 -408.424946 
L 198.244898 -407.673215 
L 205.836735 -409.39761 
L 213.428571 -410.188275 
L 221.020408 -410.703103 
L 228.612245 -411.540444 
L 236.204082 -410.822464 
L 243.795918 -411.282697 
L 251.387755 -412.277458 
L 258.979592 -413.860661 
L 266.571429 -414.831328 
L 274.163265 -416.109478 
L 281.755102 -417.891155 
L 289.346939 -414.874376 
L 296.938776 -415.044325 
L 304.530612 -421.955059 
L 312.122449 -421.852423 
L 319.714286 -422.95113 
L 327.306122 -430.346404 
L 334.897959 -430.561951 
L 342.489796 -433.496087 
L 350.081633 -428.970192 
L 357.673469 -412.225072 
L 365.265306 -406.274096 
L 372.857143 -363.759388 
L 380.44898 -358.606923 
L 380.44898 -439.463987 
L 380.44898 -439.463987 
L 372.857143 -486.298794 
L 365.265306 -534.062268 
L 357.673469 -518.516746 
L 350.081633 -521.579599 
L 342.489796 -520.426337 
L 334.897959 -526.669386 
L 327.306122 -518.849802 
L 319.714286 -512.942891 
L 312.122449 -501.737979 
L 304.530612 -499.256729 
L 296.938776 -499.418263 
L 289.346939 -494.839646 
L 281.755102 -493.789141 
L 274.163265 -490.349435 
L 266.571429 -489.26589 
L 258.979592 -486.103897 
L 251.387755 -481.069684 
L 243.795918 -478.555761 
L 236.204082 -474.806755 
L 228.612245 -471.252792 
L 221.020408 -468.157765 
L 213.428571 -466.679722 
L 205.836735 -464.642464 
L 198.244898 -463.543614 
L 190.653061 -460.886984 
L 183.061224 -458.312706 
L 175.469388 -455.83911 
L 167.877551 -454.436141 
L 160.285714 -452.499895 
L 152.693878 -450.79451 
L 145.102041 -449.503241 
L 137.510204 -448.18493 
L 129.918367 -445.778834 
L 122.326531 -443.496114 
L 114.734694 -442.024166 
L 107.142857 -440.861551 
L 99.55102 -439.45378 
L 91.959184 -438.198604 
L 84.367347 -435.975532 
L 76.77551 -433.22096 
L 69.183673 -430.22857 
L 61.591837 -427.398622 
L 54 -423.662676 
z
" style="stroke: #0000ff; stroke-opacity: 0.2"/>
    </defs>
    <g clip-path="url(#pae0c957c65)">
     <use xlink:href="#mf6b1286181" x="0" y="648" style="fill: #0000ff; fill-opacity: 0.2; stroke: #0000ff; stroke-opacity: 0.2"/>
    </g>
   </g>
   <g id="matplotlib.axis_1">
    <g id="xtick_1">
     <g id="line2d_1">
      <path d="M 54 304.56 
L 54 77.76 
" clip-path="url(#pae0c957c65)" style="fill: none; stroke: #b0b0b0; stroke-width: 0.8; stroke-linecap: square"/>
     </g>
     <g id="line2d_2">
      <defs>
       <path id="m91fd3d77c7" d="M 0 0 
L 0 3.5 
" style="stroke: #000000; stroke-width: 0.8"/>
      </defs>
      <g>
       <use xlink:href="#m91fd3d77c7" x="54" y="304.56" style="stroke: #000000; stroke-width: 0.8"/>
      </g>
     </g>
     <g id="text_1">
      <!-- 0 -->
      <g transform="translate(50.81875 319.158437) scale(0.1 -0.1)">
       <defs>
        <path id="DejaVuSans-30" d="M 2034 4250 
Q 1547 4250 1301 3770 
Q 1056 3291 1056 2328 
Q 1056 1369 1301 889 
Q 1547 409 2034 409 
Q 2525 409 2770 889 
Q 3016 1369 3016 2328 
Q 3016 3291 2770 3770 
Q 2525 4250 2034 4250 
z
M 2034 4750 
Q 2819 4750 3233 4129 
Q 3647 3509 3647 2328 
Q 3647 1150 3233 529 
Q 2819 -91 2034 -91 
Q 1250 -91 836 529 
Q 422 1150 422 2328 
Q 422 3509 836 4129 
Q 1250 4750 2034 4750 
z
" transform="scale(0.015625)"/>
       </defs>
       <use xlink:href="#DejaVuSans-30"/>
      </g>
     </g>
    </g>
    <g id="xtick_2">
     <g id="line2d_3">
      <path d="M 91.959184 304.56 
L 91.959184 77.76 
" clip-path="url(#pae0c957c65)" style="fill: none; stroke: #b0b0b0; stroke-width: 0.8; stroke-linecap: square"/>
     </g>
     <g id="line2d_4">
      <g>
       <use xlink:href="#m91fd3d77c7" x="91.959184" y="304.56" style="stroke: #000000; stroke-width: 0.8"/>
      </g>
     </g>
     <g id="text_2">
      <!-- 5 -->
      <g transform="translate(88.777934 319.158437) scale(0.1 -0.1)">
       <defs>
        <path id="DejaVuSans-35" d="M 691 4666 
L 3169 4666 
L 3169 4134 
L 1269 4134 
L 1269 2991 
Q 1406 3038 1543 3061 
Q 1681 3084 1819 3084 
Q 2600 3084 3056 2656 
Q 3513 2228 3513 1497 
Q 3513 744 3044 326 
Q 2575 -91 1722 -91 
Q 1428 -91 1123 -41 
Q 819 9 494 109 
L 494 744 
Q 775 591 1075 516 
Q 1375 441 1709 441 
Q 2250 441 2565 725 
Q 2881 1009 2881 1497 
Q 2881 1984 2565 2268 
Q 2250 2553 1709 2553 
Q 1456 2553 1204 2497 
Q 953 2441 691 2322 
L 691 4666 
z
" transform="scale(0.015625)"/>
       </defs>
       <use xlink:href="#DejaVuSans-35"/>
      </g>
     </g>
    </g>
    <g id="xtick_3">
     <g id="line2d_5">
      <path d="M 129.918367 304.56 
L 129.918367 77.76 
" clip-path="url(#pae0c957c65)" style="fill: none; stroke: #b0b0b0; stroke-width: 0.8; stroke-linecap: square"/>
     </g>
     <g id="line2d_6">
      <g>
       <use xlink:href="#m91fd3d77c7" x="129.918367" y="304.56" style="stroke: #000000; stroke-width: 0.8"/>
      </g>
     </g>
     <g id="text_3">
      <!-- 10 -->
      <g transform="translate(123.555867 319.158437) scale(0.1 -0.1)">
       <defs>
        <path id="DejaVuSans-31" d="M 794 531 
L 1825 531 
L 1825 4091 
L 703 3866 
L 703 4441 
L 1819 4666 
L 2450 4666 
L 2450 531 
L 3481 531 
L 3481 0 
L 794 0 
L 794 531 
z
" transform="scale(0.015625)"/>
       </defs>
       <use xlink:href="#DejaVuSans-31"/>
       <use xlink:href="#DejaVuSans-30" x="63.623047"/>
      </g>
     </g>
    </g>
    <g id="xtick_4">
     <g id="line2d_7">
      <path d="M 167.877551 304.56 
L 167.877551 77.76 
" clip-path="url(#pae0c957c65)" style="fill: none; stroke: #b0b0b0; stroke-width: 0.8; stroke-linecap: square"/>
     </g>
     <g id="line2d_8">
      <g>
       <use xlink:href="#m91fd3d77c7" x="167.877551" y="304.56" style="stroke: #000000; stroke-width: 0.8"/>
      </g>
     </g>
     <g id="text_4">
      <!-- 15 -->
      <g transform="translate(161.515051 319.158437) scale(0.1 -0.1)">
       <use xlink:href="#DejaVuSans-31"/>
       <use xlink:href="#DejaVuSans-35" x="63.623047"/>
      </g>
     </g>
    </g>
    <g id="xtick_5">
     <g id="line2d_9">
      <path d="M 205.836735 304.56 
L 205.836735 77.76 
" clip-path="url(#pae0c957c65)" style="fill: none; stroke: #b0b0b0; stroke-width: 0.8; stroke-linecap: square"/>
     </g>
     <g id="line2d_10">
      <g>
       <use xlink:href="#m91fd3d77c7" x="205.836735" y="304.56" style="stroke: #000000; stroke-width: 0.8"/>
      </g>
     </g>
     <g id="text_5">
      <!-- 20 -->
      <g transform="translate(199.474235 319.158437) scale(0.1 -0.1)">
       <defs>
        <path id="DejaVuSans-32" d="M 1228 531 
L 3431 531 
L 3431 0 
L 469 0 
L 469 531 
Q 828 903 1448 1529 
Q 2069 2156 2228 2338 
Q 2531 2678 2651 2914 
Q 2772 3150 2772 3378 
Q 2772 3750 2511 3984 
Q 2250 4219 1831 4219 
Q 1534 4219 1204 4116 
Q 875 4013 500 3803 
L 500 4441 
Q 881 4594 1212 4672 
Q 1544 4750 1819 4750 
Q 2544 4750 2975 4387 
Q 3406 4025 3406 3419 
Q 3406 3131 3298 2873 
Q 3191 2616 2906 2266 
Q 2828 2175 2409 1742 
Q 1991 1309 1228 531 
z
" transform="scale(0.015625)"/>
       </defs>
       <use xlink:href="#DejaVuSans-32"/>
       <use xlink:href="#DejaVuSans-30" x="63.623047"/>
      </g>
     </g>
    </g>
    <g id="xtick_6">
     <g id="line2d_11">
      <path d="M 243.795918 304.56 
L 243.795918 77.76 
" clip-path="url(#pae0c957c65)" style="fill: none; stroke: #b0b0b0; stroke-width: 0.8; stroke-linecap: square"/>
     </g>
     <g id="line2d_12">
      <g>
       <use xlink:href="#m91fd3d77c7" x="243.795918" y="304.56" style="stroke: #000000; stroke-width: 0.8"/>
      </g>
     </g>
     <g id="text_6">
      <!-- 25 -->
      <g transform="translate(237.433418 319.158437) scale(0.1 -0.1)">
       <use xlink:href="#DejaVuSans-32"/>
       <use xlink:href="#DejaVuSans-35" x="63.623047"/>
      </g>
     </g>
    </g>
    <g id="xtick_7">
     <g id="line2d_13">
      <path d="M 281.755102 304.56 
L 281.755102 77.76 
" clip-path="url(#pae0c957c65)" style="fill: none; stroke: #b0b0b0; stroke-width: 0.8; stroke-linecap: square"/>
     </g>
     <g id="line2d_14">
      <g>
       <use xlink:href="#m91fd3d77c7" x="281.755102" y="304.56" style="stroke: #000000; stroke-width: 0.8"/>
      </g>
     </g>
     <g id="text_7">
      <!-- 30 -->
      <g transform="translate(275.392602 319.158437) scale(0.1 -0.1)">
       <defs>
        <path id="DejaVuSans-33" d="M 2597 2516 
Q 3050 2419 3304 2112 
Q 3559 1806 3559 1356 
Q 3559 666 3084 287 
Q 2609 -91 1734 -91 
Q 1441 -91 1130 -33 
Q 819 25 488 141 
L 488 750 
Q 750 597 1062 519 
Q 1375 441 1716 441 
Q 2309 441 2620 675 
Q 2931 909 2931 1356 
Q 2931 1769 2642 2001 
Q 2353 2234 1838 2234 
L 1294 2234 
L 1294 2753 
L 1863 2753 
Q 2328 2753 2575 2939 
Q 2822 3125 2822 3475 
Q 2822 3834 2567 4026 
Q 2313 4219 1838 4219 
Q 1578 4219 1281 4162 
Q 984 4106 628 3988 
L 628 4550 
Q 988 4650 1302 4700 
Q 1616 4750 1894 4750 
Q 2613 4750 3031 4423 
Q 3450 4097 3450 3541 
Q 3450 3153 3228 2886 
Q 3006 2619 2597 2516 
z
" transform="scale(0.015625)"/>
       </defs>
       <use xlink:href="#DejaVuSans-33"/>
       <use xlink:href="#DejaVuSans-30" x="63.623047"/>
      </g>
     </g>
    </g>
    <g id="xtick_8">
     <g id="line2d_15">
      <path d="M 319.714286 304.56 
L 319.714286 77.76 
" clip-path="url(#pae0c957c65)" style="fill: none; stroke: #b0b0b0; stroke-width: 0.8; stroke-linecap: square"/>
     </g>
     <g id="line2d_16">
      <g>
       <use xlink:href="#m91fd3d77c7" x="319.714286" y="304.56" style="stroke: #000000; stroke-width: 0.8"/>
      </g>
     </g>
     <g id="text_8">
      <!-- 35 -->
      <g transform="translate(313.351786 319.158437) scale(0.1 -0.1)">
       <use xlink:href="#DejaVuSans-33"/>
       <use xlink:href="#DejaVuSans-35" x="63.623047"/>
      </g>
     </g>
    </g>
    <g id="xtick_9">
     <g id="line2d_17">
      <path d="M 357.673469 304.56 
L 357.673469 77.76 
" clip-path="url(#pae0c957c65)" style="fill: none; stroke: #b0b0b0; stroke-width: 0.8; stroke-linecap: square"/>
     </g>
     <g id="line2d_18">
      <g>
       <use xlink:href="#m91fd3d77c7" x="357.673469" y="304.56" style="stroke: #000000; stroke-width: 0.8"/>
      </g>
     </g>
     <g id="text_9">
      <!-- 40 -->
      <g transform="translate(351.310969 319.158437) scale(0.1 -0.1)">
       <defs>
        <path id="DejaVuSans-34" d="M 2419 4116 
L 825 1625 
L 2419 1625 
L 2419 4116 
z
M 2253 4666 
L 3047 4666 
L 3047 1625 
L 3713 1625 
L 3713 1100 
L 3047 1100 
L 3047 0 
L 2419 0 
L 2419 1100 
L 313 1100 
L 313 1709 
L 2253 4666 
z
" transform="scale(0.015625)"/>
       </defs>
       <use xlink:href="#DejaVuSans-34"/>
       <use xlink:href="#DejaVuSans-30" x="63.623047"/>
      </g>
     </g>
    </g>
    <g id="text_10">
     <!-- Number of Box -->
     <g transform="translate(165.335156 336.635781) scale(0.15 -0.15)">
      <defs>
       <path id="DejaVuSans-4e" d="M 628 4666 
L 1478 4666 
L 3547 763 
L 3547 4666 
L 4159 4666 
L 4159 0 
L 3309 0 
L 1241 3903 
L 1241 0 
L 628 0 
L 628 4666 
z
" transform="scale(0.015625)"/>
       <path id="DejaVuSans-75" d="M 544 1381 
L 544 3500 
L 1119 3500 
L 1119 1403 
Q 1119 906 1312 657 
Q 1506 409 1894 409 
Q 2359 409 2629 706 
Q 2900 1003 2900 1516 
L 2900 3500 
L 3475 3500 
L 3475 0 
L 2900 0 
L 2900 538 
Q 2691 219 2414 64 
Q 2138 -91 1772 -91 
Q 1169 -91 856 284 
Q 544 659 544 1381 
z
M 1991 3584 
L 1991 3584 
z
" transform="scale(0.015625)"/>
       <path id="DejaVuSans-6d" d="M 3328 2828 
Q 3544 3216 3844 3400 
Q 4144 3584 4550 3584 
Q 5097 3584 5394 3201 
Q 5691 2819 5691 2113 
L 5691 0 
L 5113 0 
L 5113 2094 
Q 5113 2597 4934 2840 
Q 4756 3084 4391 3084 
Q 3944 3084 3684 2787 
Q 3425 2491 3425 1978 
L 3425 0 
L 2847 0 
L 2847 2094 
Q 2847 2600 2669 2842 
Q 2491 3084 2119 3084 
Q 1678 3084 1418 2786 
Q 1159 2488 1159 1978 
L 1159 0 
L 581 0 
L 581 3500 
L 1159 3500 
L 1159 2956 
Q 1356 3278 1631 3431 
Q 1906 3584 2284 3584 
Q 2666 3584 2933 3390 
Q 3200 3197 3328 2828 
z
" transform="scale(0.015625)"/>
       <path id="DejaVuSans-62" d="M 3116 1747 
Q 3116 2381 2855 2742 
Q 2594 3103 2138 3103 
Q 1681 3103 1420 2742 
Q 1159 2381 1159 1747 
Q 1159 1113 1420 752 
Q 1681 391 2138 391 
Q 2594 391 2855 752 
Q 3116 1113 3116 1747 
z
M 1159 2969 
Q 1341 3281 1617 3432 
Q 1894 3584 2278 3584 
Q 2916 3584 3314 3078 
Q 3713 2572 3713 1747 
Q 3713 922 3314 415 
Q 2916 -91 2278 -91 
Q 1894 -91 1617 61 
Q 1341 213 1159 525 
L 1159 0 
L 581 0 
L 581 4863 
L 1159 4863 
L 1159 2969 
z
" transform="scale(0.015625)"/>
       <path id="DejaVuSans-65" d="M 3597 1894 
L 3597 1613 
L 953 1613 
Q 991 1019 1311 708 
Q 1631 397 2203 397 
Q 2534 397 2845 478 
Q 3156 559 3463 722 
L 3463 178 
Q 3153 47 2828 -22 
Q 2503 -91 2169 -91 
Q 1331 -91 842 396 
Q 353 884 353 1716 
Q 353 2575 817 3079 
Q 1281 3584 2069 3584 
Q 2775 3584 3186 3129 
Q 3597 2675 3597 1894 
z
M 3022 2063 
Q 3016 2534 2758 2815 
Q 2500 3097 2075 3097 
Q 1594 3097 1305 2825 
Q 1016 2553 972 2059 
L 3022 2063 
z
" transform="scale(0.015625)"/>
       <path id="DejaVuSans-72" d="M 2631 2963 
Q 2534 3019 2420 3045 
Q 2306 3072 2169 3072 
Q 1681 3072 1420 2755 
Q 1159 2438 1159 1844 
L 1159 0 
L 581 0 
L 581 3500 
L 1159 3500 
L 1159 2956 
Q 1341 3275 1631 3429 
Q 1922 3584 2338 3584 
Q 2397 3584 2469 3576 
Q 2541 3569 2628 3553 
L 2631 2963 
z
" transform="scale(0.015625)"/>
       <path id="DejaVuSans-20" transform="scale(0.015625)"/>
       <path id="DejaVuSans-6f" d="M 1959 3097 
Q 1497 3097 1228 2736 
Q 959 2375 959 1747 
Q 959 1119 1226 758 
Q 1494 397 1959 397 
Q 2419 397 2687 759 
Q 2956 1122 2956 1747 
Q 2956 2369 2687 2733 
Q 2419 3097 1959 3097 
z
M 1959 3584 
Q 2709 3584 3137 3096 
Q 3566 2609 3566 1747 
Q 3566 888 3137 398 
Q 2709 -91 1959 -91 
Q 1206 -91 779 398 
Q 353 888 353 1747 
Q 353 2609 779 3096 
Q 1206 3584 1959 3584 
z
" transform="scale(0.015625)"/>
       <path id="DejaVuSans-66" d="M 2375 4863 
L 2375 4384 
L 1825 4384 
Q 1516 4384 1395 4259 
Q 1275 4134 1275 3809 
L 1275 3500 
L 2222 3500 
L 2222 3053 
L 1275 3053 
L 1275 0 
L 697 0 
L 697 3053 
L 147 3053 
L 147 3500 
L 697 3500 
L 697 3744 
Q 697 4328 969 4595 
Q 1241 4863 1831 4863 
L 2375 4863 
z
" transform="scale(0.015625)"/>
       <path id="DejaVuSans-42" d="M 1259 2228 
L 1259 519 
L 2272 519 
Q 2781 519 3026 730 
Q 3272 941 3272 1375 
Q 3272 1813 3026 2020 
Q 2781 2228 2272 2228 
L 1259 2228 
z
M 1259 4147 
L 1259 2741 
L 2194 2741 
Q 2656 2741 2882 2914 
Q 3109 3088 3109 3444 
Q 3109 3797 2882 3972 
Q 2656 4147 2194 4147 
L 1259 4147 
z
M 628 4666 
L 2241 4666 
Q 2963 4666 3353 4366 
Q 3744 4066 3744 3513 
Q 3744 3084 3544 2831 
Q 3344 2578 2956 2516 
Q 3422 2416 3680 2098 
Q 3938 1781 3938 1306 
Q 3938 681 3513 340 
Q 3088 0 2303 0 
L 628 0 
L 628 4666 
z
" transform="scale(0.015625)"/>
       <path id="DejaVuSans-78" d="M 3513 3500 
L 2247 1797 
L 3578 0 
L 2900 0 
L 1881 1375 
L 863 0 
L 184 0 
L 1544 1831 
L 300 3500 
L 978 3500 
L 1906 2253 
L 2834 3500 
L 3513 3500 
z
" transform="scale(0.015625)"/>
      </defs>
      <use xlink:href="#DejaVuSans-4e"/>
      <use xlink:href="#DejaVuSans-75" x="74.804688"/>
      <use xlink:href="#DejaVuSans-6d" x="138.183594"/>
      <use xlink:href="#DejaVuSans-62" x="235.595703"/>
      <use xlink:href="#DejaVuSans-65" x="299.072266"/>
      <use xlink:href="#DejaVuSans-72" x="360.595703"/>
      <use xlink:href="#DejaVuSans-20" x="401.708984"/>
      <use xlink:href="#DejaVuSans-6f" x="433.496094"/>
      <use xlink:href="#DejaVuSans-66" x="494.677734"/>
      <use xlink:href="#DejaVuSans-20" x="529.882812"/>
      <use xlink:href="#DejaVuSans-42" x="561.669922"/>
      <use xlink:href="#DejaVuSans-6f" x="630.273438"/>
      <use xlink:href="#DejaVuSans-78" x="688.330078"/>
     </g>
    </g>
   </g>
   <g id="matplotlib.axis_2">
    <g id="ytick_1">
     <g id="line2d_19">
      <path d="M 54 304.56 
L 388.8 304.56 
" clip-path="url(#pae0c957c65)" style="fill: none; stroke: #b0b0b0; stroke-width: 0.8; stroke-linecap: square"/>
     </g>
     <g id="line2d_20">
      <defs>
       <path id="m6fa0ea1a4b" d="M 0 0 
L -3.5 0 
" style="stroke: #000000; stroke-width: 0.8"/>
      </defs>
      <g>
       <use xlink:href="#m6fa0ea1a4b" x="54" y="304.56" style="stroke: #000000; stroke-width: 0.8"/>
      </g>
     </g>
     <g id="text_11">
      <!-- 0.0 -->
      <g transform="translate(31.096875 308.359219) scale(0.1 -0.1)">
       <defs>
        <path id="DejaVuSans-2e" d="M 684 794 
L 1344 794 
L 1344 0 
L 684 0 
L 684 794 
z
" transform="scale(0.015625)"/>
       </defs>
       <use xlink:href="#DejaVuSans-30"/>
       <use xlink:href="#DejaVuSans-2e" x="63.623047"/>
       <use xlink:href="#DejaVuSans-30" x="95.410156"/>
      </g>
     </g>
    </g>
    <g id="ytick_2">
     <g id="line2d_21">
      <path d="M 54 263.323636 
L 388.8 263.323636 
" clip-path="url(#pae0c957c65)" style="fill: none; stroke: #b0b0b0; stroke-width: 0.8; stroke-linecap: square"/>
     </g>
     <g id="line2d_22">
      <g>
       <use xlink:href="#m6fa0ea1a4b" x="54" y="263.323636" style="stroke: #000000; stroke-width: 0.8"/>
      </g>
     </g>
     <g id="text_12">
      <!-- 0.2 -->
      <g transform="translate(31.096875 267.122855) scale(0.1 -0.1)">
       <use xlink:href="#DejaVuSans-30"/>
       <use xlink:href="#DejaVuSans-2e" x="63.623047"/>
       <use xlink:href="#DejaVuSans-32" x="95.410156"/>
      </g>
     </g>
    </g>
    <g id="ytick_3">
     <g id="line2d_23">
      <path d="M 54 222.087273 
L 388.8 222.087273 
" clip-path="url(#pae0c957c65)" style="fill: none; stroke: #b0b0b0; stroke-width: 0.8; stroke-linecap: square"/>
     </g>
     <g id="line2d_24">
      <g>
       <use xlink:href="#m6fa0ea1a4b" x="54" y="222.087273" style="stroke: #000000; stroke-width: 0.8"/>
      </g>
     </g>
     <g id="text_13">
      <!-- 0.4 -->
      <g transform="translate(31.096875 225.886491) scale(0.1 -0.1)">
       <use xlink:href="#DejaVuSans-30"/>
       <use xlink:href="#DejaVuSans-2e" x="63.623047"/>
       <use xlink:href="#DejaVuSans-34" x="95.410156"/>
      </g>
     </g>
    </g>
    <g id="ytick_4">
     <g id="line2d_25">
      <path d="M 54 180.850909 
L 388.8 180.850909 
" clip-path="url(#pae0c957c65)" style="fill: none; stroke: #b0b0b0; stroke-width: 0.8; stroke-linecap: square"/>
     </g>
     <g id="line2d_26">
      <g>
       <use xlink:href="#m6fa0ea1a4b" x="54" y="180.850909" style="stroke: #000000; stroke-width: 0.8"/>
      </g>
     </g>
     <g id="text_14">
      <!-- 0.6 -->
      <g transform="translate(31.096875 184.650128) scale(0.1 -0.1)">
       <defs>
        <path id="DejaVuSans-36" d="M 2113 2584 
Q 1688 2584 1439 2293 
Q 1191 2003 1191 1497 
Q 1191 994 1439 701 
Q 1688 409 2113 409 
Q 2538 409 2786 701 
Q 3034 994 3034 1497 
Q 3034 2003 2786 2293 
Q 2538 2584 2113 2584 
z
M 3366 4563 
L 3366 3988 
Q 3128 4100 2886 4159 
Q 2644 4219 2406 4219 
Q 1781 4219 1451 3797 
Q 1122 3375 1075 2522 
Q 1259 2794 1537 2939 
Q 1816 3084 2150 3084 
Q 2853 3084 3261 2657 
Q 3669 2231 3669 1497 
Q 3669 778 3244 343 
Q 2819 -91 2113 -91 
Q 1303 -91 875 529 
Q 447 1150 447 2328 
Q 447 3434 972 4092 
Q 1497 4750 2381 4750 
Q 2619 4750 2861 4703 
Q 3103 4656 3366 4563 
z
" transform="scale(0.015625)"/>
       </defs>
       <use xlink:href="#DejaVuSans-30"/>
       <use xlink:href="#DejaVuSans-2e" x="63.623047"/>
       <use xlink:href="#DejaVuSans-36" x="95.410156"/>
      </g>
     </g>
    </g>
    <g id="ytick_5">
     <g id="line2d_27">
      <path d="M 54 139.614545 
L 388.8 139.614545 
" clip-path="url(#pae0c957c65)" style="fill: none; stroke: #b0b0b0; stroke-width: 0.8; stroke-linecap: square"/>
     </g>
     <g id="line2d_28">
      <g>
       <use xlink:href="#m6fa0ea1a4b" x="54" y="139.614545" style="stroke: #000000; stroke-width: 0.8"/>
      </g>
     </g>
     <g id="text_15">
      <!-- 0.8 -->
      <g transform="translate(31.096875 143.413764) scale(0.1 -0.1)">
       <defs>
        <path id="DejaVuSans-38" d="M 2034 2216 
Q 1584 2216 1326 1975 
Q 1069 1734 1069 1313 
Q 1069 891 1326 650 
Q 1584 409 2034 409 
Q 2484 409 2743 651 
Q 3003 894 3003 1313 
Q 3003 1734 2745 1975 
Q 2488 2216 2034 2216 
z
M 1403 2484 
Q 997 2584 770 2862 
Q 544 3141 544 3541 
Q 544 4100 942 4425 
Q 1341 4750 2034 4750 
Q 2731 4750 3128 4425 
Q 3525 4100 3525 3541 
Q 3525 3141 3298 2862 
Q 3072 2584 2669 2484 
Q 3125 2378 3379 2068 
Q 3634 1759 3634 1313 
Q 3634 634 3220 271 
Q 2806 -91 2034 -91 
Q 1263 -91 848 271 
Q 434 634 434 1313 
Q 434 1759 690 2068 
Q 947 2378 1403 2484 
z
M 1172 3481 
Q 1172 3119 1398 2916 
Q 1625 2713 2034 2713 
Q 2441 2713 2670 2916 
Q 2900 3119 2900 3481 
Q 2900 3844 2670 4047 
Q 2441 4250 2034 4250 
Q 1625 4250 1398 4047 
Q 1172 3844 1172 3481 
z
" transform="scale(0.015625)"/>
       </defs>
       <use xlink:href="#DejaVuSans-30"/>
       <use xlink:href="#DejaVuSans-2e" x="63.623047"/>
       <use xlink:href="#DejaVuSans-38" x="95.410156"/>
      </g>
     </g>
    </g>
    <g id="ytick_6">
     <g id="line2d_29">
      <path d="M 54 98.378182 
L 388.8 98.378182 
" clip-path="url(#pae0c957c65)" style="fill: none; stroke: #b0b0b0; stroke-width: 0.8; stroke-linecap: square"/>
     </g>
     <g id="line2d_30">
      <g>
       <use xlink:href="#m6fa0ea1a4b" x="54" y="98.378182" style="stroke: #000000; stroke-width: 0.8"/>
      </g>
     </g>
     <g id="text_16">
      <!-- 1.0 -->
      <g transform="translate(31.096875 102.177401) scale(0.1 -0.1)">
       <use xlink:href="#DejaVuSans-31"/>
       <use xlink:href="#DejaVuSans-2e" x="63.623047"/>
       <use xlink:href="#DejaVuSans-30" x="95.410156"/>
      </g>
     </g>
    </g>
    <g id="text_17">
     <!-- Precision -->
     <g transform="translate(23.977344 224.620547) rotate(-90) scale(0.15 -0.15)">
      <defs>
       <path id="DejaVuSans-50" d="M 1259 4147 
L 1259 2394 
L 2053 2394 
Q 2494 2394 2734 2622 
Q 2975 2850 2975 3272 
Q 2975 3691 2734 3919 
Q 2494 4147 2053 4147 
L 1259 4147 
z
M 628 4666 
L 2053 4666 
Q 2838 4666 3239 4311 
Q 3641 3956 3641 3272 
Q 3641 2581 3239 2228 
Q 2838 1875 2053 1875 
L 1259 1875 
L 1259 0 
L 628 0 
L 628 4666 
z
" transform="scale(0.015625)"/>
       <path id="DejaVuSans-63" d="M 3122 3366 
L 3122 2828 
Q 2878 2963 2633 3030 
Q 2388 3097 2138 3097 
Q 1578 3097 1268 2742 
Q 959 2388 959 1747 
Q 959 1106 1268 751 
Q 1578 397 2138 397 
Q 2388 397 2633 464 
Q 2878 531 3122 666 
L 3122 134 
Q 2881 22 2623 -34 
Q 2366 -91 2075 -91 
Q 1284 -91 818 406 
Q 353 903 353 1747 
Q 353 2603 823 3093 
Q 1294 3584 2113 3584 
Q 2378 3584 2631 3529 
Q 2884 3475 3122 3366 
z
" transform="scale(0.015625)"/>
       <path id="DejaVuSans-69" d="M 603 3500 
L 1178 3500 
L 1178 0 
L 603 0 
L 603 3500 
z
M 603 4863 
L 1178 4863 
L 1178 4134 
L 603 4134 
L 603 4863 
z
" transform="scale(0.015625)"/>
       <path id="DejaVuSans-73" d="M 2834 3397 
L 2834 2853 
Q 2591 2978 2328 3040 
Q 2066 3103 1784 3103 
Q 1356 3103 1142 2972 
Q 928 2841 928 2578 
Q 928 2378 1081 2264 
Q 1234 2150 1697 2047 
L 1894 2003 
Q 2506 1872 2764 1633 
Q 3022 1394 3022 966 
Q 3022 478 2636 193 
Q 2250 -91 1575 -91 
Q 1294 -91 989 -36 
Q 684 19 347 128 
L 347 722 
Q 666 556 975 473 
Q 1284 391 1588 391 
Q 1994 391 2212 530 
Q 2431 669 2431 922 
Q 2431 1156 2273 1281 
Q 2116 1406 1581 1522 
L 1381 1569 
Q 847 1681 609 1914 
Q 372 2147 372 2553 
Q 372 3047 722 3315 
Q 1072 3584 1716 3584 
Q 2034 3584 2315 3537 
Q 2597 3491 2834 3397 
z
" transform="scale(0.015625)"/>
       <path id="DejaVuSans-6e" d="M 3513 2113 
L 3513 0 
L 2938 0 
L 2938 2094 
Q 2938 2591 2744 2837 
Q 2550 3084 2163 3084 
Q 1697 3084 1428 2787 
Q 1159 2491 1159 1978 
L 1159 0 
L 581 0 
L 581 3500 
L 1159 3500 
L 1159 2956 
Q 1366 3272 1645 3428 
Q 1925 3584 2291 3584 
Q 2894 3584 3203 3211 
Q 3513 2838 3513 2113 
z
" transform="scale(0.015625)"/>
      </defs>
      <use xlink:href="#DejaVuSans-50"/>
      <use xlink:href="#DejaVuSans-72" x="58.552734"/>
      <use xlink:href="#DejaVuSans-65" x="97.416016"/>
      <use xlink:href="#DejaVuSans-63" x="158.939453"/>
      <use xlink:href="#DejaVuSans-69" x="213.919922"/>
      <use xlink:href="#DejaVuSans-73" x="241.703125"/>
      <use xlink:href="#DejaVuSans-69" x="293.802734"/>
      <use xlink:href="#DejaVuSans-6f" x="321.585938"/>
      <use xlink:href="#DejaVuSans-6e" x="382.767578"/>
     </g>
    </g>
   </g>
   <g id="patch_3">
    <path d="M 54 304.56 
L 54 77.76 
" style="fill: none; stroke: #000000; stroke-width: 0.8; stroke-linejoin: miter; stroke-linecap: square"/>
   </g>
   <g id="patch_4">
    <path d="M 388.8 304.56 
L 388.8 77.76 
" style="fill: none; stroke: #000000; stroke-width: 0.8; stroke-linejoin: miter; stroke-linecap: square"/>
   </g>
   <g id="patch_5">
    <path d="M 54 304.56 
L 388.8 304.56 
" style="fill: none; stroke: #000000; stroke-width: 0.8; stroke-linejoin: miter; stroke-linecap: square"/>
   </g>
   <g id="patch_6">
    <path d="M 54 77.76 
L 388.8 77.76 
" style="fill: none; stroke: #000000; stroke-width: 0.8; stroke-linejoin: miter; stroke-linecap: square"/>
   </g>
   <g id="legend_1">
    <g id="patch_7">
     <path d="M 294.31875 133.794375 
L 378.3 133.794375 
Q 381.3 133.794375 381.3 130.794375 
L 381.3 88.26 
Q 381.3 85.26 378.3 85.26 
L 294.31875 85.26 
Q 291.31875 85.26 291.31875 88.26 
L 291.31875 130.794375 
Q 291.31875 133.794375 294.31875 133.794375 
z
" style="fill: #ffffff; opacity: 0.8; stroke: #cccccc; stroke-linejoin: miter"/>
    </g>
    <g id="PathCollection_3">
     <g>
      <use xlink:href="#m873ea869ce" x="312.31875" y="98.720156" style="fill: #ff0000; stroke: #ff0000"/>
     </g>
    </g>
    <g id="text_18">
     <!-- Train -->
     <g transform="translate(339.31875 102.657656) scale(0.15 -0.15)">
      <defs>
       <path id="DejaVuSans-54" d="M -19 4666 
L 3928 4666 
L 3928 4134 
L 2272 4134 
L 2272 0 
L 1638 0 
L 1638 4134 
L -19 4134 
L -19 4666 
z
" transform="scale(0.015625)"/>
       <path id="DejaVuSans-61" d="M 2194 1759 
Q 1497 1759 1228 1600 
Q 959 1441 959 1056 
Q 959 750 1161 570 
Q 1363 391 1709 391 
Q 2188 391 2477 730 
Q 2766 1069 2766 1631 
L 2766 1759 
L 2194 1759 
z
M 3341 1997 
L 3341 0 
L 2766 0 
L 2766 531 
Q 2569 213 2275 61 
Q 1981 -91 1556 -91 
Q 1019 -91 701 211 
Q 384 513 384 1019 
Q 384 1609 779 1909 
Q 1175 2209 1959 2209 
L 2766 2209 
L 2766 2266 
Q 2766 2663 2505 2880 
Q 2244 3097 1772 3097 
Q 1472 3097 1187 3025 
Q 903 2953 641 2809 
L 641 3341 
Q 956 3463 1253 3523 
Q 1550 3584 1831 3584 
Q 2591 3584 2966 3190 
Q 3341 2797 3341 1997 
z
" transform="scale(0.015625)"/>
      </defs>
      <use xlink:href="#DejaVuSans-54"/>
      <use xlink:href="#DejaVuSans-72" x="46.333984"/>
      <use xlink:href="#DejaVuSans-61" x="87.447266"/>
      <use xlink:href="#DejaVuSans-69" x="148.726562"/>
      <use xlink:href="#DejaVuSans-6e" x="176.509766"/>
     </g>
    </g>
    <g id="PathCollection_4">
     <g>
      <use xlink:href="#m52f9c126eb" x="312.31875" y="120.737344" style="fill: #0000ff; stroke: #0000ff"/>
     </g>
    </g>
    <g id="text_19">
     <!-- Test -->
     <g transform="translate(339.31875 124.674844) scale(0.15 -0.15)">
      <defs>
       <path id="DejaVuSans-74" d="M 1172 4494 
L 1172 3500 
L 2356 3500 
L 2356 3053 
L 1172 3053 
L 1172 1153 
Q 1172 725 1289 603 
Q 1406 481 1766 481 
L 2356 481 
L 2356 0 
L 1766 0 
Q 1100 0 847 248 
Q 594 497 594 1153 
L 594 3053 
L 172 3053 
L 172 3500 
L 594 3500 
L 594 4494 
L 1172 4494 
z
" transform="scale(0.015625)"/>
      </defs>
      <use xlink:href="#DejaVuSans-54"/>
      <use xlink:href="#DejaVuSans-65" x="44.083984"/>
      <use xlink:href="#DejaVuSans-73" x="105.607422"/>
      <use xlink:href="#DejaVuSans-74" x="157.707031"/>
     </g>
    </g>
   </g>
  </g>
  <g id="axes_2">
   <g id="patch_8">
    <path d="M 54 576.72 
L 388.8 576.72 
L 388.8 349.92 
L 54 349.92 
z
" style="fill: #ffffff"/>
   </g>
   <g id="PathCollection_5">
    <g clip-path="url(#pa68f7af544)">
     <use xlink:href="#m873ea869ce" x="54" y="370.568333" style="fill: #ff0000; stroke: #ff0000"/>
     <use xlink:href="#m873ea869ce" x="61.591837" y="370.811221" style="fill: #ff0000; stroke: #ff0000"/>
     <use xlink:href="#m873ea869ce" x="69.183673" y="371.052908" style="fill: #ff0000; stroke: #ff0000"/>
     <use xlink:href="#m873ea869ce" x="76.77551" y="371.27563" style="fill: #ff0000; stroke: #ff0000"/>
     <use xlink:href="#m873ea869ce" x="84.367347" y="371.840685" style="fill: #ff0000; stroke: #ff0000"/>
     <use xlink:href="#m873ea869ce" x="91.959184" y="372.068086" style="fill: #ff0000; stroke: #ff0000"/>
     <use xlink:href="#m873ea869ce" x="99.55102" y="372.575405" style="fill: #ff0000; stroke: #ff0000"/>
     <use xlink:href="#m873ea869ce" x="107.142857" y="372.916248" style="fill: #ff0000; stroke: #ff0000"/>
     <use xlink:href="#m873ea869ce" x="114.734694" y="372.979902" style="fill: #ff0000; stroke: #ff0000"/>
     <use xlink:href="#m873ea869ce" x="122.326531" y="373.071944" style="fill: #ff0000; stroke: #ff0000"/>
     <use xlink:href="#m873ea869ce" x="129.918367" y="373.010734" style="fill: #ff0000; stroke: #ff0000"/>
     <use xlink:href="#m873ea869ce" x="137.510204" y="372.906961" style="fill: #ff0000; stroke: #ff0000"/>
     <use xlink:href="#m873ea869ce" x="145.102041" y="373.137333" style="fill: #ff0000; stroke: #ff0000"/>
     <use xlink:href="#m873ea869ce" x="152.693878" y="373.170637" style="fill: #ff0000; stroke: #ff0000"/>
     <use xlink:href="#m873ea869ce" x="160.285714" y="373.131471" style="fill: #ff0000; stroke: #ff0000"/>
     <use xlink:href="#m873ea869ce" x="167.877551" y="373.308146" style="fill: #ff0000; stroke: #ff0000"/>
     <use xlink:href="#m873ea869ce" x="175.469388" y="373.217797" style="fill: #ff0000; stroke: #ff0000"/>
     <use xlink:href="#m873ea869ce" x="183.061224" y="373.166682" style="fill: #ff0000; stroke: #ff0000"/>
     <use xlink:href="#m873ea869ce" x="190.653061" y="373.265695" style="fill: #ff0000; stroke: #ff0000"/>
     <use xlink:href="#m873ea869ce" x="198.244898" y="373.37735" style="fill: #ff0000; stroke: #ff0000"/>
     <use xlink:href="#m873ea869ce" x="205.836735" y="373.332314" style="fill: #ff0000; stroke: #ff0000"/>
     <use xlink:href="#m873ea869ce" x="213.428571" y="373.208635" style="fill: #ff0000; stroke: #ff0000"/>
     <use xlink:href="#m873ea869ce" x="221.020408" y="373.198575" style="fill: #ff0000; stroke: #ff0000"/>
     <use xlink:href="#m873ea869ce" x="228.612245" y="373.307362" style="fill: #ff0000; stroke: #ff0000"/>
     <use xlink:href="#m873ea869ce" x="236.204082" y="373.327369" style="fill: #ff0000; stroke: #ff0000"/>
     <use xlink:href="#m873ea869ce" x="243.795918" y="373.313285" style="fill: #ff0000; stroke: #ff0000"/>
     <use xlink:href="#m873ea869ce" x="251.387755" y="373.54192" style="fill: #ff0000; stroke: #ff0000"/>
     <use xlink:href="#m873ea869ce" x="258.979592" y="373.175543" style="fill: #ff0000; stroke: #ff0000"/>
     <use xlink:href="#m873ea869ce" x="266.571429" y="373.752955" style="fill: #ff0000; stroke: #ff0000"/>
     <use xlink:href="#m873ea869ce" x="274.163265" y="373.325274" style="fill: #ff0000; stroke: #ff0000"/>
     <use xlink:href="#m873ea869ce" x="281.755102" y="373.567376" style="fill: #ff0000; stroke: #ff0000"/>
     <use xlink:href="#m873ea869ce" x="289.346939" y="373.61581" style="fill: #ff0000; stroke: #ff0000"/>
     <use xlink:href="#m873ea869ce" x="296.938776" y="373.756216" style="fill: #ff0000; stroke: #ff0000"/>
     <use xlink:href="#m873ea869ce" x="304.530612" y="373.883173" style="fill: #ff0000; stroke: #ff0000"/>
     <use xlink:href="#m873ea869ce" x="312.122449" y="373.128882" style="fill: #ff0000; stroke: #ff0000"/>
     <use xlink:href="#m873ea869ce" x="319.714286" y="373.731075" style="fill: #ff0000; stroke: #ff0000"/>
     <use xlink:href="#m873ea869ce" x="327.306122" y="373.826971" style="fill: #ff0000; stroke: #ff0000"/>
     <use xlink:href="#m873ea869ce" x="334.897959" y="374.308965" style="fill: #ff0000; stroke: #ff0000"/>
     <use xlink:href="#m873ea869ce" x="342.489796" y="374.645434" style="fill: #ff0000; stroke: #ff0000"/>
     <use xlink:href="#m873ea869ce" x="350.081633" y="375.053453" style="fill: #ff0000; stroke: #ff0000"/>
     <use xlink:href="#m873ea869ce" x="357.673469" y="374.597629" style="fill: #ff0000; stroke: #ff0000"/>
     <use xlink:href="#m873ea869ce" x="365.265306" y="374.178836" style="fill: #ff0000; stroke: #ff0000"/>
     <use xlink:href="#m873ea869ce" x="372.857143" y="374.695576" style="fill: #ff0000; stroke: #ff0000"/>
     <use xlink:href="#m873ea869ce" x="380.44898" y="372.808137" style="fill: #ff0000; stroke: #ff0000"/>
    </g>
   </g>
   <g id="PathCollection_6">
    <g clip-path="url(#pa68f7af544)">
     <use xlink:href="#m52f9c126eb" x="54" y="370.538182" style="fill: #0000ff; stroke: #0000ff"/>
     <use xlink:href="#m52f9c126eb" x="61.591837" y="370.538182" style="fill: #0000ff; stroke: #0000ff"/>
     <use xlink:href="#m52f9c126eb" x="69.183673" y="370.538182" style="fill: #0000ff; stroke: #0000ff"/>
     <use xlink:href="#m52f9c126eb" x="76.77551" y="370.538182" style="fill: #0000ff; stroke: #0000ff"/>
     <use xlink:href="#m52f9c126eb" x="84.367347" y="370.538182" style="fill: #0000ff; stroke: #0000ff"/>
     <use xlink:href="#m52f9c126eb" x="91.959184" y="370.538182" style="fill: #0000ff; stroke: #0000ff"/>
     <use xlink:href="#m52f9c126eb" x="99.55102" y="370.538182" style="fill: #0000ff; stroke: #0000ff"/>
     <use xlink:href="#m52f9c126eb" x="107.142857" y="370.538182" style="fill: #0000ff; stroke: #0000ff"/>
     <use xlink:href="#m52f9c126eb" x="114.734694" y="370.538182" style="fill: #0000ff; stroke: #0000ff"/>
     <use xlink:href="#m52f9c126eb" x="122.326531" y="370.538182" style="fill: #0000ff; stroke: #0000ff"/>
     <use xlink:href="#m52f9c126eb" x="129.918367" y="370.538182" style="fill: #0000ff; stroke: #0000ff"/>
     <use xlink:href="#m52f9c126eb" x="137.510204" y="370.538182" style="fill: #0000ff; stroke: #0000ff"/>
     <use xlink:href="#m52f9c126eb" x="145.102041" y="370.538182" style="fill: #0000ff; stroke: #0000ff"/>
     <use xlink:href="#m52f9c126eb" x="152.693878" y="370.538182" style="fill: #0000ff; stroke: #0000ff"/>
     <use xlink:href="#m52f9c126eb" x="160.285714" y="370.538182" style="fill: #0000ff; stroke: #0000ff"/>
     <use xlink:href="#m52f9c126eb" x="167.877551" y="370.538182" style="fill: #0000ff; stroke: #0000ff"/>
     <use xlink:href="#m52f9c126eb" x="175.469388" y="370.538182" style="fill: #0000ff; stroke: #0000ff"/>
     <use xlink:href="#m52f9c126eb" x="183.061224" y="370.538182" style="fill: #0000ff; stroke: #0000ff"/>
     <use xlink:href="#m52f9c126eb" x="190.653061" y="370.538182" style="fill: #0000ff; stroke: #0000ff"/>
     <use xlink:href="#m52f9c126eb" x="198.244898" y="370.538182" style="fill: #0000ff; stroke: #0000ff"/>
     <use xlink:href="#m52f9c126eb" x="205.836735" y="370.538182" style="fill: #0000ff; stroke: #0000ff"/>
     <use xlink:href="#m52f9c126eb" x="213.428571" y="370.538182" style="fill: #0000ff; stroke: #0000ff"/>
     <use xlink:href="#m52f9c126eb" x="221.020408" y="370.538182" style="fill: #0000ff; stroke: #0000ff"/>
     <use xlink:href="#m52f9c126eb" x="228.612245" y="370.538182" style="fill: #0000ff; stroke: #0000ff"/>
     <use xlink:href="#m52f9c126eb" x="236.204082" y="371.534229" style="fill: #0000ff; stroke: #0000ff"/>
     <use xlink:href="#m52f9c126eb" x="243.795918" y="371.59013" style="fill: #0000ff; stroke: #0000ff"/>
     <use xlink:href="#m52f9c126eb" x="251.387755" y="371.629091" style="fill: #0000ff; stroke: #0000ff"/>
     <use xlink:href="#m52f9c126eb" x="258.979592" y="371.703051" style="fill: #0000ff; stroke: #0000ff"/>
     <use xlink:href="#m52f9c126eb" x="266.571429" y="371.780241" style="fill: #0000ff; stroke: #0000ff"/>
     <use xlink:href="#m52f9c126eb" x="274.163265" y="371.903624" style="fill: #0000ff; stroke: #0000ff"/>
     <use xlink:href="#m52f9c126eb" x="281.755102" y="372.076852" style="fill: #0000ff; stroke: #0000ff"/>
     <use xlink:href="#m52f9c126eb" x="289.346939" y="374.093041" style="fill: #0000ff; stroke: #0000ff"/>
     <use xlink:href="#m52f9c126eb" x="296.938776" y="374.661818" style="fill: #0000ff; stroke: #0000ff"/>
     <use xlink:href="#m52f9c126eb" x="304.530612" y="370.538182" style="fill: #0000ff; stroke: #0000ff"/>
     <use xlink:href="#m52f9c126eb" x="312.122449" y="373.615522" style="fill: #0000ff; stroke: #0000ff"/>
     <use xlink:href="#m52f9c126eb" x="319.714286" y="374.093041" style="fill: #0000ff; stroke: #0000ff"/>
     <use xlink:href="#m52f9c126eb" x="327.306122" y="370.538182" style="fill: #0000ff; stroke: #0000ff"/>
     <use xlink:href="#m52f9c126eb" x="334.897959" y="370.538182" style="fill: #0000ff; stroke: #0000ff"/>
     <use xlink:href="#m52f9c126eb" x="342.489796" y="370.538182" style="fill: #0000ff; stroke: #0000ff"/>
     <use xlink:href="#m52f9c126eb" x="350.081633" y="370.538182" style="fill: #0000ff; stroke: #0000ff"/>
     <use xlink:href="#m52f9c126eb" x="357.673469" y="384.283636" style="fill: #0000ff; stroke: #0000ff"/>
     <use xlink:href="#m52f9c126eb" x="365.265306" y="391.156364" style="fill: #0000ff; stroke: #0000ff"/>
     <use xlink:href="#m52f9c126eb" x="372.857143" y="411.774545" style="fill: #0000ff; stroke: #0000ff"/>
     <use xlink:href="#m52f9c126eb" x="380.44898" y="422.083636" style="fill: #0000ff; stroke: #0000ff"/>
    </g>
   </g>
   <g id="PolyCollection_3">
    <defs>
     <path id="m5e8e720bbf" d="M 54 -277.605999 
L 54 -277.257336 
L 61.591837 -276.473442 
L 69.183673 -276.147265 
L 76.77551 -275.611152 
L 84.367347 -274.776398 
L 91.959184 -274.383316 
L 99.55102 -273.649683 
L 107.142857 -273.193456 
L 114.734694 -273.044327 
L 122.326531 -272.957156 
L 129.918367 -272.933296 
L 137.510204 -273.21636 
L 145.102041 -272.902262 
L 152.693878 -272.819833 
L 160.285714 -272.879792 
L 167.877551 -272.49877 
L 175.469388 -272.733994 
L 183.061224 -272.804446 
L 190.653061 -272.583727 
L 198.244898 -272.353376 
L 205.836735 -272.584018 
L 213.428571 -272.686671 
L 221.020408 -272.525284 
L 228.612245 -272.320835 
L 236.204082 -272.22941 
L 243.795918 -272.366019 
L 251.387755 -272.024942 
L 258.979592 -272.596418 
L 266.571429 -271.458932 
L 274.163265 -272.145229 
L 281.755102 -271.815861 
L 289.346939 -271.688871 
L 296.938776 -271.375176 
L 304.530612 -271.486473 
L 312.122449 -272.578155 
L 319.714286 -271.741821 
L 327.306122 -270.949932 
L 334.897959 -270.54855 
L 342.489796 -270.014781 
L 350.081633 -270.144577 
L 357.673469 -269.806506 
L 365.265306 -271.802484 
L 372.857143 -270.025734 
L 380.44898 -272.397198 
L 380.44898 -277.986527 
L 380.44898 -277.986527 
L 372.857143 -276.583115 
L 365.265306 -275.839843 
L 357.673469 -276.998236 
L 350.081633 -275.748517 
L 342.489796 -276.694351 
L 334.897959 -276.833519 
L 327.306122 -277.396126 
L 319.714286 -276.796029 
L 312.122449 -277.164081 
L 304.530612 -276.74718 
L 296.938776 -277.112391 
L 289.346939 -277.079509 
L 281.755102 -277.049386 
L 274.163265 -277.204224 
L 266.571429 -277.035157 
L 258.979592 -277.052495 
L 251.387755 -276.891219 
L 243.795918 -277.00741 
L 236.204082 -277.115851 
L 228.612245 -277.06444 
L 221.020408 -277.077565 
L 213.428571 -276.896058 
L 205.836735 -276.751354 
L 198.244898 -276.891925 
L 190.653061 -276.884883 
L 183.061224 -276.862189 
L 175.469388 -276.830413 
L 167.877551 -276.884938 
L 160.285714 -276.857265 
L 152.693878 -276.838893 
L 145.102041 -276.823073 
L 137.510204 -276.969719 
L 129.918367 -277.045236 
L 122.326531 -276.898956 
L 114.734694 -276.99587 
L 107.142857 -276.974048 
L 99.55102 -277.199508 
L 91.959184 -277.480512 
L 84.367347 -277.542232 
L 76.77551 -277.837587 
L 69.183673 -277.74692 
L 61.591837 -277.904115 
L 54 -277.605999 
z
" style="stroke: #ff0000; stroke-opacity: 0.2"/>
    </defs>
    <g clip-path="url(#pa68f7af544)">
     <use xlink:href="#m5e8e720bbf" x="0" y="648" style="fill: #ff0000; fill-opacity: 0.2; stroke: #ff0000; stroke-opacity: 0.2"/>
    </g>
   </g>
   <g id="PolyCollection_4">
    <defs>
     <path id="mb0a2212537" d="M 54 -277.461818 
L 54 -277.461818 
L 61.591837 -277.461818 
L 69.183673 -277.461818 
L 76.77551 -277.461818 
L 84.367347 -277.461818 
L 91.959184 -277.461818 
L 99.55102 -277.461818 
L 107.142857 -277.461818 
L 114.734694 -277.461818 
L 122.326531 -277.461818 
L 129.918367 -277.461818 
L 137.510204 -277.461818 
L 145.102041 -277.461818 
L 152.693878 -277.461818 
L 160.285714 -277.461818 
L 167.877551 -277.461818 
L 175.469388 -277.461818 
L 183.061224 -277.461818 
L 190.653061 -277.461818 
L 198.244898 -277.461818 
L 205.836735 -277.461818 
L 213.428571 -277.461818 
L 221.020408 -277.461818 
L 228.612245 -277.461818 
L 236.204082 -262.135144 
L 243.795918 -261.682597 
L 251.387755 -261.373389 
L 258.979592 -260.799375 
L 266.571429 -260.216946 
L 274.163265 -259.317537 
L 281.755102 -258.111752 
L 289.346939 -246.951926 
L 296.938776 -244.327308 
L 304.530612 -277.461818 
L 312.122449 -249.195359 
L 319.714286 -246.83396 
L 327.306122 -277.461818 
L 334.897959 -277.461818 
L 342.489796 -277.461818 
L 350.081633 -277.461818 
L 357.673469 -210.480447 
L 365.265306 -191.643221 
L 372.857143 -144.018142 
L 380.44898 -122.825455 
L 380.44898 -329.007273 
L 380.44898 -329.007273 
L 372.857143 -328.432767 
L 365.265306 -322.044052 
L 357.673469 -316.95228 
L 350.081633 -277.461818 
L 342.489796 -277.461818 
L 334.897959 -277.461818 
L 327.306122 -277.461818 
L 319.714286 -300.979958 
L 312.122449 -299.573596 
L 304.530612 -277.461818 
L 296.938776 -302.349055 
L 289.346939 -300.861993 
L 281.755102 -293.734544 
L 274.163265 -292.875214 
L 266.571429 -292.222572 
L 258.979592 -291.794524 
L 251.387755 -291.36843 
L 243.795918 -291.137143 
L 236.204082 -290.796398 
L 228.612245 -277.461818 
L 221.020408 -277.461818 
L 213.428571 -277.461818 
L 205.836735 -277.461818 
L 198.244898 -277.461818 
L 190.653061 -277.461818 
L 183.061224 -277.461818 
L 175.469388 -277.461818 
L 167.877551 -277.461818 
L 160.285714 -277.461818 
L 152.693878 -277.461818 
L 145.102041 -277.461818 
L 137.510204 -277.461818 
L 129.918367 -277.461818 
L 122.326531 -277.461818 
L 114.734694 -277.461818 
L 107.142857 -277.461818 
L 99.55102 -277.461818 
L 91.959184 -277.461818 
L 84.367347 -277.461818 
L 76.77551 -277.461818 
L 69.183673 -277.461818 
L 61.591837 -277.461818 
L 54 -277.461818 
z
" style="stroke: #0000ff; stroke-opacity: 0.2"/>
    </defs>
    <g clip-path="url(#pa68f7af544)">
     <use xlink:href="#mb0a2212537" x="0" y="648" style="fill: #0000ff; fill-opacity: 0.2; stroke: #0000ff; stroke-opacity: 0.2"/>
    </g>
   </g>
   <g id="matplotlib.axis_3">
    <g id="xtick_10">
     <g id="line2d_31">
      <path d="M 54 576.72 
L 54 349.92 
" clip-path="url(#pa68f7af544)" style="fill: none; stroke: #b0b0b0; stroke-width: 0.8; stroke-linecap: square"/>
     </g>
     <g id="line2d_32">
      <g>
       <use xlink:href="#m91fd3d77c7" x="54" y="576.72" style="stroke: #000000; stroke-width: 0.8"/>
      </g>
     </g>
     <g id="text_20">
      <!-- 0 -->
      <g transform="translate(50.81875 591.318438) scale(0.1 -0.1)">
       <use xlink:href="#DejaVuSans-30"/>
      </g>
     </g>
    </g>
    <g id="xtick_11">
     <g id="line2d_33">
      <path d="M 91.959184 576.72 
L 91.959184 349.92 
" clip-path="url(#pa68f7af544)" style="fill: none; stroke: #b0b0b0; stroke-width: 0.8; stroke-linecap: square"/>
     </g>
     <g id="line2d_34">
      <g>
       <use xlink:href="#m91fd3d77c7" x="91.959184" y="576.72" style="stroke: #000000; stroke-width: 0.8"/>
      </g>
     </g>
     <g id="text_21">
      <!-- 5 -->
      <g transform="translate(88.777934 591.318438) scale(0.1 -0.1)">
       <use xlink:href="#DejaVuSans-35"/>
      </g>
     </g>
    </g>
    <g id="xtick_12">
     <g id="line2d_35">
      <path d="M 129.918367 576.72 
L 129.918367 349.92 
" clip-path="url(#pa68f7af544)" style="fill: none; stroke: #b0b0b0; stroke-width: 0.8; stroke-linecap: square"/>
     </g>
     <g id="line2d_36">
      <g>
       <use xlink:href="#m91fd3d77c7" x="129.918367" y="576.72" style="stroke: #000000; stroke-width: 0.8"/>
      </g>
     </g>
     <g id="text_22">
      <!-- 10 -->
      <g transform="translate(123.555867 591.318438) scale(0.1 -0.1)">
       <use xlink:href="#DejaVuSans-31"/>
       <use xlink:href="#DejaVuSans-30" x="63.623047"/>
      </g>
     </g>
    </g>
    <g id="xtick_13">
     <g id="line2d_37">
      <path d="M 167.877551 576.72 
L 167.877551 349.92 
" clip-path="url(#pa68f7af544)" style="fill: none; stroke: #b0b0b0; stroke-width: 0.8; stroke-linecap: square"/>
     </g>
     <g id="line2d_38">
      <g>
       <use xlink:href="#m91fd3d77c7" x="167.877551" y="576.72" style="stroke: #000000; stroke-width: 0.8"/>
      </g>
     </g>
     <g id="text_23">
      <!-- 15 -->
      <g transform="translate(161.515051 591.318438) scale(0.1 -0.1)">
       <use xlink:href="#DejaVuSans-31"/>
       <use xlink:href="#DejaVuSans-35" x="63.623047"/>
      </g>
     </g>
    </g>
    <g id="xtick_14">
     <g id="line2d_39">
      <path d="M 205.836735 576.72 
L 205.836735 349.92 
" clip-path="url(#pa68f7af544)" style="fill: none; stroke: #b0b0b0; stroke-width: 0.8; stroke-linecap: square"/>
     </g>
     <g id="line2d_40">
      <g>
       <use xlink:href="#m91fd3d77c7" x="205.836735" y="576.72" style="stroke: #000000; stroke-width: 0.8"/>
      </g>
     </g>
     <g id="text_24">
      <!-- 20 -->
      <g transform="translate(199.474235 591.318438) scale(0.1 -0.1)">
       <use xlink:href="#DejaVuSans-32"/>
       <use xlink:href="#DejaVuSans-30" x="63.623047"/>
      </g>
     </g>
    </g>
    <g id="xtick_15">
     <g id="line2d_41">
      <path d="M 243.795918 576.72 
L 243.795918 349.92 
" clip-path="url(#pa68f7af544)" style="fill: none; stroke: #b0b0b0; stroke-width: 0.8; stroke-linecap: square"/>
     </g>
     <g id="line2d_42">
      <g>
       <use xlink:href="#m91fd3d77c7" x="243.795918" y="576.72" style="stroke: #000000; stroke-width: 0.8"/>
      </g>
     </g>
     <g id="text_25">
      <!-- 25 -->
      <g transform="translate(237.433418 591.318438) scale(0.1 -0.1)">
       <use xlink:href="#DejaVuSans-32"/>
       <use xlink:href="#DejaVuSans-35" x="63.623047"/>
      </g>
     </g>
    </g>
    <g id="xtick_16">
     <g id="line2d_43">
      <path d="M 281.755102 576.72 
L 281.755102 349.92 
" clip-path="url(#pa68f7af544)" style="fill: none; stroke: #b0b0b0; stroke-width: 0.8; stroke-linecap: square"/>
     </g>
     <g id="line2d_44">
      <g>
       <use xlink:href="#m91fd3d77c7" x="281.755102" y="576.72" style="stroke: #000000; stroke-width: 0.8"/>
      </g>
     </g>
     <g id="text_26">
      <!-- 30 -->
      <g transform="translate(275.392602 591.318438) scale(0.1 -0.1)">
       <use xlink:href="#DejaVuSans-33"/>
       <use xlink:href="#DejaVuSans-30" x="63.623047"/>
      </g>
     </g>
    </g>
    <g id="xtick_17">
     <g id="line2d_45">
      <path d="M 319.714286 576.72 
L 319.714286 349.92 
" clip-path="url(#pa68f7af544)" style="fill: none; stroke: #b0b0b0; stroke-width: 0.8; stroke-linecap: square"/>
     </g>
     <g id="line2d_46">
      <g>
       <use xlink:href="#m91fd3d77c7" x="319.714286" y="576.72" style="stroke: #000000; stroke-width: 0.8"/>
      </g>
     </g>
     <g id="text_27">
      <!-- 35 -->
      <g transform="translate(313.351786 591.318438) scale(0.1 -0.1)">
       <use xlink:href="#DejaVuSans-33"/>
       <use xlink:href="#DejaVuSans-35" x="63.623047"/>
      </g>
     </g>
    </g>
    <g id="xtick_18">
     <g id="line2d_47">
      <path d="M 357.673469 576.72 
L 357.673469 349.92 
" clip-path="url(#pa68f7af544)" style="fill: none; stroke: #b0b0b0; stroke-width: 0.8; stroke-linecap: square"/>
     </g>
     <g id="line2d_48">
      <g>
       <use xlink:href="#m91fd3d77c7" x="357.673469" y="576.72" style="stroke: #000000; stroke-width: 0.8"/>
      </g>
     </g>
     <g id="text_28">
      <!-- 40 -->
      <g transform="translate(351.310969 591.318438) scale(0.1 -0.1)">
       <use xlink:href="#DejaVuSans-34"/>
       <use xlink:href="#DejaVuSans-30" x="63.623047"/>
      </g>
     </g>
    </g>
    <g id="text_29">
     <!-- Number of Box -->
     <g transform="translate(165.335156 608.795781) scale(0.15 -0.15)">
      <use xlink:href="#DejaVuSans-4e"/>
      <use xlink:href="#DejaVuSans-75" x="74.804688"/>
      <use xlink:href="#DejaVuSans-6d" x="138.183594"/>
      <use xlink:href="#DejaVuSans-62" x="235.595703"/>
      <use xlink:href="#DejaVuSans-65" x="299.072266"/>
      <use xlink:href="#DejaVuSans-72" x="360.595703"/>
      <use xlink:href="#DejaVuSans-20" x="401.708984"/>
      <use xlink:href="#DejaVuSans-6f" x="433.496094"/>
      <use xlink:href="#DejaVuSans-66" x="494.677734"/>
      <use xlink:href="#DejaVuSans-20" x="529.882812"/>
      <use xlink:href="#DejaVuSans-42" x="561.669922"/>
      <use xlink:href="#DejaVuSans-6f" x="630.273438"/>
      <use xlink:href="#DejaVuSans-78" x="688.330078"/>
     </g>
    </g>
   </g>
   <g id="matplotlib.axis_4">
    <g id="ytick_7">
     <g id="line2d_49">
      <path d="M 54 576.72 
L 388.8 576.72 
" clip-path="url(#pa68f7af544)" style="fill: none; stroke: #b0b0b0; stroke-width: 0.8; stroke-linecap: square"/>
     </g>
     <g id="line2d_50">
      <g>
       <use xlink:href="#m6fa0ea1a4b" x="54" y="576.72" style="stroke: #000000; stroke-width: 0.8"/>
      </g>
     </g>
     <g id="text_30">
      <!-- 0.0 -->
      <g transform="translate(31.096875 580.519219) scale(0.1 -0.1)">
       <use xlink:href="#DejaVuSans-30"/>
       <use xlink:href="#DejaVuSans-2e" x="63.623047"/>
       <use xlink:href="#DejaVuSans-30" x="95.410156"/>
      </g>
     </g>
    </g>
    <g id="ytick_8">
     <g id="line2d_51">
      <path d="M 54 535.483636 
L 388.8 535.483636 
" clip-path="url(#pa68f7af544)" style="fill: none; stroke: #b0b0b0; stroke-width: 0.8; stroke-linecap: square"/>
     </g>
     <g id="line2d_52">
      <g>
       <use xlink:href="#m6fa0ea1a4b" x="54" y="535.483636" style="stroke: #000000; stroke-width: 0.8"/>
      </g>
     </g>
     <g id="text_31">
      <!-- 0.2 -->
      <g transform="translate(31.096875 539.282855) scale(0.1 -0.1)">
       <use xlink:href="#DejaVuSans-30"/>
       <use xlink:href="#DejaVuSans-2e" x="63.623047"/>
       <use xlink:href="#DejaVuSans-32" x="95.410156"/>
      </g>
     </g>
    </g>
    <g id="ytick_9">
     <g id="line2d_53">
      <path d="M 54 494.247273 
L 388.8 494.247273 
" clip-path="url(#pa68f7af544)" style="fill: none; stroke: #b0b0b0; stroke-width: 0.8; stroke-linecap: square"/>
     </g>
     <g id="line2d_54">
      <g>
       <use xlink:href="#m6fa0ea1a4b" x="54" y="494.247273" style="stroke: #000000; stroke-width: 0.8"/>
      </g>
     </g>
     <g id="text_32">
      <!-- 0.4 -->
      <g transform="translate(31.096875 498.046491) scale(0.1 -0.1)">
       <use xlink:href="#DejaVuSans-30"/>
       <use xlink:href="#DejaVuSans-2e" x="63.623047"/>
       <use xlink:href="#DejaVuSans-34" x="95.410156"/>
      </g>
     </g>
    </g>
    <g id="ytick_10">
     <g id="line2d_55">
      <path d="M 54 453.010909 
L 388.8 453.010909 
" clip-path="url(#pa68f7af544)" style="fill: none; stroke: #b0b0b0; stroke-width: 0.8; stroke-linecap: square"/>
     </g>
     <g id="line2d_56">
      <g>
       <use xlink:href="#m6fa0ea1a4b" x="54" y="453.010909" style="stroke: #000000; stroke-width: 0.8"/>
      </g>
     </g>
     <g id="text_33">
      <!-- 0.6 -->
      <g transform="translate(31.096875 456.810128) scale(0.1 -0.1)">
       <use xlink:href="#DejaVuSans-30"/>
       <use xlink:href="#DejaVuSans-2e" x="63.623047"/>
       <use xlink:href="#DejaVuSans-36" x="95.410156"/>
      </g>
     </g>
    </g>
    <g id="ytick_11">
     <g id="line2d_57">
      <path d="M 54 411.774545 
L 388.8 411.774545 
" clip-path="url(#pa68f7af544)" style="fill: none; stroke: #b0b0b0; stroke-width: 0.8; stroke-linecap: square"/>
     </g>
     <g id="line2d_58">
      <g>
       <use xlink:href="#m6fa0ea1a4b" x="54" y="411.774545" style="stroke: #000000; stroke-width: 0.8"/>
      </g>
     </g>
     <g id="text_34">
      <!-- 0.8 -->
      <g transform="translate(31.096875 415.573764) scale(0.1 -0.1)">
       <use xlink:href="#DejaVuSans-30"/>
       <use xlink:href="#DejaVuSans-2e" x="63.623047"/>
       <use xlink:href="#DejaVuSans-38" x="95.410156"/>
      </g>
     </g>
    </g>
    <g id="ytick_12">
     <g id="line2d_59">
      <path d="M 54 370.538182 
L 388.8 370.538182 
" clip-path="url(#pa68f7af544)" style="fill: none; stroke: #b0b0b0; stroke-width: 0.8; stroke-linecap: square"/>
     </g>
     <g id="line2d_60">
      <g>
       <use xlink:href="#m6fa0ea1a4b" x="54" y="370.538182" style="stroke: #000000; stroke-width: 0.8"/>
      </g>
     </g>
     <g id="text_35">
      <!-- 1.0 -->
      <g transform="translate(31.096875 374.337401) scale(0.1 -0.1)">
       <use xlink:href="#DejaVuSans-31"/>
       <use xlink:href="#DejaVuSans-2e" x="63.623047"/>
       <use xlink:href="#DejaVuSans-30" x="95.410156"/>
      </g>
     </g>
    </g>
    <g id="text_36">
     <!-- Recall -->
     <g transform="translate(23.977344 485.695781) rotate(-90) scale(0.15 -0.15)">
      <defs>
       <path id="DejaVuSans-52" d="M 2841 2188 
Q 3044 2119 3236 1894 
Q 3428 1669 3622 1275 
L 4263 0 
L 3584 0 
L 2988 1197 
Q 2756 1666 2539 1819 
Q 2322 1972 1947 1972 
L 1259 1972 
L 1259 0 
L 628 0 
L 628 4666 
L 2053 4666 
Q 2853 4666 3247 4331 
Q 3641 3997 3641 3322 
Q 3641 2881 3436 2590 
Q 3231 2300 2841 2188 
z
M 1259 4147 
L 1259 2491 
L 2053 2491 
Q 2509 2491 2742 2702 
Q 2975 2913 2975 3322 
Q 2975 3731 2742 3939 
Q 2509 4147 2053 4147 
L 1259 4147 
z
" transform="scale(0.015625)"/>
       <path id="DejaVuSans-6c" d="M 603 4863 
L 1178 4863 
L 1178 0 
L 603 0 
L 603 4863 
z
" transform="scale(0.015625)"/>
      </defs>
      <use xlink:href="#DejaVuSans-52"/>
      <use xlink:href="#DejaVuSans-65" x="64.982422"/>
      <use xlink:href="#DejaVuSans-63" x="126.505859"/>
      <use xlink:href="#DejaVuSans-61" x="181.486328"/>
      <use xlink:href="#DejaVuSans-6c" x="242.765625"/>
      <use xlink:href="#DejaVuSans-6c" x="270.548828"/>
     </g>
    </g>
   </g>
   <g id="patch_9">
    <path d="M 54 576.72 
L 54 349.92 
" style="fill: none; stroke: #000000; stroke-width: 0.8; stroke-linejoin: miter; stroke-linecap: square"/>
   </g>
   <g id="patch_10">
    <path d="M 388.8 576.72 
L 388.8 349.92 
" style="fill: none; stroke: #000000; stroke-width: 0.8; stroke-linejoin: miter; stroke-linecap: square"/>
   </g>
   <g id="patch_11">
    <path d="M 54 576.72 
L 388.8 576.72 
" style="fill: none; stroke: #000000; stroke-width: 0.8; stroke-linejoin: miter; stroke-linecap: square"/>
   </g>
   <g id="patch_12">
    <path d="M 54 349.92 
L 388.8 349.92 
" style="fill: none; stroke: #000000; stroke-width: 0.8; stroke-linejoin: miter; stroke-linecap: square"/>
   </g>
   <g id="legend_2">
    <g id="patch_13">
     <path d="M 64.5 569.22 
L 148.48125 569.22 
Q 151.48125 569.22 151.48125 566.22 
L 151.48125 523.685625 
Q 151.48125 520.685625 148.48125 520.685625 
L 64.5 520.685625 
Q 61.5 520.685625 61.5 523.685625 
L 61.5 566.22 
Q 61.5 569.22 64.5 569.22 
z
" style="fill: #ffffff; opacity: 0.8; stroke: #cccccc; stroke-linejoin: miter"/>
    </g>
    <g id="PathCollection_7">
     <g>
      <use xlink:href="#m873ea869ce" x="82.5" y="534.145781" style="fill: #ff0000; stroke: #ff0000"/>
     </g>
    </g>
    <g id="text_37">
     <!-- Train -->
     <g transform="translate(109.5 538.083281) scale(0.15 -0.15)">
      <use xlink:href="#DejaVuSans-54"/>
      <use xlink:href="#DejaVuSans-72" x="46.333984"/>
      <use xlink:href="#DejaVuSans-61" x="87.447266"/>
      <use xlink:href="#DejaVuSans-69" x="148.726562"/>
      <use xlink:href="#DejaVuSans-6e" x="176.509766"/>
     </g>
    </g>
    <g id="PathCollection_8">
     <g>
      <use xlink:href="#m52f9c126eb" x="82.5" y="556.162969" style="fill: #0000ff; stroke: #0000ff"/>
     </g>
    </g>
    <g id="text_38">
     <!-- Test -->
     <g transform="translate(109.5 560.100469) scale(0.15 -0.15)">
      <use xlink:href="#DejaVuSans-54"/>
      <use xlink:href="#DejaVuSans-65" x="44.083984"/>
      <use xlink:href="#DejaVuSans-73" x="105.607422"/>
      <use xlink:href="#DejaVuSans-74" x="157.707031"/>
     </g>
    </g>
   </g>
  </g>
 </g>
 <defs>
  <clipPath id="pae0c957c65">
   <rect x="54" y="77.76" width="334.8" height="226.8"/>
  </clipPath>
  <clipPath id="pa68f7af544">
   <rect x="54" y="349.92" width="334.8" height="226.8"/>
  </clipPath>
 </defs>
</svg>
