<?xml version="1.0" encoding="utf-8" standalone="no"?>
<!DOCTYPE svg PUBLIC "-//W3C//DTD SVG 1.1//EN"
  "http://www.w3.org/Graphics/SVG/1.1/DTD/svg11.dtd">
<svg xmlns:xlink="http://www.w3.org/1999/xlink" width="432pt" height="648pt" viewBox="0 0 432 648" xmlns="http://www.w3.org/2000/svg" version="1.1">
 <metadata>
  <rdf:RDF xmlns:dc="http://purl.org/dc/elements/1.1/" xmlns:cc="http://creativecommons.org/ns#" xmlns:rdf="http://www.w3.org/1999/02/22-rdf-syntax-ns#">
   <cc:Work>
    <dc:type rdf:resource="http://purl.org/dc/dcmitype/StillImage"/>
    <dc:date>2024-01-02T11:17:30.151300</dc:date>
    <dc:format>image/svg+xml</dc:format>
    <dc:creator>
     <cc:Agent>
      <dc:title>Matplotlib v3.8.0, https://matplotlib.org/</dc:title>
     </cc:Agent>
    </dc:creator>
   </cc:Work>
  </rdf:RDF>
 </metadata>
 <defs>
  <style type="text/css">*{stroke-linejoin: round; stroke-linecap: butt}</style>
 </defs>
 <g id="figure_1">
  <g id="patch_1">
   <path d="M 0 648 
L 432 648 
L 432 0 
L 0 0 
z
" style="fill: #ffffff"/>
  </g>
  <g id="axes_1">
   <g id="patch_2">
    <path d="M 54 304.56 
L 388.8 304.56 
L 388.8 77.76 
L 54 77.76 
z
" style="fill: #ffffff"/>
   </g>
   <g id="PathCollection_1">
    <defs>
     <path id="ma2ec32f332" d="M 0 3 
C 0.795609 3 1.55874 2.683901 2.12132 2.12132 
C 2.683901 1.55874 3 0.795609 3 0 
C 3 -0.795609 2.683901 -1.55874 2.12132 -2.12132 
C 1.55874 -2.683901 0.795609 -3 0 -3 
C -0.795609 -3 -1.55874 -2.683901 -2.12132 -2.12132 
C -2.683901 -1.55874 -3 -0.795609 -3 0 
C -3 0.795609 -2.683901 1.55874 -2.12132 2.12132 
C -1.55874 2.683901 -0.795609 3 0 3 
z
" style="stroke: #ff0000"/>
    </defs>
    <g clip-path="url(#p4bf4db966d)">
     <use xlink:href="#ma2ec32f332" x="54" y="260.675494" style="fill: #ff0000; stroke: #ff0000"/>
     <use xlink:href="#ma2ec32f332" x="63.274238" y="259.156132" style="fill: #ff0000; stroke: #ff0000"/>
     <use xlink:href="#ma2ec32f332" x="72.548476" y="257.551215" style="fill: #ff0000; stroke: #ff0000"/>
     <use xlink:href="#ma2ec32f332" x="81.822715" y="255.900568" style="fill: #ff0000; stroke: #ff0000"/>
     <use xlink:href="#ma2ec32f332" x="91.096953" y="254.239988" style="fill: #ff0000; stroke: #ff0000"/>
     <use xlink:href="#ma2ec32f332" x="100.371191" y="252.56418" style="fill: #ff0000; stroke: #ff0000"/>
     <use xlink:href="#ma2ec32f332" x="109.645429" y="250.850712" style="fill: #ff0000; stroke: #ff0000"/>
     <use xlink:href="#ma2ec32f332" x="118.919668" y="249.067694" style="fill: #ff0000; stroke: #ff0000"/>
     <use xlink:href="#ma2ec32f332" x="128.193906" y="247.224385" style="fill: #ff0000; stroke: #ff0000"/>
     <use xlink:href="#ma2ec32f332" x="137.468144" y="245.321826" style="fill: #ff0000; stroke: #ff0000"/>
     <use xlink:href="#ma2ec32f332" x="146.742382" y="243.388841" style="fill: #ff0000; stroke: #ff0000"/>
     <use xlink:href="#ma2ec32f332" x="156.01662" y="241.392378" style="fill: #ff0000; stroke: #ff0000"/>
     <use xlink:href="#ma2ec32f332" x="165.290859" y="239.305568" style="fill: #ff0000; stroke: #ff0000"/>
     <use xlink:href="#ma2ec32f332" x="174.565097" y="237.132424" style="fill: #ff0000; stroke: #ff0000"/>
     <use xlink:href="#ma2ec32f332" x="183.839335" y="234.889561" style="fill: #ff0000; stroke: #ff0000"/>
     <use xlink:href="#ma2ec32f332" x="193.113573" y="232.618485" style="fill: #ff0000; stroke: #ff0000"/>
     <use xlink:href="#ma2ec32f332" x="202.387812" y="230.246594" style="fill: #ff0000; stroke: #ff0000"/>
     <use xlink:href="#ma2ec32f332" x="211.66205" y="227.927465" style="fill: #ff0000; stroke: #ff0000"/>
     <use xlink:href="#ma2ec32f332" x="220.936288" y="225.422618" style="fill: #ff0000; stroke: #ff0000"/>
     <use xlink:href="#ma2ec32f332" x="230.210526" y="222.81559" style="fill: #ff0000; stroke: #ff0000"/>
     <use xlink:href="#ma2ec32f332" x="239.484765" y="220.415445" style="fill: #ff0000; stroke: #ff0000"/>
     <use xlink:href="#ma2ec32f332" x="248.759003" y="217.842267" style="fill: #ff0000; stroke: #ff0000"/>
     <use xlink:href="#ma2ec32f332" x="258.033241" y="215.018974" style="fill: #ff0000; stroke: #ff0000"/>
     <use xlink:href="#ma2ec32f332" x="267.307479" y="212.213086" style="fill: #ff0000; stroke: #ff0000"/>
     <use xlink:href="#ma2ec32f332" x="276.581717" y="209.359796" style="fill: #ff0000; stroke: #ff0000"/>
     <use xlink:href="#ma2ec32f332" x="285.855956" y="206.535188" style="fill: #ff0000; stroke: #ff0000"/>
     <use xlink:href="#ma2ec32f332" x="295.130194" y="203.813866" style="fill: #ff0000; stroke: #ff0000"/>
     <use xlink:href="#ma2ec32f332" x="304.404432" y="200.875623" style="fill: #ff0000; stroke: #ff0000"/>
     <use xlink:href="#ma2ec32f332" x="313.67867" y="198.205618" style="fill: #ff0000; stroke: #ff0000"/>
     <use xlink:href="#ma2ec32f332" x="322.952909" y="196.213665" style="fill: #ff0000; stroke: #ff0000"/>
     <use xlink:href="#ma2ec32f332" x="332.227147" y="193.659081" style="fill: #ff0000; stroke: #ff0000"/>
     <use xlink:href="#ma2ec32f332" x="341.501385" y="190.229267" style="fill: #ff0000; stroke: #ff0000"/>
     <use xlink:href="#ma2ec32f332" x="350.775623" y="186.448091" style="fill: #ff0000; stroke: #ff0000"/>
     <use xlink:href="#ma2ec32f332" x="360.049861" y="182.737931" style="fill: #ff0000; stroke: #ff0000"/>
     <use xlink:href="#ma2ec32f332" x="369.3241" y="173.768916" style="fill: #ff0000; stroke: #ff0000"/>
     <use xlink:href="#ma2ec32f332" x="378.598338" y="173.395227" style="fill: #ff0000; stroke: #ff0000"/>
    </g>
   </g>
   <g id="PathCollection_2">
    <defs>
     <path id="mfa985d4f88" d="M 0 3 
C 0.795609 3 1.55874 2.683901 2.12132 2.12132 
C 2.683901 1.55874 3 0.795609 3 0 
C 3 -0.795609 2.683901 -1.55874 2.12132 -2.12132 
C 1.55874 -2.683901 0.795609 -3 0 -3 
C -0.795609 -3 -1.55874 -2.683901 -2.12132 -2.12132 
C -2.683901 -1.55874 -3 -0.795609 -3 0 
C -3 0.795609 -2.683901 1.55874 -2.12132 2.12132 
C -1.55874 2.683901 -0.795609 3 0 3 
z
" style="stroke: #0000ff"/>
    </defs>
    <g clip-path="url(#p4bf4db966d)">
     <use xlink:href="#mfa985d4f88" x="54" y="241.581198" style="fill: #0000ff; stroke: #0000ff"/>
     <use xlink:href="#mfa985d4f88" x="63.274238" y="239.816164" style="fill: #0000ff; stroke: #0000ff"/>
     <use xlink:href="#mfa985d4f88" x="72.548476" y="238.07653" style="fill: #0000ff; stroke: #0000ff"/>
     <use xlink:href="#mfa985d4f88" x="81.822715" y="236.32107" style="fill: #0000ff; stroke: #0000ff"/>
     <use xlink:href="#mfa985d4f88" x="91.096953" y="234.639606" style="fill: #0000ff; stroke: #0000ff"/>
     <use xlink:href="#mfa985d4f88" x="100.371191" y="232.927879" style="fill: #0000ff; stroke: #0000ff"/>
     <use xlink:href="#mfa985d4f88" x="109.645429" y="231.354462" style="fill: #0000ff; stroke: #0000ff"/>
     <use xlink:href="#mfa985d4f88" x="118.919668" y="229.589257" style="fill: #0000ff; stroke: #0000ff"/>
     <use xlink:href="#mfa985d4f88" x="128.193906" y="228.045932" style="fill: #0000ff; stroke: #0000ff"/>
     <use xlink:href="#mfa985d4f88" x="137.468144" y="226.285286" style="fill: #0000ff; stroke: #0000ff"/>
     <use xlink:href="#mfa985d4f88" x="146.742382" y="224.57814" style="fill: #0000ff; stroke: #0000ff"/>
     <use xlink:href="#mfa985d4f88" x="156.01662" y="222.670843" style="fill: #0000ff; stroke: #0000ff"/>
     <use xlink:href="#mfa985d4f88" x="165.290859" y="221.008347" style="fill: #0000ff; stroke: #0000ff"/>
     <use xlink:href="#mfa985d4f88" x="174.565097" y="219.019664" style="fill: #0000ff; stroke: #0000ff"/>
     <use xlink:href="#mfa985d4f88" x="183.839335" y="217.113589" style="fill: #0000ff; stroke: #0000ff"/>
     <use xlink:href="#mfa985d4f88" x="193.113573" y="215.123255" style="fill: #0000ff; stroke: #0000ff"/>
     <use xlink:href="#mfa985d4f88" x="202.387812" y="213.117564" style="fill: #0000ff; stroke: #0000ff"/>
     <use xlink:href="#mfa985d4f88" x="211.66205" y="211.518356" style="fill: #0000ff; stroke: #0000ff"/>
     <use xlink:href="#mfa985d4f88" x="220.936288" y="209.46035" style="fill: #0000ff; stroke: #0000ff"/>
     <use xlink:href="#mfa985d4f88" x="230.210526" y="207.760448" style="fill: #0000ff; stroke: #0000ff"/>
     <use xlink:href="#mfa985d4f88" x="239.484765" y="205.707509" style="fill: #0000ff; stroke: #0000ff"/>
     <use xlink:href="#mfa985d4f88" x="248.759003" y="203.335101" style="fill: #0000ff; stroke: #0000ff"/>
     <use xlink:href="#mfa985d4f88" x="258.033241" y="201.448253" style="fill: #0000ff; stroke: #0000ff"/>
     <use xlink:href="#mfa985d4f88" x="267.307479" y="199.911814" style="fill: #0000ff; stroke: #0000ff"/>
     <use xlink:href="#mfa985d4f88" x="276.581717" y="196.623993" style="fill: #0000ff; stroke: #0000ff"/>
     <use xlink:href="#mfa985d4f88" x="285.855956" y="196.055135" style="fill: #0000ff; stroke: #0000ff"/>
     <use xlink:href="#mfa985d4f88" x="295.130194" y="193.947763" style="fill: #0000ff; stroke: #0000ff"/>
     <use xlink:href="#mfa985d4f88" x="304.404432" y="193.312629" style="fill: #0000ff; stroke: #0000ff"/>
     <use xlink:href="#mfa985d4f88" x="313.67867" y="191.046261" style="fill: #0000ff; stroke: #0000ff"/>
     <use xlink:href="#mfa985d4f88" x="322.952909" y="189.757392" style="fill: #0000ff; stroke: #0000ff"/>
     <use xlink:href="#mfa985d4f88" x="332.227147" y="190.635513" style="fill: #0000ff; stroke: #0000ff"/>
     <use xlink:href="#mfa985d4f88" x="341.501385" y="186.027696" style="fill: #0000ff; stroke: #0000ff"/>
     <use xlink:href="#mfa985d4f88" x="350.775623" y="185.546111" style="fill: #0000ff; stroke: #0000ff"/>
     <use xlink:href="#mfa985d4f88" x="360.049861" y="185.223864" style="fill: #0000ff; stroke: #0000ff"/>
     <use xlink:href="#mfa985d4f88" x="369.3241" y="185.249371" style="fill: #0000ff; stroke: #0000ff"/>
     <use xlink:href="#mfa985d4f88" x="378.598338" y="173.353388" style="fill: #0000ff; stroke: #0000ff"/>
    </g>
   </g>
   <g id="PolyCollection_1">
    <defs>
     <path id="mc50d89d007" d="M 54 -389.22482 
L 54 -385.424192 
L 63.274238 -386.830424 
L 72.548476 -388.277815 
L 81.822715 -389.824074 
L 91.096953 -391.37329 
L 100.371191 -392.927698 
L 109.645429 -394.533366 
L 118.919668 -396.181277 
L 128.193906 -397.933846 
L 137.468144 -399.706742 
L 146.742382 -401.51817 
L 156.01662 -403.379643 
L 165.290859 -405.302897 
L 174.565097 -407.326058 
L 183.839335 -409.405214 
L 193.113573 -411.437727 
L 202.387812 -413.749673 
L 211.66205 -415.98299 
L 220.936288 -418.289452 
L 230.210526 -420.736058 
L 239.484765 -423.208383 
L 248.759003 -425.505437 
L 258.033241 -428.395747 
L 267.307479 -430.783584 
L 276.581717 -433.565153 
L 285.855956 -435.995386 
L 295.130194 -438.240554 
L 304.404432 -441.194245 
L 313.67867 -443.753186 
L 322.952909 -445.181871 
L 332.227147 -446.837955 
L 341.501385 -449.921984 
L 350.775623 -453.181206 
L 360.049861 -455.44033 
L 369.3241 -469.947649 
L 378.598338 -474.604773 
L 378.598338 -474.604773 
L 378.598338 -474.604773 
L 369.3241 -478.514519 
L 360.049861 -475.083809 
L 350.775623 -469.922612 
L 341.501385 -465.619482 
L 332.227147 -461.843884 
L 322.952909 -458.3908 
L 313.67867 -455.835579 
L 304.404432 -453.054509 
L 295.130194 -450.131713 
L 285.855956 -446.934238 
L 276.581717 -443.715254 
L 267.307479 -440.790245 
L 258.033241 -437.566304 
L 248.759003 -434.81003 
L 239.484765 -431.960727 
L 230.210526 -429.632762 
L 220.936288 -426.865313 
L 211.66205 -424.162081 
L 202.387812 -421.757138 
L 193.113573 -419.325302 
L 183.839335 -416.815665 
L 174.565097 -414.409094 
L 165.290859 -412.085967 
L 156.01662 -409.8356 
L 146.742382 -407.704149 
L 137.468144 -405.649606 
L 128.193906 -403.617384 
L 118.919668 -401.683335 
L 109.645429 -399.765211 
L 100.371191 -397.943943 
L 91.096953 -396.146734 
L 81.822715 -394.37479 
L 72.548476 -392.619755 
L 63.274238 -390.857313 
L 54 -389.22482 
z
" style="stroke: #ff0000; stroke-opacity: 0.2"/>
    </defs>
    <g clip-path="url(#p4bf4db966d)">
     <use xlink:href="#mc50d89d007" x="0" y="648" style="fill: #ff0000; fill-opacity: 0.2; stroke: #ff0000; stroke-opacity: 0.2"/>
    </g>
   </g>
   <g id="PolyCollection_2">
    <defs>
     <path id="m45a845708d" d="M 54 -411.41168 
L 54 -401.425923 
L 63.274238 -402.977022 
L 72.548476 -404.437778 
L 81.822715 -405.970754 
L 91.096953 -407.306095 
L 100.371191 -408.782542 
L 109.645429 -410.18309 
L 118.919668 -411.765416 
L 128.193906 -413.066239 
L 137.468144 -414.669043 
L 146.742382 -416.17065 
L 156.01662 -417.948267 
L 165.290859 -419.370423 
L 174.565097 -421.05832 
L 183.839335 -422.797922 
L 193.113573 -424.952966 
L 202.387812 -426.637245 
L 211.66205 -427.732967 
L 220.936288 -429.817673 
L 230.210526 -431.40921 
L 239.484765 -432.963667 
L 248.759003 -434.835475 
L 258.033241 -436.426659 
L 267.307479 -438.328473 
L 276.581717 -441.918915 
L 285.855956 -441.882297 
L 295.130194 -443.253759 
L 304.404432 -444.118158 
L 313.67867 -446.542843 
L 322.952909 -448.17478 
L 332.227147 -447.666031 
L 341.501385 -452.453162 
L 350.775623 -451.299176 
L 360.049861 -451.011053 
L 369.3241 -448.06489 
L 378.598338 -474.646612 
L 378.598338 -474.646612 
L 378.598338 -474.646612 
L 369.3241 -477.436368 
L 360.049861 -474.541219 
L 350.775623 -473.608602 
L 341.501385 -471.491445 
L 332.227147 -467.062943 
L 322.952909 -468.310437 
L 313.67867 -467.364635 
L 304.404432 -465.256585 
L 295.130194 -464.850716 
L 285.855956 -462.007433 
L 276.581717 -460.833099 
L 267.307479 -457.8479 
L 258.033241 -456.676836 
L 248.759003 -454.494322 
L 239.484765 -451.621316 
L 230.210526 -449.069894 
L 220.936288 -447.261627 
L 211.66205 -445.230321 
L 202.387812 -443.127628 
L 193.113573 -440.800523 
L 183.839335 -438.9749 
L 174.565097 -436.902352 
L 165.290859 -434.612882 
L 156.01662 -432.710048 
L 146.742382 -430.673071 
L 137.468144 -428.760385 
L 128.193906 -426.841896 
L 118.919668 -425.056069 
L 109.645429 -423.107985 
L 100.371191 -421.361699 
L 91.096953 -419.414693 
L 81.822715 -417.387106 
L 72.548476 -415.409162 
L 63.274238 -413.39065 
L 54 -411.41168 
z
" style="stroke: #0000ff; stroke-opacity: 0.2"/>
    </defs>
    <g clip-path="url(#p4bf4db966d)">
     <use xlink:href="#m45a845708d" x="0" y="648" style="fill: #0000ff; fill-opacity: 0.2; stroke: #0000ff; stroke-opacity: 0.2"/>
    </g>
   </g>
   <g id="matplotlib.axis_1">
    <g id="xtick_1">
     <g id="line2d_1">
      <path d="M 54 304.56 
L 54 77.76 
" clip-path="url(#p4bf4db966d)" style="fill: none; stroke: #b0b0b0; stroke-width: 0.8; stroke-linecap: square"/>
     </g>
     <g id="line2d_2">
      <defs>
       <path id="me169f3a2d9" d="M 0 0 
L 0 3.5 
" style="stroke: #000000; stroke-width: 0.8"/>
      </defs>
      <g>
       <use xlink:href="#me169f3a2d9" x="54" y="304.56" style="stroke: #000000; stroke-width: 0.8"/>
      </g>
     </g>
     <g id="text_1">
      <!-- 0 -->
      <g transform="translate(50.81875 319.158437) scale(0.1 -0.1)">
       <defs>
        <path id="DejaVuSans-30" d="M 2034 4250 
Q 1547 4250 1301 3770 
Q 1056 3291 1056 2328 
Q 1056 1369 1301 889 
Q 1547 409 2034 409 
Q 2525 409 2770 889 
Q 3016 1369 3016 2328 
Q 3016 3291 2770 3770 
Q 2525 4250 2034 4250 
z
M 2034 4750 
Q 2819 4750 3233 4129 
Q 3647 3509 3647 2328 
Q 3647 1150 3233 529 
Q 2819 -91 2034 -91 
Q 1250 -91 836 529 
Q 422 1150 422 2328 
Q 422 3509 836 4129 
Q 1250 4750 2034 4750 
z
" transform="scale(0.015625)"/>
       </defs>
       <use xlink:href="#DejaVuSans-30"/>
      </g>
     </g>
    </g>
    <g id="xtick_2">
     <g id="line2d_3">
      <path d="M 100.371191 304.56 
L 100.371191 77.76 
" clip-path="url(#p4bf4db966d)" style="fill: none; stroke: #b0b0b0; stroke-width: 0.8; stroke-linecap: square"/>
     </g>
     <g id="line2d_4">
      <g>
       <use xlink:href="#me169f3a2d9" x="100.371191" y="304.56" style="stroke: #000000; stroke-width: 0.8"/>
      </g>
     </g>
     <g id="text_2">
      <!-- 5 -->
      <g transform="translate(97.189941 319.158437) scale(0.1 -0.1)">
       <defs>
        <path id="DejaVuSans-35" d="M 691 4666 
L 3169 4666 
L 3169 4134 
L 1269 4134 
L 1269 2991 
Q 1406 3038 1543 3061 
Q 1681 3084 1819 3084 
Q 2600 3084 3056 2656 
Q 3513 2228 3513 1497 
Q 3513 744 3044 326 
Q 2575 -91 1722 -91 
Q 1428 -91 1123 -41 
Q 819 9 494 109 
L 494 744 
Q 775 591 1075 516 
Q 1375 441 1709 441 
Q 2250 441 2565 725 
Q 2881 1009 2881 1497 
Q 2881 1984 2565 2268 
Q 2250 2553 1709 2553 
Q 1456 2553 1204 2497 
Q 953 2441 691 2322 
L 691 4666 
z
" transform="scale(0.015625)"/>
       </defs>
       <use xlink:href="#DejaVuSans-35"/>
      </g>
     </g>
    </g>
    <g id="xtick_3">
     <g id="line2d_5">
      <path d="M 146.742382 304.56 
L 146.742382 77.76 
" clip-path="url(#p4bf4db966d)" style="fill: none; stroke: #b0b0b0; stroke-width: 0.8; stroke-linecap: square"/>
     </g>
     <g id="line2d_6">
      <g>
       <use xlink:href="#me169f3a2d9" x="146.742382" y="304.56" style="stroke: #000000; stroke-width: 0.8"/>
      </g>
     </g>
     <g id="text_3">
      <!-- 10 -->
      <g transform="translate(140.379882 319.158437) scale(0.1 -0.1)">
       <defs>
        <path id="DejaVuSans-31" d="M 794 531 
L 1825 531 
L 1825 4091 
L 703 3866 
L 703 4441 
L 1819 4666 
L 2450 4666 
L 2450 531 
L 3481 531 
L 3481 0 
L 794 0 
L 794 531 
z
" transform="scale(0.015625)"/>
       </defs>
       <use xlink:href="#DejaVuSans-31"/>
       <use xlink:href="#DejaVuSans-30" x="63.623047"/>
      </g>
     </g>
    </g>
    <g id="xtick_4">
     <g id="line2d_7">
      <path d="M 193.113573 304.56 
L 193.113573 77.76 
" clip-path="url(#p4bf4db966d)" style="fill: none; stroke: #b0b0b0; stroke-width: 0.8; stroke-linecap: square"/>
     </g>
     <g id="line2d_8">
      <g>
       <use xlink:href="#me169f3a2d9" x="193.113573" y="304.56" style="stroke: #000000; stroke-width: 0.8"/>
      </g>
     </g>
     <g id="text_4">
      <!-- 15 -->
      <g transform="translate(186.751073 319.158437) scale(0.1 -0.1)">
       <use xlink:href="#DejaVuSans-31"/>
       <use xlink:href="#DejaVuSans-35" x="63.623047"/>
      </g>
     </g>
    </g>
    <g id="xtick_5">
     <g id="line2d_9">
      <path d="M 239.484765 304.56 
L 239.484765 77.76 
" clip-path="url(#p4bf4db966d)" style="fill: none; stroke: #b0b0b0; stroke-width: 0.8; stroke-linecap: square"/>
     </g>
     <g id="line2d_10">
      <g>
       <use xlink:href="#me169f3a2d9" x="239.484765" y="304.56" style="stroke: #000000; stroke-width: 0.8"/>
      </g>
     </g>
     <g id="text_5">
      <!-- 20 -->
      <g transform="translate(233.122265 319.158437) scale(0.1 -0.1)">
       <defs>
        <path id="DejaVuSans-32" d="M 1228 531 
L 3431 531 
L 3431 0 
L 469 0 
L 469 531 
Q 828 903 1448 1529 
Q 2069 2156 2228 2338 
Q 2531 2678 2651 2914 
Q 2772 3150 2772 3378 
Q 2772 3750 2511 3984 
Q 2250 4219 1831 4219 
Q 1534 4219 1204 4116 
Q 875 4013 500 3803 
L 500 4441 
Q 881 4594 1212 4672 
Q 1544 4750 1819 4750 
Q 2544 4750 2975 4387 
Q 3406 4025 3406 3419 
Q 3406 3131 3298 2873 
Q 3191 2616 2906 2266 
Q 2828 2175 2409 1742 
Q 1991 1309 1228 531 
z
" transform="scale(0.015625)"/>
       </defs>
       <use xlink:href="#DejaVuSans-32"/>
       <use xlink:href="#DejaVuSans-30" x="63.623047"/>
      </g>
     </g>
    </g>
    <g id="xtick_6">
     <g id="line2d_11">
      <path d="M 285.855956 304.56 
L 285.855956 77.76 
" clip-path="url(#p4bf4db966d)" style="fill: none; stroke: #b0b0b0; stroke-width: 0.8; stroke-linecap: square"/>
     </g>
     <g id="line2d_12">
      <g>
       <use xlink:href="#me169f3a2d9" x="285.855956" y="304.56" style="stroke: #000000; stroke-width: 0.8"/>
      </g>
     </g>
     <g id="text_6">
      <!-- 25 -->
      <g transform="translate(279.493456 319.158437) scale(0.1 -0.1)">
       <use xlink:href="#DejaVuSans-32"/>
       <use xlink:href="#DejaVuSans-35" x="63.623047"/>
      </g>
     </g>
    </g>
    <g id="xtick_7">
     <g id="line2d_13">
      <path d="M 332.227147 304.56 
L 332.227147 77.76 
" clip-path="url(#p4bf4db966d)" style="fill: none; stroke: #b0b0b0; stroke-width: 0.8; stroke-linecap: square"/>
     </g>
     <g id="line2d_14">
      <g>
       <use xlink:href="#me169f3a2d9" x="332.227147" y="304.56" style="stroke: #000000; stroke-width: 0.8"/>
      </g>
     </g>
     <g id="text_7">
      <!-- 30 -->
      <g transform="translate(325.864647 319.158437) scale(0.1 -0.1)">
       <defs>
        <path id="DejaVuSans-33" d="M 2597 2516 
Q 3050 2419 3304 2112 
Q 3559 1806 3559 1356 
Q 3559 666 3084 287 
Q 2609 -91 1734 -91 
Q 1441 -91 1130 -33 
Q 819 25 488 141 
L 488 750 
Q 750 597 1062 519 
Q 1375 441 1716 441 
Q 2309 441 2620 675 
Q 2931 909 2931 1356 
Q 2931 1769 2642 2001 
Q 2353 2234 1838 2234 
L 1294 2234 
L 1294 2753 
L 1863 2753 
Q 2328 2753 2575 2939 
Q 2822 3125 2822 3475 
Q 2822 3834 2567 4026 
Q 2313 4219 1838 4219 
Q 1578 4219 1281 4162 
Q 984 4106 628 3988 
L 628 4550 
Q 988 4650 1302 4700 
Q 1616 4750 1894 4750 
Q 2613 4750 3031 4423 
Q 3450 4097 3450 3541 
Q 3450 3153 3228 2886 
Q 3006 2619 2597 2516 
z
" transform="scale(0.015625)"/>
       </defs>
       <use xlink:href="#DejaVuSans-33"/>
       <use xlink:href="#DejaVuSans-30" x="63.623047"/>
      </g>
     </g>
    </g>
    <g id="xtick_8">
     <g id="line2d_15">
      <path d="M 378.598338 304.56 
L 378.598338 77.76 
" clip-path="url(#p4bf4db966d)" style="fill: none; stroke: #b0b0b0; stroke-width: 0.8; stroke-linecap: square"/>
     </g>
     <g id="line2d_16">
      <g>
       <use xlink:href="#me169f3a2d9" x="378.598338" y="304.56" style="stroke: #000000; stroke-width: 0.8"/>
      </g>
     </g>
     <g id="text_8">
      <!-- 35 -->
      <g transform="translate(372.235838 319.158437) scale(0.1 -0.1)">
       <use xlink:href="#DejaVuSans-33"/>
       <use xlink:href="#DejaVuSans-35" x="63.623047"/>
      </g>
     </g>
    </g>
    <g id="text_9">
     <!-- Number of Box -->
     <g transform="translate(165.335156 336.635781) scale(0.15 -0.15)">
      <defs>
       <path id="DejaVuSans-4e" d="M 628 4666 
L 1478 4666 
L 3547 763 
L 3547 4666 
L 4159 4666 
L 4159 0 
L 3309 0 
L 1241 3903 
L 1241 0 
L 628 0 
L 628 4666 
z
" transform="scale(0.015625)"/>
       <path id="DejaVuSans-75" d="M 544 1381 
L 544 3500 
L 1119 3500 
L 1119 1403 
Q 1119 906 1312 657 
Q 1506 409 1894 409 
Q 2359 409 2629 706 
Q 2900 1003 2900 1516 
L 2900 3500 
L 3475 3500 
L 3475 0 
L 2900 0 
L 2900 538 
Q 2691 219 2414 64 
Q 2138 -91 1772 -91 
Q 1169 -91 856 284 
Q 544 659 544 1381 
z
M 1991 3584 
L 1991 3584 
z
" transform="scale(0.015625)"/>
       <path id="DejaVuSans-6d" d="M 3328 2828 
Q 3544 3216 3844 3400 
Q 4144 3584 4550 3584 
Q 5097 3584 5394 3201 
Q 5691 2819 5691 2113 
L 5691 0 
L 5113 0 
L 5113 2094 
Q 5113 2597 4934 2840 
Q 4756 3084 4391 3084 
Q 3944 3084 3684 2787 
Q 3425 2491 3425 1978 
L 3425 0 
L 2847 0 
L 2847 2094 
Q 2847 2600 2669 2842 
Q 2491 3084 2119 3084 
Q 1678 3084 1418 2786 
Q 1159 2488 1159 1978 
L 1159 0 
L 581 0 
L 581 3500 
L 1159 3500 
L 1159 2956 
Q 1356 3278 1631 3431 
Q 1906 3584 2284 3584 
Q 2666 3584 2933 3390 
Q 3200 3197 3328 2828 
z
" transform="scale(0.015625)"/>
       <path id="DejaVuSans-62" d="M 3116 1747 
Q 3116 2381 2855 2742 
Q 2594 3103 2138 3103 
Q 1681 3103 1420 2742 
Q 1159 2381 1159 1747 
Q 1159 1113 1420 752 
Q 1681 391 2138 391 
Q 2594 391 2855 752 
Q 3116 1113 3116 1747 
z
M 1159 2969 
Q 1341 3281 1617 3432 
Q 1894 3584 2278 3584 
Q 2916 3584 3314 3078 
Q 3713 2572 3713 1747 
Q 3713 922 3314 415 
Q 2916 -91 2278 -91 
Q 1894 -91 1617 61 
Q 1341 213 1159 525 
L 1159 0 
L 581 0 
L 581 4863 
L 1159 4863 
L 1159 2969 
z
" transform="scale(0.015625)"/>
       <path id="DejaVuSans-65" d="M 3597 1894 
L 3597 1613 
L 953 1613 
Q 991 1019 1311 708 
Q 1631 397 2203 397 
Q 2534 397 2845 478 
Q 3156 559 3463 722 
L 3463 178 
Q 3153 47 2828 -22 
Q 2503 -91 2169 -91 
Q 1331 -91 842 396 
Q 353 884 353 1716 
Q 353 2575 817 3079 
Q 1281 3584 2069 3584 
Q 2775 3584 3186 3129 
Q 3597 2675 3597 1894 
z
M 3022 2063 
Q 3016 2534 2758 2815 
Q 2500 3097 2075 3097 
Q 1594 3097 1305 2825 
Q 1016 2553 972 2059 
L 3022 2063 
z
" transform="scale(0.015625)"/>
       <path id="DejaVuSans-72" d="M 2631 2963 
Q 2534 3019 2420 3045 
Q 2306 3072 2169 3072 
Q 1681 3072 1420 2755 
Q 1159 2438 1159 1844 
L 1159 0 
L 581 0 
L 581 3500 
L 1159 3500 
L 1159 2956 
Q 1341 3275 1631 3429 
Q 1922 3584 2338 3584 
Q 2397 3584 2469 3576 
Q 2541 3569 2628 3553 
L 2631 2963 
z
" transform="scale(0.015625)"/>
       <path id="DejaVuSans-20" transform="scale(0.015625)"/>
       <path id="DejaVuSans-6f" d="M 1959 3097 
Q 1497 3097 1228 2736 
Q 959 2375 959 1747 
Q 959 1119 1226 758 
Q 1494 397 1959 397 
Q 2419 397 2687 759 
Q 2956 1122 2956 1747 
Q 2956 2369 2687 2733 
Q 2419 3097 1959 3097 
z
M 1959 3584 
Q 2709 3584 3137 3096 
Q 3566 2609 3566 1747 
Q 3566 888 3137 398 
Q 2709 -91 1959 -91 
Q 1206 -91 779 398 
Q 353 888 353 1747 
Q 353 2609 779 3096 
Q 1206 3584 1959 3584 
z
" transform="scale(0.015625)"/>
       <path id="DejaVuSans-66" d="M 2375 4863 
L 2375 4384 
L 1825 4384 
Q 1516 4384 1395 4259 
Q 1275 4134 1275 3809 
L 1275 3500 
L 2222 3500 
L 2222 3053 
L 1275 3053 
L 1275 0 
L 697 0 
L 697 3053 
L 147 3053 
L 147 3500 
L 697 3500 
L 697 3744 
Q 697 4328 969 4595 
Q 1241 4863 1831 4863 
L 2375 4863 
z
" transform="scale(0.015625)"/>
       <path id="DejaVuSans-42" d="M 1259 2228 
L 1259 519 
L 2272 519 
Q 2781 519 3026 730 
Q 3272 941 3272 1375 
Q 3272 1813 3026 2020 
Q 2781 2228 2272 2228 
L 1259 2228 
z
M 1259 4147 
L 1259 2741 
L 2194 2741 
Q 2656 2741 2882 2914 
Q 3109 3088 3109 3444 
Q 3109 3797 2882 3972 
Q 2656 4147 2194 4147 
L 1259 4147 
z
M 628 4666 
L 2241 4666 
Q 2963 4666 3353 4366 
Q 3744 4066 3744 3513 
Q 3744 3084 3544 2831 
Q 3344 2578 2956 2516 
Q 3422 2416 3680 2098 
Q 3938 1781 3938 1306 
Q 3938 681 3513 340 
Q 3088 0 2303 0 
L 628 0 
L 628 4666 
z
" transform="scale(0.015625)"/>
       <path id="DejaVuSans-78" d="M 3513 3500 
L 2247 1797 
L 3578 0 
L 2900 0 
L 1881 1375 
L 863 0 
L 184 0 
L 1544 1831 
L 300 3500 
L 978 3500 
L 1906 2253 
L 2834 3500 
L 3513 3500 
z
" transform="scale(0.015625)"/>
      </defs>
      <use xlink:href="#DejaVuSans-4e"/>
      <use xlink:href="#DejaVuSans-75" x="74.804688"/>
      <use xlink:href="#DejaVuSans-6d" x="138.183594"/>
      <use xlink:href="#DejaVuSans-62" x="235.595703"/>
      <use xlink:href="#DejaVuSans-65" x="299.072266"/>
      <use xlink:href="#DejaVuSans-72" x="360.595703"/>
      <use xlink:href="#DejaVuSans-20" x="401.708984"/>
      <use xlink:href="#DejaVuSans-6f" x="433.496094"/>
      <use xlink:href="#DejaVuSans-66" x="494.677734"/>
      <use xlink:href="#DejaVuSans-20" x="529.882812"/>
      <use xlink:href="#DejaVuSans-42" x="561.669922"/>
      <use xlink:href="#DejaVuSans-6f" x="630.273438"/>
      <use xlink:href="#DejaVuSans-78" x="688.330078"/>
     </g>
    </g>
   </g>
   <g id="matplotlib.axis_2">
    <g id="ytick_1">
     <g id="line2d_17">
      <path d="M 54 304.56 
L 388.8 304.56 
" clip-path="url(#p4bf4db966d)" style="fill: none; stroke: #b0b0b0; stroke-width: 0.8; stroke-linecap: square"/>
     </g>
     <g id="line2d_18">
      <defs>
       <path id="m9b6a95ac23" d="M 0 0 
L -3.5 0 
" style="stroke: #000000; stroke-width: 0.8"/>
      </defs>
      <g>
       <use xlink:href="#m9b6a95ac23" x="54" y="304.56" style="stroke: #000000; stroke-width: 0.8"/>
      </g>
     </g>
     <g id="text_10">
      <!-- 0.0 -->
      <g transform="translate(31.096875 308.359219) scale(0.1 -0.1)">
       <defs>
        <path id="DejaVuSans-2e" d="M 684 794 
L 1344 794 
L 1344 0 
L 684 0 
L 684 794 
z
" transform="scale(0.015625)"/>
       </defs>
       <use xlink:href="#DejaVuSans-30"/>
       <use xlink:href="#DejaVuSans-2e" x="63.623047"/>
       <use xlink:href="#DejaVuSans-30" x="95.410156"/>
      </g>
     </g>
    </g>
    <g id="ytick_2">
     <g id="line2d_19">
      <path d="M 54 263.323636 
L 388.8 263.323636 
" clip-path="url(#p4bf4db966d)" style="fill: none; stroke: #b0b0b0; stroke-width: 0.8; stroke-linecap: square"/>
     </g>
     <g id="line2d_20">
      <g>
       <use xlink:href="#m9b6a95ac23" x="54" y="263.323636" style="stroke: #000000; stroke-width: 0.8"/>
      </g>
     </g>
     <g id="text_11">
      <!-- 0.2 -->
      <g transform="translate(31.096875 267.122855) scale(0.1 -0.1)">
       <use xlink:href="#DejaVuSans-30"/>
       <use xlink:href="#DejaVuSans-2e" x="63.623047"/>
       <use xlink:href="#DejaVuSans-32" x="95.410156"/>
      </g>
     </g>
    </g>
    <g id="ytick_3">
     <g id="line2d_21">
      <path d="M 54 222.087273 
L 388.8 222.087273 
" clip-path="url(#p4bf4db966d)" style="fill: none; stroke: #b0b0b0; stroke-width: 0.8; stroke-linecap: square"/>
     </g>
     <g id="line2d_22">
      <g>
       <use xlink:href="#m9b6a95ac23" x="54" y="222.087273" style="stroke: #000000; stroke-width: 0.8"/>
      </g>
     </g>
     <g id="text_12">
      <!-- 0.4 -->
      <g transform="translate(31.096875 225.886491) scale(0.1 -0.1)">
       <defs>
        <path id="DejaVuSans-34" d="M 2419 4116 
L 825 1625 
L 2419 1625 
L 2419 4116 
z
M 2253 4666 
L 3047 4666 
L 3047 1625 
L 3713 1625 
L 3713 1100 
L 3047 1100 
L 3047 0 
L 2419 0 
L 2419 1100 
L 313 1100 
L 313 1709 
L 2253 4666 
z
" transform="scale(0.015625)"/>
       </defs>
       <use xlink:href="#DejaVuSans-30"/>
       <use xlink:href="#DejaVuSans-2e" x="63.623047"/>
       <use xlink:href="#DejaVuSans-34" x="95.410156"/>
      </g>
     </g>
    </g>
    <g id="ytick_4">
     <g id="line2d_23">
      <path d="M 54 180.850909 
L 388.8 180.850909 
" clip-path="url(#p4bf4db966d)" style="fill: none; stroke: #b0b0b0; stroke-width: 0.8; stroke-linecap: square"/>
     </g>
     <g id="line2d_24">
      <g>
       <use xlink:href="#m9b6a95ac23" x="54" y="180.850909" style="stroke: #000000; stroke-width: 0.8"/>
      </g>
     </g>
     <g id="text_13">
      <!-- 0.6 -->
      <g transform="translate(31.096875 184.650128) scale(0.1 -0.1)">
       <defs>
        <path id="DejaVuSans-36" d="M 2113 2584 
Q 1688 2584 1439 2293 
Q 1191 2003 1191 1497 
Q 1191 994 1439 701 
Q 1688 409 2113 409 
Q 2538 409 2786 701 
Q 3034 994 3034 1497 
Q 3034 2003 2786 2293 
Q 2538 2584 2113 2584 
z
M 3366 4563 
L 3366 3988 
Q 3128 4100 2886 4159 
Q 2644 4219 2406 4219 
Q 1781 4219 1451 3797 
Q 1122 3375 1075 2522 
Q 1259 2794 1537 2939 
Q 1816 3084 2150 3084 
Q 2853 3084 3261 2657 
Q 3669 2231 3669 1497 
Q 3669 778 3244 343 
Q 2819 -91 2113 -91 
Q 1303 -91 875 529 
Q 447 1150 447 2328 
Q 447 3434 972 4092 
Q 1497 4750 2381 4750 
Q 2619 4750 2861 4703 
Q 3103 4656 3366 4563 
z
" transform="scale(0.015625)"/>
       </defs>
       <use xlink:href="#DejaVuSans-30"/>
       <use xlink:href="#DejaVuSans-2e" x="63.623047"/>
       <use xlink:href="#DejaVuSans-36" x="95.410156"/>
      </g>
     </g>
    </g>
    <g id="ytick_5">
     <g id="line2d_25">
      <path d="M 54 139.614545 
L 388.8 139.614545 
" clip-path="url(#p4bf4db966d)" style="fill: none; stroke: #b0b0b0; stroke-width: 0.8; stroke-linecap: square"/>
     </g>
     <g id="line2d_26">
      <g>
       <use xlink:href="#m9b6a95ac23" x="54" y="139.614545" style="stroke: #000000; stroke-width: 0.8"/>
      </g>
     </g>
     <g id="text_14">
      <!-- 0.8 -->
      <g transform="translate(31.096875 143.413764) scale(0.1 -0.1)">
       <defs>
        <path id="DejaVuSans-38" d="M 2034 2216 
Q 1584 2216 1326 1975 
Q 1069 1734 1069 1313 
Q 1069 891 1326 650 
Q 1584 409 2034 409 
Q 2484 409 2743 651 
Q 3003 894 3003 1313 
Q 3003 1734 2745 1975 
Q 2488 2216 2034 2216 
z
M 1403 2484 
Q 997 2584 770 2862 
Q 544 3141 544 3541 
Q 544 4100 942 4425 
Q 1341 4750 2034 4750 
Q 2731 4750 3128 4425 
Q 3525 4100 3525 3541 
Q 3525 3141 3298 2862 
Q 3072 2584 2669 2484 
Q 3125 2378 3379 2068 
Q 3634 1759 3634 1313 
Q 3634 634 3220 271 
Q 2806 -91 2034 -91 
Q 1263 -91 848 271 
Q 434 634 434 1313 
Q 434 1759 690 2068 
Q 947 2378 1403 2484 
z
M 1172 3481 
Q 1172 3119 1398 2916 
Q 1625 2713 2034 2713 
Q 2441 2713 2670 2916 
Q 2900 3119 2900 3481 
Q 2900 3844 2670 4047 
Q 2441 4250 2034 4250 
Q 1625 4250 1398 4047 
Q 1172 3844 1172 3481 
z
" transform="scale(0.015625)"/>
       </defs>
       <use xlink:href="#DejaVuSans-30"/>
       <use xlink:href="#DejaVuSans-2e" x="63.623047"/>
       <use xlink:href="#DejaVuSans-38" x="95.410156"/>
      </g>
     </g>
    </g>
    <g id="ytick_6">
     <g id="line2d_27">
      <path d="M 54 98.378182 
L 388.8 98.378182 
" clip-path="url(#p4bf4db966d)" style="fill: none; stroke: #b0b0b0; stroke-width: 0.8; stroke-linecap: square"/>
     </g>
     <g id="line2d_28">
      <g>
       <use xlink:href="#m9b6a95ac23" x="54" y="98.378182" style="stroke: #000000; stroke-width: 0.8"/>
      </g>
     </g>
     <g id="text_15">
      <!-- 1.0 -->
      <g transform="translate(31.096875 102.177401) scale(0.1 -0.1)">
       <use xlink:href="#DejaVuSans-31"/>
       <use xlink:href="#DejaVuSans-2e" x="63.623047"/>
       <use xlink:href="#DejaVuSans-30" x="95.410156"/>
      </g>
     </g>
    </g>
    <g id="text_16">
     <!-- Precision -->
     <g transform="translate(23.977344 224.620547) rotate(-90) scale(0.15 -0.15)">
      <defs>
       <path id="DejaVuSans-50" d="M 1259 4147 
L 1259 2394 
L 2053 2394 
Q 2494 2394 2734 2622 
Q 2975 2850 2975 3272 
Q 2975 3691 2734 3919 
Q 2494 4147 2053 4147 
L 1259 4147 
z
M 628 4666 
L 2053 4666 
Q 2838 4666 3239 4311 
Q 3641 3956 3641 3272 
Q 3641 2581 3239 2228 
Q 2838 1875 2053 1875 
L 1259 1875 
L 1259 0 
L 628 0 
L 628 4666 
z
" transform="scale(0.015625)"/>
       <path id="DejaVuSans-63" d="M 3122 3366 
L 3122 2828 
Q 2878 2963 2633 3030 
Q 2388 3097 2138 3097 
Q 1578 3097 1268 2742 
Q 959 2388 959 1747 
Q 959 1106 1268 751 
Q 1578 397 2138 397 
Q 2388 397 2633 464 
Q 2878 531 3122 666 
L 3122 134 
Q 2881 22 2623 -34 
Q 2366 -91 2075 -91 
Q 1284 -91 818 406 
Q 353 903 353 1747 
Q 353 2603 823 3093 
Q 1294 3584 2113 3584 
Q 2378 3584 2631 3529 
Q 2884 3475 3122 3366 
z
" transform="scale(0.015625)"/>
       <path id="DejaVuSans-69" d="M 603 3500 
L 1178 3500 
L 1178 0 
L 603 0 
L 603 3500 
z
M 603 4863 
L 1178 4863 
L 1178 4134 
L 603 4134 
L 603 4863 
z
" transform="scale(0.015625)"/>
       <path id="DejaVuSans-73" d="M 2834 3397 
L 2834 2853 
Q 2591 2978 2328 3040 
Q 2066 3103 1784 3103 
Q 1356 3103 1142 2972 
Q 928 2841 928 2578 
Q 928 2378 1081 2264 
Q 1234 2150 1697 2047 
L 1894 2003 
Q 2506 1872 2764 1633 
Q 3022 1394 3022 966 
Q 3022 478 2636 193 
Q 2250 -91 1575 -91 
Q 1294 -91 989 -36 
Q 684 19 347 128 
L 347 722 
Q 666 556 975 473 
Q 1284 391 1588 391 
Q 1994 391 2212 530 
Q 2431 669 2431 922 
Q 2431 1156 2273 1281 
Q 2116 1406 1581 1522 
L 1381 1569 
Q 847 1681 609 1914 
Q 372 2147 372 2553 
Q 372 3047 722 3315 
Q 1072 3584 1716 3584 
Q 2034 3584 2315 3537 
Q 2597 3491 2834 3397 
z
" transform="scale(0.015625)"/>
       <path id="DejaVuSans-6e" d="M 3513 2113 
L 3513 0 
L 2938 0 
L 2938 2094 
Q 2938 2591 2744 2837 
Q 2550 3084 2163 3084 
Q 1697 3084 1428 2787 
Q 1159 2491 1159 1978 
L 1159 0 
L 581 0 
L 581 3500 
L 1159 3500 
L 1159 2956 
Q 1366 3272 1645 3428 
Q 1925 3584 2291 3584 
Q 2894 3584 3203 3211 
Q 3513 2838 3513 2113 
z
" transform="scale(0.015625)"/>
      </defs>
      <use xlink:href="#DejaVuSans-50"/>
      <use xlink:href="#DejaVuSans-72" x="58.552734"/>
      <use xlink:href="#DejaVuSans-65" x="97.416016"/>
      <use xlink:href="#DejaVuSans-63" x="158.939453"/>
      <use xlink:href="#DejaVuSans-69" x="213.919922"/>
      <use xlink:href="#DejaVuSans-73" x="241.703125"/>
      <use xlink:href="#DejaVuSans-69" x="293.802734"/>
      <use xlink:href="#DejaVuSans-6f" x="321.585938"/>
      <use xlink:href="#DejaVuSans-6e" x="382.767578"/>
     </g>
    </g>
   </g>
   <g id="patch_3">
    <path d="M 54 304.56 
L 54 77.76 
" style="fill: none; stroke: #000000; stroke-width: 0.8; stroke-linejoin: miter; stroke-linecap: square"/>
   </g>
   <g id="patch_4">
    <path d="M 388.8 304.56 
L 388.8 77.76 
" style="fill: none; stroke: #000000; stroke-width: 0.8; stroke-linejoin: miter; stroke-linecap: square"/>
   </g>
   <g id="patch_5">
    <path d="M 54 304.56 
L 388.8 304.56 
" style="fill: none; stroke: #000000; stroke-width: 0.8; stroke-linejoin: miter; stroke-linecap: square"/>
   </g>
   <g id="patch_6">
    <path d="M 54 77.76 
L 388.8 77.76 
" style="fill: none; stroke: #000000; stroke-width: 0.8; stroke-linejoin: miter; stroke-linecap: square"/>
   </g>
   <g id="legend_1">
    <g id="patch_7">
     <path d="M 294.31875 133.794375 
L 378.3 133.794375 
Q 381.3 133.794375 381.3 130.794375 
L 381.3 88.26 
Q 381.3 85.26 378.3 85.26 
L 294.31875 85.26 
Q 291.31875 85.26 291.31875 88.26 
L 291.31875 130.794375 
Q 291.31875 133.794375 294.31875 133.794375 
z
" style="fill: #ffffff; opacity: 0.8; stroke: #cccccc; stroke-linejoin: miter"/>
    </g>
    <g id="PathCollection_3">
     <g>
      <use xlink:href="#ma2ec32f332" x="312.31875" y="98.720156" style="fill: #ff0000; stroke: #ff0000"/>
     </g>
    </g>
    <g id="text_17">
     <!-- Train -->
     <g transform="translate(339.31875 102.657656) scale(0.15 -0.15)">
      <defs>
       <path id="DejaVuSans-54" d="M -19 4666 
L 3928 4666 
L 3928 4134 
L 2272 4134 
L 2272 0 
L 1638 0 
L 1638 4134 
L -19 4134 
L -19 4666 
z
" transform="scale(0.015625)"/>
       <path id="DejaVuSans-61" d="M 2194 1759 
Q 1497 1759 1228 1600 
Q 959 1441 959 1056 
Q 959 750 1161 570 
Q 1363 391 1709 391 
Q 2188 391 2477 730 
Q 2766 1069 2766 1631 
L 2766 1759 
L 2194 1759 
z
M 3341 1997 
L 3341 0 
L 2766 0 
L 2766 531 
Q 2569 213 2275 61 
Q 1981 -91 1556 -91 
Q 1019 -91 701 211 
Q 384 513 384 1019 
Q 384 1609 779 1909 
Q 1175 2209 1959 2209 
L 2766 2209 
L 2766 2266 
Q 2766 2663 2505 2880 
Q 2244 3097 1772 3097 
Q 1472 3097 1187 3025 
Q 903 2953 641 2809 
L 641 3341 
Q 956 3463 1253 3523 
Q 1550 3584 1831 3584 
Q 2591 3584 2966 3190 
Q 3341 2797 3341 1997 
z
" transform="scale(0.015625)"/>
      </defs>
      <use xlink:href="#DejaVuSans-54"/>
      <use xlink:href="#DejaVuSans-72" x="46.333984"/>
      <use xlink:href="#DejaVuSans-61" x="87.447266"/>
      <use xlink:href="#DejaVuSans-69" x="148.726562"/>
      <use xlink:href="#DejaVuSans-6e" x="176.509766"/>
     </g>
    </g>
    <g id="PathCollection_4">
     <g>
      <use xlink:href="#mfa985d4f88" x="312.31875" y="120.737344" style="fill: #0000ff; stroke: #0000ff"/>
     </g>
    </g>
    <g id="text_18">
     <!-- Test -->
     <g transform="translate(339.31875 124.674844) scale(0.15 -0.15)">
      <defs>
       <path id="DejaVuSans-74" d="M 1172 4494 
L 1172 3500 
L 2356 3500 
L 2356 3053 
L 1172 3053 
L 1172 1153 
Q 1172 725 1289 603 
Q 1406 481 1766 481 
L 2356 481 
L 2356 0 
L 1766 0 
Q 1100 0 847 248 
Q 594 497 594 1153 
L 594 3053 
L 172 3053 
L 172 3500 
L 594 3500 
L 594 4494 
L 1172 4494 
z
" transform="scale(0.015625)"/>
      </defs>
      <use xlink:href="#DejaVuSans-54"/>
      <use xlink:href="#DejaVuSans-65" x="44.083984"/>
      <use xlink:href="#DejaVuSans-73" x="105.607422"/>
      <use xlink:href="#DejaVuSans-74" x="157.707031"/>
     </g>
    </g>
   </g>
  </g>
  <g id="axes_2">
   <g id="patch_8">
    <path d="M 54 576.72 
L 388.8 576.72 
L 388.8 349.92 
L 54 349.92 
z
" style="fill: #ffffff"/>
   </g>
   <g id="PathCollection_5">
    <g clip-path="url(#pf5e8d9fcc1)">
     <use xlink:href="#ma2ec32f332" x="54" y="376.103372" style="fill: #ff0000; stroke: #ff0000"/>
     <use xlink:href="#ma2ec32f332" x="63.274238" y="373.888815" style="fill: #ff0000; stroke: #ff0000"/>
     <use xlink:href="#ma2ec32f332" x="72.548476" y="373.952167" style="fill: #ff0000; stroke: #ff0000"/>
     <use xlink:href="#ma2ec32f332" x="81.822715" y="374.143542" style="fill: #ff0000; stroke: #ff0000"/>
     <use xlink:href="#ma2ec32f332" x="91.096953" y="374.359983" style="fill: #ff0000; stroke: #ff0000"/>
     <use xlink:href="#ma2ec32f332" x="100.371191" y="374.196859" style="fill: #ff0000; stroke: #ff0000"/>
     <use xlink:href="#ma2ec32f332" x="109.645429" y="374.490567" style="fill: #ff0000; stroke: #ff0000"/>
     <use xlink:href="#ma2ec32f332" x="118.919668" y="374.573561" style="fill: #ff0000; stroke: #ff0000"/>
     <use xlink:href="#ma2ec32f332" x="128.193906" y="374.47175" style="fill: #ff0000; stroke: #ff0000"/>
     <use xlink:href="#ma2ec32f332" x="137.468144" y="374.694273" style="fill: #ff0000; stroke: #ff0000"/>
     <use xlink:href="#ma2ec32f332" x="146.742382" y="374.636888" style="fill: #ff0000; stroke: #ff0000"/>
     <use xlink:href="#ma2ec32f332" x="156.01662" y="374.571142" style="fill: #ff0000; stroke: #ff0000"/>
     <use xlink:href="#ma2ec32f332" x="165.290859" y="374.498846" style="fill: #ff0000; stroke: #ff0000"/>
     <use xlink:href="#ma2ec32f332" x="174.565097" y="374.416031" style="fill: #ff0000; stroke: #ff0000"/>
     <use xlink:href="#ma2ec32f332" x="183.839335" y="374.558934" style="fill: #ff0000; stroke: #ff0000"/>
     <use xlink:href="#ma2ec32f332" x="193.113573" y="374.353774" style="fill: #ff0000; stroke: #ff0000"/>
     <use xlink:href="#ma2ec32f332" x="202.387812" y="374.685143" style="fill: #ff0000; stroke: #ff0000"/>
     <use xlink:href="#ma2ec32f332" x="211.66205" y="374.736825" style="fill: #ff0000; stroke: #ff0000"/>
     <use xlink:href="#ma2ec32f332" x="220.936288" y="374.73863" style="fill: #ff0000; stroke: #ff0000"/>
     <use xlink:href="#ma2ec32f332" x="230.210526" y="374.732782" style="fill: #ff0000; stroke: #ff0000"/>
     <use xlink:href="#ma2ec32f332" x="239.484765" y="374.874949" style="fill: #ff0000; stroke: #ff0000"/>
     <use xlink:href="#ma2ec32f332" x="248.759003" y="374.860947" style="fill: #ff0000; stroke: #ff0000"/>
     <use xlink:href="#ma2ec32f332" x="258.033241" y="374.806242" style="fill: #ff0000; stroke: #ff0000"/>
     <use xlink:href="#ma2ec32f332" x="267.307479" y="374.788422" style="fill: #ff0000; stroke: #ff0000"/>
     <use xlink:href="#ma2ec32f332" x="276.581717" y="375.131422" style="fill: #ff0000; stroke: #ff0000"/>
     <use xlink:href="#ma2ec32f332" x="285.855956" y="374.909347" style="fill: #ff0000; stroke: #ff0000"/>
     <use xlink:href="#ma2ec32f332" x="295.130194" y="375.366392" style="fill: #ff0000; stroke: #ff0000"/>
     <use xlink:href="#ma2ec32f332" x="304.404432" y="375.294153" style="fill: #ff0000; stroke: #ff0000"/>
     <use xlink:href="#ma2ec32f332" x="313.67867" y="375.332259" style="fill: #ff0000; stroke: #ff0000"/>
     <use xlink:href="#ma2ec32f332" x="322.952909" y="375.06424" style="fill: #ff0000; stroke: #ff0000"/>
     <use xlink:href="#ma2ec32f332" x="332.227147" y="374.872832" style="fill: #ff0000; stroke: #ff0000"/>
     <use xlink:href="#ma2ec32f332" x="341.501385" y="375.304593" style="fill: #ff0000; stroke: #ff0000"/>
     <use xlink:href="#ma2ec32f332" x="350.775623" y="376.196459" style="fill: #ff0000; stroke: #ff0000"/>
     <use xlink:href="#ma2ec32f332" x="360.049861" y="376.811082" style="fill: #ff0000; stroke: #ff0000"/>
     <use xlink:href="#ma2ec32f332" x="369.3241" y="374.181886" style="fill: #ff0000; stroke: #ff0000"/>
     <use xlink:href="#ma2ec32f332" x="378.598338" y="374.093041" style="fill: #ff0000; stroke: #ff0000"/>
    </g>
   </g>
   <g id="PathCollection_6">
    <g clip-path="url(#pf5e8d9fcc1)">
     <use xlink:href="#mfa985d4f88" x="54" y="370.538182" style="fill: #0000ff; stroke: #0000ff"/>
     <use xlink:href="#mfa985d4f88" x="63.274238" y="370.538182" style="fill: #0000ff; stroke: #0000ff"/>
     <use xlink:href="#mfa985d4f88" x="72.548476" y="370.538182" style="fill: #0000ff; stroke: #0000ff"/>
     <use xlink:href="#mfa985d4f88" x="81.822715" y="370.538182" style="fill: #0000ff; stroke: #0000ff"/>
     <use xlink:href="#mfa985d4f88" x="91.096953" y="370.538182" style="fill: #0000ff; stroke: #0000ff"/>
     <use xlink:href="#mfa985d4f88" x="100.371191" y="370.538182" style="fill: #0000ff; stroke: #0000ff"/>
     <use xlink:href="#mfa985d4f88" x="109.645429" y="370.538182" style="fill: #0000ff; stroke: #0000ff"/>
     <use xlink:href="#mfa985d4f88" x="118.919668" y="370.538182" style="fill: #0000ff; stroke: #0000ff"/>
     <use xlink:href="#mfa985d4f88" x="128.193906" y="370.538182" style="fill: #0000ff; stroke: #0000ff"/>
     <use xlink:href="#mfa985d4f88" x="137.468144" y="370.538182" style="fill: #0000ff; stroke: #0000ff"/>
     <use xlink:href="#mfa985d4f88" x="146.742382" y="370.538182" style="fill: #0000ff; stroke: #0000ff"/>
     <use xlink:href="#mfa985d4f88" x="156.01662" y="370.538182" style="fill: #0000ff; stroke: #0000ff"/>
     <use xlink:href="#mfa985d4f88" x="165.290859" y="370.538182" style="fill: #0000ff; stroke: #0000ff"/>
     <use xlink:href="#mfa985d4f88" x="174.565097" y="370.538182" style="fill: #0000ff; stroke: #0000ff"/>
     <use xlink:href="#mfa985d4f88" x="183.839335" y="370.538182" style="fill: #0000ff; stroke: #0000ff"/>
     <use xlink:href="#mfa985d4f88" x="193.113573" y="370.538182" style="fill: #0000ff; stroke: #0000ff"/>
     <use xlink:href="#mfa985d4f88" x="202.387812" y="370.538182" style="fill: #0000ff; stroke: #0000ff"/>
     <use xlink:href="#mfa985d4f88" x="211.66205" y="370.538182" style="fill: #0000ff; stroke: #0000ff"/>
     <use xlink:href="#mfa985d4f88" x="220.936288" y="370.538182" style="fill: #0000ff; stroke: #0000ff"/>
     <use xlink:href="#mfa985d4f88" x="230.210526" y="370.538182" style="fill: #0000ff; stroke: #0000ff"/>
     <use xlink:href="#mfa985d4f88" x="239.484765" y="370.538182" style="fill: #0000ff; stroke: #0000ff"/>
     <use xlink:href="#mfa985d4f88" x="248.759003" y="370.538182" style="fill: #0000ff; stroke: #0000ff"/>
     <use xlink:href="#mfa985d4f88" x="258.033241" y="370.538182" style="fill: #0000ff; stroke: #0000ff"/>
     <use xlink:href="#mfa985d4f88" x="267.307479" y="370.538182" style="fill: #0000ff; stroke: #0000ff"/>
     <use xlink:href="#mfa985d4f88" x="276.581717" y="370.538182" style="fill: #0000ff; stroke: #0000ff"/>
     <use xlink:href="#mfa985d4f88" x="285.855956" y="370.538182" style="fill: #0000ff; stroke: #0000ff"/>
     <use xlink:href="#mfa985d4f88" x="295.130194" y="370.538182" style="fill: #0000ff; stroke: #0000ff"/>
     <use xlink:href="#mfa985d4f88" x="304.404432" y="370.538182" style="fill: #0000ff; stroke: #0000ff"/>
     <use xlink:href="#mfa985d4f88" x="313.67867" y="370.538182" style="fill: #0000ff; stroke: #0000ff"/>
     <use xlink:href="#mfa985d4f88" x="322.952909" y="370.538182" style="fill: #0000ff; stroke: #0000ff"/>
     <use xlink:href="#mfa985d4f88" x="332.227147" y="370.538182" style="fill: #0000ff; stroke: #0000ff"/>
     <use xlink:href="#mfa985d4f88" x="341.501385" y="370.538182" style="fill: #0000ff; stroke: #0000ff"/>
     <use xlink:href="#mfa985d4f88" x="350.775623" y="370.538182" style="fill: #0000ff; stroke: #0000ff"/>
     <use xlink:href="#mfa985d4f88" x="360.049861" y="370.538182" style="fill: #0000ff; stroke: #0000ff"/>
     <use xlink:href="#mfa985d4f88" x="369.3241" y="370.538182" style="fill: #0000ff; stroke: #0000ff"/>
     <use xlink:href="#mfa985d4f88" x="378.598338" y="370.538182" style="fill: #0000ff; stroke: #0000ff"/>
    </g>
   </g>
   <g id="PolyCollection_3">
    <defs>
     <path id="m691fb14726" d="M 54 -275.297963 
L 54 -268.495294 
L 63.274238 -272.808214 
L 72.548476 -272.843145 
L 81.822715 -272.658728 
L 91.096953 -272.281893 
L 100.371191 -272.476479 
L 109.645429 -272.193381 
L 118.919668 -271.995421 
L 128.193906 -272.047149 
L 137.468144 -271.926079 
L 146.742382 -271.915725 
L 156.01662 -272.036047 
L 165.290859 -272.043321 
L 174.565097 -271.936419 
L 183.839335 -271.924925 
L 193.113573 -272.273219 
L 202.387812 -271.708988 
L 211.66205 -271.743733 
L 220.936288 -271.588607 
L 230.210526 -271.68724 
L 239.484765 -271.43686 
L 248.759003 -271.614646 
L 258.033241 -271.588832 
L 267.307479 -271.585003 
L 276.581717 -271.220951 
L 285.855956 -271.162636 
L 295.130194 -270.730706 
L 304.404432 -270.835835 
L 313.67867 -271.11165 
L 322.952909 -271.385565 
L 332.227147 -271.082148 
L 341.501385 -270.089455 
L 350.775623 -270.487925 
L 360.049861 -268.852162 
L 369.3241 -272.632283 
L 378.598338 -273.906959 
L 378.598338 -273.906959 
L 378.598338 -273.906959 
L 369.3241 -275.003945 
L 360.049861 -273.525675 
L 350.775623 -273.119156 
L 341.501385 -275.30136 
L 332.227147 -275.172188 
L 322.952909 -274.485955 
L 313.67867 -274.223831 
L 304.404432 -274.575859 
L 295.130194 -274.53651 
L 285.855956 -275.01867 
L 276.581717 -274.516205 
L 267.307479 -274.838152 
L 258.033241 -274.798683 
L 248.759003 -274.66346 
L 239.484765 -274.813242 
L 230.210526 -274.847196 
L 220.936288 -274.934133 
L 211.66205 -274.782617 
L 202.387812 -274.920727 
L 193.113573 -275.019232 
L 183.839335 -274.957207 
L 174.565097 -275.23152 
L 165.290859 -274.958986 
L 156.01662 -274.821669 
L 146.742382 -274.810499 
L 137.468144 -274.685376 
L 128.193906 -275.009351 
L 118.919668 -274.857457 
L 109.645429 -274.825484 
L 100.371191 -275.129803 
L 91.096953 -274.998142 
L 81.822715 -275.054189 
L 72.548476 -275.252522 
L 63.274238 -275.414157 
L 54 -275.297963 
z
" style="stroke: #ff0000; stroke-opacity: 0.2"/>
    </defs>
    <g clip-path="url(#pf5e8d9fcc1)">
     <use xlink:href="#m691fb14726" x="0" y="648" style="fill: #ff0000; fill-opacity: 0.2; stroke: #ff0000; stroke-opacity: 0.2"/>
    </g>
   </g>
   <g id="PolyCollection_4">
    <defs>
     <path id="m23effb2a38" d="M 54 -277.461818 
L 54 -277.461818 
L 63.274238 -277.461818 
L 72.548476 -277.461818 
L 81.822715 -277.461818 
L 91.096953 -277.461818 
L 100.371191 -277.461818 
L 109.645429 -277.461818 
L 118.919668 -277.461818 
L 128.193906 -277.461818 
L 137.468144 -277.461818 
L 146.742382 -277.461818 
L 156.01662 -277.461818 
L 165.290859 -277.461818 
L 174.565097 -277.461818 
L 183.839335 -277.461818 
L 193.113573 -277.461818 
L 202.387812 -277.461818 
L 211.66205 -277.461818 
L 220.936288 -277.461818 
L 230.210526 -277.461818 
L 239.484765 -277.461818 
L 248.759003 -277.461818 
L 258.033241 -277.461818 
L 267.307479 -277.461818 
L 276.581717 -277.461818 
L 285.855956 -277.461818 
L 295.130194 -277.461818 
L 304.404432 -277.461818 
L 313.67867 -277.461818 
L 322.952909 -277.461818 
L 332.227147 -277.461818 
L 341.501385 -277.461818 
L 350.775623 -277.461818 
L 360.049861 -277.461818 
L 369.3241 -277.461818 
L 378.598338 -277.461818 
L 378.598338 -277.461818 
L 378.598338 -277.461818 
L 369.3241 -277.461818 
L 360.049861 -277.461818 
L 350.775623 -277.461818 
L 341.501385 -277.461818 
L 332.227147 -277.461818 
L 322.952909 -277.461818 
L 313.67867 -277.461818 
L 304.404432 -277.461818 
L 295.130194 -277.461818 
L 285.855956 -277.461818 
L 276.581717 -277.461818 
L 267.307479 -277.461818 
L 258.033241 -277.461818 
L 248.759003 -277.461818 
L 239.484765 -277.461818 
L 230.210526 -277.461818 
L 220.936288 -277.461818 
L 211.66205 -277.461818 
L 202.387812 -277.461818 
L 193.113573 -277.461818 
L 183.839335 -277.461818 
L 174.565097 -277.461818 
L 165.290859 -277.461818 
L 156.01662 -277.461818 
L 146.742382 -277.461818 
L 137.468144 -277.461818 
L 128.193906 -277.461818 
L 118.919668 -277.461818 
L 109.645429 -277.461818 
L 100.371191 -277.461818 
L 91.096953 -277.461818 
L 81.822715 -277.461818 
L 72.548476 -277.461818 
L 63.274238 -277.461818 
L 54 -277.461818 
z
" style="stroke: #0000ff; stroke-opacity: 0.2"/>
    </defs>
    <g clip-path="url(#pf5e8d9fcc1)">
     <use xlink:href="#m23effb2a38" x="0" y="648" style="fill: #0000ff; fill-opacity: 0.2; stroke: #0000ff; stroke-opacity: 0.2"/>
    </g>
   </g>
   <g id="matplotlib.axis_3">
    <g id="xtick_9">
     <g id="line2d_29">
      <path d="M 54 576.72 
L 54 349.92 
" clip-path="url(#pf5e8d9fcc1)" style="fill: none; stroke: #b0b0b0; stroke-width: 0.8; stroke-linecap: square"/>
     </g>
     <g id="line2d_30">
      <g>
       <use xlink:href="#me169f3a2d9" x="54" y="576.72" style="stroke: #000000; stroke-width: 0.8"/>
      </g>
     </g>
     <g id="text_19">
      <!-- 0 -->
      <g transform="translate(50.81875 591.318438) scale(0.1 -0.1)">
       <use xlink:href="#DejaVuSans-30"/>
      </g>
     </g>
    </g>
    <g id="xtick_10">
     <g id="line2d_31">
      <path d="M 100.371191 576.72 
L 100.371191 349.92 
" clip-path="url(#pf5e8d9fcc1)" style="fill: none; stroke: #b0b0b0; stroke-width: 0.8; stroke-linecap: square"/>
     </g>
     <g id="line2d_32">
      <g>
       <use xlink:href="#me169f3a2d9" x="100.371191" y="576.72" style="stroke: #000000; stroke-width: 0.8"/>
      </g>
     </g>
     <g id="text_20">
      <!-- 5 -->
      <g transform="translate(97.189941 591.318438) scale(0.1 -0.1)">
       <use xlink:href="#DejaVuSans-35"/>
      </g>
     </g>
    </g>
    <g id="xtick_11">
     <g id="line2d_33">
      <path d="M 146.742382 576.72 
L 146.742382 349.92 
" clip-path="url(#pf5e8d9fcc1)" style="fill: none; stroke: #b0b0b0; stroke-width: 0.8; stroke-linecap: square"/>
     </g>
     <g id="line2d_34">
      <g>
       <use xlink:href="#me169f3a2d9" x="146.742382" y="576.72" style="stroke: #000000; stroke-width: 0.8"/>
      </g>
     </g>
     <g id="text_21">
      <!-- 10 -->
      <g transform="translate(140.379882 591.318438) scale(0.1 -0.1)">
       <use xlink:href="#DejaVuSans-31"/>
       <use xlink:href="#DejaVuSans-30" x="63.623047"/>
      </g>
     </g>
    </g>
    <g id="xtick_12">
     <g id="line2d_35">
      <path d="M 193.113573 576.72 
L 193.113573 349.92 
" clip-path="url(#pf5e8d9fcc1)" style="fill: none; stroke: #b0b0b0; stroke-width: 0.8; stroke-linecap: square"/>
     </g>
     <g id="line2d_36">
      <g>
       <use xlink:href="#me169f3a2d9" x="193.113573" y="576.72" style="stroke: #000000; stroke-width: 0.8"/>
      </g>
     </g>
     <g id="text_22">
      <!-- 15 -->
      <g transform="translate(186.751073 591.318438) scale(0.1 -0.1)">
       <use xlink:href="#DejaVuSans-31"/>
       <use xlink:href="#DejaVuSans-35" x="63.623047"/>
      </g>
     </g>
    </g>
    <g id="xtick_13">
     <g id="line2d_37">
      <path d="M 239.484765 576.72 
L 239.484765 349.92 
" clip-path="url(#pf5e8d9fcc1)" style="fill: none; stroke: #b0b0b0; stroke-width: 0.8; stroke-linecap: square"/>
     </g>
     <g id="line2d_38">
      <g>
       <use xlink:href="#me169f3a2d9" x="239.484765" y="576.72" style="stroke: #000000; stroke-width: 0.8"/>
      </g>
     </g>
     <g id="text_23">
      <!-- 20 -->
      <g transform="translate(233.122265 591.318438) scale(0.1 -0.1)">
       <use xlink:href="#DejaVuSans-32"/>
       <use xlink:href="#DejaVuSans-30" x="63.623047"/>
      </g>
     </g>
    </g>
    <g id="xtick_14">
     <g id="line2d_39">
      <path d="M 285.855956 576.72 
L 285.855956 349.92 
" clip-path="url(#pf5e8d9fcc1)" style="fill: none; stroke: #b0b0b0; stroke-width: 0.8; stroke-linecap: square"/>
     </g>
     <g id="line2d_40">
      <g>
       <use xlink:href="#me169f3a2d9" x="285.855956" y="576.72" style="stroke: #000000; stroke-width: 0.8"/>
      </g>
     </g>
     <g id="text_24">
      <!-- 25 -->
      <g transform="translate(279.493456 591.318438) scale(0.1 -0.1)">
       <use xlink:href="#DejaVuSans-32"/>
       <use xlink:href="#DejaVuSans-35" x="63.623047"/>
      </g>
     </g>
    </g>
    <g id="xtick_15">
     <g id="line2d_41">
      <path d="M 332.227147 576.72 
L 332.227147 349.92 
" clip-path="url(#pf5e8d9fcc1)" style="fill: none; stroke: #b0b0b0; stroke-width: 0.8; stroke-linecap: square"/>
     </g>
     <g id="line2d_42">
      <g>
       <use xlink:href="#me169f3a2d9" x="332.227147" y="576.72" style="stroke: #000000; stroke-width: 0.8"/>
      </g>
     </g>
     <g id="text_25">
      <!-- 30 -->
      <g transform="translate(325.864647 591.318438) scale(0.1 -0.1)">
       <use xlink:href="#DejaVuSans-33"/>
       <use xlink:href="#DejaVuSans-30" x="63.623047"/>
      </g>
     </g>
    </g>
    <g id="xtick_16">
     <g id="line2d_43">
      <path d="M 378.598338 576.72 
L 378.598338 349.92 
" clip-path="url(#pf5e8d9fcc1)" style="fill: none; stroke: #b0b0b0; stroke-width: 0.8; stroke-linecap: square"/>
     </g>
     <g id="line2d_44">
      <g>
       <use xlink:href="#me169f3a2d9" x="378.598338" y="576.72" style="stroke: #000000; stroke-width: 0.8"/>
      </g>
     </g>
     <g id="text_26">
      <!-- 35 -->
      <g transform="translate(372.235838 591.318438) scale(0.1 -0.1)">
       <use xlink:href="#DejaVuSans-33"/>
       <use xlink:href="#DejaVuSans-35" x="63.623047"/>
      </g>
     </g>
    </g>
    <g id="text_27">
     <!-- Number of Box -->
     <g transform="translate(165.335156 608.795781) scale(0.15 -0.15)">
      <use xlink:href="#DejaVuSans-4e"/>
      <use xlink:href="#DejaVuSans-75" x="74.804688"/>
      <use xlink:href="#DejaVuSans-6d" x="138.183594"/>
      <use xlink:href="#DejaVuSans-62" x="235.595703"/>
      <use xlink:href="#DejaVuSans-65" x="299.072266"/>
      <use xlink:href="#DejaVuSans-72" x="360.595703"/>
      <use xlink:href="#DejaVuSans-20" x="401.708984"/>
      <use xlink:href="#DejaVuSans-6f" x="433.496094"/>
      <use xlink:href="#DejaVuSans-66" x="494.677734"/>
      <use xlink:href="#DejaVuSans-20" x="529.882812"/>
      <use xlink:href="#DejaVuSans-42" x="561.669922"/>
      <use xlink:href="#DejaVuSans-6f" x="630.273438"/>
      <use xlink:href="#DejaVuSans-78" x="688.330078"/>
     </g>
    </g>
   </g>
   <g id="matplotlib.axis_4">
    <g id="ytick_7">
     <g id="line2d_45">
      <path d="M 54 576.72 
L 388.8 576.72 
" clip-path="url(#pf5e8d9fcc1)" style="fill: none; stroke: #b0b0b0; stroke-width: 0.8; stroke-linecap: square"/>
     </g>
     <g id="line2d_46">
      <g>
       <use xlink:href="#m9b6a95ac23" x="54" y="576.72" style="stroke: #000000; stroke-width: 0.8"/>
      </g>
     </g>
     <g id="text_28">
      <!-- 0.0 -->
      <g transform="translate(31.096875 580.519219) scale(0.1 -0.1)">
       <use xlink:href="#DejaVuSans-30"/>
       <use xlink:href="#DejaVuSans-2e" x="63.623047"/>
       <use xlink:href="#DejaVuSans-30" x="95.410156"/>
      </g>
     </g>
    </g>
    <g id="ytick_8">
     <g id="line2d_47">
      <path d="M 54 535.483636 
L 388.8 535.483636 
" clip-path="url(#pf5e8d9fcc1)" style="fill: none; stroke: #b0b0b0; stroke-width: 0.8; stroke-linecap: square"/>
     </g>
     <g id="line2d_48">
      <g>
       <use xlink:href="#m9b6a95ac23" x="54" y="535.483636" style="stroke: #000000; stroke-width: 0.8"/>
      </g>
     </g>
     <g id="text_29">
      <!-- 0.2 -->
      <g transform="translate(31.096875 539.282855) scale(0.1 -0.1)">
       <use xlink:href="#DejaVuSans-30"/>
       <use xlink:href="#DejaVuSans-2e" x="63.623047"/>
       <use xlink:href="#DejaVuSans-32" x="95.410156"/>
      </g>
     </g>
    </g>
    <g id="ytick_9">
     <g id="line2d_49">
      <path d="M 54 494.247273 
L 388.8 494.247273 
" clip-path="url(#pf5e8d9fcc1)" style="fill: none; stroke: #b0b0b0; stroke-width: 0.8; stroke-linecap: square"/>
     </g>
     <g id="line2d_50">
      <g>
       <use xlink:href="#m9b6a95ac23" x="54" y="494.247273" style="stroke: #000000; stroke-width: 0.8"/>
      </g>
     </g>
     <g id="text_30">
      <!-- 0.4 -->
      <g transform="translate(31.096875 498.046491) scale(0.1 -0.1)">
       <use xlink:href="#DejaVuSans-30"/>
       <use xlink:href="#DejaVuSans-2e" x="63.623047"/>
       <use xlink:href="#DejaVuSans-34" x="95.410156"/>
      </g>
     </g>
    </g>
    <g id="ytick_10">
     <g id="line2d_51">
      <path d="M 54 453.010909 
L 388.8 453.010909 
" clip-path="url(#pf5e8d9fcc1)" style="fill: none; stroke: #b0b0b0; stroke-width: 0.8; stroke-linecap: square"/>
     </g>
     <g id="line2d_52">
      <g>
       <use xlink:href="#m9b6a95ac23" x="54" y="453.010909" style="stroke: #000000; stroke-width: 0.8"/>
      </g>
     </g>
     <g id="text_31">
      <!-- 0.6 -->
      <g transform="translate(31.096875 456.810128) scale(0.1 -0.1)">
       <use xlink:href="#DejaVuSans-30"/>
       <use xlink:href="#DejaVuSans-2e" x="63.623047"/>
       <use xlink:href="#DejaVuSans-36" x="95.410156"/>
      </g>
     </g>
    </g>
    <g id="ytick_11">
     <g id="line2d_53">
      <path d="M 54 411.774545 
L 388.8 411.774545 
" clip-path="url(#pf5e8d9fcc1)" style="fill: none; stroke: #b0b0b0; stroke-width: 0.8; stroke-linecap: square"/>
     </g>
     <g id="line2d_54">
      <g>
       <use xlink:href="#m9b6a95ac23" x="54" y="411.774545" style="stroke: #000000; stroke-width: 0.8"/>
      </g>
     </g>
     <g id="text_32">
      <!-- 0.8 -->
      <g transform="translate(31.096875 415.573764) scale(0.1 -0.1)">
       <use xlink:href="#DejaVuSans-30"/>
       <use xlink:href="#DejaVuSans-2e" x="63.623047"/>
       <use xlink:href="#DejaVuSans-38" x="95.410156"/>
      </g>
     </g>
    </g>
    <g id="ytick_12">
     <g id="line2d_55">
      <path d="M 54 370.538182 
L 388.8 370.538182 
" clip-path="url(#pf5e8d9fcc1)" style="fill: none; stroke: #b0b0b0; stroke-width: 0.8; stroke-linecap: square"/>
     </g>
     <g id="line2d_56">
      <g>
       <use xlink:href="#m9b6a95ac23" x="54" y="370.538182" style="stroke: #000000; stroke-width: 0.8"/>
      </g>
     </g>
     <g id="text_33">
      <!-- 1.0 -->
      <g transform="translate(31.096875 374.337401) scale(0.1 -0.1)">
       <use xlink:href="#DejaVuSans-31"/>
       <use xlink:href="#DejaVuSans-2e" x="63.623047"/>
       <use xlink:href="#DejaVuSans-30" x="95.410156"/>
      </g>
     </g>
    </g>
    <g id="text_34">
     <!-- Recall -->
     <g transform="translate(23.977344 485.695781) rotate(-90) scale(0.15 -0.15)">
      <defs>
       <path id="DejaVuSans-52" d="M 2841 2188 
Q 3044 2119 3236 1894 
Q 3428 1669 3622 1275 
L 4263 0 
L 3584 0 
L 2988 1197 
Q 2756 1666 2539 1819 
Q 2322 1972 1947 1972 
L 1259 1972 
L 1259 0 
L 628 0 
L 628 4666 
L 2053 4666 
Q 2853 4666 3247 4331 
Q 3641 3997 3641 3322 
Q 3641 2881 3436 2590 
Q 3231 2300 2841 2188 
z
M 1259 4147 
L 1259 2491 
L 2053 2491 
Q 2509 2491 2742 2702 
Q 2975 2913 2975 3322 
Q 2975 3731 2742 3939 
Q 2509 4147 2053 4147 
L 1259 4147 
z
" transform="scale(0.015625)"/>
       <path id="DejaVuSans-6c" d="M 603 4863 
L 1178 4863 
L 1178 0 
L 603 0 
L 603 4863 
z
" transform="scale(0.015625)"/>
      </defs>
      <use xlink:href="#DejaVuSans-52"/>
      <use xlink:href="#DejaVuSans-65" x="64.982422"/>
      <use xlink:href="#DejaVuSans-63" x="126.505859"/>
      <use xlink:href="#DejaVuSans-61" x="181.486328"/>
      <use xlink:href="#DejaVuSans-6c" x="242.765625"/>
      <use xlink:href="#DejaVuSans-6c" x="270.548828"/>
     </g>
    </g>
   </g>
   <g id="patch_9">
    <path d="M 54 576.72 
L 54 349.92 
" style="fill: none; stroke: #000000; stroke-width: 0.8; stroke-linejoin: miter; stroke-linecap: square"/>
   </g>
   <g id="patch_10">
    <path d="M 388.8 576.72 
L 388.8 349.92 
" style="fill: none; stroke: #000000; stroke-width: 0.8; stroke-linejoin: miter; stroke-linecap: square"/>
   </g>
   <g id="patch_11">
    <path d="M 54 576.72 
L 388.8 576.72 
" style="fill: none; stroke: #000000; stroke-width: 0.8; stroke-linejoin: miter; stroke-linecap: square"/>
   </g>
   <g id="patch_12">
    <path d="M 54 349.92 
L 388.8 349.92 
" style="fill: none; stroke: #000000; stroke-width: 0.8; stroke-linejoin: miter; stroke-linecap: square"/>
   </g>
   <g id="legend_2">
    <g id="patch_13">
     <path d="M 64.5 569.22 
L 148.48125 569.22 
Q 151.48125 569.22 151.48125 566.22 
L 151.48125 523.685625 
Q 151.48125 520.685625 148.48125 520.685625 
L 64.5 520.685625 
Q 61.5 520.685625 61.5 523.685625 
L 61.5 566.22 
Q 61.5 569.22 64.5 569.22 
z
" style="fill: #ffffff; opacity: 0.8; stroke: #cccccc; stroke-linejoin: miter"/>
    </g>
    <g id="PathCollection_7">
     <g>
      <use xlink:href="#ma2ec32f332" x="82.5" y="534.145781" style="fill: #ff0000; stroke: #ff0000"/>
     </g>
    </g>
    <g id="text_35">
     <!-- Train -->
     <g transform="translate(109.5 538.083281) scale(0.15 -0.15)">
      <use xlink:href="#DejaVuSans-54"/>
      <use xlink:href="#DejaVuSans-72" x="46.333984"/>
      <use xlink:href="#DejaVuSans-61" x="87.447266"/>
      <use xlink:href="#DejaVuSans-69" x="148.726562"/>
      <use xlink:href="#DejaVuSans-6e" x="176.509766"/>
     </g>
    </g>
    <g id="PathCollection_8">
     <g>
      <use xlink:href="#mfa985d4f88" x="82.5" y="556.162969" style="fill: #0000ff; stroke: #0000ff"/>
     </g>
    </g>
    <g id="text_36">
     <!-- Test -->
     <g transform="translate(109.5 560.100469) scale(0.15 -0.15)">
      <use xlink:href="#DejaVuSans-54"/>
      <use xlink:href="#DejaVuSans-65" x="44.083984"/>
      <use xlink:href="#DejaVuSans-73" x="105.607422"/>
      <use xlink:href="#DejaVuSans-74" x="157.707031"/>
     </g>
    </g>
   </g>
  </g>
 </g>
 <defs>
  <clipPath id="p4bf4db966d">
   <rect x="54" y="77.76" width="334.8" height="226.8"/>
  </clipPath>
  <clipPath id="pf5e8d9fcc1">
   <rect x="54" y="349.92" width="334.8" height="226.8"/>
  </clipPath>
 </defs>
</svg>
