<?xml version="1.0" encoding="utf-8" standalone="no"?>
<!DOCTYPE svg PUBLIC "-//W3C//DTD SVG 1.1//EN"
  "http://www.w3.org/Graphics/SVG/1.1/DTD/svg11.dtd">
<svg xmlns:xlink="http://www.w3.org/1999/xlink" width="432pt" height="648pt" viewBox="0 0 432 648" xmlns="http://www.w3.org/2000/svg" version="1.1">
 <metadata>
  <rdf:RDF xmlns:dc="http://purl.org/dc/elements/1.1/" xmlns:cc="http://creativecommons.org/ns#" xmlns:rdf="http://www.w3.org/1999/02/22-rdf-syntax-ns#">
   <cc:Work>
    <dc:type rdf:resource="http://purl.org/dc/dcmitype/StillImage"/>
    <dc:date>2024-01-01T18:56:59.384701</dc:date>
    <dc:format>image/svg+xml</dc:format>
    <dc:creator>
     <cc:Agent>
      <dc:title>Matplotlib v3.8.0, https://matplotlib.org/</dc:title>
     </cc:Agent>
    </dc:creator>
   </cc:Work>
  </rdf:RDF>
 </metadata>
 <defs>
  <style type="text/css">*{stroke-linejoin: round; stroke-linecap: butt}</style>
 </defs>
 <g id="figure_1">
  <g id="patch_1">
   <path d="M 0 648 
L 432 648 
L 432 0 
L 0 0 
z
" style="fill: #ffffff"/>
  </g>
  <g id="axes_1">
   <g id="patch_2">
    <path d="M 54 304.56 
L 388.8 304.56 
L 388.8 77.76 
L 54 77.76 
z
" style="fill: #ffffff"/>
   </g>
   <g id="PathCollection_1">
    <defs>
     <path id="me3cdbcc8f9" d="M 0 3 
C 0.795609 3 1.55874 2.683901 2.12132 2.12132 
C 2.683901 1.55874 3 0.795609 3 0 
C 3 -0.795609 2.683901 -1.55874 2.12132 -2.12132 
C 1.55874 -2.683901 0.795609 -3 0 -3 
C -0.795609 -3 -1.55874 -2.683901 -2.12132 -2.12132 
C -2.683901 -1.55874 -3 -0.795609 -3 0 
C -3 0.795609 -2.683901 1.55874 -2.12132 2.12132 
C -1.55874 2.683901 -0.795609 3 0 3 
z
" style="stroke: #ff0000"/>
    </defs>
    <g clip-path="url(#p299f20eca2)">
     <use xlink:href="#me3cdbcc8f9" x="54" y="239.919018" style="fill: #ff0000; stroke: #ff0000"/>
     <use xlink:href="#me3cdbcc8f9" x="64.114804" y="236.778941" style="fill: #ff0000; stroke: #ff0000"/>
     <use xlink:href="#me3cdbcc8f9" x="74.229607" y="233.769619" style="fill: #ff0000; stroke: #ff0000"/>
     <use xlink:href="#me3cdbcc8f9" x="84.344411" y="230.623638" style="fill: #ff0000; stroke: #ff0000"/>
     <use xlink:href="#me3cdbcc8f9" x="94.459215" y="227.4671" style="fill: #ff0000; stroke: #ff0000"/>
     <use xlink:href="#me3cdbcc8f9" x="104.574018" y="224.310912" style="fill: #ff0000; stroke: #ff0000"/>
     <use xlink:href="#me3cdbcc8f9" x="114.688822" y="221.108324" style="fill: #ff0000; stroke: #ff0000"/>
     <use xlink:href="#me3cdbcc8f9" x="124.803625" y="217.856204" style="fill: #ff0000; stroke: #ff0000"/>
     <use xlink:href="#me3cdbcc8f9" x="134.918429" y="214.657942" style="fill: #ff0000; stroke: #ff0000"/>
     <use xlink:href="#me3cdbcc8f9" x="145.033233" y="211.265498" style="fill: #ff0000; stroke: #ff0000"/>
     <use xlink:href="#me3cdbcc8f9" x="155.148036" y="207.216018" style="fill: #ff0000; stroke: #ff0000"/>
     <use xlink:href="#me3cdbcc8f9" x="165.26284" y="203.283161" style="fill: #ff0000; stroke: #ff0000"/>
     <use xlink:href="#me3cdbcc8f9" x="175.377644" y="199.290261" style="fill: #ff0000; stroke: #ff0000"/>
     <use xlink:href="#me3cdbcc8f9" x="185.492447" y="195.652819" style="fill: #ff0000; stroke: #ff0000"/>
     <use xlink:href="#me3cdbcc8f9" x="195.607251" y="191.868599" style="fill: #ff0000; stroke: #ff0000"/>
     <use xlink:href="#me3cdbcc8f9" x="205.722054" y="187.315748" style="fill: #ff0000; stroke: #ff0000"/>
     <use xlink:href="#me3cdbcc8f9" x="215.836858" y="182.647262" style="fill: #ff0000; stroke: #ff0000"/>
     <use xlink:href="#me3cdbcc8f9" x="225.951662" y="178.159369" style="fill: #ff0000; stroke: #ff0000"/>
     <use xlink:href="#me3cdbcc8f9" x="236.066465" y="173.128977" style="fill: #ff0000; stroke: #ff0000"/>
     <use xlink:href="#me3cdbcc8f9" x="246.181269" y="168.697179" style="fill: #ff0000; stroke: #ff0000"/>
     <use xlink:href="#me3cdbcc8f9" x="256.296073" y="163.111242" style="fill: #ff0000; stroke: #ff0000"/>
     <use xlink:href="#me3cdbcc8f9" x="266.410876" y="158.26101" style="fill: #ff0000; stroke: #ff0000"/>
     <use xlink:href="#me3cdbcc8f9" x="276.52568" y="154.734913" style="fill: #ff0000; stroke: #ff0000"/>
     <use xlink:href="#me3cdbcc8f9" x="286.640483" y="148.170522" style="fill: #ff0000; stroke: #ff0000"/>
     <use xlink:href="#me3cdbcc8f9" x="296.755287" y="142.930857" style="fill: #ff0000; stroke: #ff0000"/>
     <use xlink:href="#me3cdbcc8f9" x="306.870091" y="137.294752" style="fill: #ff0000; stroke: #ff0000"/>
     <use xlink:href="#me3cdbcc8f9" x="316.984894" y="129.688575" style="fill: #ff0000; stroke: #ff0000"/>
     <use xlink:href="#me3cdbcc8f9" x="327.099698" y="122.305725" style="fill: #ff0000; stroke: #ff0000"/>
     <use xlink:href="#me3cdbcc8f9" x="337.214502" y="114.754694" style="fill: #ff0000; stroke: #ff0000"/>
     <use xlink:href="#me3cdbcc8f9" x="347.329305" y="114.762524" style="fill: #ff0000; stroke: #ff0000"/>
     <use xlink:href="#me3cdbcc8f9" x="357.444109" y="110.061144" style="fill: #ff0000; stroke: #ff0000"/>
     <use xlink:href="#me3cdbcc8f9" x="367.558912" y="109.908086" style="fill: #ff0000; stroke: #ff0000"/>
     <use xlink:href="#me3cdbcc8f9" x="377.673716" y="104.442353" style="fill: #ff0000; stroke: #ff0000"/>
    </g>
   </g>
   <g id="PathCollection_2">
    <defs>
     <path id="mc8a644dc7d" d="M 0 3 
C 0.795609 3 1.55874 2.683901 2.12132 2.12132 
C 2.683901 1.55874 3 0.795609 3 0 
C 3 -0.795609 2.683901 -1.55874 2.12132 -2.12132 
C 1.55874 -2.683901 0.795609 -3 0 -3 
C -0.795609 -3 -1.55874 -2.683901 -2.12132 -2.12132 
C -2.683901 -1.55874 -3 -0.795609 -3 0 
C -3 0.795609 -2.683901 1.55874 -2.12132 2.12132 
C -1.55874 2.683901 -0.795609 3 0 3 
z
" style="stroke: #0000ff"/>
    </defs>
    <g clip-path="url(#p299f20eca2)">
     <use xlink:href="#mc8a644dc7d" x="54" y="242.138986" style="fill: #0000ff; stroke: #0000ff"/>
     <use xlink:href="#mc8a644dc7d" x="64.114804" y="241.427589" style="fill: #0000ff; stroke: #0000ff"/>
     <use xlink:href="#mc8a644dc7d" x="74.229607" y="240.837682" style="fill: #0000ff; stroke: #0000ff"/>
     <use xlink:href="#mc8a644dc7d" x="84.344411" y="239.865623" style="fill: #0000ff; stroke: #0000ff"/>
     <use xlink:href="#mc8a644dc7d" x="94.459215" y="238.612333" style="fill: #0000ff; stroke: #0000ff"/>
     <use xlink:href="#mc8a644dc7d" x="104.574018" y="237.953241" style="fill: #0000ff; stroke: #0000ff"/>
     <use xlink:href="#mc8a644dc7d" x="114.688822" y="236.865299" style="fill: #0000ff; stroke: #0000ff"/>
     <use xlink:href="#mc8a644dc7d" x="124.803625" y="236.083021" style="fill: #0000ff; stroke: #0000ff"/>
     <use xlink:href="#mc8a644dc7d" x="134.918429" y="235.468451" style="fill: #0000ff; stroke: #0000ff"/>
     <use xlink:href="#mc8a644dc7d" x="145.033233" y="234.799888" style="fill: #0000ff; stroke: #0000ff"/>
     <use xlink:href="#mc8a644dc7d" x="155.148036" y="233.908421" style="fill: #0000ff; stroke: #0000ff"/>
     <use xlink:href="#mc8a644dc7d" x="165.26284" y="233.291531" style="fill: #0000ff; stroke: #0000ff"/>
     <use xlink:href="#mc8a644dc7d" x="175.377644" y="232.703253" style="fill: #0000ff; stroke: #0000ff"/>
     <use xlink:href="#mc8a644dc7d" x="185.492447" y="232.93383" style="fill: #0000ff; stroke: #0000ff"/>
     <use xlink:href="#mc8a644dc7d" x="195.607251" y="232.479257" style="fill: #0000ff; stroke: #0000ff"/>
     <use xlink:href="#mc8a644dc7d" x="205.722054" y="232.064296" style="fill: #0000ff; stroke: #0000ff"/>
     <use xlink:href="#mc8a644dc7d" x="215.836858" y="231.680421" style="fill: #0000ff; stroke: #0000ff"/>
     <use xlink:href="#mc8a644dc7d" x="225.951662" y="229.049215" style="fill: #0000ff; stroke: #0000ff"/>
     <use xlink:href="#mc8a644dc7d" x="236.066465" y="226.404441" style="fill: #0000ff; stroke: #0000ff"/>
     <use xlink:href="#mc8a644dc7d" x="246.181269" y="224.896994" style="fill: #0000ff; stroke: #0000ff"/>
     <use xlink:href="#mc8a644dc7d" x="256.296073" y="225.685516" style="fill: #0000ff; stroke: #0000ff"/>
     <use xlink:href="#mc8a644dc7d" x="266.410876" y="226.008055" style="fill: #0000ff; stroke: #0000ff"/>
     <use xlink:href="#mc8a644dc7d" x="276.52568" y="221.781448" style="fill: #0000ff; stroke: #0000ff"/>
     <use xlink:href="#mc8a644dc7d" x="286.640483" y="221.941584" style="fill: #0000ff; stroke: #0000ff"/>
     <use xlink:href="#mc8a644dc7d" x="296.755287" y="224.592479" style="fill: #0000ff; stroke: #0000ff"/>
     <use xlink:href="#mc8a644dc7d" x="306.870091" y="225.611833" style="fill: #0000ff; stroke: #0000ff"/>
     <use xlink:href="#mc8a644dc7d" x="316.984894" y="223.954215" style="fill: #0000ff; stroke: #0000ff"/>
     <use xlink:href="#mc8a644dc7d" x="327.099698" y="225.052066" style="fill: #0000ff; stroke: #0000ff"/>
     <use xlink:href="#mc8a644dc7d" x="337.214502" y="232.355979" style="fill: #0000ff; stroke: #0000ff"/>
     <use xlink:href="#mc8a644dc7d" x="347.329305" y="215.897413" style="fill: #0000ff; stroke: #0000ff"/>
     <use xlink:href="#mc8a644dc7d" x="357.444109" y="227.373986" style="fill: #0000ff; stroke: #0000ff"/>
     <use xlink:href="#mc8a644dc7d" x="367.558912" y="230.734825" style="fill: #0000ff; stroke: #0000ff"/>
     <use xlink:href="#mc8a644dc7d" x="377.673716" y="261.605455" style="fill: #0000ff; stroke: #0000ff"/>
    </g>
   </g>
   <g id="PolyCollection_1">
    <defs>
     <path id="mcbff979e29" d="M 54 -411.795409 
L 54 -404.366554 
L 64.114804 -407.310122 
L 74.229607 -410.126858 
L 84.344411 -413.052215 
L 94.459215 -415.776729 
L 104.574018 -418.554688 
L 114.688822 -421.370517 
L 124.803625 -424.263882 
L 134.918429 -427.068126 
L 145.033233 -429.958431 
L 155.148036 -433.907935 
L 165.26284 -437.318753 
L 175.377644 -441.111418 
L 185.492447 -444.603724 
L 195.607251 -447.810749 
L 205.722054 -451.656309 
L 215.836858 -456.052136 
L 225.951662 -460.014154 
L 236.066465 -464.444114 
L 246.181269 -468.089794 
L 256.296073 -473.032867 
L 266.410876 -477.67266 
L 276.52568 -482.600209 
L 286.640483 -489.334038 
L 296.755287 -493.776675 
L 306.870091 -500.372463 
L 316.984894 -508.246965 
L 327.099698 -515.714114 
L 337.214502 -520.252083 
L 347.329305 -521.595548 
L 357.444109 -525.607772 
L 367.558912 -527.17684 
L 377.673716 -534.981614 
L 377.673716 -552.13368 
L 377.673716 -552.13368 
L 367.558912 -549.006987 
L 357.444109 -550.26994 
L 347.329305 -544.879405 
L 337.214502 -546.238529 
L 327.099698 -535.674435 
L 316.984894 -528.375885 
L 306.870091 -521.038033 
L 296.755287 -516.361611 
L 286.640483 -510.324919 
L 276.52568 -503.929965 
L 266.410876 -501.805321 
L 256.296073 -496.74465 
L 246.181269 -490.515847 
L 236.066465 -485.297932 
L 225.951662 -479.667109 
L 215.836858 -474.653341 
L 205.722054 -469.712196 
L 195.607251 -464.452053 
L 185.492447 -460.090638 
L 175.377644 -456.30806 
L 165.26284 -452.114926 
L 155.148036 -447.660028 
L 145.033233 -443.510573 
L 134.918429 -439.615989 
L 124.803625 -436.023709 
L 114.688822 -432.412835 
L 104.574018 -428.823489 
L 94.459215 -425.289072 
L 84.344411 -421.70051 
L 74.229607 -418.333903 
L 64.114804 -415.131996 
L 54 -411.795409 
z
" style="stroke: #ff0000; stroke-opacity: 0.2"/>
    </defs>
    <g clip-path="url(#p299f20eca2)">
     <use xlink:href="#mcbff979e29" x="0" y="648" style="fill: #ff0000; fill-opacity: 0.2; stroke: #ff0000; stroke-opacity: 0.2"/>
    </g>
   </g>
   <g id="PolyCollection_2">
    <defs>
     <path id="m165e2225ad" d="M 54 -418.739392 
L 54 -392.982636 
L 64.114804 -393.3107 
L 74.229607 -393.368771 
L 84.344411 -393.868048 
L 94.459215 -394.476703 
L 104.574018 -393.667309 
L 114.688822 -394.139782 
L 124.803625 -393.525327 
L 134.918429 -393.321792 
L 145.033233 -393.369673 
L 155.148036 -394.339221 
L 165.26284 -394.064425 
L 175.377644 -393.809779 
L 185.492447 -392.2538 
L 195.607251 -391.734104 
L 205.722054 -390.508995 
L 215.836858 -389.230493 
L 225.951662 -390.035828 
L 236.066465 -392.38409 
L 246.181269 -392.431106 
L 256.296073 -392.162422 
L 266.410876 -388.85418 
L 276.52568 -394.56238 
L 286.640483 -392.759317 
L 296.755287 -392.505119 
L 306.870091 -390.61037 
L 316.984894 -387.286636 
L 327.099698 -386.935441 
L 337.214502 -379.356389 
L 347.329305 -412.92041 
L 357.444109 -398.982144 
L 367.558912 -384.842934 
L 377.673716 -374.245165 
L 377.673716 -398.543926 
L 377.673716 -398.543926 
L 367.558912 -449.687415 
L 357.444109 -442.269884 
L 347.329305 -451.284765 
L 337.214502 -451.931653 
L 327.099698 -458.960427 
L 316.984894 -460.804934 
L 306.870091 -454.165964 
L 296.755287 -454.309923 
L 286.640483 -459.357516 
L 276.52568 -457.874723 
L 266.410876 -455.12971 
L 256.296073 -452.466546 
L 246.181269 -453.774907 
L 236.066465 -450.807028 
L 225.951662 -447.865742 
L 215.836858 -443.408665 
L 205.722054 -441.362413 
L 195.607251 -439.307382 
L 185.492447 -437.87854 
L 175.377644 -436.783714 
L 165.26284 -435.352513 
L 155.148036 -433.843937 
L 145.033233 -433.03055 
L 134.918429 -431.741305 
L 124.803625 -430.30863 
L 114.688822 -428.12962 
L 104.574018 -426.426209 
L 94.459215 -424.298631 
L 84.344411 -422.400705 
L 74.229607 -420.955866 
L 64.114804 -419.834123 
L 54 -418.739392 
z
" style="stroke: #0000ff; stroke-opacity: 0.2"/>
    </defs>
    <g clip-path="url(#p299f20eca2)">
     <use xlink:href="#m165e2225ad" x="0" y="648" style="fill: #0000ff; fill-opacity: 0.2; stroke: #0000ff; stroke-opacity: 0.2"/>
    </g>
   </g>
   <g id="matplotlib.axis_1">
    <g id="xtick_1">
     <g id="line2d_1">
      <path d="M 54 304.56 
L 54 77.76 
" clip-path="url(#p299f20eca2)" style="fill: none; stroke: #b0b0b0; stroke-width: 0.8; stroke-linecap: square"/>
     </g>
     <g id="line2d_2">
      <defs>
       <path id="m5caf0d3073" d="M 0 0 
L 0 3.5 
" style="stroke: #000000; stroke-width: 0.8"/>
      </defs>
      <g>
       <use xlink:href="#m5caf0d3073" x="54" y="304.56" style="stroke: #000000; stroke-width: 0.8"/>
      </g>
     </g>
     <g id="text_1">
      <!-- 0 -->
      <g transform="translate(50.81875 319.158437) scale(0.1 -0.1)">
       <defs>
        <path id="DejaVuSans-30" d="M 2034 4250 
Q 1547 4250 1301 3770 
Q 1056 3291 1056 2328 
Q 1056 1369 1301 889 
Q 1547 409 2034 409 
Q 2525 409 2770 889 
Q 3016 1369 3016 2328 
Q 3016 3291 2770 3770 
Q 2525 4250 2034 4250 
z
M 2034 4750 
Q 2819 4750 3233 4129 
Q 3647 3509 3647 2328 
Q 3647 1150 3233 529 
Q 2819 -91 2034 -91 
Q 1250 -91 836 529 
Q 422 1150 422 2328 
Q 422 3509 836 4129 
Q 1250 4750 2034 4750 
z
" transform="scale(0.015625)"/>
       </defs>
       <use xlink:href="#DejaVuSans-30"/>
      </g>
     </g>
    </g>
    <g id="xtick_2">
     <g id="line2d_3">
      <path d="M 104.574018 304.56 
L 104.574018 77.76 
" clip-path="url(#p299f20eca2)" style="fill: none; stroke: #b0b0b0; stroke-width: 0.8; stroke-linecap: square"/>
     </g>
     <g id="line2d_4">
      <g>
       <use xlink:href="#m5caf0d3073" x="104.574018" y="304.56" style="stroke: #000000; stroke-width: 0.8"/>
      </g>
     </g>
     <g id="text_2">
      <!-- 5 -->
      <g transform="translate(101.392768 319.158437) scale(0.1 -0.1)">
       <defs>
        <path id="DejaVuSans-35" d="M 691 4666 
L 3169 4666 
L 3169 4134 
L 1269 4134 
L 1269 2991 
Q 1406 3038 1543 3061 
Q 1681 3084 1819 3084 
Q 2600 3084 3056 2656 
Q 3513 2228 3513 1497 
Q 3513 744 3044 326 
Q 2575 -91 1722 -91 
Q 1428 -91 1123 -41 
Q 819 9 494 109 
L 494 744 
Q 775 591 1075 516 
Q 1375 441 1709 441 
Q 2250 441 2565 725 
Q 2881 1009 2881 1497 
Q 2881 1984 2565 2268 
Q 2250 2553 1709 2553 
Q 1456 2553 1204 2497 
Q 953 2441 691 2322 
L 691 4666 
z
" transform="scale(0.015625)"/>
       </defs>
       <use xlink:href="#DejaVuSans-35"/>
      </g>
     </g>
    </g>
    <g id="xtick_3">
     <g id="line2d_5">
      <path d="M 155.148036 304.56 
L 155.148036 77.76 
" clip-path="url(#p299f20eca2)" style="fill: none; stroke: #b0b0b0; stroke-width: 0.8; stroke-linecap: square"/>
     </g>
     <g id="line2d_6">
      <g>
       <use xlink:href="#m5caf0d3073" x="155.148036" y="304.56" style="stroke: #000000; stroke-width: 0.8"/>
      </g>
     </g>
     <g id="text_3">
      <!-- 10 -->
      <g transform="translate(148.785536 319.158437) scale(0.1 -0.1)">
       <defs>
        <path id="DejaVuSans-31" d="M 794 531 
L 1825 531 
L 1825 4091 
L 703 3866 
L 703 4441 
L 1819 4666 
L 2450 4666 
L 2450 531 
L 3481 531 
L 3481 0 
L 794 0 
L 794 531 
z
" transform="scale(0.015625)"/>
       </defs>
       <use xlink:href="#DejaVuSans-31"/>
       <use xlink:href="#DejaVuSans-30" x="63.623047"/>
      </g>
     </g>
    </g>
    <g id="xtick_4">
     <g id="line2d_7">
      <path d="M 205.722054 304.56 
L 205.722054 77.76 
" clip-path="url(#p299f20eca2)" style="fill: none; stroke: #b0b0b0; stroke-width: 0.8; stroke-linecap: square"/>
     </g>
     <g id="line2d_8">
      <g>
       <use xlink:href="#m5caf0d3073" x="205.722054" y="304.56" style="stroke: #000000; stroke-width: 0.8"/>
      </g>
     </g>
     <g id="text_4">
      <!-- 15 -->
      <g transform="translate(199.359554 319.158437) scale(0.1 -0.1)">
       <use xlink:href="#DejaVuSans-31"/>
       <use xlink:href="#DejaVuSans-35" x="63.623047"/>
      </g>
     </g>
    </g>
    <g id="xtick_5">
     <g id="line2d_9">
      <path d="M 256.296073 304.56 
L 256.296073 77.76 
" clip-path="url(#p299f20eca2)" style="fill: none; stroke: #b0b0b0; stroke-width: 0.8; stroke-linecap: square"/>
     </g>
     <g id="line2d_10">
      <g>
       <use xlink:href="#m5caf0d3073" x="256.296073" y="304.56" style="stroke: #000000; stroke-width: 0.8"/>
      </g>
     </g>
     <g id="text_5">
      <!-- 20 -->
      <g transform="translate(249.933573 319.158437) scale(0.1 -0.1)">
       <defs>
        <path id="DejaVuSans-32" d="M 1228 531 
L 3431 531 
L 3431 0 
L 469 0 
L 469 531 
Q 828 903 1448 1529 
Q 2069 2156 2228 2338 
Q 2531 2678 2651 2914 
Q 2772 3150 2772 3378 
Q 2772 3750 2511 3984 
Q 2250 4219 1831 4219 
Q 1534 4219 1204 4116 
Q 875 4013 500 3803 
L 500 4441 
Q 881 4594 1212 4672 
Q 1544 4750 1819 4750 
Q 2544 4750 2975 4387 
Q 3406 4025 3406 3419 
Q 3406 3131 3298 2873 
Q 3191 2616 2906 2266 
Q 2828 2175 2409 1742 
Q 1991 1309 1228 531 
z
" transform="scale(0.015625)"/>
       </defs>
       <use xlink:href="#DejaVuSans-32"/>
       <use xlink:href="#DejaVuSans-30" x="63.623047"/>
      </g>
     </g>
    </g>
    <g id="xtick_6">
     <g id="line2d_11">
      <path d="M 306.870091 304.56 
L 306.870091 77.76 
" clip-path="url(#p299f20eca2)" style="fill: none; stroke: #b0b0b0; stroke-width: 0.8; stroke-linecap: square"/>
     </g>
     <g id="line2d_12">
      <g>
       <use xlink:href="#m5caf0d3073" x="306.870091" y="304.56" style="stroke: #000000; stroke-width: 0.8"/>
      </g>
     </g>
     <g id="text_6">
      <!-- 25 -->
      <g transform="translate(300.507591 319.158437) scale(0.1 -0.1)">
       <use xlink:href="#DejaVuSans-32"/>
       <use xlink:href="#DejaVuSans-35" x="63.623047"/>
      </g>
     </g>
    </g>
    <g id="xtick_7">
     <g id="line2d_13">
      <path d="M 357.444109 304.56 
L 357.444109 77.76 
" clip-path="url(#p299f20eca2)" style="fill: none; stroke: #b0b0b0; stroke-width: 0.8; stroke-linecap: square"/>
     </g>
     <g id="line2d_14">
      <g>
       <use xlink:href="#m5caf0d3073" x="357.444109" y="304.56" style="stroke: #000000; stroke-width: 0.8"/>
      </g>
     </g>
     <g id="text_7">
      <!-- 30 -->
      <g transform="translate(351.081609 319.158437) scale(0.1 -0.1)">
       <defs>
        <path id="DejaVuSans-33" d="M 2597 2516 
Q 3050 2419 3304 2112 
Q 3559 1806 3559 1356 
Q 3559 666 3084 287 
Q 2609 -91 1734 -91 
Q 1441 -91 1130 -33 
Q 819 25 488 141 
L 488 750 
Q 750 597 1062 519 
Q 1375 441 1716 441 
Q 2309 441 2620 675 
Q 2931 909 2931 1356 
Q 2931 1769 2642 2001 
Q 2353 2234 1838 2234 
L 1294 2234 
L 1294 2753 
L 1863 2753 
Q 2328 2753 2575 2939 
Q 2822 3125 2822 3475 
Q 2822 3834 2567 4026 
Q 2313 4219 1838 4219 
Q 1578 4219 1281 4162 
Q 984 4106 628 3988 
L 628 4550 
Q 988 4650 1302 4700 
Q 1616 4750 1894 4750 
Q 2613 4750 3031 4423 
Q 3450 4097 3450 3541 
Q 3450 3153 3228 2886 
Q 3006 2619 2597 2516 
z
" transform="scale(0.015625)"/>
       </defs>
       <use xlink:href="#DejaVuSans-33"/>
       <use xlink:href="#DejaVuSans-30" x="63.623047"/>
      </g>
     </g>
    </g>
    <g id="text_8">
     <!-- Number of Box -->
     <g transform="translate(165.335156 336.635781) scale(0.15 -0.15)">
      <defs>
       <path id="DejaVuSans-4e" d="M 628 4666 
L 1478 4666 
L 3547 763 
L 3547 4666 
L 4159 4666 
L 4159 0 
L 3309 0 
L 1241 3903 
L 1241 0 
L 628 0 
L 628 4666 
z
" transform="scale(0.015625)"/>
       <path id="DejaVuSans-75" d="M 544 1381 
L 544 3500 
L 1119 3500 
L 1119 1403 
Q 1119 906 1312 657 
Q 1506 409 1894 409 
Q 2359 409 2629 706 
Q 2900 1003 2900 1516 
L 2900 3500 
L 3475 3500 
L 3475 0 
L 2900 0 
L 2900 538 
Q 2691 219 2414 64 
Q 2138 -91 1772 -91 
Q 1169 -91 856 284 
Q 544 659 544 1381 
z
M 1991 3584 
L 1991 3584 
z
" transform="scale(0.015625)"/>
       <path id="DejaVuSans-6d" d="M 3328 2828 
Q 3544 3216 3844 3400 
Q 4144 3584 4550 3584 
Q 5097 3584 5394 3201 
Q 5691 2819 5691 2113 
L 5691 0 
L 5113 0 
L 5113 2094 
Q 5113 2597 4934 2840 
Q 4756 3084 4391 3084 
Q 3944 3084 3684 2787 
Q 3425 2491 3425 1978 
L 3425 0 
L 2847 0 
L 2847 2094 
Q 2847 2600 2669 2842 
Q 2491 3084 2119 3084 
Q 1678 3084 1418 2786 
Q 1159 2488 1159 1978 
L 1159 0 
L 581 0 
L 581 3500 
L 1159 3500 
L 1159 2956 
Q 1356 3278 1631 3431 
Q 1906 3584 2284 3584 
Q 2666 3584 2933 3390 
Q 3200 3197 3328 2828 
z
" transform="scale(0.015625)"/>
       <path id="DejaVuSans-62" d="M 3116 1747 
Q 3116 2381 2855 2742 
Q 2594 3103 2138 3103 
Q 1681 3103 1420 2742 
Q 1159 2381 1159 1747 
Q 1159 1113 1420 752 
Q 1681 391 2138 391 
Q 2594 391 2855 752 
Q 3116 1113 3116 1747 
z
M 1159 2969 
Q 1341 3281 1617 3432 
Q 1894 3584 2278 3584 
Q 2916 3584 3314 3078 
Q 3713 2572 3713 1747 
Q 3713 922 3314 415 
Q 2916 -91 2278 -91 
Q 1894 -91 1617 61 
Q 1341 213 1159 525 
L 1159 0 
L 581 0 
L 581 4863 
L 1159 4863 
L 1159 2969 
z
" transform="scale(0.015625)"/>
       <path id="DejaVuSans-65" d="M 3597 1894 
L 3597 1613 
L 953 1613 
Q 991 1019 1311 708 
Q 1631 397 2203 397 
Q 2534 397 2845 478 
Q 3156 559 3463 722 
L 3463 178 
Q 3153 47 2828 -22 
Q 2503 -91 2169 -91 
Q 1331 -91 842 396 
Q 353 884 353 1716 
Q 353 2575 817 3079 
Q 1281 3584 2069 3584 
Q 2775 3584 3186 3129 
Q 3597 2675 3597 1894 
z
M 3022 2063 
Q 3016 2534 2758 2815 
Q 2500 3097 2075 3097 
Q 1594 3097 1305 2825 
Q 1016 2553 972 2059 
L 3022 2063 
z
" transform="scale(0.015625)"/>
       <path id="DejaVuSans-72" d="M 2631 2963 
Q 2534 3019 2420 3045 
Q 2306 3072 2169 3072 
Q 1681 3072 1420 2755 
Q 1159 2438 1159 1844 
L 1159 0 
L 581 0 
L 581 3500 
L 1159 3500 
L 1159 2956 
Q 1341 3275 1631 3429 
Q 1922 3584 2338 3584 
Q 2397 3584 2469 3576 
Q 2541 3569 2628 3553 
L 2631 2963 
z
" transform="scale(0.015625)"/>
       <path id="DejaVuSans-20" transform="scale(0.015625)"/>
       <path id="DejaVuSans-6f" d="M 1959 3097 
Q 1497 3097 1228 2736 
Q 959 2375 959 1747 
Q 959 1119 1226 758 
Q 1494 397 1959 397 
Q 2419 397 2687 759 
Q 2956 1122 2956 1747 
Q 2956 2369 2687 2733 
Q 2419 3097 1959 3097 
z
M 1959 3584 
Q 2709 3584 3137 3096 
Q 3566 2609 3566 1747 
Q 3566 888 3137 398 
Q 2709 -91 1959 -91 
Q 1206 -91 779 398 
Q 353 888 353 1747 
Q 353 2609 779 3096 
Q 1206 3584 1959 3584 
z
" transform="scale(0.015625)"/>
       <path id="DejaVuSans-66" d="M 2375 4863 
L 2375 4384 
L 1825 4384 
Q 1516 4384 1395 4259 
Q 1275 4134 1275 3809 
L 1275 3500 
L 2222 3500 
L 2222 3053 
L 1275 3053 
L 1275 0 
L 697 0 
L 697 3053 
L 147 3053 
L 147 3500 
L 697 3500 
L 697 3744 
Q 697 4328 969 4595 
Q 1241 4863 1831 4863 
L 2375 4863 
z
" transform="scale(0.015625)"/>
       <path id="DejaVuSans-42" d="M 1259 2228 
L 1259 519 
L 2272 519 
Q 2781 519 3026 730 
Q 3272 941 3272 1375 
Q 3272 1813 3026 2020 
Q 2781 2228 2272 2228 
L 1259 2228 
z
M 1259 4147 
L 1259 2741 
L 2194 2741 
Q 2656 2741 2882 2914 
Q 3109 3088 3109 3444 
Q 3109 3797 2882 3972 
Q 2656 4147 2194 4147 
L 1259 4147 
z
M 628 4666 
L 2241 4666 
Q 2963 4666 3353 4366 
Q 3744 4066 3744 3513 
Q 3744 3084 3544 2831 
Q 3344 2578 2956 2516 
Q 3422 2416 3680 2098 
Q 3938 1781 3938 1306 
Q 3938 681 3513 340 
Q 3088 0 2303 0 
L 628 0 
L 628 4666 
z
" transform="scale(0.015625)"/>
       <path id="DejaVuSans-78" d="M 3513 3500 
L 2247 1797 
L 3578 0 
L 2900 0 
L 1881 1375 
L 863 0 
L 184 0 
L 1544 1831 
L 300 3500 
L 978 3500 
L 1906 2253 
L 2834 3500 
L 3513 3500 
z
" transform="scale(0.015625)"/>
      </defs>
      <use xlink:href="#DejaVuSans-4e"/>
      <use xlink:href="#DejaVuSans-75" x="74.804688"/>
      <use xlink:href="#DejaVuSans-6d" x="138.183594"/>
      <use xlink:href="#DejaVuSans-62" x="235.595703"/>
      <use xlink:href="#DejaVuSans-65" x="299.072266"/>
      <use xlink:href="#DejaVuSans-72" x="360.595703"/>
      <use xlink:href="#DejaVuSans-20" x="401.708984"/>
      <use xlink:href="#DejaVuSans-6f" x="433.496094"/>
      <use xlink:href="#DejaVuSans-66" x="494.677734"/>
      <use xlink:href="#DejaVuSans-20" x="529.882812"/>
      <use xlink:href="#DejaVuSans-42" x="561.669922"/>
      <use xlink:href="#DejaVuSans-6f" x="630.273438"/>
      <use xlink:href="#DejaVuSans-78" x="688.330078"/>
     </g>
    </g>
   </g>
   <g id="matplotlib.axis_2">
    <g id="ytick_1">
     <g id="line2d_15">
      <path d="M 54 304.56 
L 388.8 304.56 
" clip-path="url(#p299f20eca2)" style="fill: none; stroke: #b0b0b0; stroke-width: 0.8; stroke-linecap: square"/>
     </g>
     <g id="line2d_16">
      <defs>
       <path id="m76a8933051" d="M 0 0 
L -3.5 0 
" style="stroke: #000000; stroke-width: 0.8"/>
      </defs>
      <g>
       <use xlink:href="#m76a8933051" x="54" y="304.56" style="stroke: #000000; stroke-width: 0.8"/>
      </g>
     </g>
     <g id="text_9">
      <!-- 0.0 -->
      <g transform="translate(31.096875 308.359219) scale(0.1 -0.1)">
       <defs>
        <path id="DejaVuSans-2e" d="M 684 794 
L 1344 794 
L 1344 0 
L 684 0 
L 684 794 
z
" transform="scale(0.015625)"/>
       </defs>
       <use xlink:href="#DejaVuSans-30"/>
       <use xlink:href="#DejaVuSans-2e" x="63.623047"/>
       <use xlink:href="#DejaVuSans-30" x="95.410156"/>
      </g>
     </g>
    </g>
    <g id="ytick_2">
     <g id="line2d_17">
      <path d="M 54 263.323636 
L 388.8 263.323636 
" clip-path="url(#p299f20eca2)" style="fill: none; stroke: #b0b0b0; stroke-width: 0.8; stroke-linecap: square"/>
     </g>
     <g id="line2d_18">
      <g>
       <use xlink:href="#m76a8933051" x="54" y="263.323636" style="stroke: #000000; stroke-width: 0.8"/>
      </g>
     </g>
     <g id="text_10">
      <!-- 0.2 -->
      <g transform="translate(31.096875 267.122855) scale(0.1 -0.1)">
       <use xlink:href="#DejaVuSans-30"/>
       <use xlink:href="#DejaVuSans-2e" x="63.623047"/>
       <use xlink:href="#DejaVuSans-32" x="95.410156"/>
      </g>
     </g>
    </g>
    <g id="ytick_3">
     <g id="line2d_19">
      <path d="M 54 222.087273 
L 388.8 222.087273 
" clip-path="url(#p299f20eca2)" style="fill: none; stroke: #b0b0b0; stroke-width: 0.8; stroke-linecap: square"/>
     </g>
     <g id="line2d_20">
      <g>
       <use xlink:href="#m76a8933051" x="54" y="222.087273" style="stroke: #000000; stroke-width: 0.8"/>
      </g>
     </g>
     <g id="text_11">
      <!-- 0.4 -->
      <g transform="translate(31.096875 225.886491) scale(0.1 -0.1)">
       <defs>
        <path id="DejaVuSans-34" d="M 2419 4116 
L 825 1625 
L 2419 1625 
L 2419 4116 
z
M 2253 4666 
L 3047 4666 
L 3047 1625 
L 3713 1625 
L 3713 1100 
L 3047 1100 
L 3047 0 
L 2419 0 
L 2419 1100 
L 313 1100 
L 313 1709 
L 2253 4666 
z
" transform="scale(0.015625)"/>
       </defs>
       <use xlink:href="#DejaVuSans-30"/>
       <use xlink:href="#DejaVuSans-2e" x="63.623047"/>
       <use xlink:href="#DejaVuSans-34" x="95.410156"/>
      </g>
     </g>
    </g>
    <g id="ytick_4">
     <g id="line2d_21">
      <path d="M 54 180.850909 
L 388.8 180.850909 
" clip-path="url(#p299f20eca2)" style="fill: none; stroke: #b0b0b0; stroke-width: 0.8; stroke-linecap: square"/>
     </g>
     <g id="line2d_22">
      <g>
       <use xlink:href="#m76a8933051" x="54" y="180.850909" style="stroke: #000000; stroke-width: 0.8"/>
      </g>
     </g>
     <g id="text_12">
      <!-- 0.6 -->
      <g transform="translate(31.096875 184.650128) scale(0.1 -0.1)">
       <defs>
        <path id="DejaVuSans-36" d="M 2113 2584 
Q 1688 2584 1439 2293 
Q 1191 2003 1191 1497 
Q 1191 994 1439 701 
Q 1688 409 2113 409 
Q 2538 409 2786 701 
Q 3034 994 3034 1497 
Q 3034 2003 2786 2293 
Q 2538 2584 2113 2584 
z
M 3366 4563 
L 3366 3988 
Q 3128 4100 2886 4159 
Q 2644 4219 2406 4219 
Q 1781 4219 1451 3797 
Q 1122 3375 1075 2522 
Q 1259 2794 1537 2939 
Q 1816 3084 2150 3084 
Q 2853 3084 3261 2657 
Q 3669 2231 3669 1497 
Q 3669 778 3244 343 
Q 2819 -91 2113 -91 
Q 1303 -91 875 529 
Q 447 1150 447 2328 
Q 447 3434 972 4092 
Q 1497 4750 2381 4750 
Q 2619 4750 2861 4703 
Q 3103 4656 3366 4563 
z
" transform="scale(0.015625)"/>
       </defs>
       <use xlink:href="#DejaVuSans-30"/>
       <use xlink:href="#DejaVuSans-2e" x="63.623047"/>
       <use xlink:href="#DejaVuSans-36" x="95.410156"/>
      </g>
     </g>
    </g>
    <g id="ytick_5">
     <g id="line2d_23">
      <path d="M 54 139.614545 
L 388.8 139.614545 
" clip-path="url(#p299f20eca2)" style="fill: none; stroke: #b0b0b0; stroke-width: 0.8; stroke-linecap: square"/>
     </g>
     <g id="line2d_24">
      <g>
       <use xlink:href="#m76a8933051" x="54" y="139.614545" style="stroke: #000000; stroke-width: 0.8"/>
      </g>
     </g>
     <g id="text_13">
      <!-- 0.8 -->
      <g transform="translate(31.096875 143.413764) scale(0.1 -0.1)">
       <defs>
        <path id="DejaVuSans-38" d="M 2034 2216 
Q 1584 2216 1326 1975 
Q 1069 1734 1069 1313 
Q 1069 891 1326 650 
Q 1584 409 2034 409 
Q 2484 409 2743 651 
Q 3003 894 3003 1313 
Q 3003 1734 2745 1975 
Q 2488 2216 2034 2216 
z
M 1403 2484 
Q 997 2584 770 2862 
Q 544 3141 544 3541 
Q 544 4100 942 4425 
Q 1341 4750 2034 4750 
Q 2731 4750 3128 4425 
Q 3525 4100 3525 3541 
Q 3525 3141 3298 2862 
Q 3072 2584 2669 2484 
Q 3125 2378 3379 2068 
Q 3634 1759 3634 1313 
Q 3634 634 3220 271 
Q 2806 -91 2034 -91 
Q 1263 -91 848 271 
Q 434 634 434 1313 
Q 434 1759 690 2068 
Q 947 2378 1403 2484 
z
M 1172 3481 
Q 1172 3119 1398 2916 
Q 1625 2713 2034 2713 
Q 2441 2713 2670 2916 
Q 2900 3119 2900 3481 
Q 2900 3844 2670 4047 
Q 2441 4250 2034 4250 
Q 1625 4250 1398 4047 
Q 1172 3844 1172 3481 
z
" transform="scale(0.015625)"/>
       </defs>
       <use xlink:href="#DejaVuSans-30"/>
       <use xlink:href="#DejaVuSans-2e" x="63.623047"/>
       <use xlink:href="#DejaVuSans-38" x="95.410156"/>
      </g>
     </g>
    </g>
    <g id="ytick_6">
     <g id="line2d_25">
      <path d="M 54 98.378182 
L 388.8 98.378182 
" clip-path="url(#p299f20eca2)" style="fill: none; stroke: #b0b0b0; stroke-width: 0.8; stroke-linecap: square"/>
     </g>
     <g id="line2d_26">
      <g>
       <use xlink:href="#m76a8933051" x="54" y="98.378182" style="stroke: #000000; stroke-width: 0.8"/>
      </g>
     </g>
     <g id="text_14">
      <!-- 1.0 -->
      <g transform="translate(31.096875 102.177401) scale(0.1 -0.1)">
       <use xlink:href="#DejaVuSans-31"/>
       <use xlink:href="#DejaVuSans-2e" x="63.623047"/>
       <use xlink:href="#DejaVuSans-30" x="95.410156"/>
      </g>
     </g>
    </g>
    <g id="text_15">
     <!-- Precision -->
     <g transform="translate(23.977344 224.620547) rotate(-90) scale(0.15 -0.15)">
      <defs>
       <path id="DejaVuSans-50" d="M 1259 4147 
L 1259 2394 
L 2053 2394 
Q 2494 2394 2734 2622 
Q 2975 2850 2975 3272 
Q 2975 3691 2734 3919 
Q 2494 4147 2053 4147 
L 1259 4147 
z
M 628 4666 
L 2053 4666 
Q 2838 4666 3239 4311 
Q 3641 3956 3641 3272 
Q 3641 2581 3239 2228 
Q 2838 1875 2053 1875 
L 1259 1875 
L 1259 0 
L 628 0 
L 628 4666 
z
" transform="scale(0.015625)"/>
       <path id="DejaVuSans-63" d="M 3122 3366 
L 3122 2828 
Q 2878 2963 2633 3030 
Q 2388 3097 2138 3097 
Q 1578 3097 1268 2742 
Q 959 2388 959 1747 
Q 959 1106 1268 751 
Q 1578 397 2138 397 
Q 2388 397 2633 464 
Q 2878 531 3122 666 
L 3122 134 
Q 2881 22 2623 -34 
Q 2366 -91 2075 -91 
Q 1284 -91 818 406 
Q 353 903 353 1747 
Q 353 2603 823 3093 
Q 1294 3584 2113 3584 
Q 2378 3584 2631 3529 
Q 2884 3475 3122 3366 
z
" transform="scale(0.015625)"/>
       <path id="DejaVuSans-69" d="M 603 3500 
L 1178 3500 
L 1178 0 
L 603 0 
L 603 3500 
z
M 603 4863 
L 1178 4863 
L 1178 4134 
L 603 4134 
L 603 4863 
z
" transform="scale(0.015625)"/>
       <path id="DejaVuSans-73" d="M 2834 3397 
L 2834 2853 
Q 2591 2978 2328 3040 
Q 2066 3103 1784 3103 
Q 1356 3103 1142 2972 
Q 928 2841 928 2578 
Q 928 2378 1081 2264 
Q 1234 2150 1697 2047 
L 1894 2003 
Q 2506 1872 2764 1633 
Q 3022 1394 3022 966 
Q 3022 478 2636 193 
Q 2250 -91 1575 -91 
Q 1294 -91 989 -36 
Q 684 19 347 128 
L 347 722 
Q 666 556 975 473 
Q 1284 391 1588 391 
Q 1994 391 2212 530 
Q 2431 669 2431 922 
Q 2431 1156 2273 1281 
Q 2116 1406 1581 1522 
L 1381 1569 
Q 847 1681 609 1914 
Q 372 2147 372 2553 
Q 372 3047 722 3315 
Q 1072 3584 1716 3584 
Q 2034 3584 2315 3537 
Q 2597 3491 2834 3397 
z
" transform="scale(0.015625)"/>
       <path id="DejaVuSans-6e" d="M 3513 2113 
L 3513 0 
L 2938 0 
L 2938 2094 
Q 2938 2591 2744 2837 
Q 2550 3084 2163 3084 
Q 1697 3084 1428 2787 
Q 1159 2491 1159 1978 
L 1159 0 
L 581 0 
L 581 3500 
L 1159 3500 
L 1159 2956 
Q 1366 3272 1645 3428 
Q 1925 3584 2291 3584 
Q 2894 3584 3203 3211 
Q 3513 2838 3513 2113 
z
" transform="scale(0.015625)"/>
      </defs>
      <use xlink:href="#DejaVuSans-50"/>
      <use xlink:href="#DejaVuSans-72" x="58.552734"/>
      <use xlink:href="#DejaVuSans-65" x="97.416016"/>
      <use xlink:href="#DejaVuSans-63" x="158.939453"/>
      <use xlink:href="#DejaVuSans-69" x="213.919922"/>
      <use xlink:href="#DejaVuSans-73" x="241.703125"/>
      <use xlink:href="#DejaVuSans-69" x="293.802734"/>
      <use xlink:href="#DejaVuSans-6f" x="321.585938"/>
      <use xlink:href="#DejaVuSans-6e" x="382.767578"/>
     </g>
    </g>
   </g>
   <g id="patch_3">
    <path d="M 54 304.56 
L 54 77.76 
" style="fill: none; stroke: #000000; stroke-width: 0.8; stroke-linejoin: miter; stroke-linecap: square"/>
   </g>
   <g id="patch_4">
    <path d="M 388.8 304.56 
L 388.8 77.76 
" style="fill: none; stroke: #000000; stroke-width: 0.8; stroke-linejoin: miter; stroke-linecap: square"/>
   </g>
   <g id="patch_5">
    <path d="M 54 304.56 
L 388.8 304.56 
" style="fill: none; stroke: #000000; stroke-width: 0.8; stroke-linejoin: miter; stroke-linecap: square"/>
   </g>
   <g id="patch_6">
    <path d="M 54 77.76 
L 388.8 77.76 
" style="fill: none; stroke: #000000; stroke-width: 0.8; stroke-linejoin: miter; stroke-linecap: square"/>
   </g>
   <g id="legend_1">
    <g id="patch_7">
     <path d="M 64.5 133.794375 
L 148.48125 133.794375 
Q 151.48125 133.794375 151.48125 130.794375 
L 151.48125 88.26 
Q 151.48125 85.26 148.48125 85.26 
L 64.5 85.26 
Q 61.5 85.26 61.5 88.26 
L 61.5 130.794375 
Q 61.5 133.794375 64.5 133.794375 
z
" style="fill: #ffffff; opacity: 0.8; stroke: #cccccc; stroke-linejoin: miter"/>
    </g>
    <g id="PathCollection_3">
     <g>
      <use xlink:href="#me3cdbcc8f9" x="82.5" y="98.720156" style="fill: #ff0000; stroke: #ff0000"/>
     </g>
    </g>
    <g id="text_16">
     <!-- Train -->
     <g transform="translate(109.5 102.657656) scale(0.15 -0.15)">
      <defs>
       <path id="DejaVuSans-54" d="M -19 4666 
L 3928 4666 
L 3928 4134 
L 2272 4134 
L 2272 0 
L 1638 0 
L 1638 4134 
L -19 4134 
L -19 4666 
z
" transform="scale(0.015625)"/>
       <path id="DejaVuSans-61" d="M 2194 1759 
Q 1497 1759 1228 1600 
Q 959 1441 959 1056 
Q 959 750 1161 570 
Q 1363 391 1709 391 
Q 2188 391 2477 730 
Q 2766 1069 2766 1631 
L 2766 1759 
L 2194 1759 
z
M 3341 1997 
L 3341 0 
L 2766 0 
L 2766 531 
Q 2569 213 2275 61 
Q 1981 -91 1556 -91 
Q 1019 -91 701 211 
Q 384 513 384 1019 
Q 384 1609 779 1909 
Q 1175 2209 1959 2209 
L 2766 2209 
L 2766 2266 
Q 2766 2663 2505 2880 
Q 2244 3097 1772 3097 
Q 1472 3097 1187 3025 
Q 903 2953 641 2809 
L 641 3341 
Q 956 3463 1253 3523 
Q 1550 3584 1831 3584 
Q 2591 3584 2966 3190 
Q 3341 2797 3341 1997 
z
" transform="scale(0.015625)"/>
      </defs>
      <use xlink:href="#DejaVuSans-54"/>
      <use xlink:href="#DejaVuSans-72" x="46.333984"/>
      <use xlink:href="#DejaVuSans-61" x="87.447266"/>
      <use xlink:href="#DejaVuSans-69" x="148.726562"/>
      <use xlink:href="#DejaVuSans-6e" x="176.509766"/>
     </g>
    </g>
    <g id="PathCollection_4">
     <g>
      <use xlink:href="#mc8a644dc7d" x="82.5" y="120.737344" style="fill: #0000ff; stroke: #0000ff"/>
     </g>
    </g>
    <g id="text_17">
     <!-- Test -->
     <g transform="translate(109.5 124.674844) scale(0.15 -0.15)">
      <defs>
       <path id="DejaVuSans-74" d="M 1172 4494 
L 1172 3500 
L 2356 3500 
L 2356 3053 
L 1172 3053 
L 1172 1153 
Q 1172 725 1289 603 
Q 1406 481 1766 481 
L 2356 481 
L 2356 0 
L 1766 0 
Q 1100 0 847 248 
Q 594 497 594 1153 
L 594 3053 
L 172 3053 
L 172 3500 
L 594 3500 
L 594 4494 
L 1172 4494 
z
" transform="scale(0.015625)"/>
      </defs>
      <use xlink:href="#DejaVuSans-54"/>
      <use xlink:href="#DejaVuSans-65" x="44.083984"/>
      <use xlink:href="#DejaVuSans-73" x="105.607422"/>
      <use xlink:href="#DejaVuSans-74" x="157.707031"/>
     </g>
    </g>
   </g>
  </g>
  <g id="axes_2">
   <g id="patch_8">
    <path d="M 54 576.72 
L 388.8 576.72 
L 388.8 349.92 
L 54 349.92 
z
" style="fill: #ffffff"/>
   </g>
   <g id="PathCollection_5">
    <g clip-path="url(#p6f1bf0460a)">
     <use xlink:href="#me3cdbcc8f9" x="54" y="376.938291" style="fill: #ff0000; stroke: #ff0000"/>
     <use xlink:href="#me3cdbcc8f9" x="64.114804" y="373.041375" style="fill: #ff0000; stroke: #ff0000"/>
     <use xlink:href="#me3cdbcc8f9" x="74.229607" y="373.662327" style="fill: #ff0000; stroke: #ff0000"/>
     <use xlink:href="#me3cdbcc8f9" x="84.344411" y="373.506899" style="fill: #ff0000; stroke: #ff0000"/>
     <use xlink:href="#me3cdbcc8f9" x="94.459215" y="374.267534" style="fill: #ff0000; stroke: #ff0000"/>
     <use xlink:href="#me3cdbcc8f9" x="104.574018" y="373.974143" style="fill: #ff0000; stroke: #ff0000"/>
     <use xlink:href="#me3cdbcc8f9" x="114.688822" y="374.620359" style="fill: #ff0000; stroke: #ff0000"/>
     <use xlink:href="#me3cdbcc8f9" x="124.803625" y="375.506583" style="fill: #ff0000; stroke: #ff0000"/>
     <use xlink:href="#me3cdbcc8f9" x="134.918429" y="375.641015" style="fill: #ff0000; stroke: #ff0000"/>
     <use xlink:href="#me3cdbcc8f9" x="145.033233" y="375.517554" style="fill: #ff0000; stroke: #ff0000"/>
     <use xlink:href="#me3cdbcc8f9" x="155.148036" y="375.030565" style="fill: #ff0000; stroke: #ff0000"/>
     <use xlink:href="#me3cdbcc8f9" x="165.26284" y="375.17104" style="fill: #ff0000; stroke: #ff0000"/>
     <use xlink:href="#me3cdbcc8f9" x="175.377644" y="374.4778" style="fill: #ff0000; stroke: #ff0000"/>
     <use xlink:href="#me3cdbcc8f9" x="185.492447" y="375.575725" style="fill: #ff0000; stroke: #ff0000"/>
     <use xlink:href="#me3cdbcc8f9" x="195.607251" y="375.783195" style="fill: #ff0000; stroke: #ff0000"/>
     <use xlink:href="#me3cdbcc8f9" x="205.722054" y="377.096435" style="fill: #ff0000; stroke: #ff0000"/>
     <use xlink:href="#me3cdbcc8f9" x="215.836858" y="376.980785" style="fill: #ff0000; stroke: #ff0000"/>
     <use xlink:href="#me3cdbcc8f9" x="225.951662" y="376.86681" style="fill: #ff0000; stroke: #ff0000"/>
     <use xlink:href="#me3cdbcc8f9" x="236.066465" y="378.030453" style="fill: #ff0000; stroke: #ff0000"/>
     <use xlink:href="#me3cdbcc8f9" x="246.181269" y="377.015845" style="fill: #ff0000; stroke: #ff0000"/>
     <use xlink:href="#me3cdbcc8f9" x="256.296073" y="377.580125" style="fill: #ff0000; stroke: #ff0000"/>
     <use xlink:href="#me3cdbcc8f9" x="266.410876" y="376.700345" style="fill: #ff0000; stroke: #ff0000"/>
     <use xlink:href="#me3cdbcc8f9" x="276.52568" y="376.359973" style="fill: #ff0000; stroke: #ff0000"/>
     <use xlink:href="#me3cdbcc8f9" x="286.640483" y="376.27636" style="fill: #ff0000; stroke: #ff0000"/>
     <use xlink:href="#me3cdbcc8f9" x="296.755287" y="377.167265" style="fill: #ff0000; stroke: #ff0000"/>
     <use xlink:href="#me3cdbcc8f9" x="306.870091" y="380.170795" style="fill: #ff0000; stroke: #ff0000"/>
     <use xlink:href="#me3cdbcc8f9" x="316.984894" y="380.345009" style="fill: #ff0000; stroke: #ff0000"/>
     <use xlink:href="#me3cdbcc8f9" x="327.099698" y="382.844514" style="fill: #ff0000; stroke: #ff0000"/>
     <use xlink:href="#me3cdbcc8f9" x="337.214502" y="386.320778" style="fill: #ff0000; stroke: #ff0000"/>
     <use xlink:href="#me3cdbcc8f9" x="347.329305" y="378.374941" style="fill: #ff0000; stroke: #ff0000"/>
     <use xlink:href="#me3cdbcc8f9" x="357.444109" y="384.861702" style="fill: #ff0000; stroke: #ff0000"/>
     <use xlink:href="#me3cdbcc8f9" x="367.558912" y="399.241925" style="fill: #ff0000; stroke: #ff0000"/>
     <use xlink:href="#me3cdbcc8f9" x="377.673716" y="376.602353" style="fill: #ff0000; stroke: #ff0000"/>
    </g>
   </g>
   <g id="PathCollection_6">
    <g clip-path="url(#p6f1bf0460a)">
     <use xlink:href="#mc8a644dc7d" x="54" y="370.538182" style="fill: #0000ff; stroke: #0000ff"/>
     <use xlink:href="#mc8a644dc7d" x="64.114804" y="370.538182" style="fill: #0000ff; stroke: #0000ff"/>
     <use xlink:href="#mc8a644dc7d" x="74.229607" y="370.538182" style="fill: #0000ff; stroke: #0000ff"/>
     <use xlink:href="#mc8a644dc7d" x="84.344411" y="370.538182" style="fill: #0000ff; stroke: #0000ff"/>
     <use xlink:href="#mc8a644dc7d" x="94.459215" y="370.538182" style="fill: #0000ff; stroke: #0000ff"/>
     <use xlink:href="#mc8a644dc7d" x="104.574018" y="370.538182" style="fill: #0000ff; stroke: #0000ff"/>
     <use xlink:href="#mc8a644dc7d" x="114.688822" y="370.538182" style="fill: #0000ff; stroke: #0000ff"/>
     <use xlink:href="#mc8a644dc7d" x="124.803625" y="370.538182" style="fill: #0000ff; stroke: #0000ff"/>
     <use xlink:href="#mc8a644dc7d" x="134.918429" y="370.538182" style="fill: #0000ff; stroke: #0000ff"/>
     <use xlink:href="#mc8a644dc7d" x="145.033233" y="370.538182" style="fill: #0000ff; stroke: #0000ff"/>
     <use xlink:href="#mc8a644dc7d" x="155.148036" y="370.538182" style="fill: #0000ff; stroke: #0000ff"/>
     <use xlink:href="#mc8a644dc7d" x="165.26284" y="370.538182" style="fill: #0000ff; stroke: #0000ff"/>
     <use xlink:href="#mc8a644dc7d" x="175.377644" y="370.538182" style="fill: #0000ff; stroke: #0000ff"/>
     <use xlink:href="#mc8a644dc7d" x="185.492447" y="370.538182" style="fill: #0000ff; stroke: #0000ff"/>
     <use xlink:href="#mc8a644dc7d" x="195.607251" y="370.538182" style="fill: #0000ff; stroke: #0000ff"/>
     <use xlink:href="#mc8a644dc7d" x="205.722054" y="372.032253" style="fill: #0000ff; stroke: #0000ff"/>
     <use xlink:href="#mc8a644dc7d" x="215.836858" y="372.30042" style="fill: #0000ff; stroke: #0000ff"/>
     <use xlink:href="#mc8a644dc7d" x="225.951662" y="372.579586" style="fill: #0000ff; stroke: #0000ff"/>
     <use xlink:href="#mc8a644dc7d" x="236.066465" y="372.908088" style="fill: #0000ff; stroke: #0000ff"/>
     <use xlink:href="#mc8a644dc7d" x="246.181269" y="373.287273" style="fill: #0000ff; stroke: #0000ff"/>
     <use xlink:href="#mc8a644dc7d" x="256.296073" y="370.538182" style="fill: #0000ff; stroke: #0000ff"/>
     <use xlink:href="#mc8a644dc7d" x="266.410876" y="370.538182" style="fill: #0000ff; stroke: #0000ff"/>
     <use xlink:href="#mc8a644dc7d" x="276.52568" y="370.538182" style="fill: #0000ff; stroke: #0000ff"/>
     <use xlink:href="#mc8a644dc7d" x="286.640483" y="370.538182" style="fill: #0000ff; stroke: #0000ff"/>
     <use xlink:href="#mc8a644dc7d" x="296.755287" y="370.538182" style="fill: #0000ff; stroke: #0000ff"/>
     <use xlink:href="#mc8a644dc7d" x="306.870091" y="370.538182" style="fill: #0000ff; stroke: #0000ff"/>
     <use xlink:href="#mc8a644dc7d" x="316.984894" y="370.538182" style="fill: #0000ff; stroke: #0000ff"/>
     <use xlink:href="#mc8a644dc7d" x="327.099698" y="370.538182" style="fill: #0000ff; stroke: #0000ff"/>
     <use xlink:href="#mc8a644dc7d" x="337.214502" y="387.72" style="fill: #0000ff; stroke: #0000ff"/>
     <use xlink:href="#mc8a644dc7d" x="347.329305" y="370.538182" style="fill: #0000ff; stroke: #0000ff"/>
     <use xlink:href="#mc8a644dc7d" x="357.444109" y="370.538182" style="fill: #0000ff; stroke: #0000ff"/>
     <use xlink:href="#mc8a644dc7d" x="367.558912" y="370.538182" style="fill: #0000ff; stroke: #0000ff"/>
     <use xlink:href="#mc8a644dc7d" x="377.673716" y="370.538182" style="fill: #0000ff; stroke: #0000ff"/>
    </g>
   </g>
   <g id="PolyCollection_3">
    <defs>
     <path id="m60eb35e571" d="M 54 -277.88297 
L 54 -264.240447 
L 64.114804 -271.79212 
L 74.229607 -270.887502 
L 84.344411 -271.404506 
L 94.459215 -270.216432 
L 104.574018 -270.526142 
L 114.688822 -269.463242 
L 124.803625 -268.032767 
L 134.918429 -268.03963 
L 145.033233 -267.722291 
L 155.148036 -268.659641 
L 165.26284 -267.713014 
L 175.377644 -269.251939 
L 185.492447 -267.076346 
L 195.607251 -266.61497 
L 205.722054 -265.240191 
L 215.836858 -264.034692 
L 225.951662 -264.732463 
L 236.066465 -263.866562 
L 246.181269 -265.492165 
L 256.296073 -263.973475 
L 266.410876 -263.500124 
L 276.52568 -263.852045 
L 286.640483 -263.245531 
L 296.755287 -262.566355 
L 306.870091 -257.926455 
L 316.984894 -257.896901 
L 327.099698 -254.636866 
L 337.214502 -251.425721 
L 347.329305 -262.754978 
L 357.444109 -251.676366 
L 367.558912 -244.906809 
L 377.673716 -262.821614 
L 377.673716 -279.97368 
L 377.673716 -279.97368 
L 367.558912 -252.609341 
L 357.444109 -274.600231 
L 347.329305 -276.49514 
L 337.214502 -271.932723 
L 327.099698 -275.674105 
L 316.984894 -277.413081 
L 306.870091 -277.731954 
L 296.755287 -279.099116 
L 286.640483 -280.201748 
L 276.52568 -279.428009 
L 266.410876 -279.099187 
L 256.296073 -276.866276 
L 246.181269 -276.476144 
L 236.066465 -276.072532 
L 225.951662 -277.533916 
L 215.836858 -278.003739 
L 205.722054 -276.566939 
L 195.607251 -277.818641 
L 185.492447 -277.772204 
L 175.377644 -277.792462 
L 165.26284 -277.944906 
L 155.148036 -277.279228 
L 145.033233 -277.242601 
L 134.918429 -276.67834 
L 124.803625 -276.954066 
L 114.688822 -277.29604 
L 104.574018 -277.525573 
L 94.459215 -277.2485 
L 84.344411 -277.581695 
L 74.229607 -277.787845 
L 64.114804 -278.125131 
L 54 -277.88297 
z
" style="stroke: #ff0000; stroke-opacity: 0.2"/>
    </defs>
    <g clip-path="url(#p6f1bf0460a)">
     <use xlink:href="#m60eb35e571" x="0" y="648" style="fill: #ff0000; fill-opacity: 0.2; stroke: #ff0000; stroke-opacity: 0.2"/>
    </g>
   </g>
   <g id="PolyCollection_4">
    <defs>
     <path id="m6c745385a6" d="M 54 -277.461818 
L 54 -277.461818 
L 64.114804 -277.461818 
L 74.229607 -277.461818 
L 84.344411 -277.461818 
L 94.459215 -277.461818 
L 104.574018 -277.461818 
L 114.688822 -277.461818 
L 124.803625 -277.461818 
L 134.918429 -277.461818 
L 145.033233 -277.461818 
L 155.148036 -277.461818 
L 165.26284 -277.461818 
L 175.377644 -277.461818 
L 185.492447 -277.461818 
L 195.607251 -277.461818 
L 205.722054 -258.416385 
L 215.836858 -256.638065 
L 225.951662 -254.904556 
L 236.066465 -252.986901 
L 246.181269 -250.904902 
L 256.296073 -277.461818 
L 266.410876 -277.461818 
L 276.52568 -277.461818 
L 286.640483 -277.461818 
L 296.755287 -277.461818 
L 306.870091 -277.461818 
L 316.984894 -277.461818 
L 327.099698 -277.461818 
L 337.214502 -200.760436 
L 347.329305 -277.461818 
L 357.444109 -277.461818 
L 367.558912 -277.461818 
L 377.673716 -277.461818 
L 377.673716 -277.461818 
L 377.673716 -277.461818 
L 367.558912 -277.461818 
L 357.444109 -277.461818 
L 347.329305 -277.461818 
L 337.214502 -319.799564 
L 327.099698 -277.461818 
L 316.984894 -277.461818 
L 306.870091 -277.461818 
L 296.755287 -277.461818 
L 286.640483 -277.461818 
L 276.52568 -277.461818 
L 266.410876 -277.461818 
L 256.296073 -277.461818 
L 246.181269 -298.520553 
L 236.066465 -297.196923 
L 225.951662 -295.936272 
L 215.836858 -294.761096 
L 205.722054 -293.519109 
L 195.607251 -277.461818 
L 185.492447 -277.461818 
L 175.377644 -277.461818 
L 165.26284 -277.461818 
L 155.148036 -277.461818 
L 145.033233 -277.461818 
L 134.918429 -277.461818 
L 124.803625 -277.461818 
L 114.688822 -277.461818 
L 104.574018 -277.461818 
L 94.459215 -277.461818 
L 84.344411 -277.461818 
L 74.229607 -277.461818 
L 64.114804 -277.461818 
L 54 -277.461818 
z
" style="stroke: #0000ff; stroke-opacity: 0.2"/>
    </defs>
    <g clip-path="url(#p6f1bf0460a)">
     <use xlink:href="#m6c745385a6" x="0" y="648" style="fill: #0000ff; fill-opacity: 0.2; stroke: #0000ff; stroke-opacity: 0.2"/>
    </g>
   </g>
   <g id="matplotlib.axis_3">
    <g id="xtick_8">
     <g id="line2d_27">
      <path d="M 54 576.72 
L 54 349.92 
" clip-path="url(#p6f1bf0460a)" style="fill: none; stroke: #b0b0b0; stroke-width: 0.8; stroke-linecap: square"/>
     </g>
     <g id="line2d_28">
      <g>
       <use xlink:href="#m5caf0d3073" x="54" y="576.72" style="stroke: #000000; stroke-width: 0.8"/>
      </g>
     </g>
     <g id="text_18">
      <!-- 0 -->
      <g transform="translate(50.81875 591.318438) scale(0.1 -0.1)">
       <use xlink:href="#DejaVuSans-30"/>
      </g>
     </g>
    </g>
    <g id="xtick_9">
     <g id="line2d_29">
      <path d="M 104.574018 576.72 
L 104.574018 349.92 
" clip-path="url(#p6f1bf0460a)" style="fill: none; stroke: #b0b0b0; stroke-width: 0.8; stroke-linecap: square"/>
     </g>
     <g id="line2d_30">
      <g>
       <use xlink:href="#m5caf0d3073" x="104.574018" y="576.72" style="stroke: #000000; stroke-width: 0.8"/>
      </g>
     </g>
     <g id="text_19">
      <!-- 5 -->
      <g transform="translate(101.392768 591.318438) scale(0.1 -0.1)">
       <use xlink:href="#DejaVuSans-35"/>
      </g>
     </g>
    </g>
    <g id="xtick_10">
     <g id="line2d_31">
      <path d="M 155.148036 576.72 
L 155.148036 349.92 
" clip-path="url(#p6f1bf0460a)" style="fill: none; stroke: #b0b0b0; stroke-width: 0.8; stroke-linecap: square"/>
     </g>
     <g id="line2d_32">
      <g>
       <use xlink:href="#m5caf0d3073" x="155.148036" y="576.72" style="stroke: #000000; stroke-width: 0.8"/>
      </g>
     </g>
     <g id="text_20">
      <!-- 10 -->
      <g transform="translate(148.785536 591.318438) scale(0.1 -0.1)">
       <use xlink:href="#DejaVuSans-31"/>
       <use xlink:href="#DejaVuSans-30" x="63.623047"/>
      </g>
     </g>
    </g>
    <g id="xtick_11">
     <g id="line2d_33">
      <path d="M 205.722054 576.72 
L 205.722054 349.92 
" clip-path="url(#p6f1bf0460a)" style="fill: none; stroke: #b0b0b0; stroke-width: 0.8; stroke-linecap: square"/>
     </g>
     <g id="line2d_34">
      <g>
       <use xlink:href="#m5caf0d3073" x="205.722054" y="576.72" style="stroke: #000000; stroke-width: 0.8"/>
      </g>
     </g>
     <g id="text_21">
      <!-- 15 -->
      <g transform="translate(199.359554 591.318438) scale(0.1 -0.1)">
       <use xlink:href="#DejaVuSans-31"/>
       <use xlink:href="#DejaVuSans-35" x="63.623047"/>
      </g>
     </g>
    </g>
    <g id="xtick_12">
     <g id="line2d_35">
      <path d="M 256.296073 576.72 
L 256.296073 349.92 
" clip-path="url(#p6f1bf0460a)" style="fill: none; stroke: #b0b0b0; stroke-width: 0.8; stroke-linecap: square"/>
     </g>
     <g id="line2d_36">
      <g>
       <use xlink:href="#m5caf0d3073" x="256.296073" y="576.72" style="stroke: #000000; stroke-width: 0.8"/>
      </g>
     </g>
     <g id="text_22">
      <!-- 20 -->
      <g transform="translate(249.933573 591.318438) scale(0.1 -0.1)">
       <use xlink:href="#DejaVuSans-32"/>
       <use xlink:href="#DejaVuSans-30" x="63.623047"/>
      </g>
     </g>
    </g>
    <g id="xtick_13">
     <g id="line2d_37">
      <path d="M 306.870091 576.72 
L 306.870091 349.92 
" clip-path="url(#p6f1bf0460a)" style="fill: none; stroke: #b0b0b0; stroke-width: 0.8; stroke-linecap: square"/>
     </g>
     <g id="line2d_38">
      <g>
       <use xlink:href="#m5caf0d3073" x="306.870091" y="576.72" style="stroke: #000000; stroke-width: 0.8"/>
      </g>
     </g>
     <g id="text_23">
      <!-- 25 -->
      <g transform="translate(300.507591 591.318438) scale(0.1 -0.1)">
       <use xlink:href="#DejaVuSans-32"/>
       <use xlink:href="#DejaVuSans-35" x="63.623047"/>
      </g>
     </g>
    </g>
    <g id="xtick_14">
     <g id="line2d_39">
      <path d="M 357.444109 576.72 
L 357.444109 349.92 
" clip-path="url(#p6f1bf0460a)" style="fill: none; stroke: #b0b0b0; stroke-width: 0.8; stroke-linecap: square"/>
     </g>
     <g id="line2d_40">
      <g>
       <use xlink:href="#m5caf0d3073" x="357.444109" y="576.72" style="stroke: #000000; stroke-width: 0.8"/>
      </g>
     </g>
     <g id="text_24">
      <!-- 30 -->
      <g transform="translate(351.081609 591.318438) scale(0.1 -0.1)">
       <use xlink:href="#DejaVuSans-33"/>
       <use xlink:href="#DejaVuSans-30" x="63.623047"/>
      </g>
     </g>
    </g>
    <g id="text_25">
     <!-- Number of Box -->
     <g transform="translate(165.335156 608.795781) scale(0.15 -0.15)">
      <use xlink:href="#DejaVuSans-4e"/>
      <use xlink:href="#DejaVuSans-75" x="74.804688"/>
      <use xlink:href="#DejaVuSans-6d" x="138.183594"/>
      <use xlink:href="#DejaVuSans-62" x="235.595703"/>
      <use xlink:href="#DejaVuSans-65" x="299.072266"/>
      <use xlink:href="#DejaVuSans-72" x="360.595703"/>
      <use xlink:href="#DejaVuSans-20" x="401.708984"/>
      <use xlink:href="#DejaVuSans-6f" x="433.496094"/>
      <use xlink:href="#DejaVuSans-66" x="494.677734"/>
      <use xlink:href="#DejaVuSans-20" x="529.882812"/>
      <use xlink:href="#DejaVuSans-42" x="561.669922"/>
      <use xlink:href="#DejaVuSans-6f" x="630.273438"/>
      <use xlink:href="#DejaVuSans-78" x="688.330078"/>
     </g>
    </g>
   </g>
   <g id="matplotlib.axis_4">
    <g id="ytick_7">
     <g id="line2d_41">
      <path d="M 54 576.72 
L 388.8 576.72 
" clip-path="url(#p6f1bf0460a)" style="fill: none; stroke: #b0b0b0; stroke-width: 0.8; stroke-linecap: square"/>
     </g>
     <g id="line2d_42">
      <g>
       <use xlink:href="#m76a8933051" x="54" y="576.72" style="stroke: #000000; stroke-width: 0.8"/>
      </g>
     </g>
     <g id="text_26">
      <!-- 0.0 -->
      <g transform="translate(31.096875 580.519219) scale(0.1 -0.1)">
       <use xlink:href="#DejaVuSans-30"/>
       <use xlink:href="#DejaVuSans-2e" x="63.623047"/>
       <use xlink:href="#DejaVuSans-30" x="95.410156"/>
      </g>
     </g>
    </g>
    <g id="ytick_8">
     <g id="line2d_43">
      <path d="M 54 535.483636 
L 388.8 535.483636 
" clip-path="url(#p6f1bf0460a)" style="fill: none; stroke: #b0b0b0; stroke-width: 0.8; stroke-linecap: square"/>
     </g>
     <g id="line2d_44">
      <g>
       <use xlink:href="#m76a8933051" x="54" y="535.483636" style="stroke: #000000; stroke-width: 0.8"/>
      </g>
     </g>
     <g id="text_27">
      <!-- 0.2 -->
      <g transform="translate(31.096875 539.282855) scale(0.1 -0.1)">
       <use xlink:href="#DejaVuSans-30"/>
       <use xlink:href="#DejaVuSans-2e" x="63.623047"/>
       <use xlink:href="#DejaVuSans-32" x="95.410156"/>
      </g>
     </g>
    </g>
    <g id="ytick_9">
     <g id="line2d_45">
      <path d="M 54 494.247273 
L 388.8 494.247273 
" clip-path="url(#p6f1bf0460a)" style="fill: none; stroke: #b0b0b0; stroke-width: 0.8; stroke-linecap: square"/>
     </g>
     <g id="line2d_46">
      <g>
       <use xlink:href="#m76a8933051" x="54" y="494.247273" style="stroke: #000000; stroke-width: 0.8"/>
      </g>
     </g>
     <g id="text_28">
      <!-- 0.4 -->
      <g transform="translate(31.096875 498.046491) scale(0.1 -0.1)">
       <use xlink:href="#DejaVuSans-30"/>
       <use xlink:href="#DejaVuSans-2e" x="63.623047"/>
       <use xlink:href="#DejaVuSans-34" x="95.410156"/>
      </g>
     </g>
    </g>
    <g id="ytick_10">
     <g id="line2d_47">
      <path d="M 54 453.010909 
L 388.8 453.010909 
" clip-path="url(#p6f1bf0460a)" style="fill: none; stroke: #b0b0b0; stroke-width: 0.8; stroke-linecap: square"/>
     </g>
     <g id="line2d_48">
      <g>
       <use xlink:href="#m76a8933051" x="54" y="453.010909" style="stroke: #000000; stroke-width: 0.8"/>
      </g>
     </g>
     <g id="text_29">
      <!-- 0.6 -->
      <g transform="translate(31.096875 456.810128) scale(0.1 -0.1)">
       <use xlink:href="#DejaVuSans-30"/>
       <use xlink:href="#DejaVuSans-2e" x="63.623047"/>
       <use xlink:href="#DejaVuSans-36" x="95.410156"/>
      </g>
     </g>
    </g>
    <g id="ytick_11">
     <g id="line2d_49">
      <path d="M 54 411.774545 
L 388.8 411.774545 
" clip-path="url(#p6f1bf0460a)" style="fill: none; stroke: #b0b0b0; stroke-width: 0.8; stroke-linecap: square"/>
     </g>
     <g id="line2d_50">
      <g>
       <use xlink:href="#m76a8933051" x="54" y="411.774545" style="stroke: #000000; stroke-width: 0.8"/>
      </g>
     </g>
     <g id="text_30">
      <!-- 0.8 -->
      <g transform="translate(31.096875 415.573764) scale(0.1 -0.1)">
       <use xlink:href="#DejaVuSans-30"/>
       <use xlink:href="#DejaVuSans-2e" x="63.623047"/>
       <use xlink:href="#DejaVuSans-38" x="95.410156"/>
      </g>
     </g>
    </g>
    <g id="ytick_12">
     <g id="line2d_51">
      <path d="M 54 370.538182 
L 388.8 370.538182 
" clip-path="url(#p6f1bf0460a)" style="fill: none; stroke: #b0b0b0; stroke-width: 0.8; stroke-linecap: square"/>
     </g>
     <g id="line2d_52">
      <g>
       <use xlink:href="#m76a8933051" x="54" y="370.538182" style="stroke: #000000; stroke-width: 0.8"/>
      </g>
     </g>
     <g id="text_31">
      <!-- 1.0 -->
      <g transform="translate(31.096875 374.337401) scale(0.1 -0.1)">
       <use xlink:href="#DejaVuSans-31"/>
       <use xlink:href="#DejaVuSans-2e" x="63.623047"/>
       <use xlink:href="#DejaVuSans-30" x="95.410156"/>
      </g>
     </g>
    </g>
    <g id="text_32">
     <!-- Recall -->
     <g transform="translate(23.977344 485.695781) rotate(-90) scale(0.15 -0.15)">
      <defs>
       <path id="DejaVuSans-52" d="M 2841 2188 
Q 3044 2119 3236 1894 
Q 3428 1669 3622 1275 
L 4263 0 
L 3584 0 
L 2988 1197 
Q 2756 1666 2539 1819 
Q 2322 1972 1947 1972 
L 1259 1972 
L 1259 0 
L 628 0 
L 628 4666 
L 2053 4666 
Q 2853 4666 3247 4331 
Q 3641 3997 3641 3322 
Q 3641 2881 3436 2590 
Q 3231 2300 2841 2188 
z
M 1259 4147 
L 1259 2491 
L 2053 2491 
Q 2509 2491 2742 2702 
Q 2975 2913 2975 3322 
Q 2975 3731 2742 3939 
Q 2509 4147 2053 4147 
L 1259 4147 
z
" transform="scale(0.015625)"/>
       <path id="DejaVuSans-6c" d="M 603 4863 
L 1178 4863 
L 1178 0 
L 603 0 
L 603 4863 
z
" transform="scale(0.015625)"/>
      </defs>
      <use xlink:href="#DejaVuSans-52"/>
      <use xlink:href="#DejaVuSans-65" x="64.982422"/>
      <use xlink:href="#DejaVuSans-63" x="126.505859"/>
      <use xlink:href="#DejaVuSans-61" x="181.486328"/>
      <use xlink:href="#DejaVuSans-6c" x="242.765625"/>
      <use xlink:href="#DejaVuSans-6c" x="270.548828"/>
     </g>
    </g>
   </g>
   <g id="patch_9">
    <path d="M 54 576.72 
L 54 349.92 
" style="fill: none; stroke: #000000; stroke-width: 0.8; stroke-linejoin: miter; stroke-linecap: square"/>
   </g>
   <g id="patch_10">
    <path d="M 388.8 576.72 
L 388.8 349.92 
" style="fill: none; stroke: #000000; stroke-width: 0.8; stroke-linejoin: miter; stroke-linecap: square"/>
   </g>
   <g id="patch_11">
    <path d="M 54 576.72 
L 388.8 576.72 
" style="fill: none; stroke: #000000; stroke-width: 0.8; stroke-linejoin: miter; stroke-linecap: square"/>
   </g>
   <g id="patch_12">
    <path d="M 54 349.92 
L 388.8 349.92 
" style="fill: none; stroke: #000000; stroke-width: 0.8; stroke-linejoin: miter; stroke-linecap: square"/>
   </g>
   <g id="legend_2">
    <g id="patch_13">
     <path d="M 64.5 569.22 
L 148.48125 569.22 
Q 151.48125 569.22 151.48125 566.22 
L 151.48125 523.685625 
Q 151.48125 520.685625 148.48125 520.685625 
L 64.5 520.685625 
Q 61.5 520.685625 61.5 523.685625 
L 61.5 566.22 
Q 61.5 569.22 64.5 569.22 
z
" style="fill: #ffffff; opacity: 0.8; stroke: #cccccc; stroke-linejoin: miter"/>
    </g>
    <g id="PathCollection_7">
     <g>
      <use xlink:href="#me3cdbcc8f9" x="82.5" y="534.145781" style="fill: #ff0000; stroke: #ff0000"/>
     </g>
    </g>
    <g id="text_33">
     <!-- Train -->
     <g transform="translate(109.5 538.083281) scale(0.15 -0.15)">
      <use xlink:href="#DejaVuSans-54"/>
      <use xlink:href="#DejaVuSans-72" x="46.333984"/>
      <use xlink:href="#DejaVuSans-61" x="87.447266"/>
      <use xlink:href="#DejaVuSans-69" x="148.726562"/>
      <use xlink:href="#DejaVuSans-6e" x="176.509766"/>
     </g>
    </g>
    <g id="PathCollection_8">
     <g>
      <use xlink:href="#mc8a644dc7d" x="82.5" y="556.162969" style="fill: #0000ff; stroke: #0000ff"/>
     </g>
    </g>
    <g id="text_34">
     <!-- Test -->
     <g transform="translate(109.5 560.100469) scale(0.15 -0.15)">
      <use xlink:href="#DejaVuSans-54"/>
      <use xlink:href="#DejaVuSans-65" x="44.083984"/>
      <use xlink:href="#DejaVuSans-73" x="105.607422"/>
      <use xlink:href="#DejaVuSans-74" x="157.707031"/>
     </g>
    </g>
   </g>
  </g>
 </g>
 <defs>
  <clipPath id="p299f20eca2">
   <rect x="54" y="77.76" width="334.8" height="226.8"/>
  </clipPath>
  <clipPath id="p6f1bf0460a">
   <rect x="54" y="349.92" width="334.8" height="226.8"/>
  </clipPath>
 </defs>
</svg>
